<?xml version="1.0" encoding="iso-8859-1"?>
<!-- Generator: Adobe Illustrator 19.0.0, SVG Export Plug-In . SVG Version: 6.00 Build 0)  -->
<svg version="1.1" id="Capa_1" xmlns="http://www.w3.org/2000/svg" xmlns:xlink="http://www.w3.org/1999/xlink" x="0px" y="0px"
	 viewBox="0 0 512 512" style="enable-background:new 0 0 512 512;" xml:space="preserve">
<g>
	<g>
		<path d="M139.421,334.214l-31.327-148.326c-0.923-4.369-5.213-7.164-9.58-6.239c-4.369,0.922-7.161,5.212-6.239,9.58
			l31.327,148.326c0.803,3.806,4.161,6.416,7.901,6.416c0.554,0,1.116-0.058,1.679-0.177
			C137.551,342.871,140.344,338.582,139.421,334.214z"/>
	</g>
</g>
<g>
	<g>
		<path d="M112.474,334.216L81.147,185.888c-0.921-4.368-5.215-7.162-9.579-6.238c-4.369,0.922-7.162,5.212-6.239,9.58
			l31.326,148.326c0.803,3.805,4.161,6.416,7.901,6.416c0.554,0,1.116-0.058,1.679-0.177
			C110.604,342.872,113.396,338.583,112.474,334.216z"/>
	</g>
</g>
<g>
	<g>
		<path d="M503.916,153.88c4.466,0,8.084-3.618,8.084-8.084v-31.458c0-20.62-16.775-37.394-37.393-37.394H37.393
			C16.775,76.942,0,93.716,0,114.336v283.325c0,20.62,16.775,37.395,37.393,37.395h437.212c20.619,0,37.393-16.776,37.393-37.395
			V172.024c0-4.466-3.619-8.084-8.084-8.084s-8.084,3.618-8.084,8.084v225.637c0,11.705-9.522,21.227-21.225,21.227H37.393
			c-11.703,0-21.225-9.522-21.225-21.227V114.338c0-11.704,9.522-21.226,21.225-21.226h437.212c11.703,0,21.225,9.522,21.225,21.226
			v31.458C495.832,150.26,499.45,153.88,503.916,153.88z"/>
	</g>
</g>
<g>
	<g>
		<path d="M415.886,180.289h-32.162h-18.621c-4.68,0-8.895,1.989-11.848,5.166c-2.951-3.178-7.168-5.166-11.848-5.166h-9.593
			c-0.086,0-0.172,0.01-0.259,0.012c0.011,0,0.022-0.002,0.032-0.002c-0.065,0-0.128-0.01-0.193-0.01H295.28h-9.03
			c-4.779,0-9.129,2.088-12.109,5.455c-1.407-1.443-3.077-2.62-4.928-3.457c-2.32-1.277-4.979-1.998-7.788-1.998h-52.474
			c-4.373,0-8.389,1.748-11.324,4.628c-2.935-2.879-6.949-4.628-11.324-4.628h-1.61H138.99c-4.875,0-9.489,2.199-12.56,5.986
			c-3.07,3.787-4.267,8.755-3.26,13.524l27.647,130.902c1.579,7.479,8.177,12.829,15.819,12.829h53.038h4.514
			c4.499,0,8.612-1.85,11.567-4.871c2.953,3.021,7.07,4.871,11.566,4.871h0.564h55.859h0.564c3.625,0,7.008-1.216,9.741-3.281
			c1.513,0.55,3.045,1.054,4.608,1.468c9.206,3.159,20.41,4.633,35.162,4.633h2.259c0.444,0,0.882-0.018,1.318-0.054
			c22.927-0.527,40.958-6.132,53.604-16.669c0.133-0.111,0.265-0.224,0.393-0.34c13.71-12.189,20.661-30.113,20.661-53.275v-79.555
			C432.054,187.528,424.814,180.289,415.886,180.289z M297.036,322.643c0,0.001,0,0.001,0,0.002
			c-0.698,3.319-2.631,4.406-4.221,4.718h-44.932h-0.564l-11.565-82.617l-11.568,82.617h-4.514h-53.038L138.99,196.461h45.703
			v-0.001h1.61l11.061,75.336l11.587-75.336h52.474l0.086,0.565h1.044l11.572,80.451l12.122-81.016h9.03h6.242h13.769h8.26
			L297.036,322.643z M415.885,276.015L415.885,276.015c0,18.62-5.08,32.162-15.236,41.192c-9.781,8.15-24.816,12.626-44.567,12.945
			l-0.007,0.03h-2.259c-12.413,0-22.567-1.13-30.468-3.951c-3.556-0.887-6.792-2.251-9.724-3.91l26.1-124.199
			c0.117-0.558,0.172-1.113,0.172-1.662h1.509v81.25c0,5.64,0.566,10.156,2.821,12.976c2.257,2.821,5.08,4.514,9.025,4.514
			c3.388,0,6.211-1.693,8.465-4.514c2.257-2.82,3.386-7.336,3.386-12.411V196.46h18.621h32.162V276.015z"/>
	</g>
</g>
<g>
</g>
<g>
</g>
<g>
</g>
<g>
</g>
<g>
</g>
<g>
</g>
<g>
</g>
<g>
</g>
<g>
</g>
<g>
</g>
<g>
</g>
<g>
</g>
<g>
</g>
<g>
</g>
<g>
</g>
</svg>
