<svg version="1.0" xmlns="http://www.w3.org/2000/svg" width="1706.667" height="853.333" viewBox="0 0 1280 640"><path d="M0 176.5v5.5h6.4c9.3 0 9.6.7 9.6 18.7 0 17.4-.5 18.3-10 18.3H0v204h7.3c10.7 0 10.7.1 10.7 18.8 0 18.3.1 18.2-10.6 18.2H0v9h1280v-65h-31V238h31v-67H0v5.5zm55.8 6.7c.8.8 1.2 6 1.2 16.9 0 13-.3 16-1.6 17.3-1.2 1.2-3.8 1.6-11.6 1.6-14.3 0-13.8.6-13.8-19 0-10.8.4-16 1.2-16.8 1.7-1.7 22.9-1.7 24.6 0zm42.2.7c.5 1.1 1 8.5 1 16.7 0 18.9.4 18.4-13.7 18.4-14.5 0-14.3.3-14.3-18.7S70.5 182 85.6 182c10.2 0 11.4.2 12.4 1.9zm41.4.3c1.3 1.8 1.6 5.2 1.6 16.5 0 18.5.1 18.3-14.2 18.3-14.2 0-13.8.5-13.8-18.2 0-8.4.5-15.8 1-16.9 1-1.7 2.2-1.9 12.5-1.9 10.6 0 11.5.1 12.9 2.2zm41.4-1c.8.8 1.2 6 1.2 16.7 0 19.7.4 19.1-13.6 19.1-8 0-10.6-.3-11.8-1.6-1.3-1.3-1.6-4.3-1.6-17.3 0-10.9.4-16.1 1.2-16.9 1.7-1.7 22.9-1.7 24.6 0zm42.2.7c.5 1.1 1 8.4 1 16.5 0 18.8.2 18.6-14 18.6-14.1 0-14 .2-14-18.3 0-19.2-.4-18.7 14.5-18.7 10.3 0 11.5.2 12.5 1.9zm41.6.5c1.3 2.1 1.5 5 1.2 17.1-.4 18 .1 17.5-14.2 17.5-14 0-13.6.6-13.6-19 0-10.8.4-16 1.2-16.8.8-.8 5-1.2 12.5-1.2 10.8 0 11.3.1 12.9 2.4zm41.2-1.2c.8.8 1.2 6 1.2 16.7 0 19.7.4 19.1-13.6 19.1-14.6 0-14.8-.3-14.2-20.7.2-9.1.7-13.5 1.7-14.6 1.1-1.4 3.4-1.7 12.5-1.7 7.4 0 11.6.4 12.4 1.2zm41.6.4c1.3 1.3 1.6 4.2 1.6 16.6 0 19.4.4 18.8-13.7 18.8-14.5 0-14.3.3-14.3-18.9 0-12.3.3-15.2 1.6-16.5 1.2-1.3 3.9-1.6 12.4-1.6s11.2.3 12.4 1.6zm42.2.8c1.3 2.1 1.5 5 1.2 17.1-.4 18 .1 17.5-14.2 17.5-14 0-13.6.6-13.6-19 0-10.8.4-16 1.2-16.8.8-.8 5-1.2 12.5-1.2 10.8 0 11.3.1 12.9 2.4zm41.2-1.2c.8.8 1.2 6 1.2 16.7 0 19.7.4 19.1-13.5 19.1-14.5 0-14 .7-14-18.3 0-11.6.3-15.8 1.4-17 1.1-1.4 3.3-1.7 12.5-1.7 7.4 0 11.6.4 12.4 1.2zm41.2-.2c1.2.7 1.6 4 1.8 16.4.4 19.9.6 19.6-13.8 19.6-14.2 0-14 .2-14-18.6 0-8.1.5-15.4 1-16.5 1-1.7 2.2-1.9 12.3-1.9 6.2 0 11.9.5 12.7 1zm41.8.2c.8.8 1.2 6 1.2 16.9 0 13-.3 16-1.6 17.3-1.2 1.2-3.8 1.6-11.6 1.6-14.3 0-13.8.6-13.8-19 0-10.8.4-16 1.2-16.8 1.7-1.7 22.9-1.7 24.6 0zm42 0c.8.8 1.2 6 1.2 16.7 0 19.7.4 19.1-13.7 19.1-14.5 0-14.3.2-14.3-18.3 0-19.2-.4-18.7 14.4-18.7 7.4 0 11.6.4 12.4 1.2zm41.4.5c1.6 1.4 1.8 3.3 1.8 16.5 0 19.1.2 18.8-14.2 18.8-14.2 0-13.8.5-13.8-18.2 0-8.4.5-15.8 1-16.9 1-1.7 2.2-1.9 12.2-1.9 9 0 11.5.3 13 1.7zm41.6-.5c.8.8 1.2 6 1.2 16.9 0 13-.3 16-1.6 17.3-1.2 1.3-3.8 1.6-11.9 1.6-8.1 0-10.7-.3-11.9-1.6-1.3-1.3-1.6-4.3-1.6-17.3 0-10.9.4-16.1 1.2-16.9 1.7-1.7 22.9-1.7 24.6 0zm42.2.7c.5 1.1 1 8.5 1 16.7 0 18.9.4 18.4-13.5 18.4-14.4 0-13.9.6-14.3-17.5-.5-20-.8-19.5 14.3-19.5 10.3 0 11.5.2 12.5 1.9zm41.6.5c1.3 2.1 1.5 5 1.2 17.1-.4 18 .1 17.5-14.2 17.5-14 0-13.6.5-13.6-18.2 0-8.4.5-15.8 1-16.9 1-1.7 2.2-1.9 12.5-1.9 11 0 11.5.1 13.1 2.4zm41.2-1.2c.8.8 1.2 6 1.2 16.7 0 19.7.4 19.1-13.6 19.1-8 0-10.6-.3-11.8-1.6-1.3-1.3-1.6-4.3-1.6-17.3 0-10.9.4-16.1 1.2-16.9 1.7-1.7 22.9-1.7 24.6 0zm42.2.7c.5 1.1 1 8.5 1 16.7 0 18.9.4 18.4-13.7 18.4-14.5 0-14.3.3-14.3-18.9 0-12.3.3-15.2 1.6-16.5 1.2-1.3 3.9-1.6 12.9-1.6 10.3 0 11.5.2 12.5 1.9zm41.4.3c1.3 1.8 1.6 5.2 1.6 16.5 0 18.5.1 18.3-14.2 18.3-14.3 0-13.8.6-13.8-19 0-10.8.4-16 1.2-16.8.8-.8 5-1.2 12.4-1.2 10.5 0 11.4.1 12.8 2.2zm41.4-1c.8.8 1.2 6 1.2 16.7 0 19.6.4 19.1-13.2 19.1-14.6 0-13.8 1-13.8-18.3 0-11.4.4-16.7 1.2-17.5 1.7-1.7 22.9-1.7 24.6 0zm41.6.4c1.3 1.3 1.6 4.2 1.6 16.5 0 19.2.2 18.9-14 18.9s-14 .3-14-18.9c0-12.3.3-15.2 1.6-16.5 1.2-1.3 3.9-1.6 12.4-1.6s11.2.3 12.4 1.6zm41.4-.4c.8.8 1.2 6.1 1.2 17.5 0 19.3.7 18.3-13.6 18.3-13.8 0-13.4.6-13.4-19 0-10.8.4-16 1.2-16.8 1.7-1.7 22.9-1.7 24.6 0zm42 0c.8.8 1.2 6 1.2 16.7 0 19.7.4 19.1-13.5 19.1-14.4 0-13.9.6-14.3-17.5-.5-19.9-.8-19.5 14.1-19.5 7.5 0 11.7.4 12.5 1.2zm41.6.4c1.3 1.3 1.6 4.2 1.6 16.5 0 19.2.2 18.9-14.2 18.9-14.2 0-13.8.5-13.8-18.2 0-8.4.5-15.8 1-16.9 1-1.7 2.2-1.9 12.5-1.9 9 0 11.7.3 12.9 1.6zm41.4-.4c.8.8 1.2 6 1.2 16.9 0 13-.3 16-1.6 17.3-1.2 1.2-3.8 1.6-11.6 1.6-14.3 0-13.8.6-13.8-19 0-10.8.4-16 1.2-16.8 1.7-1.7 22.9-1.7 24.6 0zm42.2.7c.5 1.1 1 8.5 1 16.7 0 18.9.4 18.4-13.5 18.4-14.4 0-13.9.6-14.3-17.5-.5-20-.8-19.5 14.3-19.5 10.3 0 11.5.2 12.5 1.9zm41.6.5c1.3 2.1 1.5 5 1.2 17.1-.4 18 .1 17.5-14.2 17.5-14 0-13.6.5-13.6-18.2 0-8.4.5-15.8 1-16.9 1-1.7 2.2-1.9 12.5-1.9 11 0 11.5.1 13.1 2.4zm41.2-1.2c.8.8 1.2 6 1.2 16.9 0 13-.3 16-1.6 17.3-1.2 1.3-3.8 1.6-11.9 1.6-8.1 0-10.7-.3-11.9-1.6-1.3-1.3-1.6-4.3-1.6-17.3 0-10.9.4-16.1 1.2-16.9 1.7-1.7 22.9-1.7 24.6 0zm42.2.7c.5 1.1 1 8.5 1 16.7 0 18.9.4 18.4-13.7 18.4-14.5 0-14.3.3-14.3-18.7s-.5-18.3 14.6-18.3c10.2 0 11.4.2 12.4 1.9zM246 319.5V403H24V236h222v83.5zm245 0V403H269V236h222v83.5zm246 0V403H514V236h223v83.5zm245 0V403H760V236h222v83.5zm245 0V403h-222V236h222v83.5zM58.7 426c.8 1.6 1.3 7.1 1.3 16 0 18.3.3 18-14 18-8.5 0-11.2-.3-12.4-1.6-1.3-1.3-1.6-4.2-1.6-16.6 0-19.6-.5-19 14.4-18.6 10.7.3 11.1.4 12.3 2.8zm40.7-1.4c1.3 1.3 1.6 4.3 1.6 17.3 0 10.9-.4 16.1-1.2 16.9-1.7 1.7-22.9 1.7-24.6 0-.8-.8-1.2-6.1-1.2-17.5 0-14.4.2-16.3 1.8-17.2.9-.6 6.3-1.1 11.9-1.1 7.9 0 10.5.3 11.7 1.6zm41.8.1c1.6 1.4 1.8 3.3 1.8 16.6 0 19.3.5 18.7-14.1 18.7-14.2 0-13.9.4-13.9-18.5s-.3-18.5 13.7-18.5c8.5 0 11 .3 12.5 1.7zm42.2.5c1.3 1.8 1.6 5.2 1.6 16.3 0 18.9.3 18.5-14 18.5-8.5 0-11.2-.3-12.4-1.6-1.3-1.3-1.6-4.2-1.6-16.6 0-19.4-.5-18.8 14.1-18.8 10 0 10.9.2 12.3 2.2zm41-.6c1.3 1.3 1.6 4.3 1.6 16.9 0 12.6-.3 15.6-1.6 16.9-2 2-22.3 2.3-24.2.4-.8-.8-1.2-6.1-1.2-17.5 0-14.4.2-16.3 1.8-17.2.9-.6 6.3-1.1 11.9-1.1 7.9 0 10.5.3 11.7 1.6zm41.8.1c1.6 1.4 1.8 3.3 1.8 16.6 0 19.3.5 18.7-14.1 18.7-14.2 0-13.9.4-13.9-18.5s-.3-18.5 13.7-18.5c8.5 0 11 .3 12.5 1.7zm40.9-.7c1.8 1 1.9 2.3 1.9 17.3 0 11.4-.4 16.7-1.2 17.5-1.9 1.9-22.2 1.6-24.2-.4-1.3-1.3-1.6-4.3-1.6-16.9 0-12.6.3-15.6 1.6-16.9 1.2-1.2 3.8-1.6 11.5-1.6 5.5 0 10.9.5 12 1zm42.3.6c1.3 1.3 1.6 4.3 1.6 16.9 0 12.6-.3 15.6-1.6 16.9-2.3 2.4-22.6 2.3-24.5-.1-1.1-1.2-1.4-5.4-1.4-16.8s.3-15.6 1.4-16.8c1.9-2.4 22.2-2.5 24.5-.1zm41.8.1c1.6 1.4 1.8 3.3 1.8 16.6 0 19.3.4 18.7-13.8 18.7-14.7 0-14.2.6-14.2-18.3 0-19.3-.4-18.7 13.8-18.7 8.4 0 10.9.3 12.4 1.7zm41.4-.3c1.7 1.3 1.9 2.7 1.9 16.9 0 11.6-.3 15.8-1.4 17-1.1 1.4-3.3 1.7-11.8 1.7-5.7 0-11.3-.5-12.4-1-1.8-1-1.9-2.3-1.9-17 0-13.1.3-16.1 1.6-17.4 2.1-2.2 21.1-2.3 24-.2zm41.6.3c1.6 1.4 1.8 3.4 1.8 16.9 0 12.5-.3 15.5-1.6 16.8-2.3 2.4-22.6 2.3-24.5-.1-1.1-1.2-1.4-5.4-1.4-16.8s.3-15.6 1.4-16.8c2-2.5 21.6-2.5 24.3 0zm42.2.5c1.3 1.8 1.6 5.2 1.6 16.3 0 18.9.3 18.5-14 18.5-8.5 0-11.2-.3-12.4-1.6-1.3-1.3-1.6-4.2-1.6-16.6 0-19.4-.5-18.8 14.1-18.8 10 0 10.9.2 12.3 2.2zm41-.6c1.3 1.3 1.6 4.3 1.6 17.3 0 10.9-.4 16.1-1.2 16.9-1.7 1.7-22.9 1.7-24.6 0-.8-.8-1.2-6-1.2-16.9 0-13 .3-16 1.6-17.3 1.2-1.3 3.8-1.6 11.9-1.6 8.1 0 10.7.3 11.9 1.6zm41.8.1c1.6 1.4 1.8 3.4 1.8 16.9 0 12.5-.3 15.5-1.6 16.8-1.2 1.3-3.9 1.6-12.4 1.6-14.3 0-14 .4-14-18.5s-.3-18.5 13.7-18.5c8.5 0 11 .3 12.5 1.7zm42.2.5c1.3 1.8 1.6 5.2 1.6 16.3 0 18.9.3 18.5-14 18.5-8.5 0-11.2-.3-12.4-1.6-1.3-1.3-1.6-4.2-1.6-16.6 0-19.4-.5-18.8 14.1-18.8 10 0 10.9.2 12.3 2.2zm41-.6c1.3 1.3 1.6 4.3 1.6 17.3 0 10.9-.4 16.1-1.2 16.9-1.7 1.7-22.9 1.7-24.6 0-.8-.8-1.2-6.1-1.2-17.5 0-14.4.2-16.3 1.8-17.2.9-.6 6.3-1.1 11.9-1.1 7.9 0 10.5.3 11.7 1.6zm41.8.1c1.6 1.4 1.8 3.3 1.8 16.6 0 19.3.5 18.7-14.1 18.7-14.2 0-13.9.4-13.9-18.5s-.3-18.5 13.7-18.5c8.5 0 11 .3 12.5 1.7zm41.9 0c1.1 1.2 1.4 5.4 1.4 16.8s-.3 15.6-1.4 16.8c-1.9 2.4-22.2 2.5-24.5.1-2.4-2.4-2.3-30.9.1-33.6 2.3-2.6 22.3-2.7 24.4-.1zm41.3-.1c1.3 1.3 1.6 4.3 1.6 17.4 0 14.7-.1 16-1.9 17-1.1.5-6.7 1-12.4 1-8.5 0-10.7-.3-11.8-1.7-1.1-1.2-1.4-5.4-1.4-17 0-19-.5-18.3 14.1-18.3 8 0 10.6.3 11.8 1.6zm41.8.1c1.6 1.4 1.8 3.3 1.8 16.6 0 19.3.4 18.7-13.8 18.7-14.7 0-14.2.6-14.2-18.3 0-19.3-.4-18.7 13.8-18.7 8.4 0 10.9.3 12.4 1.7zm41.9 0c1.1 1.2 1.4 5.4 1.4 16.8s-.3 15.6-1.4 16.8c-1.9 2.4-22.2 2.5-24.5.1-1.3-1.3-1.6-4.3-1.6-16.9 0-12.6.3-15.6 1.6-16.9 2.3-2.4 22.6-2.3 24.5.1zm41.1 0c1.6 1.4 1.8 3.4 1.8 16.9 0 12.5-.3 15.5-1.6 16.8-2.3 2.4-22.6 2.3-24.5-.1-1.1-1.2-1.4-5.4-1.4-17 0-19-.5-18.3 13.9-18.3 7.8 0 10.3.3 11.8 1.7zm42.2.5c1.3 1.8 1.6 5.2 1.6 16.3 0 18.9.3 18.5-13.7 18.5-14.8 0-14.3.6-14.3-18.3 0-19.3-.5-18.7 14.1-18.7 10 0 10.9.2 12.3 2.2zm40.7-1.2c1.8 1 1.9 2.3 1.9 17.3 0 11.4-.4 16.7-1.2 17.5-1.5 1.5-21.1 1.6-23.9.2-1.8-1-1.9-2.3-1.9-17 0-13.1.3-16.1 1.6-17.4 1.2-1.2 3.8-1.6 11.5-1.6 5.5 0 10.9.5 12 1zm42.1.7c1.6 1.4 1.8 3.4 1.8 16.9 0 12.5-.3 15.5-1.6 16.8-1.2 1.3-3.9 1.6-12.4 1.6-14.3 0-14 .4-14-18.5s-.3-18.5 13.7-18.5c8.5 0 11 .3 12.5 1.7zm42.2.5c1.3 1.8 1.6 5.2 1.6 16.3 0 18.9.3 18.5-13.7 18.5-14.8 0-14.3.6-14.3-18.3 0-19.3-.5-18.7 14.1-18.7 10 0 10.9.2 12.3 2.2zm40.7-1.2c1.8 1 1.9 2.3 1.9 17.3 0 11.4-.4 16.7-1.2 17.5-1.7 1.7-22.9 1.7-24.6 0-.8-.8-1.2-6-1.2-16.9 0-13 .3-16 1.6-17.3 1.2-1.2 3.8-1.6 11.5-1.6 5.5 0 10.9.5 12 1zm42.1.7c1.6 1.4 1.8 3.4 1.8 16.9 0 12.5-.3 15.5-1.6 16.8-1.2 1.3-3.9 1.6-12.4 1.6-14.3 0-14 .4-14-18.5s-.3-18.5 13.7-18.5c8.5 0 11 .3 12.5 1.7zm42.5 1.3c.8 1.6 1.3 7.1 1.3 16 0 18.3.3 18-14 18-8.5 0-11.2-.3-12.4-1.6-1.3-1.3-1.6-4.2-1.6-16.6 0-19.6-.5-19 14.4-18.6 10.7.3 11.1.4 12.3 2.8zm40.7-1.4c1.3 1.3 1.6 4.3 1.6 17.4 0 14.7-.1 16-1.9 17-1.1.5-6.7 1-12.4 1-8.5 0-10.7-.3-11.8-1.7-1.1-1.2-1.4-5.4-1.4-17 0-19-.5-18.3 14.1-18.3 8 0 10.6.3 11.8 1.6z"/></svg>