<svg width="574" height="439" fill="none" xmlns="http://www.w3.org/2000/svg"><path d="M181.841 1.971c-.986 1.21-4.618 5.555-8.071 9.631l-9.193 10.975a10407.49 10407.49 0 01-25.561 30.55c-4.305 5.108-9.373 11.155-11.211 13.44-1.839 2.24-9.417 11.288-16.817 20.113-7.399 8.825-15.067 17.963-17.04 20.382-3.947 4.749-20.853 24.996-28.7 34.314-12.557 14.917-20.45 24.369-23.768 28.4a8567.232 8567.232 0 01-17.04 20.383A8618.864 8618.864 0 007.4 210.541a497.238 497.238 0 01-5.472 6.585l-1.883 2.24 4.125 4.927c19.732 23.652 24.35 29.117 30.808 36.867 4.08 4.883 11.75 14.066 17.04 20.382 5.292 6.361 13.499 16.127 18.162 21.726 4.71 5.6 12.377 14.783 17.041 20.382 4.709 5.6 12.377 14.783 17.041 20.383a6690.153 6690.153 0 0117.04 20.382 5723.162 5723.162 0 0113.453 16.081c8.655 10.259 24.978 29.79 28.7 34.314 7.534 9.183 19.687 23.518 20.046 23.652.179.09.358-25.041.358-55.86v-56.04h194.846c107.177 0 194.847-.089 194.847-.269 0-.134-5.516-6.809-12.198-14.827-6.727-8.019-13.767-16.44-15.606-18.68-1.838-2.285-6.816-8.242-11.076-13.304a6071.848 6071.848 0 01-25.695-30.686c-1.615-1.926-7.803-9.362-13.767-16.484l-10.853-12.946 3.678-4.346c2.017-2.419 4.977-5.958 6.592-7.884 3.766-4.479 40.718-48.693 45.516-54.427 1.973-2.374 7.444-8.914 12.108-14.514 4.708-5.599 11.435-13.662 14.978-17.873l6.412-7.66-112.244-.269c-61.749-.135-149.464-.314-194.891-.358l-82.647-.045-.089-56.085-.135-56.129-1.794 2.195zM349.019 130.4c100.898.045 183.949.179 184.532.358.986.269.807.538-2.915 4.973-5.919 6.988-28.879 34.492-30.18 36.105-.628.762-4.26 5.107-8.072 9.631-3.811 4.48-7.937 9.407-9.193 10.93-1.21 1.523-6.816 8.198-12.376 14.873l-10.135 12.05 3.318 4.031c3.364 4.032 13.184 15.813 28.611 34.224 4.708 5.6 12.287 14.694 16.906 20.203 4.619 5.51 12.063 14.425 16.592 19.8 4.529 5.421 8.251 9.99 8.341 10.214.089.224-68.028.403-168.209.403-92.558 0-175.608.134-184.532.313l-16.234.269-.089 39.869-.135 39.868-4.484-5.331c-2.511-2.911-5.023-5.958-5.606-6.719-.627-.762-4.529-5.465-8.744-10.482-8.386-9.945-20.045-23.921-33.185-39.6-4.663-5.644-12.466-14.917-17.264-20.651-4.799-5.734-12.467-14.917-17.041-20.382-4.574-5.465-11.121-13.304-14.574-17.426l-9.193-10.975c-1.614-1.926-4.62-5.554-6.727-8.063-22.601-26.877-24.664-29.52-24.08-30.237 4.483-5.286 8.923-10.572 10.179-12.14.852-1.075 3.811-4.614 6.502-7.839 2.736-3.181 7.982-9.452 11.66-13.887a2012.426 2012.426 0 0111.659-13.931c8.251-9.766 20.045-23.921 22.377-26.788 1.256-1.523 5.47-6.585 9.417-11.289 3.991-4.704 11.076-13.17 15.74-18.769 4.709-5.6 12.377-14.783 17.041-20.383 4.708-5.554 14.798-17.65 22.422-26.788l13.901-16.664.135 40.093.089 40.092 183.546.045z" fill="#510000"/></svg>