<svg width="400" height="398" fill="none" xmlns="http://www.w3.org/2000/svg"><path d="M42.969.437c-.532.375-.625.936-.719 4.589-.031 2.31.031 7.055.188 10.582.124 3.527.156 6.524.062 6.711-.188.281-.438 4.87-.406 7.336.187 17.73.781 47.385 1.031 49.477.156 1.53.219 3.59.094 4.557-.188 2.03 0 3.153.718 3.84.626.655 1.188.624.938 0-.125-.344.219-.968.938-1.748l1.124-1.249-.124-41.829C46.718 1.935 46.687.874 46.093.437c-.75-.562-2.374-.562-3.124 0zm12.5 0c-.5.343-.625 1.061-.844 4.589-.156 2.31-.188 4.807-.063 5.556.094.78.25 14.453.313 30.435.063 15.983.219 34.462.375 41.111.188 10.707.281 12.112.781 12.861.625.968 2.407 1.218 2.407.375 0-.25.28-.468.624-.468.626 0 .626-.188.594-26.471-.031-14.547-.125-35.68-.25-46.98C59.22 1.592 59.188.874 58.625.437c-.781-.562-2.406-.562-3.156 0zm-6.344.156c-.813.5-1.031 6.243-.688 16.857.157 5.556.313 19.384.313 30.747 0 11.331.156 24.63.344 29.53.312 7.929.406 8.959.937 9.646.344.405.594.999.594 1.31 0 .75.313 1.53.656 1.53.344 0 .344-62.088 0-68.206-.125-2.404-.125-4.776 0-5.244.125-.468.282-3.902.344-7.648.063-5.993.031-6.899-.469-7.804-.531-.999-1.218-1.249-2.031-.718zm16.781.219c-.375.437-.437 3.246-.375 17.262.125 32.87.719 77.071 1.031 77.883.375.999 1.407 1.061 1.907.125.53-.999.406-92.836-.125-94.459C68.062.75 67.78.437 67.156.375c-.469-.063-1 .124-1.25.437zM72.188.78c-.5.593-.5 19.573-.032 65.678.313 26.94.375 29.499.844 30.03.719.78 1.219.749 1.844-.125.437-.624.469-4.651.281-41.58-.25-58.092-.156-52.38-.938-53.44-.78-1.062-1.437-1.25-2-.563zm6.562.344c-.969 2.497-1.156 13.984-.625 35.867.156 6.524.313 22.319.344 35.086.031 12.736.094 23.443.187 23.755.219.78 1.375 1.218 2.813 1.03l1.25-.156.187-3.34c.156-3.465.063-35.867-.219-71.016C82.5-.78 82.626.312 80.314.312c-1.063 0-1.313.125-1.563.812zM89.344.999c-.282.53-.375 3.309-.344 10.083.375 79.287.437 84.594.875 85.28.562.875 1.094.906 1.812.126.47-.531.5-3.933.5-47.448-.03-25.816-.125-47.105-.218-47.354-.157-.406-1.657-1.374-2.094-1.374-.094 0-.344.312-.531.687zm6.093.094c-.218.936.125 84.75.375 91.212L96 96.769h3.625l.219-7.586c.25-9.24 0-85.687-.313-87.56l-.219-1.31H97.47c-1.688 0-1.844.062-2.032.78zm11.5-.219c-.562.562-.593 1.717-.75 34.743-.156 34.025.063 59.59.5 60.59.563 1.217 1.813.999 2.438-.468.469-1.124.437-17.419-.031-55.315-.157-11.674-.219-25.097-.125-29.81.093-6.743.031-8.741-.282-9.334-.531-1.03-1.031-1.124-1.75-.406zM113 .905c-.531.562-.563 1.748-.469 16.482.031 8.71.094 29.468.125 46.137.031 16.638.094 30.935.094 31.746l.062 1.499h1.875c1.782 0 1.875-.032 2.094-.874.281-.937.313-10.27.125-19.978-.125-5.869-.187-6.306-.719-6.306-.531 0-.531-.062.094-.905l.688-.937-.063-28.656c-.031-30.154-.187-38.177-.781-38.551-.688-.468-2.594-.25-3.125.343zm11.156-.187c-.375.156-.75.593-.844.968-.312 1.342-.218 91.462.125 93.178.188.937.5 1.811.719 1.967.281.187 1.344.063 1.688-.187.593-.468.593-94.24 0-95.458-.344-.687-.875-.843-1.688-.468zm8.656.062c-.406.5-.468 6.212-.437 43.047.031 23.38.125 44.857.281 47.729l.219 5.244 1.937-.094 1.907-.094.187-2.809c.313-4.214.281-87.997 0-90.619-.156-1.249-.344-2.372-.469-2.466-.093-.094-.843-.25-1.687-.343-1.156-.094-1.594 0-1.938.405zM141 .812l-.688.468v47.23c0 50.756-.062 48.446 1.563 48.196 1.656-.218 1.594 1.935 1.5-48.571-.094-45.95-.125-46.949-.719-47.386-.75-.562-.812-.53-1.656.063zm6.437-.282c-.343.094-.625.625-.781 1.593-.312 1.873-.281 91.899.031 93.46l.219 1.186h3.656l.219-9.615c.156-5.275.281-26.845.281-47.916.032-42.36.188-38.957-2-38.895-.593.032-1.343.094-1.625.188zm10.188.438c-.594.655-.594 1.841-.563 47.76.032 38.176.125 47.198.438 47.572.25.313.781.469 1.375.406.906-.093.969-.187 1.219-1.81.125-.937.156-9.24.031-18.418-.094-9.177-.031-29.093.187-44.263.375-28.407.313-30.28-.812-31.435-.656-.655-1.156-.593-1.875.188zm6.5-.25c-1 1.186-1.344 94.427-.375 95.614.25.28.969.437 2.031.437h1.625l.219-9.77c.344-17.606.5-61.62.281-74.2l-.25-12.33-1.594-.094c-1.062-.063-1.718.062-1.937.343zm10.437.281c-.375.624-.468 7.773-.593 47.541-.094 29.655-.063 47.042.125 47.386.25.406.718.53 1.968.53h1.657l.406-1.404c.312-1.093.406-11.613.437-47.76.032-40.924-.031-46.418-.437-46.668-.25-.156-1.063-.312-1.781-.312-1.032 0-1.438.156-1.782.687zm10.938 0c-.813 1.28-1.25 93.397-.469 94.896.344.655 1.906.749 2.406.156.219-.25.375-15.171.438-47.542.094-50.32.156-48.197-1.344-48.197-.312 0-.781.312-1.031.687zm10.625 0c-.469.78-.781 26.939-.844 72.545-.031 18.948 0 21.352.469 22.195.594 1.186 1.437 1.498 2.812 1.03l1.032-.313.218-12.423c.125-6.805.282-28.313.375-47.73l.188-35.367-.844-.312c-1.469-.562-2.906-.374-3.406.375zM236.156.75c-.719.717-.781 3.402-1.156 41.703-.438 45.138-.406 52.068.094 53.067.531 1.03 2.062 1.093 2.562.094.25-.5.375-10.458.438-33.713.031-18.168.187-39.051.343-46.418.313-14.297.25-14.921-1.125-15.108-.375-.063-.875.124-1.156.374zm11.657-.157c-.969.156-1.125.312-1.344 1.436-.563 2.778-1.094 93.678-.531 94.209.093.094 1.062.094 2.187 0l2.031-.156.032-13.33c0-7.304.187-24.753.406-38.738.219-13.985.375-29.249.312-33.9-.125-7.835-.187-8.553-.718-9.146-.344-.375-.75-.625-.938-.625-.187.032-.844.125-1.437.25zm16.375 0c-.375.156-.782.562-.907.874-.125.312-.343 4.058-.468 8.366-.407 12.517-.719 69.143-.469 78.195l.219 8.272 1.968-.093 1.938-.125.219-12.206c.718-41.11 1-82.783.562-83.064-.531-.313-2.469-.469-3.062-.219zm22.437-.031c-.781.53-1 2.716-1 10.644 0 4.34-.219 21.695-.5 38.552-.281 17.48-.406 33.994-.281 38.489l.218 7.897h3.907l.218-9.77c.532-24.942.813-41.455 1-62.525.219-22.288.219-22.85-.375-23.006-1.343-.406-2.812-.53-3.187-.281zm10.688.062c-.375.125-.782.53-.907.843-.406 1.03-1.281 89.152-.875 92.336l.25 2.185 1.938.094 1.906.094.156-5.089c.063-2.81.313-21.039.5-40.518.188-19.478.469-38.145.625-41.454.157-3.59.157-6.462 0-7.055-.406-1.467-1.968-2.09-3.593-1.436zM20.781.936c-.125.188-.187 2.81-.187 5.869.03 5.525.375 9.833.906 11.3.281.75.281.75.625-.312.531-1.78.75-4.995.375-5.463-.219-.28-.188-.905.156-2.216.563-2.123.625-5.681.125-7.929C22.5.843 22.344.625 21.72.625c-.407 0-.844.155-.938.311zm40.25.375c-.687 1.967.438 93.647 1.157 92.274.656-1.187.5-79.944-.188-90.089-.188-2.84-.469-3.527-.969-2.185zM101.75.874c-.188.312-.375 53.785-.25 75.292.094 17.169.25 20.29 1 20.29.531 0 .687-18.136.469-55.876-.188-32.558-.313-39.644-.657-39.768-.218-.094-.468-.063-.562.062zm17.094.25c-.282.686-.313 23.661-.094 48.509.062 9.177 0 23.193-.125 31.122-.25 13.735-.25 14.453.312 15.296l.563.874.25-1.093c.125-.593.25-22.1.25-47.76 0-40.643-.063-46.699-.469-47.104-.375-.406-.469-.375-.687.156zm35.719.187c-.094.406-.219 2.06-.313 3.683-.25 4.183-.25 90.308 0 90.932.25.686.656.686 1.031-.031.344-.687.594-91.369.219-93.647-.25-1.686-.687-2.123-.937-.937zm36.781-.312c-.125.218-.313 21.601-.406 47.541-.157 48.322-.157 49.259.968 47.26.344-.592.407-3.995.344-16.824-.062-8.834.063-26.065.25-38.24.406-24.41.219-40.112-.5-40.112-.219 0-.5.188-.656.375zm12.562-.063c-.625 1.03-.812 9.896-.968 49.79-.125 31.371-.094 44.263.156 44.856.25.687.531.875 1.281.875 1.438 0 2-1.093 1.719-3.372-.156-1.467.25-67.8.531-86.311.094-4.87.094-4.963-.656-5.557-.813-.655-1.75-.78-2.063-.28zm4.375-.031c-.656 1.093-1.125 93.71-.469 94.958.469.812 2 .78 2.594-.062.406-.53.438-2.435.313-12.549-.094-6.555-.032-23.037.187-36.585.188-13.578.375-29.061.406-34.4.063-9.426.063-9.77-.562-10.613-.656-.905-2.094-1.31-2.469-.749zm4.656.094c-.343.53-.718 29.062-.812 63.524-.094 30.966-.094 31.278.531 31.746.375.312 1.156.468 1.969.406 2.094-.094 2.094-.218 2-14.89-.063-6.961.031-27.72.219-46.168.156-19.79.187-33.806 0-34.243-.219-.656-.469-.75-1.969-.75-.969 0-1.813.156-1.938.375zm16.813.031c-.344.406-1.156 78.04-.938 89.652l.094 5.618h4.063l.218-1.248c.344-2.06.907-67.645.688-81.567l-.219-12.86h-1.781c-1.063 0-1.938.155-2.125.405zm22.812 0c-.75.874-1 6.711-.656 14.39.219 4.714.281 13.08.156 22.351-.531 40.799-.593 57.437-.187 57.905.5.624 1.687.593 2.312-.031.438-.437.5-2.685.5-20.197 0-10.863.188-30.185.407-42.984.5-30.622.5-29.967-.188-30.997-.594-.905-1.781-1.124-2.344-.437zm16.688.281c-.469.78-.594 8.241-1 66.146-.156 20.883-.125 27.501.156 28.032.313.53.625.655 1.375.593.844-.094 1-.25 1.219-1.186.156-.843.812-58.218 1-88.996.031-3.465-.031-4.058-.563-4.62-.781-.843-1.625-.843-2.187.031zm33.406-.312c-.344 1.061-.812 23.973-1.125 57-.312 33.681-.312 36.647.156 37.365.563.843 1.125.968 2.094.468.563-.312.594-.749.594-8.522 0-4.495.219-20.54.469-35.648.593-36.085.687-48.79.375-50.039-.25-.874-.407-.999-1.344-.999-.594 0-1.156.188-1.219.375zm12.188.094c-.094.25-.25.717-.344.998-.125.313-.313 9.615-.438 20.696a9029.275 9029.275 0 01-.625 37.927c-.187 9.771-.312 21.54-.25 26.097.094 8.927.188 9.333 1.719 9.333 1.219 0 1.719-1.654 1.563-5.12-.125-3.214.531-45.45 1.062-69.204.344-14.422.313-17.106-.219-20.197-.187-.905-.312-.999-1.25-.999-.687 0-1.125.188-1.218.469zM325.75.999c-.656.312-.688.562-.875 6.618-.281 9.364-.781 43.17-1.031 66.364-.157 15.608-.094 20.634.187 21.164.406.78 1.938.968 2.438.281.187-.218.406-7.304.531-18.323.094-9.864.312-25.472.469-34.65.531-29.717.562-40.736.062-41.298-.469-.593-.844-.624-1.781-.156zm7.094.062c-.5.593-.907 23.568-1.188 63.93l-.187 30.841h4.468v-9.458c0-5.182.157-16.888.313-25.972.625-31.247.844-59.278.5-59.528-.625-.437-3.531-.28-3.906.187zm9.062.219c-.625 1.467-1.031 18.604-1.312 53.816-.157 19.728-.344 36.584-.438 37.459-.25 2.153.281 3.121 1.719 3.121.844 0 1.094-.156 1.25-.78.219-.843.687-27.97.781-48.385.063-7.117.25-16.887.438-21.695.437-10.956.406-22.756-.094-23.38-.188-.25-.719-.562-1.188-.656-.718-.187-.906-.093-1.156.5zM37.969 1.249c-.344.53-.407 12.985-.094 13.516.531.874.719-.53.813-5.806.093-5.775-.157-8.616-.72-7.71zm46.812.031c-.312.312-.406 6.96-.406 31.153 0 16.95.094 38.052.219 46.949.187 15.295.218 16.232.78 16.856.595.687.595-.125.407-45.2-.125-25.254-.312-46.855-.406-48.01-.188-1.717-.281-2.06-.594-1.748zm44.938.25c-.625 1.123-.75 23.193-.344 55.595.219 17.949.469 34.243.594 36.21.187 3.371.218 3.527.656 2.81.406-.687.469-6.462.375-45.732-.031-24.722-.156-45.98-.25-47.229-.188-2.279-.469-2.716-1.031-1.654zm41.656-.219c-.25.375-.75 75.604-.625 88.653.062 4.089.187 5.618.5 6.024 1.062 1.28 1 4.152 1.312-71.64.094-21.445.063-23.255-.437-23.35-.281-.062-.625.095-.75.313zm9.125.156c-.094.312-.25 21.57-.344 47.23-.156 40.08-.125 46.76.25 47.26.438.593.438.593.75 0 .406-.75.844-71.827.531-85.344-.156-7.523-.312-9.677-.625-9.677-.218 0-.468.25-.562.531zm39.969.313c-.094.499-.25 16.45-.344 35.523-.063 19.041-.25 39.706-.406 45.887-.25 9.52-.219 11.394.156 12.299.75 1.841 1.219.78 1.281-3.028.281-15.452.5-90.994.281-91.244-.5-.468-.718-.343-.968.562zm4.406-.157c-.094.406-.188 5.338-.188 11.02 0 5.65-.156 26.345-.375 45.949-.343 34.025-.343 35.71.188 36.834.469 1 .594 1.093.844.656.187-.312.343-8.772.406-20.446.062-10.957.219-30.873.344-44.264.25-24.723.125-30.436-.625-30.436-.219 0-.469.313-.594.687zm16.875.468c-.156.937-.5 37.21-.938 91.494 0 1.404.125 2.091.532 2.466.468.468.531.468.781-.25.469-1.28 1.281-87.997.875-92.46-.25-2.654-.906-3.31-1.25-1.25zm16.906-.936c-.281.468-.562 18.417-.844 55.814-.312 37.084-.281 38.083.282 38.645.562.593.593.5.781-4.808.094-2.996.25-10.27.344-16.2.843-49.852.812-73.67-.032-73.67-.218 0-.468.094-.531.219zm16.5.156c-.062.219-.281 13.454-.469 29.436-.156 15.952-.406 36.617-.5 45.888-.218 17.418-.125 19.197 1.032 19.634.843.344 1.593-.125 1.968-1.186.188-.593.25-1.405.157-1.81-.094-.406.031-13.298.281-28.656.656-37.71.719-62.057.219-62.994-.282-.5-.657-.687-1.469-.687-.594 0-1.156.188-1.219.375zm6.25.312c-.156.718-.625 27.501-1 57.063-.187 17.106.094 37.458.594 37.458.812 0 1.031-2.154.875-8.272-.094-3.434 0-16.138.219-28.25.187-12.112.375-30.248.375-40.362.031-15.982-.032-18.324-.438-18.324-.25 0-.531.313-.625.687zm10.344 1.249c-.375 4.027-1.25 90.931-.938 92.211.094.406.375.75.563.75.906 0 1.031-1.53.875-10.302-.063-4.9.094-18.605.375-30.467.281-11.861.5-28.874.5-37.833-.031-15.764-.031-16.295-.625-16.295-.469 0-.594.313-.75 1.936zm16.844-1.405c-.406 1.062-.719 19.198-.906 53.317-.125 18.698-.282 35.367-.375 36.99-.125 2.341-.063 3.09.312 3.59s.531.562.875.218c.313-.312.406-3.308.438-14.67.031-7.836.187-22.008.375-31.435.187-9.458.375-24.192.437-32.777.094-14.203.063-15.607-.406-15.701-.281-.063-.625.156-.75.468zm10.344.156c-.094.406-.313 16.17-.469 35.055-.188 18.886-.438 39.114-.531 44.951-.125 5.837-.25 11.206-.25 11.924 0 .843.187 1.53.5 1.873.5.5.562.469.968-.5.344-.81.407-2.184.313-5.93-.094-2.685.062-17.793.344-33.588.718-42.079.656-54.472-.282-54.472-.218 0-.468.313-.593.687zm19.687 0c-.125.406-.344 11.956-.5 25.69-.188 13.736-.438 34.525-.594 46.2-.281 20.509-.219 22.007.594 22.007.594 0 .687-1.81.812-13.891.063-7.055.282-19.323.438-27.314.5-23.817.719-48.384.5-50.975-.156-1.654-.375-2.404-.656-2.404-.219 0-.5.313-.594.687zM33.156 7.866c.032 6.774.313 9.115.75 6.4.125-.843.125-2.591.032-3.902-.282-3.06-.282-3.34-.032-5.12.25-1.623-.031-3.683-.468-3.683-.188 0-.313 2.497-.282 6.305zm-7.781-2.559c0 1.81.125 3.683.25 4.214.156.593.25-.375.25-2.654 0-1.966-.094-3.87-.25-4.214-.156-.405-.25.562-.25 2.654zm342-1.249c-3.5.406-7.281 1.155-10.406 2.06-2.375.687-2.844.937-3.969 2.217-.719.78-1.469 1.779-1.687 2.185-.688 1.28-.188 2.965 1.531 5.181 1.531 1.998 1.531 1.998 4.437 2.81 6.219 1.748 10.032 2.341 16.782 2.59 7.562.313 13.812-.405 19.937-2.247 1.844-.562 2.781-1.03 3.281-1.623a29.255 29.255 0 011.719-1.78c.875-.842 1-1.185 1-2.559 0-1.186-.156-1.686-.656-2.154-.375-.312-1.063-1.155-1.531-1.873-.844-1.186-1.094-1.31-4.594-2.372-6.938-2.123-9.219-2.497-16.656-2.591-3.688-.062-7.813 0-9.188.156zm11.719 2.81c5.687.561 10.187 1.498 11.625 2.372 3.312 2.06 3.344 2.06 3.344 3.371 0 1.186-.688 2.372-1.344 2.372-.188 0-1.031.469-1.906 1.062-2.313 1.56-5.063 2.091-12.469 2.279-7.156.187-10.5-.125-14.781-1.499-3.813-1.217-6.25-2.81-6.469-4.245-.094-.593-.125-1.249-.031-1.498.093-.25 1.562-1.124 3.25-1.967 2.843-1.467 4.25-1.842 8.281-2.341 2.031-.25 7.437-.187 10.5.093zM33.312 18.698c-.125.219-.156.468-.062.562.281.281.594-.125.437-.562-.125-.343-.187-.343-.375 0zm4.657.344c.093.156.25.312.343.312.063 0 .126-.156.126-.312 0-.188-.157-.313-.344-.313-.157 0-.219.125-.125.313zm-4.938 13.422c-.187 11.675.125 24.848.656 26.19.22.625.313.25.47-1.717.25-3.745 0-26.408-.345-27.282-.156-.406-.156-1.249-.03-1.873.374-1.592.312-4.339-.157-5.619-.344-.936-.438.625-.594 10.301zm5.156-9.364c0 .437.063.593.157.374.062-.187.062-.562 0-.78-.094-.188-.157-.031-.157.406zm335.469.5c-.125.124-.219 1.903-.219 3.932 0 3.247.063 3.746.563 3.933.719.313 4.625.281 4.937-.03.157-.126.313-1.25.375-2.498.094-1.249.282-2.341.5-2.466 1.157-.75 7.188.25 10.594 1.748 2.344 1.03 3.344 2.06 3.344 3.402 0 1.25-.438 1.686-2.75 2.872-2.281 1.124-5.75 1.967-9.656 2.341-5.25.5-14.813-.343-19.719-1.748-2.313-.655-4.438-2.684-4.438-4.276 0-.624.125-1.155.282-1.155.187 0 .937-.562 1.718-1.218 1.094-.936 1.782-1.28 2.907-1.435 3.531-.437 4.781-1.218 4.281-2.716-.188-.625-.344-.656-3.125-.468-4.75.312-8.688 1.904-11.188 4.463-.937.968-1.125 1.374-1.125 2.435.032 1.405.282 1.967 1.844 3.871.813.999 1.531 1.436 3.281 2.06 5.625 2.03 12.094 2.997 20.188 2.997 7.844 0 13.594-.843 18.969-2.716 2.062-.718 4.781-3.652 4.781-5.15 0-1-1.406-2.622-4.219-4.87l-1.25-.968 1.594-.031c1.844 0 2.281-.5 1.437-1.56-.5-.625-.875-.656-12.093-.812-6.375-.094-11.657-.063-11.813.062zM38.031 25.753c-.656 2.279-.156 41.548.532 42.235.593.562.53-34.337-.063-40.83-.188-1.998-.25-2.217-.469-1.405zM25.25 46.262c-.125 7.835.031 13.828.438 17.262l.375 3.121.218-2.028c.282-2.623.282-18.948 0-21.352-.093-1.061-.343-1.904-.562-1.998-.313-.094-.438 1.061-.469 4.995zm-3.563-4.495c-.968.624-1.062 1.685-1.062 11.393 0 6.43.125 10.395.375 11.488.187.936.344 2.715.281 3.933-.062 2.279.156 2.716.906 1.81.25-.312.282-.468.063-.468-.219 0-.281-.406-.188-1.03.094-.53.22-1.28.25-1.623.063-.344.313-1.062.594-1.592.406-.812.5-2.591.594-11.862.062-8.46 0-11.05-.313-11.612-.406-.718-.906-.843-1.5-.437zm339.688.062c-2.906.406-4.437.874-6.75 2.091l-2.125 1.093v2.404c0 1.31-.094 3.277-.187 4.401-.094 1.155-.032 2.216.156 2.497.344.5-1.156.437 32.844 1.093 11.25.218 12.406.218 12.875-.25.531-.53.437-1.56-.188-2.06-.187-.156-4.062-.343-8.625-.437-4.562-.094-8.687-.281-9.156-.406l-.875-.187.094-2.872c.093-2.81.093-2.84 1.031-3.278 1.031-.5 6.344-.936 12.906-1.061 3.969-.063 4.219-.094 4.781-.812.719-.874.719-1.092.125-1.717-.406-.374-1.218-.437-5.031-.312-2.531.094-4.906.312-5.344.468-.406.157-2.187.188-3.937.094-2.438-.156-3.656-.062-5.094.312-2.625.687-3.906.625-6.75-.28-2.719-.875-7.625-1.218-10.75-.781zm9.563 3.746c2.218 1.124 2.437 1.748 2 5.057l-.188 1.436-4.625.218c-2.562.125-5.719.125-7 0l-2.375-.218v-2.779c0-2.56.063-2.778.625-2.778.344 0 .844-.343 1.125-.749.594-.968 1.313-1.092 5.594-.999 2.906.063 3.656.188 4.844.812zm23.437 12.361c-5.906.656-15.156 1.904-24.375 3.278-4.563.687-9.688 1.373-11.406 1.56-1.719.157-3.563.438-4.094.625-1.156.343-2.469 1.654-2.188 2.123.469.749 4.907 1.654 14.563 3.028 5.594.78 12.687 1.873 15.781 2.466 7.563 1.436 11.125 1.966 13.75 2.091 2.031.094 2.188.031 2.281-.562.063-.343-.156-.967-.468-1.342-.469-.562-1.157-.78-3.844-1.155-1.813-.25-4.375-.718-5.688-1.061-1.343-.344-2.5-.625-2.593-.625-.094 0-.157-1.404-.157-3.09 0-2.747.063-3.122.563-3.278.312-.124 2.625-.468 5.125-.78 5.437-.687 6.906-1.249 7.062-2.778.063-.53 0-.968-.156-.968-.125.031-2 .25-4.156.468zm-15.063 5.588c.219.437.375 1.436.375 2.185v1.405h-1.968c-1.094 0-3.875-.344-6.188-.75-2.281-.405-5.125-.842-6.281-.967-1.188-.125-2.125-.344-2.125-.468 0-.125 1.875-.406 4.156-.625 3.156-.312 9.531-1.155 11.5-1.53.094 0 .344.313.531.75zM33.656 62.026c.063.78.157 1.498.219 1.591.25.22.594-2.09.375-2.59-.344-.937-.688-.437-.594.998zm.156 4.151c0 .437.063.593.157.375.062-.187.062-.562 0-.78-.094-.188-.157-.032-.157.405zm-.375 2.966c0 .25.157.468.313.468.187 0 .312-.219.312-.468 0-.25-.125-.469-.312-.469-.156 0-.313.219-.313.469zm5 2.31c0 .53.157.967.313.967.187 0 .312-.343.312-.749 0-.437-.125-.874-.312-.968-.188-.124-.313.22-.313.75zm-17.062.187c-.125.312-.094.936.094 1.405.25.624.218 1.03-.094 1.592-.313.562-.406 2.84-.438 9.52 0 4.839.094 9.615.188 10.676.187 1.717.281 1.904 1.031 2.03.438.093.969.03 1.125-.126.188-.187.313-3.652.313-9.115-.032-8.553-.282-11.237-1.25-13.734-.157-.375-.063-.531.28-.531.72 0 .626-.468-.28-1.436-.688-.75-.782-.78-.97-.281zm360.25 2.84c-1.687 1.187-.312 2.623 2.594 2.623 2.844.03 4.469.53 6.625 2.06 2.969 2.123 3.375 3.434 1.531 5.057-2.437 2.123-6.906 3.153-14.781 3.402-7.375.219-11.844-.25-16.469-1.685-2.344-.75-4.781-3.777-4.344-5.432.188-.718 4.875-2.996 6.969-3.402 1.938-.375 2.5-.75 2.5-1.748 0-.937-.844-1.187-3.406-.906-5.188.531-8.938 1.873-11 3.934-1.156 1.154-1.219 1.342-1.219 3.09 0 1.78.063 1.966 1.313 3.309.718.78 1.875 1.748 2.593 2.185 4.688 2.716 15.375 4.152 26.313 3.527 2.875-.187 5.375-.437 5.562-.562.157-.156 1.219-.343 2.344-.437 1.219-.124 3.281-.655 5.156-1.373 2.5-.937 3.375-1.436 4.282-2.466 2.156-2.373 2.312-3.87.656-5.838a37.203 37.203 0 01-1.5-1.841c-.156-.281-2.219-1.124-4.531-1.904-6.094-2.092-9.75-2.622-11.188-1.592zM25.937 79.288c0 .156.157.312.313.312a.313.313 0 00.312-.312c0-.187-.125-.312-.312-.312a.313.313 0 00-.313.312zm-.124 4.557c-.25 1.842-.188 9.459.062 11.488.188 1.31.281 1.467.625 1.03.219-.25.406-.75.375-1.061-.031-.313-.094-2.872-.156-5.713-.125-7.21-.125-7.18-.438-7.18-.125 0-.343.656-.468 1.436zm7.937 1.842c0 .468.125.75.312.624.188-.093.313-.374.313-.624s-.125-.53-.313-.624c-.187-.125-.312.156-.312.624zm12.031 1.093c-.093.156-.062.312.125.312.157 0 .407-.156.5-.312.094-.188.063-.313-.125-.313a.637.637 0 00-.5.313zm-12.031.78c0 .25.156.468.312.468.188 0 .313-.218.313-.468s-.125-.468-.313-.468c-.156 0-.312.218-.312.468zm0 3.715c0 .28.156.5.312.5.188 0 .313-.126.313-.282a.594.594 0 00-.313-.5c-.156-.093-.312.032-.312.282zm9.844-.125c-.125.187.156.312.625.312.468 0 .75-.125.625-.312-.094-.188-.375-.312-.625-.312s-.532.125-.625.312zm0 1.56c.093.157.312.313.5.313.156 0 .281-.156.281-.312 0-.188-.219-.313-.5-.313-.25 0-.375.125-.281.313zm-9.844 2.342c0 .874.125 1.373.312 1.248.188-.093.313-.655.313-1.248s-.125-1.155-.313-1.249c-.187-.125-.312.375-.312 1.249zm11.563.78c-.376.25-.282.312.406.312.468 0 .843-.156.843-.312 0-.406-.624-.406-1.25 0zm-1.563.625c.594.405.938.405.938 0 0-.188-.313-.313-.688-.313-.594 0-.625.063-.25.313zm191.562 6.461c-3.5 1.28-4.625 8.709-1.593 10.489 2.781 1.654 5.156-.219 5.812-4.558.531-3.496-1.844-6.805-4.219-5.931zm.813 2.529c1.062.686 1.406 3.558.656 5.057-.812 1.623-2.406.468-2.406-1.78 0-1.061.844-3.527 1.219-3.527.093 0 .343.125.531.25zm7.031-2.217c-1.781.937-2.375 2.029-2.375 4.402 0 1.155.125 2.747.25 3.558.219 1.311.375 1.53 1.594 2.092 1.656.811 2.687.811 3.719.031 1.562-1.249 2.343-5.9 1.343-8.21-.875-2.091-2.687-2.84-4.531-1.873zm2.125 2.966c.563 1.873.531 3.933-.094 4.776-.406.562-.468.562-1.218.062-1.094-.687-1.313-2.029-.688-4.12.594-2.061 1.469-2.373 2-.718zM260 103.23c-2.031 1.03-2.563 3.278-1.844 7.492.219 1.249.531 2.091.875 2.248.938.499 2.563.718 3.688.499.906-.156 1.187-.406 1.687-1.592.875-1.935 1.125-5.275.5-6.743-.844-2.029-3-2.871-4.906-1.904zm2.156 2.622c.875.937 1.125 2.779.563 4.121-.438 1.03-1.594 1.779-2.032 1.311-.375-.343-.437-4.339-.093-5.244.406-1.03.75-1.062 1.562-.188zm-43.656-1.779c-1.781 2.029-2.094 7.242-.531 8.803.625.593 1.093.749 2.468.749.938 0 1.938-.094 2.219-.187.938-.375 1.5-1.998 1.5-4.464.063-4.027-1.094-5.962-3.531-5.962-.969 0-1.375.218-2.125 1.061zm3.281 3.122c.406 1.56.156 3.683-.469 4.307-.5.5-1.531-.281-1.937-1.467-.406-1.186-.188-2.715.531-3.839.719-1.124 1.438-.749 1.875.999zm-117.594-3.559c-1.468.593-2.625 3.153-2.625 5.837 0 3.996 2.407 6.025 5.438 4.558.969-.437 1.156-.718 1.469-2.248.468-2.247.218-5.899-.469-6.93-.844-1.342-2.375-1.81-3.813-1.217zm2.438 4.495c.125 2.591-.344 3.933-1.313 3.933-.875 0-1.562-1.217-1.562-2.747 0-1.404.656-3.028 1.312-3.277.594-.219 1.5.967 1.563 2.091zm30.25-4.245c-1.594.811-2.313 2.279-2.281 4.713 0 2.435 1.062 5.213 2.062 5.526 1.094.343 2.969.187 3.781-.344 1-.655 1.844-2.778 1.594-3.964-.125-.5-.562-1.311-1-1.811-.625-.78-1-.936-2.125-.936-1.469 0-1.844-.25-1.406-.937.219-.343.531-.374 2 0 .969.219 1.844.312 1.937.219.438-.437-.593-2.06-1.593-2.529-1.313-.624-1.625-.624-2.969.063zm2.469 6.368c.437 1.124-.157 1.873-1.313 1.748-.781-.063-1.031-.25-1.094-.812-.218-1.529 1.875-2.341 2.407-.936zm6-6.524c-1.875.936-2.563 4.464-1.594 8.272.406 1.467.531 1.654 1.531 1.935 2.625.718 4.969-.062 5.406-1.81.375-1.374-.187-3.215-1.281-4.402-.75-.811-1.031-.905-2.031-.749-.906.156-1.125.094-1.125-.343 0-.781.875-.968 2.094-.375.593.281 1.218.437 1.375.344.531-.344.281-1.748-.5-2.498-.844-.874-2.594-1.03-3.875-.374zm2.531 6.056c.875.78.687 1.56-.406 1.935-1.625.562-2.532-.812-1.344-1.967.625-.624 1.031-.624 1.75.032zm6.25-5.963c-1.281.906-2.062 3.247-1.062 3.247.156 0 .812-.375 1.5-.812 1.125-.78 1.218-.78 1.593-.25.563.781.532 1.031-.375 1.873-1 .906-.968 1.218.094 1.905 1.25.811 1.375 1.123.656 1.716-.875.75-1.312.718-2.406-.218-1.156-.968-1.562-.968-1.812-.031-.313 1.248-.032 1.873 1.125 2.466 1.312.686 3.968.53 5.218-.281.813-.5.813-.531.625-3.684-.218-3.558-.625-5.088-1.531-5.899-.781-.656-2.687-.687-3.625-.032zm9 .032c-1.219.842-1.531 1.404-1.563 2.653 0 .968.125 1.186.594 1.186.344 0 1.031-.374 1.563-.811 1.093-.906 2.093-.906 1.968.031-.031.343-.968 1.467-2.093 2.497-2.282 2.154-3.094 3.964-2.032 4.526.625.344 4.719.406 5.875.125.563-.156.688-.406.625-1.03-.093-.656-.312-.843-1.406-1.061-.75-.125-1.344-.344-1.344-.5 0-.125.563-.749 1.25-1.436 2.157-2.091 2.375-4.401.563-5.931-1.094-.936-2.844-1.03-4-.249zm22.625.53c-1.125 1.124-1.375 2.435-.75 3.621.219.406.156.812-.156 1.467-1.25 2.404.531 4.464 3.906 4.464 1.375 0 1.75-.125 2.563-.936.718-.718.906-1.124.718-1.655-.093-.374-.312-2.06-.406-3.746-.281-3.714-.687-4.276-3.25-4.276-1.375 0-1.687.125-2.625 1.061zm3.25 2.029c-.125.625-1.5.874-1.5.281 0-.624.625-1.155 1.156-.968.25.094.407.406.344.687zm.313 3.871c.156.78-.5 1.467-1.375 1.467-.782 0-.875-.281-.563-1.498.156-.562.406-.687 1.031-.625.469.063.844.313.907.656zm7.468-5.993c-1.281.842-2.093 1.716-2.093 2.278 0 .063.375.188.843.25 1.063.125 1.282.78 1.313 4.37l.031 2.747H199l.219-2.279c.25-2.653-.156-8.084-.656-8.24-.157-.063-.969.343-1.782.874zm54.813 1.529c-1.344 1.936-1.719 2.778-1.844 4.027-.125 1.467-.094 1.561.687 1.779.438.094 1.188.125 1.625.032.688-.125.875.031 1.25.905.75 1.779 2.157 1.373 3.344-.999.469-.905.469-1.061-.094-2.185-.468-.874-.625-1.842-.625-3.621v-2.435h-1.312c-1.313 0-1.375.062-3.031 2.497zm1.531 2.622c0 .749-.5 1.343-.844.999-.25-.25.188-1.748.531-1.748.188 0 .313.343.313.749zM113 103.948c-1.781.344-2.156.999-1.906 3.34.125 1.249.062 2.342-.188 2.997-.656 1.873.313 3.715 2.25 4.121 1.157.249 3.219-.313 4.219-1.187.813-.718.813-.78.5-2.747-.187-1.092-.406-2.84-.531-3.902-.125-1.279-.375-1.997-.75-2.216-.813-.499-2.25-.687-3.594-.406zm2.25 2.716c-.125 1.124-1.625 1.436-1.969.437-.281-.905.032-1.28 1.125-1.28.844 0 .938.094.844.843zm-.094 4.308c0 .874-.062.936-1.25.936-.906 0-1.281-.125-1.343-.499-.157-.781.843-1.592 1.781-1.467.687.062.812.249.812 1.03zm6.531-6.899c-1.906.843-2.312 1.592-2.312 4.37 0 3.84.25 4.807 1.281 5.338.469.25 1.625.468 2.563.468 2.375 0 3.093-.624 3.281-2.871.125-1.561.062-1.811-.875-2.841-.625-.718-1.469-1.28-2.375-1.53-1.313-.374-1.375-.437-.969-.999.438-.593.469-.593 1.531.063.625.374 1.344.687 1.625.687.782 0 .625-1.468-.281-2.342-.844-.874-2-.967-3.469-.343zm2.282 5.869c.156.218.218.749.093 1.186-.156.655-.375.78-1.25.78-1.281 0-1.625-.78-.75-1.748.625-.687 1.469-.78 1.907-.218zm54.5-5.494c-.532.437-.907.936-.782 1.092.094.156.875.281 1.719.281 1.063 0 1.594.156 1.719.437.094.25-.344 1.499-.969 2.778-1.062 2.154-1.125 2.435-.812 3.434.406 1.217.812 1.467 2.468 1.467 1.5 0 2.032-.343 1.75-1.124-.343-.874-.687-.998-2-.842-1.875.249-1.843-.375.125-2.217 1.688-1.56 1.75-1.685 1.75-3.184 0-1.248-.156-1.717-.718-2.247-1.063-.999-3-.937-4.25.125zm24.062.562c-.375 1.529-.437 3.589-.156 4.37.25.624.781.624 2.125-.031 1.312-.625 2.062-.219 2.062 1.123 0 1.561-1.312 2.092-2.343.968-.313-.343-.907-.624-1.313-.624-.625 0-.719.156-.719 1.092 0 1.561.875 2.341 2.657 2.341 3.656 0 5.5-2.809 3.906-5.931-.594-1.155-.688-1.217-2.25-1.311-1.219-.062-1.656-.218-1.656-.562 0-.343.468-.499 1.937-.561 2.125-.094 2.688-.656 1.781-1.655-.437-.499-1-.593-3.093-.593h-2.594l-.344 1.374zm163.406 9.583c-10.906.093-44.875.281-75.468.406-53.688.218-93.532.593-104.75 1.03-4.282.156-5.407.281-5.407.624 0 1.124.813 1.124 33.813.749 17.75-.187 60.844-.499 95.719-.655 71.125-.344 82.593-.469 83.343-.781.282-.093.594-.406.688-.655.281-.749-1.188-1.062-4.75-.999-1.844.031-12.281.156-23.188.281zM156.25 115.81c-8 .125-21.594.25-30.25.281-11.688.031-15.844.125-16.313.406-.468.312-.906.281-2.218-.187-1.375-.5-2.063-.562-4.625-.344-1.657.125-8.407.281-15.032.281-9.156.063-12.312.156-13.28.468-1.22.437-1.22.437-.47.75 1 .405 20.032.842 27.344.624 3.094-.094 20.875-.25 39.531-.375 24.25-.124 34.063-.281 34.5-.53.563-.344.563-.375-.281-.937-1.094-.718-1.156-.718-18.906-.437zm-105.906.968c-2.282.437-3.25.499-4.219.25-.719-.156-3.656-.375-6.563-.5-4.124-.156-5.218-.093-5.062.187.156.219 0 .562-.313.812-.5.375 1.126.437 11.876.468 12.437 0 12.468 0 11.906-.624-.625-.687-2.344-1.249-3.75-1.217-.5 0-2.25.281-3.875.624zm-21.531.374c-.907.531-.563.843.875.843 1.343 0 1.687-.249 1.218-.843-.437-.499-1.156-.499-2.093 0zm-28.032.531c-.531.187-.5.219.25.375.469.093.938.062 1-.063.219-.374-.562-.562-1.25-.312zm96.281 4.433c-.25.406-.53 1.217-.656 1.81-.281 1.592.313 5.931.938 6.524.687.687.968.156 1.218-2.185.125-.999.344-1.904.5-1.998.157-.093.72.594 1.25 1.499.532.936 1.219 1.935 1.563 2.247.594.531 2.031.75 2.406.344.344-.344.5-3.528.25-5.962-.219-2.31-.219-2.342-1.094-2.342-.843 0-.875.063-1 1.873-.218 2.872-.593 2.935-2.25.375-1.718-2.685-2.468-3.184-3.125-2.185zm11.563-.188c-2.125.781-2.375 1.187-2.375 3.778 0 4.214 1.469 5.494 5.031 4.432 1.781-.562 2.563-1.529 2.719-3.496.156-2.091-.5-3.746-1.875-4.589-1.188-.718-1.813-.749-3.5-.125zm3.531 1.592c.156.313.313 1.717.375 3.122.125 2.404.094 2.591-.469 2.591-.343 0-.843.218-1.156.499-1.219 1.124-2.781-.936-2.781-3.714 0-2.154.719-3.028 2.5-3.028.844 0 1.312.156 1.531.53zm-69.468-.78c-.25.968-.25 2.903.03 3.184.376.375 1.313-3.028.97-3.496-.47-.562-.782-.468-1 .312zm5.125-.094c-.47.875-.376 1.905.124 1.905.594 0 2.376 1.498 2.376 2.029 0 .218-.22.562-.47.78-.25.219-.374.499-.312.624.094.156.5-.062.938-.437.75-.718.781-.718.312-2.497-.25-.999-.625-2.06-.781-2.404-.438-.78-1.75-.78-2.188 0zm28.593-.249c-.281.437-.062.624.438.312.25-.187.28-.344.093-.468-.187-.094-.437-.032-.53.156zm-22.656.343c0 .219.438 1.311 1 2.435.563 1.155 1.063 2.778 1.156 3.746.157 1.436.282 1.717.813 1.717.5 0 .656-.313.875-1.686.156-.936.687-2.341 1.187-3.153.5-.811 1-1.904 1.094-2.466.156-.811.094-.968-.375-.968-.313 0-1.031.437-1.594.999l-1.031.999-1.031-.999c-1.032-.999-2.094-1.311-2.094-.624zm30 .531c-.219.468-.281 1.748-.125 4.089l.219 3.434 1.906-.031c1.063-.032 2.25-.125 2.688-.25 1.124-.312.25-.781-1.876-.968l-1.718-.156-.031-3.059c-.032-3.184-.407-4.245-1.063-3.059zm-7.656.655c-.125.344-.031 1.686.187 2.966.188 1.28.281 2.591.188 2.934-.125.468.062.624.781.78 1.344.281 1.813.219 1.813-.124 0-.188-.376-.313-.844-.313-.75-.031-.781-.062-.344-.343.5-.281.5-.375-.094-1.373-.437-.718-.625-1.561-.594-2.56.032-.812.032-1.748.032-2.06-.031-.75-.875-.687-1.125.093zm-13.375 1.717c-.125.25-.063.531.093.624.188.125.313.125.313.032 0-.063.094-.344.188-.625.093-.281.062-.499-.126-.499-.156 0-.374.218-.468.468zm-.281 2.185c.062.437.25.781.406.781.437 0 .343-.812-.157-1.218-.343-.281-.374-.187-.25.437zm-12.032.5l-.656.655 1.063.937c1.156 1.03 2.28 1.03 1.687.031a17.672 17.672 0 01-.625-1.436c-.344-1.03-.594-1.061-1.469-.187zm-4.625.593c-.093.156.032.312.313.312s.406-.156.312-.312c-.093-.188-.25-.312-.312-.312-.063 0-.219.124-.313.312zm-.25 1.248c-.156.656 0 .781.657.344.312-.187.312-.312-.032-.625-.375-.28-.5-.218-.625.281zm17.281 0c0 .594.094.656.375.375.282-.281.282-.468 0-.749-.28-.281-.375-.219-.375.374zm54.063 0c0 .156.156.313.313.313a.314.314 0 00.312-.313c0-.187-.125-.312-.312-.312a.313.313 0 00-.313.312zm50 9.115c-2.531 1.311-3.313 3.465-2.406 6.837.375 1.436.375 1.841.031 2.278-.813 1.124-1.094 3.434-.594 5.089.781 2.59 2.875 4.151 5.594 4.151 2.75 0 3.156-.343 4.219-3.527 1.031-3.059 1.187-4.402.625-5.65-.282-.593-.25-1.093.187-2.373.625-1.873.438-4.245-.406-5.681-1.063-1.81-4.75-2.372-7.25-1.124zm4.094 4.027c.656.656.593 1.748-.157 2.217-.593.405-1.843.28-2.437-.281-.688-.625-.719-.999-.063-1.905.594-.874 1.813-.874 2.657-.031zm.531 6.93c1.187 1.405.25 3.652-1.5 3.652-2.625 0-3.719-2.497-1.625-3.714.75-.469 2.75-.406 3.125.062zm12.437-10.676c-.437.5-.906 1.124-1.031 1.343-.156.218-.844.718-1.562 1.092-2.657 1.342-2.5 3.059.312 3.215l1.625.094.031 4.682c.032 2.56.063 5.213.094 5.869l.031 1.186 1.657-.094 1.625-.093.093-8.865c.063-6.899-.031-8.928-.312-9.147-.813-.499-1.781-.218-2.563.718zm-30-.218c-2.406.905-3.937 3.09-3.937 5.681 0 1.093.406 1.374 2.062 1.374.938 0 1.063-.094 1.063-.812 0-1.03 1.562-2.622 2.594-2.622 1 0 2 .874 2.281 1.966.219.937-.5 1.749-5 5.65-2.594 2.248-3.313 3.372-3.313 5.089 0 1.685.032 1.717 6.407 1.592l5-.094.281-.812c.156-.437.187-1.155.094-1.592-.188-.749-.375-.811-3.032-.999-1.531-.124-2.812-.343-2.812-.437 0-.124 1.062-1.279 2.344-2.528 2.781-2.747 3.593-4.245 3.593-6.649 0-1.998-.812-3.465-2.406-4.37-1.344-.781-3.719-.999-5.219-.437zm-54.562.25c-1.344.499-2.906 2.715-3.625 5.119-.594 2.123-.625 6.368 0 8.335 1.219 4.026 4.156 5.899 7.75 4.9 3.312-.936 4.687-6.243 2.625-10.301-.906-1.81-1.688-2.185-4.625-2.185-1.344 0-2.438-.125-2.438-.281 0-.499 1.25-1.873 1.907-2.06.375-.125 1.125.094 2 .593.781.468 1.843.812 2.468.812 1 0 1.125-.094 1.125-.812 0-1.28-.906-2.872-2.031-3.559-1.312-.811-3.719-1.061-5.156-.561zm3.125 9.614c1.656.874 1.437 4.558-.344 5.463-1.125.593-1.906.406-2.781-.687-1.844-2.341.625-6.118 3.125-4.776zm24.969-9.146c-1.375.718-1.844 1.155-2.438 2.372-.625 1.28-.687 1.717-.469 2.654.25 1.061.376 1.154 1.563 1.248 1.187.094 1.313.031 1.531-.78.344-1.405 1.344-2.279 2.688-2.279 1.218 0 1.625.312 2 1.498.375 1.28-.469 2.498-3.438 4.901-3.687 2.934-4.594 4.089-4.781 6.087l-.156 1.561h5.5c3 0 5.687-.062 5.906-.156.313-.125.375-.562.25-1.654l-.156-1.468-2.5-.093c-1.375-.063-2.625-.219-2.75-.344-.157-.156.531-.936 1.469-1.748 2.218-1.873 4.156-4.744 4.406-6.524.344-2.247-1.063-4.776-3.188-5.681-1.625-.687-3.531-.531-5.437.406zm66.5-.625c-.532.875-1.188 5.276-1.094 7.43.094 2.435.125 2.497.906 2.591.438.062 1.563-.188 2.5-.531 2.281-.874 2.906-.812 3.844.312 1.656 1.967.594 4.651-1.875 4.651-.938 0-1.438-.249-2.656-1.404-1.75-1.624-2.657-1.78-3.125-.562-.469 1.28-.094 2.653 1.062 3.777 1.281 1.217 2.344 1.623 4.375 1.623 4.031-.031 7.094-3.278 6.719-7.18-.188-1.966-1.281-4.089-2.406-4.776-.594-.343-1.563-.53-2.938-.53-2.281 0-3.031-.188-3.031-.781 0-.936 1.031-1.248 3.937-1.248 3.469 0 3.782-.188 3.375-2.092l-.281-1.342-4.594-.094c-2.5-.031-4.656.032-4.718.156zm-108.906.906c-1.844.905-3.063 2.31-3.532 4.027-.406 1.435-.094 2.996.531 2.747.688-.25.5.405-.25.905-1.062.718-.343 1.404 1.282 1.248 1.375-.124 1.562-.374.812-.998-.656-.562-.594-.843.313-1.062.656-.156.719-.281.437-.78-.594-.905-.094-2.092 1.094-2.654 1.438-.686 2.156-.624 3.219.188.625.53 1.187.686 2.062.624 1.094-.094 1.156-.156 1.156-1.124 0-1.217-1.093-2.965-2.187-3.527-1.25-.624-3.156-.468-4.938.406zm-2.407 5.431c.094.156-.031.312-.281.312-.281 0-.5-.156-.5-.312 0-.187.125-.312.281-.312.188 0 .406.125.5.312zm31.25-5.65c-2.812 1.28-4.469 5.026-2.219 5.026.407 0 1.157-.343 1.657-.749 1.562-1.311 2.187-1.499 3.156-1.062.656.313.875.656.937 1.561.094 1.062 0 1.218-1.156 1.78-1.375.717-1.531.998-1.344 2.278.094.593.313.874.688.874 1.062 0 1.594.375 2.156 1.53.969 1.904 1.063 2.778.375 3.153-1.531.811-3.625.031-4.75-1.748-.625-1.031-.781-1.124-1.781-.937-1.375.219-1.438.25-1.188 1.53.5 2.591 2.688 4.401 5.344 4.401 4.406 0 7.031-4.37 5.156-8.522-.593-1.248-.593-1.436-.156-2.716.25-.78.375-1.779.25-2.372-.281-1.498-1.562-3.933-2.25-4.308-.969-.499-3.5-.343-4.875.281zm-55.562.375c-1.094.811-2.532 3.621-3.032 5.931-.562 2.559-.28 6.961.563 8.615 1.188 2.31 3.531 3.465 6.25 3.091 2.219-.312 3-.874 3.438-2.56.218-.843.624-1.779.906-2.06.469-.531.469-.562 0-.562-.656 0-1-.593-.563-1.03.563-.562.406-2.778-.281-3.902-.344-.562-1.063-1.28-1.625-1.623-1.063-.656-2.906-.843-3.188-.344-.28.437-1.906-.093-2-.687-.187-.874 1.344-2.091 2.594-2.091.594 0 1.094.125 1.094.281 0 .468 2.031 1.249 2.75 1.061.813-.187.844-.718.094-2.591-.531-1.248-.719-1.404-2.094-1.779-2.25-.593-3.875-.499-4.906.25zm3.687 9.146c1.188.499 1.719 1.311 1.719 2.591 0 2.154-.625 2.716-2.813 2.653-2.812-.125-3.687-4.339-1.093-5.369.875-.374.968-.374 2.187.125zm-30.781-9.177c0 .156.156.312.312.312.188 0 .313.562.313 1.248 0 1.093.094 1.249.719 1.249.437 0 1.25.562 2.093 1.405 1.032 1.061 1.625 1.404 2.157 1.342 1.156-.156 1.125-.687-.094-1.342-.594-.312-1.031-.718-.938-.843.094-.125.438-.094.782.094.968.499 1.125.062.437-1.218-.406-.749-1.125-1.405-2.031-1.873-1.406-.687-3.75-.936-3.75-.374zm13.625-.094c-.469.125-.281.281.719.749.75.312 1.281.781 1.281 1.093 0 .281.344.905.781 1.436.594.718.782 1.279.782 2.434 0 1.717-.25 1.905-1.938 1.468-.656-.157-1.406-.188-1.688-.094-.374.156-.124.406 1 .999 1.25.655 1.626.749 2.094.437.5-.281.688-.25 1.063.312.781 1.124 1.75.687 2.343-1.093 1.126-3.277.438-7.21-1.312-7.679-.906-.249-4.25-.281-5.125-.062zm-16.281 1.061c-.125.188-.157.406-.063.5.219.218.844-.188.844-.562 0-.375-.531-.375-.781.062z" fill="#926363" fill-opacity=".5"/><path d="M41.875 142.843c-.406 1.217-.156 2.341.469 2.123.218-.094.5-.032.625.156.375.624 1.062.343 1.593-.656.344-.655.407-1.03.188-1.124-.188-.062-.844-.437-1.438-.842l-1.093-.75-.344 1.093zm45.563 2.872c-1.063.062-1.5.218-1.5.562 0 .218-.157.437-.376.437-.187 0-.062.281.313.624.375.343.875.624 1.156.624.25 0 .625.344.781.781.157.437.563.874.844.999 1.344.499 1.375 2.216.125 4.62-.5.967-.844 1.966-.75 2.216.094.281-.031.437-.375.437-.281 0-.469.187-.375.374.188.594 2.5.469 3.469-.156 2.438-1.623 2.719-7.086.5-10.145-.938-1.311-1.531-1.529-3.813-1.373zm-45.875.999c0 .156.218.312.468.312s.469-.156.469-.312c0-.188-.219-.312-.469-.312-.25 0-.468.124-.468.312zm1.875.312c0 .156.156.312.312.312a.313.313 0 00.313-.312c0-.187-.126-.312-.313-.312a.313.313 0 00-.313.312zm39.624 2.716c.532.218.47.718-.093.718-.25 0-.47.125-.47.312 0 .437 1.032.406 1.5-.063.657-.655.438-1.186-.468-1.155-.5 0-.687.094-.469.188zm-33.124.624c-.626.156-.657.312-.563 2.341.031.781-.094 1.748-.313 2.092-.25.53-.25.655.094.655.25 0 .625.219.844.468 1.094 1.311 2.5-.281 2.5-2.809 0-1.093-.188-1.623-.781-2.185-.782-.781-.844-.812-1.782-.562zm325.374 11.831c-29.156.281-74.624.78-92.812 1.061-11.25.156-37.125.468-57.5.624-20.375.188-39.531.437-42.562.531-5.126.156-5.563.219-5.563.749 0 .749.656.874 4.531.999l3.125.063v23.255c0 12.799-.125 24.068-.281 25.035l-.219 1.811h-9.125c-5.031 0-10.875.187-13.031.374-2.156.188-4.406.312-5 .281-.594-.031-2.719-.125-4.687-.218-1.969-.125-7.876-.031-13.126.156-5.25.218-31.124.53-57.5.718-70.906.499-79.5.624-80.093 1.155-.782.655-.657.874.687 1.092.688.094 11.469.032 24-.125 12.5-.187 38.938-.468 58.688-.624 19.781-.187 51.187-.468 69.844-.624 18.656-.156 45.656-.5 60-.781 25.218-.437 63.218-.874 107.968-1.248 11.875-.094 29.656-.406 39.532-.687 9.874-.25 20.593-.406 23.781-.312 4.094.125 5.937.062 6.187-.187.5-.5.407-1.405-.187-1.53-.281-.062-4.313 0-8.969.125s-26.469.374-48.469.562c-22 .187-45.969.468-53.281.624-17.188.406-64.094.937-81.656.937h-13.688l.188-20.853c.156-20.571.312-26.626.656-28.406l.188-.905L224 165.63c50.594-.28 102.812-.749 128.344-1.123 11.687-.188 25.281-.344 30.218-.375 8.782-.031 10.188-.187 10.469-1.061.282-.843-2.875-.999-17.719-.874zm-238.437 2.341c-6.438.125-21.188.312-32.781.375-17.438.093-21.063.187-21.313.561-.156.281-.062.531.25.718 1.219.656 13.688.843 36.188.5 12.718-.219 29.468-.406 37.187-.437 7.75-.031 14.25-.156 14.469-.281.531-.344.469-1.374-.125-1.592-.625-.25-18.656-.156-33.875.156zm-86.031 1.28c-.313.312-.469.718-.375.874.218.343 11.031.437 12.593.125.72-.156.938-.344.938-.937 0-.687-.125-.749-1.594-.749-.843 0-3.125.156-5.062.375-2.344.218-3.875.249-4.719.062-1.031-.281-1.313-.218-1.781.25zm21.781-.219c-.125.25-.5.468-.875.468-.344 0-.875.157-1.125.313-.313.218.75.312 3.281.312 4.813 0 6.094-.219 6.094-.968 0-.531-.281-.593-3.594-.593-2.937 0-3.656.094-3.781.468zm-53.125.437c-.688.375-1.688.469-4.25.437-2.031-.062-3.375.032-3.375.219s2.344.312 6.156.312c6.375 0 7.188-.219 3.938-1.061-1.344-.375-1.657-.344-2.47.093zm18.469-.281c-.094.156-.657.312-1.188.312-1.312 0-2.406.313-2.406.656 0 .312 9.156.312 10.281 0 .688-.187.688-.25.219-.624-.375-.312-1-.375-2.219-.219-1 .094-1.75.063-1.875-.125-.25-.406-2.562-.406-2.812 0zm-8.281.312c-.25.157-1.25.219-2.22.094-1.437-.125-1.78-.094-1.937.343-.187.437.219.5 3.469.469 4.438-.032 5.531-.312 3.188-.843-1.907-.437-1.907-.437-2.5-.063zm16.968.219c-.781.281-.406.593.844.624.687.031 1.312-.062 1.406-.249.125-.157-.094-.281-.437-.281-.313 0-.782-.063-1.032-.125-.218-.094-.593-.063-.78.031z" fill="#926363" fill-opacity=".5"/><path d="M314.563 171.374c-1.094.344-2.282 1.405-2.907 2.653-.625 1.187-.593 3.934.063 4.933 1.062 1.623 4.437 2.341 6.375 1.311 2.437-1.249 2.562-6.837.219-8.397-.969-.625-2.625-.843-3.75-.5zm2.812 3.34c1.313 3.122-1.656 6.181-3.312 3.434-1.313-2.123-.282-4.589 1.875-4.589.812 0 1.031.188 1.437 1.155zm26.406-3.121c-1.75.905-2.375 2.029-2.344 4.12.032 3.309 1.844 5.088 4.813 4.807 1.156-.125 1.562-.343 2.281-1.28.469-.593.844-1.342.844-1.685 0-.937-1.438-.718-2.406.374-.438.5-1.063.937-1.375.937-1.469 0-2.25-3.684-1.063-4.995.75-.811 1.375-.78 2.656.156 1.219.906 1.25.906 2 .375.469-.343.5-.499.157-1.28-.782-1.685-3.719-2.497-5.563-1.529zm8.406.312c-1.093.999-1.593 2.903-.937 3.683.219.25 1.125.687 2.031.968 2.094.593 2.563 1.092 2.063 2.185l-.344.812-1.125-.999c-1.25-1.093-2.406-1.155-2.563-.125-.062.343.219.905.594 1.248.875.812 3.844.843 5.063.032.718-.469.843-.749.843-2.092 0-1.654-.406-2.154-2.187-2.653-.969-.281-1.875-1.061-1.875-1.623 0-.593.875-.5 1.781.218 1.938 1.53 3.125.156 1.375-1.592-1.281-1.248-3.344-1.28-4.719-.062zm-56.843.312c-1.594.78-2.656 2.653-2.656 4.62 0 4.838 5.812 6.243 8.031 1.904.937-1.81 1.031-4.152.25-5.431-1.063-1.655-3.5-2.123-5.625-1.093zm3.406 2.248c.156.343.313 1.311.313 2.122 0 1.748-.813 2.903-2 2.903-1.657 0-2.594-3.558-1.313-4.963.781-.874 2.531-.905 3-.062zm22.844-1.624c-.188.656-.344 2.685-.344 4.527v3.371h.906c.844 0 .906-.094 1.125-1.717l.188-1.717h1.218c1.594 0 2.188-.25 2.188-.936 0-.781-.625-1.187-2.031-1.311-.844-.063-1.25-.25-1.25-.562 0-.344.468-.5 1.718-.625 1.532-.124 1.719-.249 1.813-.905.156-1.03-.375-1.28-2.969-1.28h-2.25l-.312 1.155zm12.906-.718c-.125.281-.219 2.123-.25 4.09-.031 2.965.062 3.652.5 4.089.437.437.625.468 1 .125.281-.219.5-.749.5-1.218 0-1.186.531-1.592 2.062-1.592 1.688 0 2.313-.78 2.313-2.84 0-2.279-.594-2.779-3.5-2.997-2.094-.156-2.438-.125-2.625.343zm3.781 2.841c0 .843-.094.936-.937.936-.657 0-.969-.156-1.032-.561-.156-.781.532-1.53 1.313-1.405.5.062.656.312.656 1.03zm-90.156-2.591c-2.125.593-3.438 2.435-3.438 4.838 0 2.747 1.782 4.464 4.594 4.464 2.563 0 4.313-2.154 4.25-5.244-.062-2.091-1.125-3.621-2.844-4.12-.625-.156-1.218-.313-1.312-.281-.094 0-.656.156-1.25.343zm2.781 3.153c.563 1.529.188 3.215-.969 4.058-.781.593-.906.593-1.593.125-2.407-1.561-1.532-5.713 1.187-5.463.75.062 1 .312 1.375 1.28zm6.125-3.34c-1.718.437-2.343.843-2.343 1.561 0 .593.156.749.75.749 1.156 0 1.406.593 1.5 3.777.093 2.747.125 2.934.781 3.028.969.156 1.406-.906 1.344-3.153-.125-3.559-.125-3.59 1.031-3.715 1.219-.125 1.594-1.248.594-1.779-.75-.406-2.813-.656-3.657-.468zm27.469.062c-.219.125-.438 1.655-.563 3.652-.218 3.746.094 4.995 1.219 4.995.531 0 .656-.281.781-1.935.25-2.935.313-2.904 2.313.593.781 1.373.937 1.498 2.062 1.498.875 0 1.25-.156 1.375-.562.313-1.124.532-6.056.344-7.242-.219-1.249-.25-1.28-1.344-1.186l-1.156.094-.094 2.247c-.062 1.249-.187 2.279-.312 2.279-.25 0-1.625-1.998-2.25-3.278-.531-1.061-.906-1.405-1.563-1.405-.25 0-.625.125-.812.25zm-45.75.562c-.594.25-1.188.624-1.313.843-.312.468.594 1.155 1.532 1.155.687 0 .718.125.718 1.998 0 1.092.094 2.622.188 3.433.187 1.343.281 1.436 1.094 1.436.781 0 .906-.093.843-.874-.031-.468-.031-1.998 0-3.402l.063-2.529 1.25-.218c.937-.156 1.25-.344 1.25-.781 0-1.436-3.281-2.06-5.625-1.061zm25.469.656c-.688 1.623-2.657 7.273-2.657 7.616 0 .5 1.063.281 2.344-.499 1.594-.968 2.375-.968 3.532 0 1.093.905 2.25 1.03 2.218.218 0-.281-.593-2.278-1.343-4.432L267 172.467l-1.156-.094c-1.063-.094-1.156 0-1.625 1.093zm2.031 3.371c0 .468-.812.999-1.125.718-.062-.094-.062-.406.063-.687.25-.624 1.062-.655 1.062-.031zm5.156-4.027c-.406.406-.469 1.155-.406 4.464l.094 3.933h2.968c2.75 0 2.969-.031 2.969-.624 0-.531-.25-.625-1.875-.718-1.031-.063-1.969-.281-2.094-.468-.125-.219-.156-1.499-.062-2.872.187-2.435-.156-4.214-.781-4.214-.157 0-.532.218-.813.499zm-194.625 1.405c-.281 1.061.063 1.311 1.5 1.124l1.313-.188.344 1.561c.468 2.029.468 3.153-.032 3.84-.5.686-2.312 1.092-3.562.749-.938-.25-1-.344-1.094-1.904-.063-1.124.063-1.905.438-2.56.75-1.28.718-1.467-.282-1.342-.875.093-.875.124-.969 2.653-.062 1.436.032 2.591.188 2.591.188 0 .375.281.469.624.219.905 2.75 1.967 4.031 1.717 1.969-.375 2.75-1.498 2.719-3.808-.031-2.779-.375-3.996-1.156-4.09-.47-.062-.688-.281-.594-.53.125-.25-.188-.468-.813-.562-.562-.125-1.312-.281-1.656-.375-.5-.156-.719-.031-.844.5zm13.563-.063c-.25.188-.563 1.093-.688 2.217-.125 1.061-.312 1.997-.406 2.091-.313.312-1.156-.593-1.938-2.154-.624-1.248-1.5-2.122-2.124-2.122-.376 0-.782 2.341-.876 5.306-.093 2.903-.03 3.278.438 3.371.844.157 1.313-1.154.938-2.528-.25-.936-.22-1.186.218-1.592.5-.468.594-.468 1.031.031.282.312.782 1.155 1.157 1.873.719 1.467 1.719 2.279 2.719 2.279.53 0 .718-.25.874-1.186.282-1.811.22-6.181-.124-7.055-.313-.874-.532-.968-1.22-.531zm-34.5.999c-.875.656-1.282 1.811-1.625 4.526-.125.875-.407 1.967-.625 2.435-.5.968-.563.968 1.125.188 1.812-.812 3.468-.812 4.187 0 .313.343.75.624 1 .624.656 0 .469-1.342-.531-3.84-.5-1.311-.938-2.622-.938-2.965 0-1.717-1.125-2.154-2.593-.968zm2 3.652c.218.594.156.687-.657.687-1.125 0-1.53-.593-.75-1.155.72-.53 1.094-.406 1.407.468zm6.594-3.558c-.657.343-.688.437-.25.78.28.25.5.906.5 1.499 0 1.155.468 2.278.968 2.278.188 0 .188-.218-.031-.593-.438-.843-.375-2.216.156-3.152.25-.438.438-.875.469-1.031 0-.343-1-.249-1.813.219zm-44.751.499c-.25.156-.375.344-.28.437.093.094.437-.031.78-.281.657-.499.25-.624-.5-.156zm4.063 1.936c0 .78.125.905.719.811 1.03-.156 1.125-1.373.093-1.56-.718-.157-.812-.063-.812.749zm-7.656.874c-.094.156.03.312.28.312.282 0 .5-.156.5-.312 0-.188-.124-.312-.28-.312a.592.592 0 00-.5.312zm9.844.624c.625.406 1.968.406 1.718 0-.093-.187-.656-.312-1.187-.312-.75 0-.875.094-.532.312zm-7.876.219c.22.093.5.062.594-.032.125-.093-.062-.187-.406-.156-.344 0-.438.094-.188.188zm284.875.249c-.281.718.094 1.405.75 1.405.782 0 1.438-.78 1.188-1.405-.219-.593-1.719-.624-1.938 0zM70.938 181.55c0 .25.156.375.312.281.188-.124.25-.343.156-.499-.281-.437-.469-.343-.469.218zm-5.813.75c-.031 1.186.625 1.092.75-.094.063-.531-.031-.843-.313-.843-.25 0-.406.406-.437.937zm5.813.312c0 .156.156.312.312.312a.313.313 0 00.313-.312c0-.188-.126-.312-.313-.312a.312.312 0 00-.313.312zM242.5 194.505c-.5.499-1 1.186-1.094 1.53-.219.686-.719.936-3.125 1.373-1.75.343-1.875.437-2.062 1.405-.438 2.029.312 2.684 2.593 2.341.625-.125 1.532-.094 1.969 0l.813.218-.063 6.4c-.031 3.496.031 6.461.094 6.555.375.375 2.344.468 3.156.156l.906-.343-.125-9.771c-.062-5.338-.25-9.989-.375-10.301-.406-.843-1.687-.656-2.687.437zm13.687-.468c-3.406 1.186-4.906 3.558-5.593 8.803-.594 4.651.468 9.208 2.468 10.644 4.125 2.934 9.875 1.623 11.5-2.653.719-1.873.469-5.182-.531-7.211-1.125-2.279-2.219-2.747-5.969-2.653-1.687.031-3.062-.032-3.062-.188 0-.624 1.344-2.31 2.062-2.591 1.032-.374 1.75-.156 3.657 1.155 1.687 1.155 2 1.218 3.187.687.688-.312.781-.468.594-1.467-.281-1.53-1.344-3.434-2.375-4.183-1.156-.843-3.969-.999-5.938-.343zm3.5 11.518c.844.437.938.656.938 1.904 0 1.78-.344 2.435-1.531 2.935-2.125.874-4.407-.531-4.407-2.716 0-2.216 2.657-3.34 5-2.123zm14.532-11.799c-3.625.811-5.75 3.028-5.875 6.118l-.063 1.311 1.75.094 1.719.093.875-1.56c.687-1.311 1.031-1.592 1.937-1.78 2.344-.437 3.813 2.123 2.282 4.058-.375.469-1.875 1.655-3.375 2.654-4.282 2.903-5.532 4.588-5.719 7.835l-.094 1.405 1.781.249c.969.156 4 .156 6.875.031l5.094-.28.094-1.686c.062-1.155-.031-1.779-.313-1.935-.218-.157-1.593-.281-3.062-.313-4.25-.031-4.25-.031-.656-3.34 3.375-3.121 4.406-4.744 4.406-6.867 0-2.029-.688-3.309-2.719-4.87-1.844-1.436-2.844-1.685-4.937-1.217zm-214.594 1.092c-.875.718-8.594 21.165-8.125 21.602.344.374 3.75.187 4.063-.219.156-.187.5-.905.718-1.561.657-1.841 1-1.998 5.032-2.154 4.124-.187 4.03-.218 4.937 2.154.594 1.561 1.063 1.842 3.281 1.936 1.875.062 1.906-.188.531-4.214-.718-2.061-2.468-6.712-3.937-10.395l-2.625-6.712-1.531-.374c-1.875-.5-1.75-.5-2.344-.063zm3.125 9.365c.563 1.779 1 3.371 1 3.559 0 .468-1.031.749-2.719.749-2.562 0-2.562 0-1.125-4.37.438-1.28.844-2.529.907-2.747.312-1.124 1-.125 1.937 2.809zm32.062-9.49c-.468.313-.937 20.821-.468 21.133.562.313 9.718.531 12.218.25l2.344-.25-.094-1.56c-.062-.874-.25-1.717-.406-1.873-.187-.188-2.062-.312-4.281-.312-2.188 0-4.281-.125-4.656-.25-.938-.343-1.032-1.436-.938-9.677.063-6.43.031-6.836-.531-7.273-.656-.468-2.594-.593-3.188-.188zm-20.093.562c-.688.5-.719.656-.5 2.279.312 2.372.281 2.747-.125 4.682-.188.937-.344 4.433-.344 7.836v6.149l1.188.187c.624.125 1.593.094 2.093-.031l.938-.25.031-3.121c.031-3.059.25-3.996 1.313-5.213.25-.281.687-.531.968-.531.281 0 1.938 1.998 3.781 4.558l3.282 4.526 2.094-.094c1.156-.062 2.187-.187 2.28-.312.344-.312-1.28-3.153-3.28-5.744-2.532-3.246-4.376-6.055-4.376-6.617 0-.219 1.47-1.873 3.25-3.59 1.782-1.748 3.47-3.559 3.782-4.027l.5-.843-1.438-.218c-2.656-.375-3.625.156-7.562 4.183-2.813 2.84-3.625 3.527-3.938 3.215-.219-.219-.437-1.717-.531-3.871l-.156-3.496-1.25-.094c-.781-.062-1.531.094-2 .437zm216.968 28.75c-.281.999-.656 1.998-.875 2.216-.218.219-1.625.781-3.156 1.249-3 .936-3.469 1.436-2.531 2.716.437.593.5.593 1.906.093 1.188-.405 1.469-.437 1.594-.093.281.718-.438 1.654-2.719 3.465-2.75 2.247-3.562 3.558-2.156 3.558 1.187 0 2.656-.843 4.156-2.372l1.469-1.53-.063 3.434c-.062 3.777.157 4.932.938 4.776.406-.062.562-.499.625-1.654.094-1.468.156-1.624 1.562-2.498 1.938-1.248 1.938-1.779-.093-2.528-.594-.219-.594-.25.093-.344 1-.187 1.75-1.435 1.344-2.247-.469-.843-.437-.968.25-.968.719 0 .875.562 1.156 4.246.282 3.995.157 4.432-1.531 4.557-.906.062-1.312.25-1.312.562 0 .562 2.093 1.748 3.781 2.123l1.281.281.219-2.061c.25-2.684.25-9.957 0-11.237-.188-.843-.344-.968-1.25-.968-.563 0-1.094-.125-1.188-.281-.187-.25 2.688-.655 4.844-.655 1.375 0 1.406-.125.75-1.811l-.5-1.186-2.25.406c-3.594.624-3.625.593-3.562-.812.031-1.436-.5-2.216-1.532-2.216-.625 0-.812.249-1.25 1.779zm23.469-.281l-2.5.843-.094 1.561c-.031.842-.281 3.09-.531 4.994-.5 3.559-.594 7.523-.281 9.178.187.842.281.936 1.031.78 1.438-.343 2.563-1.186 3.5-2.622 1.063-1.592.75-1.967-.937-1.124-1.438.749-1.907.656-1.907-.437 0-.999.594-2.497.969-2.497.125 0 .344.156.438.312.125.187.937.687 1.812 1.124 1.938.967 2.688 1.592 3.063 2.528.25.656.468.718 2.75.718 1.375 0 2.562-.125 2.656-.25.312-.499-1-1.654-3.094-2.653-1.969-.968-3.594-2.216-3.25-2.528.063-.063.719-.406 1.469-.781 1-.499 1.312-.843 1.312-1.436 0-.811-.781-1.404-1.875-1.404-.968 0-1.031-.656-.281-2.685 1.25-3.402 1.156-3.902-.812-4.308-.625-.125-1.782.125-3.438.687zm1.563 2.56c.093.156-.032.312-.282.312-.281 0-.5-.156-.5-.312 0-.188.125-.312.282-.312.187 0 .406.124.5.312zm-.782 3.121c0 .156-.218.312-.5.312-.25 0-.375-.156-.281-.312a.596.596 0 01.5-.312c.156 0 .281.125.281.312zm-48.281-5.306c-.469.905-.469 1.061-.031 1.717.594.936.625 1.404.094 1.404-.219 0-1.157.219-2.032.468-1.843.562-2.062 1.093-.968 2.466l.656.843-.625.687c-.5.531-.563.812-.313 1.28.594 1.061.125 3.933-1.062 6.43-.625 1.28-1.094 2.373-1.031 2.435.25.25 1.531-.374 2.531-1.248.906-.781 1.062-1.155 1.062-2.279 0-.812.188-1.467.469-1.717.406-.343.469-.156.469 1.467 0 1.03.187 2.092.406 2.404.406.53.438.53.781-.312.5-1.155.875-3.746.75-4.901-.125-.968-.812-1.124-1.687-.313-.313.281-.563.344-.563.157 0-.188-.062-.531-.156-.75-.125-.343.344-.624 1.719-1.03 1.031-.312 1.937-.499 2-.437.062.063 0 .749-.125 1.53-.469 2.341-.375 5.556.219 6.774l.5 1.092 3.062-.125c1.688-.031 3.188-.249 3.375-.405.406-.438-.437-4.464-1.125-5.214-.719-.811-1.031-.405-1.031 1.468 0 1.779-.219 2.029-1.906 2.029-.813 0-2.157-.906-2.157-1.499 0-.125.282-1.123.625-2.247l.625-2.029-.781-.625c-1.094-.905-.969-1.123.469-.905 1.844.312 2.25.063 1.812-1.124-.312-.936-.687-1.186-2.906-2.091-.469-.156-.187-.25 1.031-.343 1.594-.094 1.625-.094 1.625-1.124 0-1.311-.468-1.748-1.875-1.748-1.093 0-1.156-.063-1.593-1.499-.594-1.873-1.563-2.153-2.313-.686zm69.781-.625c-.781.469-1.031 2.061-.437 2.966.281.406 1.625 1.592 3 2.653 2.531 1.904 3.187 2.778 3.594 4.589.156.843.406 1.061 1.343 1.342 1.407.375 3.813.406 4.407.031.593-.405.25-.78-2.344-2.715-1.281-.968-3.031-2.591-3.875-3.684-.844-1.061-2.031-2.216-2.625-2.528a3.312 3.312 0 01-1.531-1.78c-.5-1.248-.688-1.342-1.532-.874zm23.5.156c-3.968.874-5.812 1.936-5.562 3.184.156.843 1.187.843 3.75 0 1.25-.437 2.719-.874 3.281-.998.938-.188 1-.125 1.344.998.562 1.998.75 7.024.344 8.71-.563 2.216-.75 2.341-2.469 1.81-.813-.218-1.688-.437-1.906-.437-.75 0 1.531 2.185 2.937 2.841 1.25.562 3.281.811 3.281.374 0-.125.282-3.808.657-8.178.437-5.525.531-8.023.312-8.241-.531-.531-3.75-.562-5.969-.063zm-210.312.75c-.156.343-.313 1.03-.313 1.529 0 .781-.156.937-1.187 1.249-2.094.624-2.313.905-1.969 2.872.156.936.375 2.434.469 3.308.187 1.53.156 1.624-.563 1.811-.437.094-.937.593-1.187 1.124-.313.749-.75 1.061-1.938 1.404-.843.25-1.875.469-2.281.469-.937 0-1.281.843-.594 1.498.469.468.657.468 2.438 0 1.094-.312 2.094-.406 2.219-.281.156.156-.188.343-.75.468-.969.188-.969.219-.844 1.561.156 1.249.094 1.405-.906 2.185-.563.468-.969.968-.875 1.155.312.468 1.812.312 3.031-.312 1.125-.624 1.125-.624 1.656 0 .875.937 1.75.749 3.031-.718l1.125-1.342.407.874c.406.905.781.999 3.593.655 1.5-.187 1.625-.281 2.438-1.748 1.156-2.029.844-2.872-1.188-3.433-2.187-.594-1.343-.937 1.719-.687l2.781.218v-.967c0-.843-.156-.999-1.156-1.28-.656-.187-1.344-.344-1.562-.344-.188 0-.625-.468-1-1.03-.344-.562-.969-1.342-1.407-1.748-1-.936-1-1.28-.156-3.34.438-1.03.594-1.904.469-2.435-.188-.718-.375-.811-1.438-.811-1 0-1.25-.125-1.25-.562 0-1.592-2.125-2.622-2.812-1.342zm.531 14.889c-.281.281-.875-.187-.656-.561.125-.188.312-.188.531.031.188.187.25.406.125.53zm3.469 2.092c.062.375-.094.531-.531.531-.719 0-.75-.032-.469-.781.25-.593.875-.468 1 .25zm-6.813.843c0 .156-.156.312-.343.312-.157 0-.219-.156-.125-.312.093-.188.25-.312.343-.312.063 0 .125.124.125.312zm93-17.949c-.093.281-.187 1.092-.187 1.81 0 2.123-.281 2.778-1.063 2.529-.343-.094-.781-.219-.937-.25-.156 0-.656.936-1.156 2.091-.938 2.279-1.625 5.213-1.188 5.213.156 0 .75-.249 1.375-.53.75-.344 1.188-.437 1.406-.219.532.531.063 1.218-1.906 2.747-1 .781-1.844 1.53-1.844 1.655 0 .156.375.499.813.811.781.593.812.562 1.937-.156 2.219-1.436 2.313-1.436 2.188.593-.094 1.748-.063 1.811.719 1.904l.812.094.188-2.965c.281-4.121 1.031-5.775 2.562-5.432.406.063.375.281-.281 1.217-1.5 2.186-.781 3.091 1.094 1.343 1.406-1.343 1.593-.781.312 1.03-1.625 2.247-1.656 2.622-.094 2.247 1.063-.218 1.219-.187 1.875.656.375.499 1.188 1.061 1.782 1.249 1 .343 1.156.312 1.718-.375.938-1.124 1.719-2.966 2.657-6.274l.875-3.06-.688-.686c-.562-.562-1.125-.718-3.156-.781-2.938-.156-3.094-.405-1.406-2.528.593-.749 1.093-1.498 1.093-1.655 0-.374-1.468-1.81-1.875-1.81-.343 0-1.375 1.592-2.906 4.339l-.844 1.592-.937-.468c-1-.531-1-.5-1.063-4.058-.031-2.123-.062-2.185-.843-2.279-.532-.063-.907.094-1.032.406zm9.375 12.767c-.468 1.186-1.593 2.31-1.968 1.935-.25-.249.531-2.403 1.437-3.933l.813-1.405.093 1.062c.063.593-.125 1.654-.375 2.341zm-53.125-10.364c-.124 1.436-.281 3.184-.374 3.902-.219 1.436-.063 1.374-3.782 2.279-1.468.375-1.594.718-1 2.497.344.968.406.999 1.719.812 1-.125 1.375-.063 1.375.218 0 .968-1.812 3.028-4.094 4.714-1.812 1.311-2.406 1.904-2.093 2.091 1.312.843 3.499-.093 6.249-2.684 1.157-1.124 2.282-2.029 2.438-2.029.188 0 1.094.531 2.062 1.155 1.626 1.092 2.626 2.341 2.626 3.309 0 .53 4.812.967 6.531.593l1.093-.25-1.156-.936c-.656-.531-2.094-1.28-3.281-1.686-1.781-.624-2.375-1.03-4.031-2.778-1.063-1.124-1.938-2.31-1.969-2.591 0-.312.687-.937 1.719-1.561 1.937-1.155 2.094-1.405 1.75-2.653-.25-.937-.844-1.062-2.594-.562-.875.218-.875.187-.844-1.124 0-.749.125-2.091.282-2.934.281-1.873 0-2.341-1.407-2.341h-1l-.219 2.559zm23.407-1.748c-1.375.5-2.657 1.561-2.657 2.217 0 .249.625.686 1.407 1.03.781.343 1.406.718 1.406.874 0 .437-.688.936-1.625 1.155-.813.218-.813.249-1.031 3.839-.125 2.029-.282 3.746-.375 3.902-.282.437-1.344-.468-1.969-1.654-.594-1.155-.594-1.311-.156-2.185.25-.5.468-1.062.468-1.28 0-.531-.968-1.186-1.781-1.218-.656 0-.719.125-.719 1.811 0 .999.219 2.56.5 3.465.25.905.438 1.686.375 1.717-.062.031-.687.249-1.406.468-1.437.406-1.781 1.155-.875 1.904.344.281.688.281 1.594 0 .75-.25 2.25-.343 4.156-.25 2.625.125 3.313.281 5.469 1.28 2 .937 2.844 1.155 4.375 1.155 1.875 0 4.062-.749 4-1.373-.031-.469-2.594-1.405-3.813-1.405l-1.093-.031.093-2.872c.032-1.592.219-4.089.375-5.525.313-2.841.219-3.153-1.125-3.153-.375 0-.843-.187-1.031-.406-.375-.468.125-1.061 1.469-1.748 2.75-1.436-2.625-2.965-6.031-1.717zm4.406 6.587c-.219.218-.813-.219-.813-.593 0-.188.188-.188.469.062.281.219.406.468.344.531zm.125.999a.593.593 0 01-.313.499c-.156.094-.312-.031-.312-.281 0-.281.156-.499.312-.499.188 0 .313.125.313.281zm-.125 2.996c.219.562-.438 1.468-.844 1.218-.156-.094-.281-.5-.281-.937 0-.843.844-1.061 1.125-.281zm-3.563.906c.125.187.25.967.25 1.716 0 1.249-.062 1.343-.687 1.155-.406-.093-.906-.187-1.094-.187-.437 0-.562-2.029-.219-2.934.219-.562 1.344-.406 1.75.25zm4.469 3.34c.406.406-1.375.374-2.656-.094-.938-.312-1-.375-.469-.749.469-.343.75-.343 1.688.062.625.25 1.25.593 1.437.781zm81.625-14.797c-.531.094-.969.406-1.125.812-.156.375-.375 2.872-.469 5.525-.125 2.654-.375 5.713-.531 6.805-.312 2.029-.031 3.184.781 3.184.938 0 1.282-1.061 1.438-4.183.156-3.152.156-3.152.937-3.059 2.469.281 2.25.531 2.313-2.591.031-1.56.187-3.683.344-4.776l.25-1.935-1.532.031c-.843.031-1.937.125-2.406.187zm.969 5.307c-.125 1.218-.875 1.311-.875.125 0-.656.156-.968.5-.968s.437.25.375.843zm-136.656-3.964c-4.5 1.217-4.063.905-4.031 2.996.031 2.186.843 4.246 2.281 5.682.656.624.843.999.562.999-.25 0-.781.249-1.187.593-.656.53-.688.655-.344 1.436.344.718.531.842 1.312.655.532-.094.938-.031.938.125 0 .499-1.062.905-3.312 1.249-2.563.405-3.563.967-3.563 2.029 0 .999.875 1.03 3.875.062 2.031-.624 2.75-.687 8.562-.624 4.813.062 6.313 0 6.313-.312 0-.188-.281-.968-.625-1.717l-.594-1.343-1.844.219c-1.374.156-2.093.062-3.031-.343l-1.25-.562.938-.188c.843-.187.937-.312.937-1.311 0-.624.156-1.311.344-1.56.219-.25 1-1.78 1.781-3.403 1.344-2.778 1.407-3.028.969-3.683-1.094-1.686-4.969-2.092-9.031-.999zm4.781 4.932c.062.218-.188.374-.531.374-.657 0-.844-.343-.438-.749.281-.281.813-.062.969.375zm-.406 3.184c.094.156.031.312-.125.312-.188 0-.344-.156-.344-.312 0-.187.063-.312.125-.312.094 0 .25.125.344.312zm84.719-8.241c-.625 1.654.406 3.683 1.781 3.496 1-.125 1.156-2.435.25-3.34-.781-.78-1.75-.843-2.031-.156z" fill="#926363" fill-opacity=".5"/><path d="M213.437 226.595c-.468.874-.5 2.778-.062 3.215.469.468 2.437.499 2.875.062.406-.405-.844-2.903-1.781-3.496-.594-.374-.719-.343-1.032.219zm121.032 1.654c-.188.406-1.188 1.779-2.219 3.09-3.281 4.152-3.594 5.494-1.031 4.464.906-.343 1.5-.874 1.937-1.654.313-.624 1.313-1.998 2.156-3.09.907-1.155 1.563-2.279 1.563-2.747 0-.656-.156-.75-1.031-.75-.782 0-1.125.188-1.375.687zm20.718.562c-1.531.499-2.906 1.03-3.062 1.186-.156.156-.094.593.156 1.062.313.655.531.749 1.125.499.594-.219 2.406-.624 8.375-1.967.625-.156.656-.249.344-.936-.313-.718-.531-.78-2.25-.78-1.219.031-2.906.343-4.688.936zm-18.531 1.623c-.187.219-.562 1.124-.844 2.029-.281.874-1.062 2.217-1.718 2.966-1.782 2.029-2.063 2.653-1.469 3.527.469.718.5.718 2.75.281 1.25-.25 2.656-.562 3.156-.718.688-.25 1.094-.187 1.938.312a3.822 3.822 0 002.25.531c1.093-.094 1.187-.156 1.125-.999-.032-.468-.407-1.53-.813-2.341-.687-1.249-.906-1.436-1.906-1.53-.813-.062-1.563.156-2.563.718-.781.468-1.5.781-1.562.687-.063-.062.5-1.061 1.281-2.216l1.438-2.061-.782-.78c-.843-.843-1.812-.999-2.281-.406zm4.594 5.838c0 .624-1.094 1.592-1.781 1.592-.282 0-.313-.219-.063-.843.5-1.374 1.844-1.904 1.844-.749zm15.062-4.776c-.906.218-2.031.624-2.531.905-.875.437-.906.499-.562 1.561.187.624.781 1.623 1.312 2.278l1 1.155 1.719-.562c.937-.281 2.031-.53 2.406-.53.5 0 .813-.344 1.25-1.374.344-.749.656-1.748.719-2.247.094-.781-.031-.937-1-1.28-1.406-.468-2.281-.468-4.313.094zm1.688 2.029c.281.499-.656 1.342-1.25 1.123-.656-.249-.625-1.061.062-1.248.875-.25.969-.219 1.188.125zm-98.813-.812c-.687 1.03-.906 4.12-.437 6.056.344 1.498 1.312 3.153 1.844 3.153.437 0 2.218-4.246 2.531-5.994.156-.905.375-1.998.5-2.403.375-1.28-.906-.656-1.531.749-1 2.341-1.625 3.402-2 3.527-.657.187-.469-.968.531-3.309.531-1.217.937-2.279.937-2.372 0-.125-.406-.187-.937-.187-.625 0-1.094.249-1.438.78zm106.75 20.477c-5.25.125-21 .375-35 .562-14 .188-31.312.469-38.437.656-19.938.437-70.531 1.092-78.594.999-3.937-.063-10.781.062-15.156.249-4.375.188-23.938.375-43.438.469-19.5.062-37.718.281-40.468.468-2.75.156-27.781.437-55.625.624-33.063.188-51 .406-51.719.625-.594.187-1.875.218-2.813.124-1.75-.187-4.187.25-4.53.812-.47.78 2.155.843 19.374.624 44-.624 76.469-.967 117.969-1.248 24.5-.188 56.562-.531 71.25-.781 14.687-.249 40-.593 56.25-.78 37.562-.406 67.406-.843 84.687-1.28 7.469-.156 19.532-.312 26.813-.312 13.156 0 14.5-.094 14.875-1.061.406-1.124-4.625-1.28-25.438-.75zm-41.562 4.433l-.781.406-.188 6.056c-.125 3.34-.219 9.645-.25 14.016l-.031 7.928 2.062-.187c1.157-.125 2.157-.25 2.219-.343.063-.063.219-6.4.313-14.047.187-12.393.125-13.923-.282-13.923a9.16 9.16 0 01-1.375-.156c-.5-.093-1.25 0-1.687.25zm9.062-.094c-1.093.25-1.125.937-1.281 15.608l-.125 12.33 1.281.094c1.25.094 1.313.063 1.469-.936.125-.562.281-6.868.406-14.016.219-12.58.188-12.986-.375-13.142a3.521 3.521 0 00-1.375.062zm-32.718.219c-.469.094-.813.437-.938.968-.125.468-.218 6.805-.218 14.109l-.032 13.267 2.063.093 2.062.094.188-5.868c.125-3.216.219-9.615.219-14.172 0-7.305-.063-8.366-.5-8.522-.532-.188-1.719-.188-2.844.031zm5.656.031c-.906.593-1.031 2.497-1.063 15.202v12.923l1.001.188c.562.093 1.562.062 2.218-.063l1.188-.249.187-13.704c.188-13.048.157-13.735-.375-14.141-.625-.437-2.593-.562-3.156-.156zm5.5.063c-.406.249-.5 2.247-.594 14.203l-.093 13.891H314l.219-3.216c.094-1.748.156-8.116.094-14.109l-.094-10.925-.938-.094c-.5-.031-1.156.062-1.406.25zm4.437.062c-.406.531-.812 19.354-.531 24.255l.25 3.777h2.313l.187-3.996c.281-5.057.281-22.163.031-23.443-.156-.811-.343-.968-1.062-.968-.469 0-1 .188-1.188.375zm13.219 0c-.125.437-.468 12.08-.625 21.195-.062 3.184 0 5.963.157 6.181.125.219.5.344.812.281.469-.094.594-.406.625-1.342 0-.687.125-3.808.25-6.93.344-7.835-.062-19.76-.656-19.76-.219 0-.469.188-.563.375zm-41.437.437c-.344.406-.438 3.278-.531 14.016l-.125 13.516.687.375c.625.343 3.25.281 3.594-.063.062-.062.219-6.336.344-13.953.187-11.737.156-13.86-.219-14.109-.781-.469-3.281-.344-3.75.218zm7.25.094c-.375.655-.531 26.377-.188 27.251.282.718.688.718 1.094-.031.344-.656.469-25.847.125-27.127-.25-.842-.625-.874-1.031-.093zm-33.188-.063c-.531.094-.937.406-1.062.812-.125.374-.313 6.68-.375 14.016l-.157 13.298 1.375.218c2.969.437 2.875.562 3.094-4.214.281-6.087.313-23.661.063-23.818-.469-.281-2.125-.437-2.938-.312zm10.313 0c-.781.125-.813.25-1 2.435-.125 1.28-.313 7.554-.406 13.922-.188 9.802-.157 11.613.218 11.862.5.312 2 .375 3.313.094l.937-.187.157-11.738c.093-6.492.062-12.829-.032-14.109l-.187-2.341-1.094-.031c-.594-.032-1.469 0-1.906.093zm11.062.156c-.125.219-.343 6.243-.468 13.361-.219 14.265-.219 14.452 1.5 14.609l.968.093.219-2.903c.438-5.993.594-14.64.344-20.009l-.219-5.525h-1.031c-.594 0-1.156.187-1.313.374zm-38.093.25c-.938.375-1 1.155-1.25 15.639L244 286.779l.844.218c.468.125 1.437.125 2.187.031l1.313-.218.218-1.873c.094-1.062.188-7.273.188-13.86 0-11.113-.031-11.956-.531-12.08-1.469-.406-2.188-.469-2.781-.219zm11.187.094c-.375.437-.594 26.564-.219 27.438.156.375.563.562 1.25.562h1.031l.282-3.683c.125-1.998.25-8.272.25-13.891-.032-8.647-.094-10.301-.469-10.52-.656-.437-1.75-.375-2.125.094zm10.406-.094c-.094.187-.281 6.274-.375 13.516-.219 14.36-.187 14.578 1.438 14.578 1.531 0 1.625-1.092 1.531-15.452l-.094-12.798-1.156-.094c-.625-.062-1.219.063-1.344.25zm11.938.125c-.25.655-.344 26.877-.094 27.282.906 1.468 1.094-.749 1.313-15.358.125-9.489.062-11.893-.25-12.08-.563-.375-.782-.344-.969.156zm-41.5.187c-.438.25-.532 1.842-.75 13.548-.157 9.645-.125 13.391.125 13.891.531.967 2.406.936 2.656-.063.25-1.061.312-24.504.031-26.221-.187-1.217-.344-1.467-.906-1.467-.344 0-.875.156-1.156.312zm-36.25.812c-.25.624-.375 4.869-.407 14.328l-.031 13.423h1.938c1.062 0 2.031-.094 2.125-.219.25-.25.406-27.595.156-27.813-.094-.094-.906-.281-1.781-.406-1.594-.187-1.657-.187-2 .687zm10.656-.5c-.531.313-.531.999-.688 18.012-.093 8.615-.031 9.489.438 9.989.437.406.719.468 1.406.218.875-.281.875-.343 1.125-3.714.188-2.716.031-24.255-.187-24.38-.407-.281-1.75-.343-2.094-.125zm14.563-.031c-.094.156-.188 6.337-.188 13.766-.031 9.802.063 13.61.344 13.922.187.25.687.437 1.062.437 1.375 0 1.5-1.311 1.532-14.515.031-6.711-.063-12.549-.219-13.048-.188-.718-.406-.843-1.313-.843-.562 0-1.125.125-1.218.281zm7.5.219c-.094.281-.188 5.088-.157 10.707 0 5.618-.093 11.206-.187 12.392-.188 1.686-.094 2.435.281 3.403.406.936.594 1.124.906.811.282-.281.407-3.308.469-11.83.125-12.362-.031-15.983-.719-15.983-.218 0-.5.219-.593.5zm16.531-.125c-.063.218-.219 5.868-.282 12.58-.093 6.68-.187 12.58-.218 13.079-.063.812.843 1.998 1.218 1.623.344-.374.657-13.735.5-20.259-.187-5.993-.312-7.398-.656-7.398-.219 0-.5.188-.562.375zm-61.157.312c-.406.343-.531 1.81-.687 9.958-.125 5.244-.125 11.456 0 13.828l.219 4.246h4.281v-28.032l-.687-.187c-1.188-.312-2.594-.219-3.126.187zm7.344 0c-.375.499-.75 20.29-.437 24.754l.187 3.122h1.094c.875 0 1.094-.125 1.281-.781.125-.437.219-6.774.25-14.141l.031-13.329H198c-.563 0-1.188.188-1.344.375zm10.313.468c-.125.468-.25 6.774-.25 13.985 0 12.892 0 13.11.625 13.11s.625-.218.625-13.859c0-10.582-.094-13.891-.375-13.985-.219-.094-.5.25-.625.749zm10.843-.53c-.406.249-.5 2.247-.625 13.641-.093 7.804-.062 13.516.094 13.735 1.188 1.623 1.469-1.717 1.469-17.45 0-5.619-.094-10.239-.219-10.239-.156 0-.469.156-.719.313zm2.907.062c-.125.218-.344 6.243-.438 13.36-.156 11.175-.125 13.048.281 13.704.344.593.5.655.688.312.437-.749.531-27.532.094-27.657-.188-.062-.469.062-.625.281zm-58.657.406c-.437.468-.5 1.966-.5 13.766 0 8.553.126 13.485.313 13.891.469.843 1.813.78 2.156-.125.157-.406.188-5.307.094-11.019-.125-5.65-.094-11.363.031-12.674.219-1.81.156-2.622-.156-3.277-.5-1.03-1.25-1.249-1.938-.562zm10.751-.188c-.407.281-.469 2.279-.563 14.235l-.094 13.891h4.032l.218-2.373c.344-3.652.032-25.035-.375-25.44-.468-.469-2.656-.687-3.218-.313zm7.249.094c-.281.281-.375 3.871-.375 14.203v13.829h2.813l.062-11.8c.094-14.234.094-15.139-.375-15.951-.375-.718-1.531-.874-2.125-.281zm-51.343.468c-.344.406-.469 3.184-.532 14.36l-.125 13.828h1.25c1.125 0 1.25-.094 1.438-.968.094-.53.187-6.68.187-13.672 0-10.988-.062-12.798-.5-13.392-.562-.811-1.125-.874-1.718-.156zm12-.156c-.125.219-.281 6.618-.344 14.235l-.094 13.828 2.125-.093 2.125-.094.094-11.238c.063-6.18 0-12.517-.094-14.047l-.219-2.809-1.656-.094c-1.094-.031-1.781.063-1.937.312zm7.312-.156c-.281.25-.281 26.721-.031 27.376.094.281.375.5.594.5.593 0 .875-8.21.593-18.886-.218-8.99-.312-9.833-1.156-8.99zm3.094.063c-.344.562-.219 27.594.125 27.938.344.343 3.375.374 3.719.031.281-.281.437-23.943.187-26.315l-.219-1.935h-1.812c-1 0-1.906.125-2 .281zm16.812.093c-.125.188-.312 6.025-.375 12.892-.156 12.393 0 14.828.907 14.828.375 0 .375-27.688 0-27.938-.157-.094-.407 0-.532.218zm16.282.281c-.125.344-.125 1.28-.032 2.092.125.811.094 5.4-.062 10.207-.313 10.457-.156 14.609.594 14.765.656.125.906-3.465.906-13.547 0-9.521-.25-14.172-.813-14.172-.218 0-.5.281-.593.655zm-73.125-.093c-.5.062-1.032.281-1.157.468-.312.53-.031 27.095.313 27.438.156.156.687.25 1.187.188.688-.063.938-.312 1.157-1.187.343-1.342.093-25.128-.282-26.221-.218-.624-.437-.749-1.218-.686zm11.312-.063c-.125.125-.218 6.524-.218 14.203v13.954l.75.187c.406.094 1.406.094 2.187 0l1.438-.219-.032-8.303c-.031-4.557-.125-10.894-.25-14.078l-.187-5.775-1.719-.094c-.969-.062-1.844 0-1.969.125zm12.156.5c-.312 1.56-.437 25.94-.125 26.814.219.655.532.905 1.032.905 1.562 0 1.562-.125 1.531-13.298-.031-6.742-.156-12.892-.25-13.672-.219-1.343-.281-1.436-1.125-1.436-.719 0-.969.156-1.063.687zm24.094 2.341c-.281 3.964-.281 18.542-.031 22.194.187 2.373.281 2.81.625 2.529.656-.531.656-27.751.031-27.751-.312 0-.5.811-.625 3.028zm-86.812-1.873c-.25.593-.25 2.216-.063 5.088.125 2.31.188 7.773.125 12.112-.062 4.339 0 8.522.125 9.302l.188 1.405 1.906-.094 1.906-.094-.062-9.52c-.031-5.245-.156-9.833-.25-10.239-.094-.375-.344-.687-.594-.687-.219 0-.563-.281-.75-.624-.281-.531-.219-.687.438-.968.874-.406 1.124-1.342 1.124-4.058 0-1.717-.062-1.873-.812-2.154-.438-.187-1.281-.312-1.875-.312-.875 0-1.125.156-1.406.843zm12.719-.25c-.5.531-.532 1.655-.376 14.078.126 10.707.22 13.579.563 13.766.563.375 1.438.344 1.656-.031.281-.437.563-24.442.313-26.127-.188-1.249-.813-2.279-1.375-2.279-.125 0-.5.25-.781.593zm33.093-.281c-.125.187-.187 5.994-.156 12.892 0 6.899 0 12.955-.031 13.423-.063.936.468 1.748.875 1.342.437-.406.312-27.75-.125-27.875-.188-.063-.438.031-.563.218zm-60.906.25c-.156.25-.313 5.744-.25 8.334.031.843.031 5.432.031 10.177-.031 8.397-.031 8.647.625 9.302.813.812 1.469.843 1.844.094.313-.625.25-14.547-.094-22.632l-.25-5.525h-.875c-.468 0-.937.125-1.031.25zm10.656-.031c-.281.249-.281 19.416 0 24.379l.188 3.808h.875c1.469 0 1.437.094 1.312-18.823l-.094-9.583h-1.03c-.594 0-1.157.094-1.25.219zm27.563 4.994c.031 2.903-.031 8.834-.156 13.204-.126 6.087-.094 8.179.218 8.897.375.874.406.749.688-2.185.344-3.933-.031-25.129-.469-25.129-.188 0-.313 1.998-.281 5.213zm6.156-4.682c-.063.312-.25 6.337-.344 13.36-.219 12.393-.187 12.83.375 13.548l.625.749.219-3.34c.25-4.058-.125-24.504-.469-24.723-.125-.062-.312.125-.406.406zm2.781 5.65c-.25 6.711-.062 21.195.313 21.539.093.125.406-.063.687-.406.344-.437.406-1.061.281-2.185-.093-.874-.187-6.774-.187-13.142 0-9.646-.063-11.643-.438-11.768-.343-.156-.468.905-.656 5.962zm-42.719 7.304c-.062 7.274-.03 13.517.032 13.891.125.843.843.968 1 .156.062-.281.062-6.492-.032-13.766-.125-9.958-.25-13.266-.53-13.36-.282-.094-.407 2.934-.47 13.079zm17.094-10.613c-.312 3.84-.344 24.348-.031 25.066.563 1.374.844-1.061.813-7.335-.094-12.393-.25-20.01-.407-20.166-.094-.093-.25.999-.375 2.435zm13.469-1.405c-.25 1.436-.031 7.367.25 7.867.531.842.656.062.656-3.996 0-2.872-.125-4.495-.344-4.714-.28-.28-.406-.062-.562.843zm-58.156.156c-.094.562-.125 4.714-.094 9.24l.094 8.241.78.593c.438.312.626.593.438.593-.437 0-.78.999-.875 2.654-.062.686-.187 2.278-.343 3.496l-.25 2.279h2.593l-.062-13.985-.094-13.953-1-.094c-.906-.094-1 0-1.187.936zm4.5-.874c-.063.063-.063 6.181.031 13.579.125 9.739.25 13.517.531 13.797.282.281.344-2.809.313-13.453-.063-12.955-.157-14.609-.875-13.923zm4.781 13.61c-.063 8.429.031 13.735.188 13.735.5 0 .78-11.113.53-18.885-.312-9.053-.28-8.585-.468-8.585-.094 0-.219 6.181-.25 13.735zm7.562-13.298c-.093.281-.093 2.279 0 4.464.125 2.217.22 4.495.25 5.088.032.594 0 1.936-.062 2.966a286.04 286.04 0 00-.094 7.023v6.181c0 .562.156 1.186.344 1.374.281.281.375-2.872.375-13.392 0-8.928-.125-13.86-.313-13.984-.187-.094-.406.031-.5.28zM91.75 273.98c-.281 4.245-.156 13.267.219 14.141.312.718.343.655.562-.781.125-.874.25-4.838.25-8.834.031-5.993-.031-7.242-.406-7.242-.313 0-.469.687-.625 2.716zm124.094 14.984c-.125.093-.219 1.342-.219 2.747v2.559l1.594.156c1.062.125 1.812.375 2.25.843l.687.656-1 .999c-.656.655-1.406 1.03-2.25 1.155-1.219.187-1.25.218-.875.967.594 1.155 2.625 1.062 4.219-.218 1.344-1.093 1.625-2.529.906-4.62-.375-1.093-.594-1.28-2.031-1.717-.875-.25-1.688-.562-1.781-.687-.25-.249 1.875-.874 3.062-.874 1.063 0 1.156-.999.156-1.685-.718-.5-4.312-.718-4.718-.281zm10.094.374c-.157.344-.313 1.53-.313 2.622v2.029l1.344.219c1.562.25 2.719.936 2.719 1.592 0 .874-1.469 1.998-2.625 1.998-.938 0-1.157.125-1.313.811-.281 1.062.313 1.436 1.875 1.218 1.688-.25 2.906-1.03 3.469-2.217 1.031-2.185.094-5.119-1.656-5.119-.469 0-1.157-.219-1.5-.468-.5-.406-.532-.5-.125-.781.25-.156 1.062-.312 1.812-.312 1.281 0 1.313-.031 1.313-1.092v-1.093h-2.344c-1.969 0-2.375.094-2.656.593zm-50.157 1.655c-.094.562-.156 2.934-.094 5.244l.094 4.214 2.5.094c2.188.093 2.625.031 3.281-.531.782-.656.782-.656.188-1.124-.406-.312-1.313-.468-2.563-.468h-1.937l-.219-2.279c-.125-1.28-.156-3.09-.125-4.058.094-1.28 0-1.81-.281-1.935-.625-.25-.656-.219-.844.843zm-48.406-.375c-2.031.624-2.969 2.497-1.938 3.902.375.531.344.718-.312 1.498-1.438 1.686-.813 3.746 1.437 4.901 1.907.968 3.282.843 4.563-.437 1.25-1.248 1.344-2.185.437-4.214-.531-1.155-.593-1.561-.312-2.404.219-.593.281-1.311.156-1.654-.406-1.342-2.312-2.091-4.031-1.592zm1.344 2.154c.531.343.218 1.28-.407 1.28-.593 0-.906-.531-.687-1.093.187-.53.469-.562 1.094-.187zm1.125 4.214c.937.687.218 1.967-1.282 2.248-1 .187-1.25.093-1.75-.5-.312-.374-.562-.874-.562-1.124 0-.999 2.5-1.436 3.594-.624zm26.718-3.246c-1.437 4.994-1.656 8.365-.406 6.773.188-.187.5-.905.719-1.592.344-1.092.437-1.186 1.312-.998.532.093 1.219.187 1.532.187.406 0 .593.218.593.655 0 .968.594 1.842 1.25 1.842.688 0 .625-.749-.468-5.151-1.094-4.245-1.532-5.15-2.625-5.15-.875 0-.907.094-1.907 3.434zm2.5-.032c.469.874.407 2.217-.125 2.217-.75 0-1.187-.843-.968-1.873.25-1.093.625-1.186 1.093-.344zm6.125-2.715c-.093.405-.218 2.434-.312 4.526-.125 3.434-.094 3.871.437 4.526.532.624.657.656.938.25.187-.25.25-1.03.156-1.717-.25-1.998.219-2.341 1.469-1.061.562.593 1.312 1.436 1.656 1.904.344.468.938.905 1.344 1.03.594.156.687.094.687-.624 0-.593-.468-1.28-1.562-2.342-.906-.874-1.563-1.779-1.563-2.153 0-.375.563-1.28 1.25-2.029 1.407-1.53 1.813-2.903.782-2.747-.344.062-.875.405-1.188.78-1.437 1.779-1.781 2.091-2.375 2.091-.531 0-.625-.249-.719-1.467-.093-1.529-.75-2.185-1-.967zm-78.437-.063c-1.219.375-2.063 1.218-2.063 2.029 0 .656.063.656 1.594.344 1.656-.344 2.531-.094 2.719.78.031.25-.688 1.093-1.625 1.842-2.094 1.685-3.219 3.746-2.813 4.963.25.687.5.812 1.688.905.781.063 2.156.031 3.063-.093 1.343-.156 1.624-.313 1.624-.812 0-.718-1.124-1.217-2.812-1.217-1.688 0-1.813-.5-.469-1.655 3.156-2.716 3.063-2.591 2.906-4.308-.25-2.372-1.687-3.433-3.812-2.778zm9.25.031c-2.406.687-2.094 5.744.406 6.899.438.187.781.437.781.562 0 .094-.437.78-.968 1.498-.531.75-.906 1.405-.813 1.499.375.374 3-1.124 3.781-2.154 1.532-1.998 2.125-4.995 1.407-7.024-.5-1.404-2.344-1.904-4.594-1.28zm2.875 2.435c.875.968.188 1.904-1.344 1.904-1.437 0-2.094-.624-1.625-1.498.594-1.124 2.125-1.311 2.969-.406zm8.187-2.122c-.875.686-1.906 2.403-1.625 2.684.125.156.938.031 1.969-.312.156-.031.313 1.654.406 3.746.157 3.871.344 4.557 1.032 3.871.531-.531.687-6.681.218-8.866-.406-1.966-.718-2.122-2-1.123zm9.875.124c-1.125.937-1.843 2.654-1.125 2.654.25 0 .719-.156 1.063-.375.312-.218.719-.281.844-.125.125.125.25 1.686.25 3.434 0 2.404.125 3.34.468 3.777.438.531.469.468.688-.655.281-1.561.312-7.242.062-8.522-.25-1.218-.968-1.28-2.25-.188zm-41.718.25c-1.469 1.436-1.906 5.182-1 8.272.375 1.28.656 1.655 1.281 1.811 1.219.312 3.875-.031 4.406-.593.563-.562.938-5.244.594-7.43-.313-2.06-.844-2.559-2.813-2.715-1.5-.125-1.812-.032-2.468.655zm3.594 2.404c.312.593.562 1.654.562 2.341 0 .687-.25 1.748-.563 2.341-.437.874-.718 1.093-1.468 1.093-.688 0-1.094-.25-1.656-1.093-.626-.905-.72-1.373-.594-2.778.094-1.374.281-1.842 1-2.435 1.156-.999 2.062-.811 2.719.531zm-33.688-2.06c-.563.249-1.125.842-1.375 1.435-.563 1.374 0 2.435 1.813 3.309 1.687.812 2.53 1.624 2.624 2.622.063.625-.062.812-.718.874-.469.063-1.375-.187-2.032-.53-1.343-.718-1.874-.5-1.562.687.406 1.716 3.688 2.247 5.5.905 1.625-1.218.969-3.153-1.875-5.432-2.656-2.122-2.344-3.121.688-2.154.812.25 1.562.375 1.687.281.313-.343-.5-1.467-1.438-1.966-1.093-.562-2.03-.593-3.312-.031zm20.969.561c-.219.562-.5 1.592-.625 2.279-.125.687-.563 2.216-.969 3.371-.875 2.498-.875 2.435-.313 3.216.438.562.5.499 1.094-.906l.656-1.498 1.47.094c1.437.093 1.5.125 1.812 1.28.344 1.186 1.187 2.06 1.531 1.529.406-.687-1.938-9.614-2.656-10.083-.875-.53-1.563-.28-2 .718zm1.531 1.998c.344.125.5.593.5 1.405 0 1.092-.094 1.217-.781 1.217-.719 0-.781-.125-.781-1.404 0-1.405.156-1.561 1.062-1.218zm-33.875-1.873c-.188.437-.313 2.716-.313 5.088v4.308l1.188.219c2.781.437 4.437.062 4.437-1.062 0-.53-.218-.624-1.5-.624-1.875 0-2.937-.687-2.812-1.81.094-.781.219-.843 1.875-.999.969-.094 1.875-.281 2-.406.531-.531-.438-1.311-1.844-1.53-1.75-.249-2.094-.437-2.094-1.186 0-.718.594-.936 2.532-.936 1.156 0 1.593-.125 1.75-.5.312-.874-.782-1.373-2.938-1.373-1.844 0-2 .062-2.281.811zm20.469-.249c-.407 1.092-.563 8.022-.188 8.74.594 1.124.969.78.969-.968 0-.874.125-1.779.25-1.966.344-.5 2.156-.781 3-.437.688.249.781.499.875 2.091.063 1.374.219 1.811.563 1.811.374 0 .468-.718.562-4.339.063-4.121-.094-5.182-.906-5.182-.125 0-.282.811-.344 1.779l-.094 1.811-1.687-.063c-.938-.062-1.75-.156-1.844-.25-.094-.062-.219-.842-.313-1.716-.156-1.686-.5-2.217-.843-1.311zm309.375 7.866c-5.844.125-19.188.406-29.688.593a4837.4 4837.4 0 00-30.312.656c-15.969.437-42.156.874-71.719 1.248-14 .187-32.219.531-40.469.781-8.25.249-30.125.593-48.594.78-65.5.624-128.968 1.436-136.968 1.748-4.813.187-4.938.219-4.844.874.094.624.25.656 3.375.656 11.75-.063 54.469-.562 77.5-.968 15.031-.25 45.125-.593 66.875-.749 24.969-.188 48.156-.531 62.969-.937 12.969-.374 35.906-.749 51.406-.843l27.969-.187-.219 16.513c-.281 22.476-.375 27.533-.563 27.689-.156.156-18.624.624-46.406 1.155-62.312 1.186-83.625 1.654-100 2.185-4.969.187-9.594.312-10.25.312-.719 0-1.125.125-1 .312.094.156-.031.312-.281.312-.281 0-.5-.156-.5-.312 0-.187-.313-.312-.688-.312-.656.031-.625.062.219.562 1.094.624 2.688.624 40 .093 12.219-.187 29.313-.405 38.032-.499l15.874-.187.063 22.787c.063 16.732.187 22.881.469 23.162 1 .999 1.062-.718 1.031-23.568l-.031-22.569 7.437-.218c4.094-.125 18.688-.344 32.438-.531 13.75-.156 28.25-.437 32.187-.624 3.969-.156 17.469-.437 30-.593 12.563-.156 26.063-.437 30-.625 3.969-.156 12.375-.374 18.75-.468 9.344-.125 11.625-.25 11.969-.593.375-.375.344-.499-.281-.905-.656-.437-1.938-.468-10.594-.219-19.719.593-40.656.968-63.406 1.155l-23.25.188.218-14.797c.094-8.147.282-18.105.376-22.163l.218-7.367 3-.218c1.656-.094 5.875-.187 9.406-.187 3.532 0 15.344-.219 26.25-.469 10.907-.249 28.469-.624 39-.843 19.376-.374 20.876-.499 19.876-1.498-.469-.468-12.657-.593-26.844-.312z" fill="#926363" fill-opacity=".5"/><path d="M350.875 304.072c-.469.25-.562.78-.562 3.403 0 3.121-.313 4.058-1.375 4.058-.907 0-1.25-1.031-1.407-4.152-.187-3.153-.187-3.184-1.031-3.278-.781-.093-.812-.031-1.031 1.904-.219 2.061.219 6.025.719 6.524.156.157.906.469 1.656.687 1.875.562 3.312.094 4.156-1.373.938-1.561 1.156-7.086.313-7.711-.657-.468-.75-.499-1.438-.062zm4.812-.031c-.562.125-1.093.281-1.156.374-.062.063-.156 1.936-.187 4.152l-.032 4.058.938.094c.969.093.969.093 1.062-1.561l.094-1.654h2.5l.281 1.623c.282 1.592.344 1.654 1.344 1.654h1.031l-.187-1.654c-.094-.874-.031-2.497.125-3.59.312-2.341 0-2.997-1.75-3.496-1.313-.344-2.563-.344-4.063 0zm3.375 2.185c.782.499-.031 1.405-1.375 1.498-1.062.094-1.125.063-1.125-.843 0-.874.094-.967 1.032-.967.531 0 1.218.156 1.468.312zm4.938-2.279c-.406.094-.531.749-.719 3.684-.312 5.088-.375 4.963 2.594 5.088 1.656.031 2.625-.063 3-.344.937-.686.312-1.248-1.094-.999-1.75.313-2.469-.031-2.469-1.123 0-.874.063-.906 1.375-.906 1.782 0 2.375-.249 2.375-.936 0-.812-.812-1.342-1.718-1.124-.938.25-2.032-.25-2.032-.905 0-.343.407-.468 1.5-.468.813 0 1.782-.094 2.188-.188.844-.249.906-1.217.094-1.685-.594-.312-4.032-.375-5.094-.094zm-25.344.593c-1.062.562-1 1.499.094 1.623.437.063.906.25 1.062.375.157.156.25 1.436.219 2.872-.062 3.09.094 3.683 1.094 3.683.906 0 1.031-.468 1.125-4.058l.094-2.653.937-.156c1.188-.219 1.281-1.218.156-1.779-1.062-.531-3.718-.5-4.781.093zm-15.469.188c-.687.905-1.656 3.184-2.406 5.712-.437 1.498-.781 2.778-.781 2.841 0 .468 1.594-.032 2.187-.656.938-.999 2.188-.999 3.719 0 1.375.905 2.375.78 2.125-.281-.406-1.779-2.531-7.242-2.969-7.616-.281-.188-.718-.375-1.031-.375-.281 0-.656.187-.844.375zm1.5 4.339c0 .405-.218.593-.656.593-.469 0-.594-.125-.469-.5.094-.281.188-.718.188-.968 0-.405.094-.405.469-.093.25.218.468.655.468.968zm4.844-4.183c-.125.312-.281 1.748-.375 3.215-.187 2.809.281 5.306.938 5.306.656 0 1.156-.686 1.156-1.592 0-1.467.312-1.841 1.437-1.841.907 0 1.063.125 1.219.843.313 1.56.938 2.434 1.719 2.528l.781.094.031-3.216c0-1.779.094-3.464.157-3.808.25-1.124-1.344-1.904-4.219-1.998-2.281-.124-2.625-.062-2.844.469zm4.531 2.278c0 1.093-2.312 1.748-2.687.781-.375-.937.125-1.405 1.437-1.405 1.032 0 1.25.094 1.25.624zm-37.093-2.185c-.688.281-.719.437-.719 4.495 0 2.654.125 4.277.344 4.402.187.125 1.156.218 2.187.249 3.031.032 4.813-1.716 4.813-4.713 0-2.404-.844-3.808-2.5-4.339-1.5-.437-3.188-.468-4.125-.094zm3.593 2.373c1.25.874.782 4.058-.718 4.744-.532.25-.875.219-1.25-.062-.469-.343-.532-.718-.313-2.778.188-2.185.281-2.404.906-2.404.375 0 1 .219 1.375.5zm4.875-2.31c-.281.437-.687 8.334-.468 8.553.062.062 1.281.125 2.687.125 3.938 0 5.156-1.405 1.406-1.624-1.593-.093-1.718-.156-1.718-.842 0-.531.187-.781.625-.812 1.906-.156 2.968-.531 2.968-1.03 0-.874-.656-1.311-1.906-1.311-.625 0-1.312-.187-1.5-.406-.281-.343.094-.499 1.875-.812 2.094-.405 2.188-.437 2.094-1.248-.094-.812-.125-.812-2.969-.905-2.062-.063-2.937.031-3.094.312zm7.532 3.215c-.156 2.591-.125 3.839.156 4.526.656 1.623 1.5 1.062 2-1.342.188-.78.313-.843 1.75-.843 1.406 0 1.594-.094 2.031-.936.5-.968.625-3.34.219-3.996-.375-.562-2.156-.999-4.156-.999h-1.781l-.219 3.59zm3.875-1.061c.781.874.375 1.841-.781 1.841-.938 0-1.188-.562-.782-1.654.407-1.03.75-1.061 1.563-.187zm-283.625 1.841c-.688.281-.72.437-.72 4.339 0 4.62-.155 4.402 3.063 4.402 1.563 0 2.375-.156 3.157-.656l1.062-.624-.25-2.404c-.156-1.311-.25-2.809-.25-3.277 0-.593-.25-1.062-.719-1.374-.875-.562-4.375-.843-5.343-.406zm3.625 2.154c.718.468.062.968-1.25.968-1.25 0-1.5-.219-.844-.874.437-.437 1.469-.468 2.094-.094zm.187 4.058c0 .937-.75 1.436-1.812 1.155-1.594-.374-.813-2.154.875-1.998.75.063.937.25.937.843zM7.906 309.41c-.187.218-.437 1.092-.562 1.904l-.219 1.498-1.781-.093-1.75-.094-.157-1.405c-.125-1.061-.312-1.435-.75-1.498-.906-.187-1.125.5-1.093 3.527.062 3.465.281 4.652.968 4.776.563.094.72-.28 1.032-2.528.187-1.467.187-1.467 1.406-1.467 1.937 0 2.187.187 2.187 1.873 0 1.81.657 2.591 1.5 1.748.438-.437.532-1.061.438-4.183-.063-2.466-.219-3.777-.5-4.058-.313-.343-.469-.343-.719 0zm16.344.094c-.281.28-.594.874-.688 1.342-.406 1.842-.812 2.872-1.093 2.716-.125-.094-.469-.906-.75-1.78-.563-1.873-.969-2.435-1.813-2.435-.531 0-.593.157-.468 1.343.093.749.625 2.653 1.187 4.214 1 2.84 1.031 2.872 2.063 2.872.875 0 1.093-.125 1.25-.874.75-3.372 1.093-3.996 1.625-2.966.156.312.406 1.155.53 1.873.25 1.498.75 2.06 1.75 1.904.532-.062.907-.562 1.532-2.122 1.688-4.183 1.969-6.743.688-6.493-.625.125-1.188 1.155-1.625 2.996-.188.75-.5 1.311-.657 1.249-.187-.062-.625-1.03-1-2.123-.75-2.185-1.531-2.715-2.531-1.716zm21.063.031c0 .686-2 2.622-2.688 2.622-.5 0-.5.094.188.593.624.499.687.655.343 1.093-.218.28-.593.499-.781.499-.188 0-.531.125-.781.281-.375.218-.313.437.25 1.155.468.593.625 1.124.5 1.592-.282 1.155.718.874 1.468-.375.782-1.342 1.72-1.373 1.563-.062-.156 1.217.656 1.092 1.469-.25.375-.655.875-1.092 1.25-1.092.968 0 1.125-.656.312-1.249-.593-.468-.656-.656-.312-1.061.218-.25.656-.562.968-.656.532-.156.532-.25.126-1.03-.25-.468-.438-1.217-.438-1.717 0-1.155-.531-1.061-1.063.219-.25.562-.593 1.155-.812 1.279-.563.344-.938-.468-.594-1.311.375-.998.375-1.03-.343-1.03-.376 0-.626.219-.626.5zm1.093 3.902c-.25.374-1.093.374-1.093 0 0-.344.687-.625 1.03-.437.126.062.157.281.063.437zm-34-1.155c-1.406 3.59-1.812 5.806-1.031 5.806.281 0 .781-.281 1.125-.624.344-.344 1.25-.687 2.094-.812 1.281-.156 1.594-.094 2.094.468.468.531 2.062.968 2.062.562 0-.406-1.938-5.65-2.531-6.867-.625-1.28-.844-1.468-1.688-1.468-.937 0-1 .125-2.125 2.935zm2.531.874c.5.499.47 1.498 0 1.498-.812 0-1.25-.531-1.03-1.217.218-.749.5-.812 1.03-.281zm324.438 10.332c-1.625.593-1.937.843-3.656 2.747s-2.094 2.778-2.563 5.869c-.625 3.87.532 8.022 2.813 10.301 1.719 1.717 3.25 2.31 6.375 2.466 2.625.125 2.875.062 3.906-.687 1.813-1.311 2.75-1.779 2.969-1.436.094.188.125.312 0 .312-.094 0-.031.281.156.594.219.468.656.593 1.688.593h1.375l.125-5.338c.062-2.966.093-5.463 0-5.619-.063-.125-1.969-.219-4.25-.219-4.688 0-4.563-.062-4.563 2.529 0 1.342.313 1.529 2.531 1.529 1.5 0 1.563.032 1.375.687-.656 2.154-3.281 3.434-5.718 2.778-3.032-.811-4.438-2.684-4.5-6.055-.063-3.934 2.218-7.024 5.343-7.336 2.188-.187 3.657.374 4.563 1.81.656 1.03.906 1.187 2.219 1.343 1.656.187 2.875-.156 3.125-.874.125-.25-.125-1.249-.532-2.217-.843-1.935-1.531-2.435-5.093-3.527-2.407-.749-5.969-.843-7.688-.25zm-22.813.437c-.437.063-1.25.187-1.843.281l-1.032.156.219 1.467c.125.812 1.125 3.934 2.25 6.93 1.125 2.997 2.5 6.868 3.063 8.585l1.031 3.121 1.687.187c.907.094 1.813.125 2 .063.219-.094.907-1.623 1.532-3.465 2.125-6.056 5.187-13.922 5.812-14.921.969-1.561.781-2.217-.625-2.466-.656-.094-1.719-.094-2.312 0-1.063.218-1.188.374-2.25 2.934-.625 1.467-1.469 3.808-1.875 5.182-.969 3.34-1.25 3.995-1.844 4.495-.281.218-.5.312-.5.218 0-.124-.563-2.341-1.25-4.963-1.438-5.369-2.406-8.054-2.938-7.991-.187.031-.687.094-1.125.187zm-19.124.718c-.5.406-.594 1.124-.813 5.463-.125 2.747-.187 7.273-.125 10.051l.094 5.089h1.187c.657 0 1.625-.094 2.157-.188l.968-.187.094-3.652.094-3.621 2.875-.219c4.219-.312 6.437-1.436 7.625-3.777.625-1.186.656-1.467.312-3.746-.375-2.684-1.093-4.183-2.468-5.088-.719-.468-1.594-.562-6.125-.593-4.313-.031-5.375.062-5.875.468zm9.687 4.776c1.094 2.279-1.969 4.62-5.062 3.84-.782-.188-.813-.312-.813-2.341 0-1.155.094-2.217.219-2.342s1.344-.156 2.719-.125c2.406.094 2.531.125 2.937.968zm-84.094-2.872c-4.156.656-5.906 3.902-4.406 8.116.531 1.436.531 1.468-.219 2.654-1.469 2.403-.719 6.805 1.438 8.49 1.343 1.062 2.875 1.405 5.468 1.249 4.375-.25 6.625-2.341 6.625-6.181 0-1.779-.843-4.37-1.593-4.807-.219-.156-.125-.499.281-1.061.812-1.093 1.094-3.59.656-5.307-.281-.968-.656-1.529-1.375-1.966-1.781-1.062-4.531-1.561-6.875-1.187zm3.344 4.402c1.906.843 1 2.684-1.438 2.965-1.75.188-2.75-.281-2.75-1.311 0-1.717 2.219-2.56 4.188-1.654zm.625 7.46c1.687 1.311.406 4.152-2.063 4.558-1 .156-1.281.031-2.156-.812-.844-.874-.969-1.155-.812-2.154.125-.624.5-1.404.875-1.717.937-.749 3.093-.718 4.156.125zm-17.219-11.3c-.312.312-.937 1.062-1.406 1.686-.844 1.092-1.156 1.217-3.906 1.623-1.219.187-1.282.25-1.407 1.467-.156 1.53.282 1.811 2.782 1.811 1 0 1.968.125 2.156.249.219.125.437 2.435.562 6.275.125 3.34.282 6.18.375 6.305.219.406 3.188.344 3.407-.031.375-.593.156-19.135-.219-19.572-.469-.593-1.719-.5-2.344.187zm-17.093.656c-.438.53-.813 1.123-.813 1.28 0 .561-1.531 1.248-3.312 1.467l-1.844.218-.094 1.623-.094 1.624 2.688.093 2.687.094.125 6.181c.094 3.433.25 6.336.344 6.493.094.156.938.28 1.875.28h1.688l-.063-10.082-.094-10.052-1.125-.093c-.937-.094-1.281.062-1.968.874zm-112.219-.406c-3.813.843-5.781 3.028-5.781 6.399 0 2.997 1.624 4.995 4.124 5.057.97.031 1.407.187 1.563.562.125.312.438.562.719.562.562 0 .594-.375.125-.843-.531-.531 2.344-.905 3.344-.437.75.312 1.312 1.155 1 1.467-.094.063-.782-.093-1.5-.343-1.282-.437-2.532-.406-2.094.062.125.094 1.094.468 2.156.843 1.219.437 2.156.968 2.531 1.498.594.812.594.874.094 1.655-1.531 2.341-6.125 1.842-7.625-.812-.469-.78-.719-.905-1.938-.905-1.968 0-2.28.281-2.03 1.748.374 2.091 1.53 3.715 3.187 4.495 2.031.968 6.187 1.249 7.719.5.562-.281 1.343-.5 1.656-.5.781 0 2.437-1.717 3.031-3.184.563-1.311.656-3.871.188-5.057-.157-.468-.626-.874-1.094-.999-.688-.156-.781-.343-.656-.905.156-.624 0-.78-1.157-1.217a50.725 50.725 0 00-3.844-1.124c-2.687-.718-4.406-1.561-4.718-2.373-.094-.312.125-.811.625-1.279 1.469-1.468 4.719-.874 6.219 1.155.53.749.906.936 1.843.936 1.844 0 2.156-.218 2.156-1.623 0-2.373-1.656-4.246-4.437-5.088-1.531-.437-4.031-.562-5.406-.25zm41.281.499c-1.656 2.498-4.281 9.428-7.5 19.791-.219.687-.156.718 1.781.718 2.25 0 2.5-.156 3-2.06.188-.718.531-1.436.75-1.623.625-.5 3-.687 5.688-.437l2.5.218.687 1.717.688 1.717 2.062.093 2.063.094-.219-.874c-.844-3.621-6.438-18.542-7.344-19.635-.219-.281-1-.437-2.031-.437-1.375 0-1.75.125-2.125.718zm2.812 7.305c.219.905.782 2.341 1.188 3.184.437.843.687 1.592.594 1.717-.25.249-4.625.249-4.875 0-.094-.125.218-1.343.75-2.716.5-1.374.906-2.872.906-3.278 0-.499.156-.718.5-.624.344.062.687.687.937 1.717zm49.938-7.679c-5.125.843-7.719 5.244-5.813 9.958.469 1.217 2.188 2.747 3.719 3.308 1.219.469 1.625.5 3.531.125 1.219-.218 2.282-.343 2.375-.249.25.249-.625 2.216-1.218 2.684-.25.219-.969.468-1.563.593-.875.125-1.312-.031-2.531-.967-1.688-1.28-2.938-1.436-3.781-.5-.813.905-.375 2.685.937 3.933 2.594 2.435 7.875 2.029 10.25-.78 1.469-1.779 1.938-3.808 1.938-8.616 0-2.871-.157-4.776-.438-5.556-1.062-3.09-3.781-4.526-7.406-3.933zm2.844 4.401c.968.437 1.281 1.499.906 3.028-.219.874-.563 1.249-1.469 1.717-1.062.499-1.312.531-2.344.125-1.531-.562-2.468-2.216-1.968-3.465.562-1.467 3.125-2.216 4.875-1.405zM94.656 329.7c-.375 2.279-.219 14.203.219 17.512l.219 1.467h3.562l.188-1.124c.094-.624.094-2.715 0-4.651-.219-4.183-.594-3.902 5.156-3.902h3.812v4.652c0 5.244-.125 5.025 2.563 4.776l1.437-.125.219-3.465c.094-1.936.156-6.587.094-10.364l-.094-6.867-1.875-.094c-2.469-.125-2.656.125-2.656 4.027 0 1.904-.125 3.121-.344 3.277-.531.313-5.687.562-6.969.313l-1.124-.219v-3.028c0-4.432-.032-4.432-2.188-4.432h-1.813l-.406 2.247zm64.5-1.935c-3.656.53-6.25 2.778-6.562 5.712-.156 1.374-.156 1.436.718 1.53 1.532.156 2.938-.094 2.938-.562 0-.219.375-.874.875-1.374 1.156-1.311 3.125-1.623 4.094-.655 1.625 1.623.406 3.621-4.031 6.586-1.5.999-3.063 2.248-3.532 2.779-.781.967-1.468 3.277-1.468 5.088v.967l6.343-.187c3.469-.094 6.625-.281 7-.406.625-.187.688-.343.5-1.654-.093-.78-.312-1.561-.469-1.748-.156-.187-1.531-.281-3.156-.219-1.594.032-3.062-.062-3.312-.218-.656-.406.468-1.686 3.25-3.684 1.25-.905 2.594-2.122 2.937-2.684 1.375-2.248 1.125-5.244-.656-7.273-.906-1.031-3.031-2.373-3.594-2.279-.125.031-1 .156-1.875.281zm-101.718.53l-1.5.125v10.77l1.03.499 1 .5-.843.374c-.875.406-.875.437-.875 3.496 0 4.027.594 5.245 2.531 5.245.375 0 .719-.313.907-.812.218-.562.468-.749.874-.624.75.218 5 .749 8.157.999 2.062.156 2.656.124 2.875-.219.375-.593.344-2.06-.031-2.809-.313-.562-.72-.593-5.313-.593-2.719 0-5.156-.094-5.438-.188-.374-.156-.5-.655-.5-2.06 0-.999-.218-2.248-.468-2.716l-.438-.874 2.375-.218c3.407-.281 5.344-.25 5.563.125.094.156-.063.312-.375.343-.469 0-.469.062.094.281.874.343 3.312.031 3.156-.437-.063-.187-.594-.437-1.188-.531l-1.062-.187 1.187-.063c1.188-.031 1.188-.031 1.094-1.217l-.094-1.155-4.531-.062c-4.406-.032-4.531-.063-4.906-.781-.5-.874-.5-1.966-.094-2.778.313-.531.719-.593 4.656-.593 2.375 0 4.781-.094 5.313-.187.969-.219 1-.25.906-1.78-.094-1.404-.188-1.623-.875-1.81-.813-.219-10.563-.25-13.188-.063zm82.093.188c-3.156 1.248-3.969 2.559-4.594 7.585-.656 5.119.782 9.771 3.563 11.612 2.594 1.717 7.187.781 8.594-1.748 2.281-4.089 2.625-12.424.593-15.451-1.375-2.061-5.437-3.06-8.156-1.998zm4.531 5.431c1.594 4.214.407 10.707-1.968 10.707-.875 0-2.594-1.873-3-3.277-.438-1.624-.438-5.089 0-6.431.593-1.717 1.781-2.778 3.125-2.778 1.156 0 1.187.062 1.843 1.779zm159.219 17.98c-.937.812-1.406 3.028-.781 3.778.187.249 1.094.686 2.031.936 1.781.531 2.531 1.155 2.219 1.904-.25.656-1.219.593-1.875-.125-1.188-1.311-2.656-.999-2.156.469.968 2.996 6.468 2.216 6.468-.906 0-1.404-.5-1.997-2.5-2.872-1.75-.78-2.468-1.716-1.281-1.716.375.031 1.031.218 1.469.468.906.499 2.187.624 2.187.156 0-.156-.156-.656-.375-1.093-.781-1.748-3.875-2.31-5.406-.999zm-183.656-.249c-.094.093-3.563.249-7.688.312-6.468.062-7.593.156-8.312.624-.969.656-.969.625.406.905.844.157 1 .094.844-.28-.125-.313.031-.469.437-.469.344 0 .532.156.469.375-.125.312 1.875.374 9.594.281 5.375-.031 9.812-.125 9.875-.187.062-.063-.094-.375-.313-.75-.437-.686-1.625-.874-2-.312-.125.219-.281.25-.406.031-.219-.343-2.625-.811-2.906-.53zm174.5.53c-1.5 1.624-1.75 4.527-.594 6.805.656 1.343.75 1.405 2.531 1.686 2.25.375 3.125-.031 4.157-1.842.625-1.155.656-1.28.156-1.467-1.063-.406-1.625-.218-2.094.687-.875 1.686-2.719.999-3.156-1.186-.25-1.249.031-2.404.812-3.184.688-.687 1.344-.531 2.625.686.344.313.938.531 1.282.5 1.031-.156.906-1.124-.25-2.279-1-.999-1.25-1.092-2.938-1.092-1.531 0-1.969.125-2.531.686zm-8.406.125c-.156.312-.25 2.341-.25 4.495v3.902h.937c.844 0 .938-.093 1.094-1.248l.156-1.249 1.844-.312c1.625-.281 1.906-.406 2.156-1.186.375-1.187 0-3.465-.656-4.09-.344-.281-1.437-.561-2.812-.686-2-.188-2.25-.156-2.469.374zm3.594 2.06c.656.656.437 1.78-.375 1.998-.438.094-.938.094-1.094-.031-.375-.218-.469-1.81-.125-2.123.312-.343 1.187-.249 1.594.156zm-207.532-1.872c-.844.312-.875.343-.281.749.906.624 8.094.749 9.125.125.75-.437.688-.469-1.719-.812-3.062-.468-5.937-.499-7.125-.062zm13.063-.063a2.629 2.629 0 00-1.063.749c-.375.437-.312.5.375.5 1.656 0 2.719-.375 2.719-.968 0-.655-.875-.78-2.031-.281zm3.344-.031c-.313.187-.032.406.874.78 1.594.625 1.875.5.75-.406-.937-.717-1.03-.749-1.624-.374zm165.187-.063c-.344.094-.688.843-1.031 2.31-.282 1.187-.657 2.154-.782 2.154s-.406-.655-.593-1.498c-.5-1.904-1.125-2.872-1.907-2.872-.937 0-.812 1.935.313 4.995.531 1.404.937 2.809.937 3.152 0 .469.219.594 1.219.594 1.313 0 1.406-.125 2.219-3.06.187-.749.437-1.279.562-1.155.125.094.438 1.062.688 2.123.469 1.904.5 1.935 1.531 1.935 1.063 0 1.063-.031 2-2.653.5-1.467.969-3.465 1.063-4.495.187-1.81.187-1.81-.563-1.592-1.062.312-1.187.468-1.5 2.154-.156.812-.5 1.717-.75 1.967-.406.437-.5.312-.812-1.187-.188-.936-.469-1.841-.594-2.029-.344-.53-1.406-.967-2-.843zm8.281-.031c-.312.125-.406 1.343-.406 4.527v4.339h2.531c2.469 0 4.125-.531 4.438-1.374.187-.531-.563-6.992-.844-7.273-.281-.281-5.156-.468-5.719-.219zm3.906 2.529c-.125.624-1.687.967-2.187.468-.531-.531.031-.999 1.187-.999.875 0 1.094.125 1 .531zm.375 3.87c0 .718-1.187 1.249-2.156.999-.437-.093-.656-.405-.656-.905 0-.593.187-.718 1.187-.811 1.438-.125 1.625-.063 1.625.717zm-24.343-2.622c-1.688 4.745-1.813 5.245-1.094 5.526.344.124.812-.063 1.344-.531 1.25-1.186 2.156-1.249 4-.312.906.468 1.75.749 1.843.624.375-.343-.468-3.309-1.687-6.149-1.063-2.467-1.219-2.654-2.125-2.747l-1-.094-1.281 3.683zm3.093 1.187c0 .78-.718 1.092-1.093.468-.313-.5.062-1.249.625-1.249.281 0 .468.281.468.781zm-13.25-4.027c-.343.874-.187 6.93.188 7.772.187.437.594.781.937.781.469 0 .563-.25.563-1.499 0-.811.125-1.623.25-1.841.312-.5 1.781-.812 2.719-.593.718.187.781.343.781 1.904 0 1.685 0 1.717.937 1.717h.938v-3.559c0-3.996-.281-5.182-1.25-5.182-.531 0-.625.219-.625 1.186 0 1.561-.531 2.217-1.938 2.435-1.062.188-1.187.125-1.5-.624a7.385 7.385 0 01-.312-1.935c0-.906-.094-1.062-.75-1.062-.406 0-.844.219-.938.5zm-166.749 2.809c0 .094.187.468.374.843.22.375.47 2.216.563 4.12.156 3.278.188 3.434.875 3.528.563.093.688-.031.719-.781 0-.468.031-2.06.062-3.527l.063-2.653h.906c1.375 0 1.281-.562-.219-1.187-1.25-.499-3.344-.717-3.344-.343zm-8.126 1.374c0 .156.157.312.313.312a.313.313 0 00.312-.312c0-.188-.125-.313-.312-.313a.313.313 0 00-.313.313zm3.313.468c.125.281.406.468.656.406.719-.156.625-.718-.125-.812-.562-.094-.656 0-.531.406zm-16.406 2.466c-.5 2.185-1.563 3.371-2.907 3.246-.906-.093-1.03-.218-1.25-1.342-.468-2.341-.562-2.653-.968-2.653-.25 0-.375.78-.375 2.747v2.715h2.187c2.969 0 4.125-.53 4.438-1.997.375-1.873.281-3.434-.25-3.934-.438-.437-.532-.343-.875 1.218zm3.718-1.374c0 .156.157.313.313.313a.314.314 0 00.312-.313c0-.187-.125-.312-.312-.312a.313.313 0 00-.313.312zm8.407.5c-.344.437-.313.562.156.905.313.25 1.125.531 1.813.624 2.156.375 3.093 2.029 1.406 2.466-.438.094-1.094-.124-1.844-.624-1.781-1.248-2.969-.343-1.5 1.124 1.938 1.935 5.938.593 5.938-1.998 0-1.061-.126-1.186-1.876-2.06-2.062-1.03-3.468-1.186-4.093-.437zm-8.156 1.311c-.282.468-.563 1.529-.594 2.404l-.094 1.56 1.688.25c1.968.281 3.53.094 4.03-.531.282-.343.157-.468-.624-.624-.532-.094-1.375-.187-1.813-.187-1.031 0-1.593-.531-1.593-1.467 0-.656.124-.718 1.656-.718 2.812 0 3.187-1.062.375-1.093-.688-.031-1.532-.125-1.875-.25-.5-.156-.75-.031-1.157.656zm-20.876-.343c0 .468 1.188 1.061 1.438.686.219-.406.156-.468-.719-.718-.406-.125-.719-.125-.719.032zm-28.375 2.934c-.062 1.998-.03 2.154.594 2.154.594 0 .625-.125.438-1.811-.344-2.778-.907-2.997-1.032-.343zm18.625-.437c.157 2.06.25 2.216 1.282 2.341.593.062.812-.125 1.156-.999.594-1.654.562-2.778-.094-2.747-.312.031-1-.062-1.531-.187l-.969-.219.156 1.811zm-5.406 0c.281 1.998.656 2.591 1.594 2.591.844 0 1.156-.562 1.469-2.56.187-1.249-.157-1.498-2.25-1.498h-1.032l.22 1.467zm17.657-1.155c0 .156-.22.218-.47.125-.343-.156-.468.031-.468.593 0 .967-1.031 1.779-2.281 1.779-.719 0-.969-.218-1.313-1.061-.25-.593-.593-1.155-.75-1.28-.531-.312-1 1.03-.781 2.185l.188 1.093h2.25c3.5 0 4.937-.968 4.437-2.997-.188-.718-.813-1.061-.813-.437zm-36.407.624c-.344.562-.25 2.841.125 3.215.5.5.969-.249.969-1.56 0-1.624-.563-2.498-1.094-1.655zm12.969.749c0 .281-.406.5-1 .593-.719.094-.563.125.563.156 1.343.063 1.687.188 2.124.843.563.843 1.438 1.062 1.438.344 0-.219-.156-.843-.344-1.405-.312-.874-.468-.968-1.562-.968-.844 0-1.219.125-1.219.437zm-3.531.874c-.688.562-.781 1.249-.188 1.343.281.062.625-.281.813-.812.375-.968.187-1.124-.625-.531zm245.031 4.214c-.906.094-1.156.281-1.344.968-.344 1.374-1.094 8.553-.906 8.834.25.437 1.656.344 3.937-.25 2.719-.686 3.719-.405 4.094 1.218.688 2.841-2.625 4.87-4.406 2.716-1.094-1.343-1.375-1.53-2.375-1.53-1.625 0-2.125.562-1.75 1.904.687 2.497 2.469 3.715 5.406 3.715 2.844 0 5.031-1.249 6.188-3.527.906-1.749.75-4.933-.313-6.431-1-1.373-3.062-2.279-5.375-2.31-1.844 0-2.125-.218-1.531-1.155.219-.374 1-.468 3.5-.468h3.219l.093-1.748c.094-1.748.094-1.748-.906-1.967-1-.187-5.5-.187-7.531.031zm-15.219 1.249c-.344 1.374-.969 6.337-.969 7.773 0 1.217.344 1.373 2.344 1.03 4.031-.687 4.531-.718 5.156-.125.907.812.844 2.966-.093 3.84-1.157 1.092-2.844.936-4.313-.406-1.719-1.53-3.719-1.467-3.719.125.032 2.497 2.813 4.713 5.907 4.713 3.156-.031 5.062-1.373 6.125-4.401.937-2.654.5-4.87-1.313-6.587-1.219-1.155-2.281-1.498-4.656-1.498-1.938 0-2.031-.031-1.938-.718.094-.656.282-.687 3.375-.843 1.813-.093 3.469-.312 3.719-.437.531-.343.281-2.965-.312-3.34-.25-.156-2.375-.281-4.719-.281h-4.281l-.313 1.155zm-37.531 1.967c-.688.437-.688 17.043 0 17.48.531.344 8.875.406 10.687.125 1.313-.218 1.594-.686 1.313-2.185l-.188-1.061h-3.812c-2.063 0-3.938-.125-4.125-.25-.25-.156-.406-2.403-.5-7.023-.125-7.43-.094-7.398-1.969-7.398-.5 0-1.156.156-1.406.312zm-8 .593c-.875.406-1.906 1.342-3.094 2.84-1.656 2.092-3.031 3.153-3.469 2.716-.312-.312-.718-2.716-.75-4.37v-1.467h-1.375c-.75 0-1.5.187-1.687.374-.313.406-.5 6.15-.406 13.423l.031 3.996h3.75v-2.622c0-2.997.281-4.058 1.312-4.589.625-.343.813-.25 2.188 1.311.844.905 2.094 2.528 2.781 3.59.969 1.498 1.469 1.966 2.219 2.122 1.344.25 2.531.219 3.031-.093.563-.375-.125-1.561-2.906-5.151-2.469-3.153-3.313-4.526-3.313-5.4 0-.406.657-1.217 1.844-2.248 1.031-.905 2.313-2.278 2.844-3.09l.969-1.467-.719-.219c-1.219-.343-1.906-.249-3.25.344zm-22.688.093c-1 .781-5.656 12.924-6.343 16.545-.188 1.061-.157 1.186.562 1.342 1.625.437 2.219.094 3.125-1.81l.844-1.811 3.375.094 3.344.093.781 1.561c.719 1.436.875 1.561 2.031 1.655 2.281.124 2.344-.094.938-4.183-.688-1.998-2.157-5.9-3.282-8.647l-2.031-5.057-1.406-.094c-.813-.062-1.625.094-1.938.312zm1.938 5.869c.344.343.687.936.781 1.311.094.406.281 1.311.438 2.029l.281 1.28-1.844.125c-1.062.062-1.875-.031-1.969-.219-.062-.187.157-1.155.469-2.185.313-1.03.594-2.122.594-2.435 0-.718.469-.686 1.25.094z" fill="#926363" fill-opacity=".5"/></svg>