<svg width="374" height="114" fill="none" xmlns="http://www.w3.org/2000/svg"><g clip-path="url(#clip0_68_33)" fill="#840707"><path d="M0 57v57h374V0H0v57zm369.617-8.038v43.7H187.351c-100.25 0-182.355-.059-182.413-.117-.058-.059-.088-19.731-.03-43.7l.06-43.583h364.649v43.7z"/><path d="M172.829 25.46c-4.061.585-9.058 2.63-12.827 5.232-2.717 1.871-6.75 6.022-8.532 8.77-5.026 7.775-6.487 16.924-4.178 26.307 2.863 11.546 11.395 19.351 23.024 21.046 3.74.556 9.73.234 13.178-.73 3.681-.994 8.21-3.245 10.84-5.35 3.36-2.689 3.302-2.572 2.367-4.296-1.052-1.93-1.753-2.017-4.149-.468-1.987 1.286-5.318 2.66-8.766 3.624-1.782.497-3.039.614-6.72.614-4.091 0-4.734-.058-6.779-.76-5.99-2.017-10.811-6.372-13.441-12.189-2.22-4.852-3.097-12.014-2.162-17.07 1.403-7.308 5.493-13.096 11.337-15.96 3.535-1.755 5.581-2.193 9.876-2.222 3.272 0 3.944.087 6.253.847 8.152 2.69 12.768 10.377 12.798 21.514.029 2.543-.117 4.21-.468 5.496-1.695 6.372-5.376 9.529-6.72 5.787-.117-.321-.205-5.115-.205-10.698 0-8.33.117-10.582.497-12.57l.497-2.425-.994-.819c-.555-.468-1.081-.848-1.169-.848-.087 0-.993.643-1.986 1.462-.994.79-1.987 1.461-2.192 1.461-.204 0-.613-.263-.935-.613-.292-.351-1.11-.965-1.811-1.345-1.111-.643-1.607-.76-3.653-.73-5.551.058-10.402 3.39-13.324 9.207-1.899 3.741-2.483 6.577-2.279 11.02.088 2.017.38 4.443.643 5.408 1.198 4.384 4.032 8.36 7.013 9.821 1.198.555 1.899.702 3.798.672 2.893 0 4.266-.643 6.604-3.098l1.665-1.695.321.935c.789 2.28 3.068 4.005 5.289 4.034 5.376 0 11.951-5.437 14.697-12.19 1.373-3.42 1.753-5.495 1.724-9.88 0-6.43-.993-10.873-3.535-15.784-1.666-3.215-4.968-6.752-8.065-8.565-4.675-2.747-11.278-3.858-17.531-2.952zm3.944 19.41c.468.233 1.169.876 1.578 1.402l.76.994V63.46l-1.227 1.462c-2.425 2.893-4.12 3.303-6.136 1.49-2.484-2.221-3.653-6.343-3.36-11.75.292-5.262 1.753-8.448 4.412-9.676 1.461-.672 2.834-.701 3.973-.117zM32.374 27.185c-9.116 1.081-16.304 7.687-18.933 17.392-.819 2.982-1.11 9.15-.614 12.306.847 5.174 2.805 9.09 6.282 12.57 1.753 1.753 2.922 2.63 4.558 3.449 7.48 3.653 14.96 1.9 22.79-5.32l2.192-2.017-1.285-1.491c-.672-.848-1.374-1.52-1.49-1.52-.147 0-1.286.73-2.543 1.637-2.688 1.93-4.324 2.806-6.486 3.45-5.435 1.607-10.986-1.258-13.908-7.25-1.578-3.157-1.987-5.67-1.812-10.699.234-6.255 1.52-10.201 4.354-13.3 4.061-4.443 9.963-4.472 14.755-.058.847.79 1.578 1.17 2.396 1.286 1.14.146 1.169.117 2.513-1.695 1.987-2.719 2.6-4.005 2.25-4.794-.35-.76-3.653-2.514-5.902-3.186-1.374-.38-6.545-1.14-7.013-1.023-.087.029-1.023.146-2.104.263z"/><path d="M128.942 29.436l-3.009 2.455v7.57h-.935c-.76.03-1.373.38-2.834 1.725l-1.87 1.696.847 1.052c.818 1.052.906 1.082 2.805 1.082h1.958l.087 11.78.088 11.78 1.023 2.016c2.279 4.59 6.136 5.32 12.301 2.368 2.454-1.17 6.662-3.858 6.866-4.384.088-.205-.292-1.111-.789-2.017l-.935-1.637-1.198.614c-1.87.964-4.616 1.929-5.727 1.987-1.957.146-2.308.03-2.834-.964-.467-.848-.526-2.017-.613-11.283l-.088-10.348 2.454.175c1.344.088 3.127.439 3.945.731l1.519.585 1.607-1.433c.877-.818 1.87-1.929 2.221-2.484l.643-1.023-.994-1.023-.964-.994h-10.402V28.705l-1.081-.877-1.11-.877-2.981 2.485zm110.593.116l-2.863 2.339v7.57h-.964c-.731 0-1.228.264-2.075 1.14l-1.11 1.14-1.461-.993c-2.133-1.433-4.003-1.93-7.831-2.076-3.915-.175-5.902.234-9.35 1.871-3.185 1.52-6.574 4.94-8.181 8.301-2.717 5.7-2.717 11.898.029 17.48 2.981 6.051 8.591 9.15 15.048 8.273 3.798-.497 7.275-2.66 10.84-6.723l1.519-1.725-1.373-1.52-1.373-1.49-1.899 1.49c-1.052.848-2.718 1.9-3.74 2.397-1.666.76-2.075.848-3.945.73-2.425-.174-3.915-.818-5.581-2.484-5.464-5.408-3.915-18.59 2.425-20.49 3.185-.965 6.429.116 8.123 2.718 1.374 2.075 1.403 2.105 2.601 2.31 1.431.291 1.694-.03 2.892-3.216.702-1.842 1.052-2.456 1.169-2.105.175.439.585.526 2.221.526h1.987l.087 11.605c.088 11.43.117 11.663.789 13.358 1.315 3.303 4.354 5.174 7.568 4.707 2.863-.41 8.386-3.099 11.571-5.642l.701-.526-1.023-1.813-1.023-1.812-1.636.848c-3.652 1.812-7.071 2.397-7.83 1.374-.789-1.111-.994-3.596-.994-12.803v-9.383l2.425.175c1.344.088 3.127.438 4.003.76l1.549.585 1.665-1.608c.906-.877 1.9-2.046 2.221-2.602l.526-.993-.847-.907-.848-.877h-10.694V28.706l-.906-.76c-.496-.41-1.052-.76-1.227-.731-.204 0-1.636 1.052-3.185 2.338zm46.4-.935c-.351.38-.468.935-.409 1.812.087 1.228.117 1.257 1.256 1.491.643.117 1.724.439 2.396.702l1.227.438.088 14.235c.146 15.785.087 15.376 2.191 19.439 1.87 3.537 5.493 6.226 10.022 7.425 2.338.613 7.685.672 9.935.116 4.529-1.11 8.648-4.413 10.606-8.506 2.075-4.355 2.045-4.238 2.162-19.087l.117-13.417 1.227-.526c.702-.322 1.812-.643 2.484-.76l1.227-.205v-1.49c0-.848-.146-1.667-.351-1.872-.263-.263-2.425-.35-7.976-.35-5.552 0-7.714.087-7.977.35-.205.205-.351 1.024-.351 1.871v1.491l1.169.205c.643.087 1.695.38 2.338.643l1.168.467v12.862c0 10.757-.087 13.154-.467 14.645-.964 3.683-2.98 6.401-5.522 7.395-.994.35-1.9.438-3.711.35-4.967-.262-7.714-2.542-9.204-7.6-.701-2.28-.935-27.126-.292-27.68.233-.176 1.373-.556 2.512-.849l2.075-.497v-1.344c0-2.339.146-2.31-9.262-2.31-7.656 0-8.211.03-8.678.556zM91.455 39.316c-1.374.526-3.623 1.198-5.026 1.461l-2.571.497v3.361l1.957.322c1.257.205 2.133.526 2.367.848.263.38.35 3.01.292 11.75l-.087 11.254-2.25.702-2.28.672v1.403c0 .76.147 1.52.351 1.725.263.263 2.543.35 8.415.35 5.873 0 8.152-.087 8.415-.35.205-.205.351-.965.351-1.754v-1.374l-1.227-.321c-.701-.176-1.724-.468-2.28-.673l-1.022-.38-.088-8.097-.058-8.126 2.688-2.718c3.273-3.274 5.172-4.356 7.539-4.21 1.314.088 1.636.205 2.162.907.584.818.613 1.11.613 11.546v10.698l-2.249.702-2.279.701v1.374c0 .76.146 1.52.35 1.725.263.263 2.542.35 8.415.35 7.568 0 8.123-.029 8.59-.555.351-.38.468-.935.41-1.666-.088-1.023-.205-1.17-1.257-1.52a220.44 220.44 0 00-2.396-.848l-1.256-.438V57.175c0-12.627-.088-13.3-1.753-15.58-.614-.847-1.52-1.52-2.776-2.163-1.782-.877-2.016-.906-4.441-.789-2.075.117-2.951.322-4.529 1.023-2.484 1.14-4.325 2.426-6.4 4.385L96.51 45.6l-.176-1.52a24.418 24.418 0 01-.204-2.749c0-.935-.176-1.344-.965-2.104-.526-.526-1.022-.936-1.08-.906-.088 0-1.257.438-2.63.993zm-29.365-.001c-4.354 1.55-8.006 4.911-10.11 9.354-1.548 3.216-2.016 5.29-2.016 8.799 0 8.096 3.974 14.293 10.607 16.457 4.12 1.344 8.035 1.052 11.833-.877 7.013-3.508 11.25-11.488 10.314-19.468-.76-6.255-3.827-11.137-8.502-13.446-2.513-1.228-3.974-1.55-7.305-1.55-2.192 0-3.185.147-4.821.731zm6.253 5.7c1.519.76 3.564 3.099 4.558 5.174 1.227 2.602 1.695 5.32 1.49 8.594-.41 6.723-2.776 9.88-7.334 9.91-2.6 0-4.324-1.14-6.34-4.21-1.695-2.63-2.309-4.97-2.309-8.799.03-5.904 1.578-9.441 4.704-10.786 1.461-.643 3.887-.584 5.23.117zm271.676-5.845c-4.179 1.315-7.013 4.53-7.393 8.389-.467 4.472 1.929 7.424 8.854 10.99 6.515 3.333 8.21 5.32 7.012 8.185-.672 1.55-1.987 2.25-4.324 2.25-3.565 0-6.224-1.987-7.217-5.407l-.526-1.754-1.549-.263c-1.198-.205-1.607-.175-1.782.117-.468.73-.877 3.975-.877 6.694 0 2.572.029 2.748.818 3.508.497.496 1.841 1.14 3.711 1.783 2.571.847 3.302.964 5.99.993 5.99.03 10.285-2.221 12.447-6.46.76-1.549.847-1.958.847-4.764 0-3.712-.379-4.648-2.775-7.015-1.198-1.17-2.864-2.251-6.282-4.093-5.464-2.923-6.867-4.092-6.867-5.67 0-1.345.935-2.34 2.513-2.777 2.338-.614 4.646.584 6.487 3.361.789 1.228 1.11 1.462 2.133 1.637.672.117 1.344.146 1.519.03.584-.352 2.045-4.093 2.162-5.672.146-1.549.117-1.666-.701-2.25-3.039-2.163-10.227-3.099-14.2-1.813z"/></g><defs><clipPath id="clip0_68_33"><path fill="#fff" d="M0 0h374v114H0z"/></clipPath></defs></svg>