<svg width="260" height="342" fill="none" xmlns="http://www.w3.org/2000/svg"><g clip-path="url(#clip0_56_4027)"><path d="M149.887.16c-15.029.748-25.973 2.405-37.692 5.745-31.098 8.817-52.507 28.348-61.877 56.483-2.082 6.226-3.683 14.295-4.11 20.547-.134 1.763-.24 33.238-.24 69.896l-.054 68.587v1.951H0l3.55 5.397c1.949 2.992 19.38 29.684 38.733 59.316L77.466 342l5.099-7.161c2.83-3.927 5.312-7.401 5.525-7.721.4-.561 1.922-2.699 14.602-20.387 3.524-4.916 13.107-18.329 21.302-29.791 8.195-11.463 20.181-28.188 26.614-37.193 6.433-9.004 11.692-16.405 11.692-16.432 0-.053-10.197-.026-22.69.027l-22.69.08v-3.954c-.08-68.427.027-118.765.267-120.208 2.402-15.096 16.897-24.715 37.238-24.715 15.429 0 25.413 7.482 30.004 22.444l.694 2.271.08 117.215.054 117.242H260l-.08-127.128c-.08-119.967-.107-127.261-.561-130.173-2.509-16.513-8.248-30.647-17.111-42.216-3.977-5.184-10.731-11.73-16.043-15.55C211.871 8.363 194.493 2.538 172.043.534 168.84.24 153.411-.026 149.887.16z" fill="#610202"/></g><defs><clipPath id="clip0_56_4027"><path fill="#fff" d="M0 0h260v342H0z"/></clipPath></defs></svg>