<svg width="250" height="301" fill="none" xmlns="http://www.w3.org/2000/svg"><path d="M62.762 67.43L.495 134.367l1.225.166c.684.07 17.841.141 38.157.165l36.955.023.047 4.294.07 4.318 48.504.071 48.479.047v-8.73h37.827c20.811 0 37.827-.071 37.827-.141 0-.189 1.862 1.816-31.699-34.306-16.215-17.459-42.988-46.29-59.486-64.057C130.544 6.23 125.146.448 125.052.496c0 0-28.046 30.129-62.29 66.935zm38.534 77.601c13.41.047 35.257.047 48.55 0 13.316-.024 2.357-.047-24.346-.047s-37.591.023-24.204.047zm-24.346 1.085c-.071.165-.095 3.091-.071 6.536l.07 6.252 48.504.071 48.479.047v-13.213H125.5c-38.864 0-48.48.071-48.55.307zm25.17 14.958c13.198.048 34.74.048 47.844 0 13.127-.023 2.333-.047-23.993-.047-26.302 0-37.049.024-23.851.047zm-25.123 1.652c-.094.071-.165 2.737-.165 5.898v5.734h97.1l-.047-5.852-.07-5.827-48.339-.071c-26.584-.024-48.408.024-48.48.118zm.66 12.811c1.108.284 96.04.284 96.04 0 0-.165-16.262-.236-48.362-.212-26.608.024-48.055.118-47.678.212zm-.66 2.761c-.094.071-.165 2.619-.165 5.615v5.474l1.603.142c2.026.212 94.248.212 94.979.023l.518-.141-.047-5.592-.07-5.568-48.339-.071c-26.584-.024-48.408.024-48.48.118zm0 14.864c-.094.071-.165 2.407-.165 5.167v5.025l1.249.142c.66.071 22.484.118 48.48.071l47.254-.071v-10.381l-48.339-.071c-26.584-.024-48.408.024-48.48.118zm0 14.628c-.094.071-.165 2.194-.165 4.695v4.53l1.485.165c.801.071 22.625.118 48.479.071l47.019-.071v-9.437l-48.339-.071c-26.584-.023-48.408.024-48.48.118zm-.071 15.006c-.047.165-.07 2.1-.047 4.294l.07 4.011h96.866v-8.494l-48.385-.071c-39.311-.047-48.409 0-48.503.26zm0 14.628c-.047.165-.07 1.935-.047 3.94l.07 3.657 48.504.071 48.479.047-.047-3.94-.071-3.964-48.385-.047c-39.311-.047-48.409-.024-48.503.236zm0 14.864c-.047.165-.07 1.675-.047 3.374l.07 3.043 48.504.071 48.503.047-.071-3.35-.071-3.374-48.385-.071c-39.618-.047-48.409 0-48.503.26zm-.046 17.436l.07 2.902 48.503.07 48.479.048v-5.899H76.808l.071 2.879zm.046 12.056c-.07.189-.07 1.321-.047 2.548l.07 2.218 48.504.071 48.503.047-.071-2.524-.071-2.549-48.385-.07c-40.018-.048-48.385 0-48.503.259zm-.046 16.492l.07 1.958 48.503.071 48.479.047v-4.011H76.808l.071 1.935z" fill="#610202"/></svg>