<svg width="142" height="38" fill="none" xmlns="http://www.w3.org/2000/svg"><path d="M37.044 37.8c0-.111-.034-.18-.076-.154-.042.026-.128-.078-.192-.231-.067-.161-.171-.278-.247-.278-.104 0-.112-.023-.04-.11.07-.084.068-.118-.01-.144-.08-.027-.076-.065.016-.177.09-.11.094-.151.02-.176-.054-.018-.098-.068-.098-.11 0-.042.035-.055.077-.028.045.027.058-.004.031-.074-.026-.067-.006-.122.043-.122.065 0 .067-.042.006-.157-.068-.126-.06-.157.039-.157.1 0 .105-.02.025-.105-.101-.108-.298-.011-.273.135.007.038-.029.084-.08.102-.06.023-.076-.025-.046-.14.025-.095.014-.154-.026-.131-.039.023-.141.015-.227-.016-.125-.046-.088-.07.176-.115.208-.036.333-.099.333-.168 0-.06.069-.11.152-.11.084 0 .201-.07.26-.154.106-.151.505-.357.635-.328.036.009.265-.035.51-.096.243-.062.663-.137.932-.167.27-.03.51-.087.534-.126.024-.04.121-.072.215-.073.095 0 .384-.106.643-.233.258-.128.53-.233.603-.234.072 0 .154-.037.18-.08.027-.043.01-.079-.04-.079-.108 0-.069-.35.04-.358.044-.003.234-.05.423-.104.189-.054.43-.077.535-.05a.986.986 0 00.44-.029c.137-.042.446-.115.686-.163.66-.129 1.013-.237 1.013-.31 0-.075-4.021-.023-5.017.066-.525.047-.725.034-.94-.06a6.697 6.697 0 00-.314-.13 6.111 6.111 0 01-.269-.107c-.126-.052-.285-.073-.352-.046-.069.026-1.112.06-2.32.076-1.206.016-2.353.063-2.547.107-.194.042-.776.119-1.292.169-.517.05-1.007.127-1.09.171-.082.044-.322.064-.532.043-.211-.02-.402-.006-.426.032-.023.038-.075.048-.115.023-.04-.024-.073-.007-.073.038 0 .046-.026.076-.059.068-.13-.035-.803.108-.803.17 0 .077-.592.204-.816.176-.083-.01-.216.052-.297.139-.081.087-.208.162-.282.167-.074.005-.346.017-.604.026-.26.01-.612.058-.784.108a5.85 5.85 0 01-.61.135c-.163.024-.277.075-.254.112.073.119-.1.15-1.463.26-.072.006-.125.044-.118.085.008.041-.056.095-.142.12a1.594 1.594 0 00-.355.182c-.143.097-.44.149-1.058.185-.474.028-.942.047-1.042.042a1.04 1.04 0 00-.422.117c-.137.07-.262.093-.29.052-.067-.1-.343-.197-.282-.099.064.103-.013.098-.221-.015-.422-.228-2.416-.055-2.624.228-.065.088-.072.147-.02.165.045.014.081.058.081.096s-.05.05-.11.027c-.06-.023-.132-.004-.16.042-.077.123.393.105.646-.024.117-.06.37-.135.565-.167.194-.031.415-.069.49-.083.075-.014.137.02.137.077 0 .073.098.095.333.077.258-.02.302-.008.195.054-.077.045-.122.11-.1.145.047.075-.392.15-1.24.214-.477.035-.632.021-.685-.062-.05-.078-.069-.081-.07-.01-.001.145-.473.121-.641-.032-.08-.071-.144-.096-.144-.055 0 .045-.254.053-.647.02-.355-.03-.91-.073-1.234-.097-.324-.024-.704-.084-.846-.135a1.055 1.055 0 00-.452-.053c-.108.02-.218 0-.245-.043-.03-.05-.01-.056.053-.017.064.04.084.033.053-.018-.06-.095-.433-.182-.876-.202-.261-.012-.315-.043-.322-.183-.008-.151.046-.175.51-.23a5.19 5.19 0 01.714-.042l.196.017-.208-.113c-.361-.197-.713-.28-1.4-.33a8.414 8.414 0 01-1.175-.177c-.645-.162-2.882-.174-2.98-.016-.033.054-.102.073-.153.042-.13-.081-1.573-.109-1.524-.03.046.075.034.076-.991.108-.724.022-1.03.048-2.114.185-.494.062-.783.026-1.065-.132-.118-.066-.093-.104.192-.284.23-.145.51-.23.934-.284a21.499 21.499 0 001.91-.319c.297-.067.357-.108.326-.227-.023-.086-.084-.129-.148-.104-.06.023-.11.003-.11-.045 0-.047.061-.087.137-.088.117 0 .12-.012.02-.077-.075-.048-.083-.076-.023-.077.053 0 .076-.054.05-.12-.03-.081.047-.158.258-.252l.302-.134-.766-.048a20.003 20.003 0 00-1.234-.04 5.66 5.66 0 01-.469-.001c0-.005.07-.091.157-.19.086-.1.157-.158.157-.129 0 .03.079.002.176-.062.097-.064.438-.157.758-.206.32-.05.72-.14.891-.2.171-.06.439-.11.595-.112.437-.005 1.536-.29 1.218-.317a2.235 2.235 0 01-.228-.043l-.253-.056c-.18-.04-.19-.116-.025-.169a1.27 1.27 0 00.37-.242c.113-.105.284-.19.38-.19a.386.386 0 00.264-.108c.074-.089.01-.117-.362-.16a19.514 19.514 0 01-.688-.089c-.308-.05-1.532-.043-1.616.01-.114.07-1.01.103-1.01.037 0-.035.053-.107.118-.16.064-.055.117-.135.117-.18 0-.046-.023-.06-.051-.03-.029.028-.1.012-.157-.037-.059-.048-.105-.053-.105-.012 0 .041-.053.075-.118.075-.188 0-.137-.084.122-.198.291-.13.25-.183-.22-.286-.428-.093-.51-.239-.202-.363.317-.128 1.809-.294 2.661-.296.4-.001.82-.026.935-.054l.208-.053-.223-.183c-.123-.1-.283-.184-.356-.185-.186-.004-.242-.129-.143-.315.105-.197.787-.55 1.061-.55.116 0 .183-.035.155-.08-.027-.042-.113-.078-.192-.078-.133 0-.28-.196-.252-.333.03-.14-1.214.017-1.318.166-.08.114-2.081.411-2.278.338l-.187-.069.182-.097c.1-.054.751-.193 1.447-.31 1.274-.211 1.583-.361.75-.361-.257 0-.493-.045-.57-.108-.109-.09-.26-.093-.895-.015-1.167.143-1.846.24-2.005.29-.106.032-.138.009-.118-.087.029-.139.271-.302.651-.438.328-.117.124-.22-.294-.149l-.683.111-.353.055.294-.282c.162-.155.294-.294.294-.31 0-.015-.219-.052-.486-.083-.632-.071-.97-.248-.966-.506.002-.136.51-.318.981-.353.195-.014.636-.082.98-.15.346-.069.875-.14 1.177-.16.302-.02.76-.072 1.019-.118 1.606-.282 1.968-.352 2.037-.391.043-.025-.08-.083-.274-.13-.195-.048-.352-.132-.352-.19 0-.131.79-.418 1.507-.546.35-.062.607-.155.692-.249.075-.083.338-.189.597-.24.59-.116.574-.226-.066-.462-.138-.051-.234-.133-.215-.183.045-.114.408-.287.602-.287.08 0 .124-.035.097-.079-.026-.043-.31-.078-.632-.078-.528 0-.74-.08-.485-.183.228-.093-.916-.043-1.48.064-.704.133-1.087.078-1.087-.158 0-.108.204-.251.77-.535.531-.269.737-.409.665-.455-.135-.087-.001-.177.525-.35.742-.246 1.33-.657 1.253-.876-.053-.15.237-.231 1.432-.404.594-.085 1.189-.21 1.322-.276.133-.067.415-.142.626-.167.582-.07 1.697-.352 1.871-.474a.84.84 0 01.392-.113c.13-.003.308-.036.394-.073.125-.054.093-.07-.157-.08-.668-.024-1.022-.09-1.11-.206-.061-.08-.156-.104-.275-.07-.157.042-.163.037-.044-.037a.466.466 0 01.275-.065.403.403 0 00.24-.044c.063-.039.185-.024.3.038.15.08.226.083.341.01.094-.058.166-.064.196-.015.026.042.248.078.494.08.245 0 .534.052.642.114.235.134.313.144.313.04 0-.044-.055-.08-.122-.08s-.103-.03-.08-.069c.025-.038-.03-.088-.12-.112-.09-.024-.15-.09-.13-.146.034-.105.385-.166 1.472-.258.98-.082 1.254-.126 1.254-.203 0-.04-.053-.074-.118-.074s-.117-.07-.117-.157c0-.115.052-.157.196-.157.225 0 .264-.12.056-.175-.078-.02-.474-.018-.882.005-1.189.067-1.664.045-1.913-.09-.126-.068-.252-.11-.28-.093-.027.017-.035-.068-.017-.19.039-.264-.072-.306-.877-.328-.481-.013-.519-.025-.351-.112.275-.143 1.286-.348 1.888-.383.308-.018.599-.082.703-.156.223-.156.357-.158.508-.007.068.068.257.117.445.116.581-.003 2.75-.224 3.043-.31.275-.08.284-.093.226-.35-.037-.163-.029-.3.02-.349.056-.056.054-.114-.007-.188-.188-.226.05-.273 1.195-.235.889.03 1.166.014 1.346-.078.191-.098 1.052-.232 1.639-.256.086-.003.333-.038.549-.076l.392-.07-.353-.058c-.194-.031-.776-.039-1.294-.017a35.11 35.11 0 01-1.646.03 14.482 14.482 0 00-1.686.117c-1.066.14-2.166.236-2.64.234-.164-.001-.322.029-.349.066-.027.038-.16.073-.294.079-.134.005-.244.039-.244.075 0 .035-.08.042-.177.015-.138-.039-.15-.032-.059.033.102.07.099.082-.02.083-.075.001-.136.04-.136.089 0 .054-.075.038-.194-.04-.214-.14-.308-.162-.243-.056.023.038-.027.087-.113.11-.09.023-.156.002-.156-.05 0-.053-.124-.09-.294-.09-.187 0-.287.034-.276.094.013.064-.071.082-.27.057-.327-.042-.649-.225-.65-.37-.002-.061-.03-.053-.078.022-.059.091-.076.068-.077-.103-.002-.283.128-.524.28-.524.066 0 .098-.036.072-.079-.027-.043.015-.08.093-.084.258-.011.422-.059.597-.173.157-.103.525-.063.525.056 0 .022-.048.021-.105-.001-.058-.022-.155.021-.216.096-.095.118-.095.127 0 .07.087-.053.1-.035.057.076-.033.086-.015.17.046.208.15.095.276.077.14-.02-.09-.063-.044-.074.183-.042.166.023.365.002.444-.048.109-.067.171-.066.258.006.093.077.127.069.176-.044a.471.471 0 00.048-.198c-.006-.032.038-.059.099-.059.061 0 .124-.04.14-.09.017-.049.134-.1.26-.114.127-.013.27-.078.318-.144.049-.066.117-.094.151-.062.035.031.042-.004.015-.08-.06-.169.09-.185.154-.016.04.107.063.106.193-.012.14-.126.147-.125.149.016 0 .125.013.13.077.032.113-.176.097-.214-.113-.267-.133-.033-.187-.098-.179-.213.014-.183.287-.32.602-.301.293.017.552-.084.552-.216 0-.084.078-.11.294-.094.316.024.848-.065 1.039-.172.095-.053.087-.067-.04-.072a14.238 14.238 0 01-.548-.043c-.667-.063-1.553-.06-1.873.004-.22.045-.29.037-.251-.026.034-.055.012-.073-.055-.047-.065.025-.17-.047-.252-.173-.1-.154-.114-.225-.046-.247.063-.021.048-.068-.047-.143-.13-.1-.12-.107.094-.07.129.023.19.02.137-.005-.199-.094-.09-.19.215-.19.198 0 .314.036.315.098.001.072.02.07.069-.008.042-.067.085-.077.117-.027.052.085.152.079.397-.026a1.36 1.36 0 01.41-.071c.325-.007.43-.201.11-.201-.128 0-.244-.051-.27-.118-.03-.08.004-.118.105-.118.083 0 .179-.044.213-.098.09-.14.41-.307.492-.256.038.024.092.007.12-.037.026-.043.146-.08.265-.08.119 0 .408-.057.642-.127.37-.11.403-.136.252-.192-.096-.036-.75-.06-1.455-.055-.704.006-1.327-.018-1.383-.053-.058-.036-.126-.026-.156.024-.063.102-2.5.18-2.56.081-.022-.034-.094-.042-.161-.016-.083.032-.093.064-.034.101.049.03-.019.055-.15.055s-.238-.034-.238-.075c0-.041-.054-.03-.12.024-.066.055-.144.074-.175.043-.03-.03.032-.122.14-.204l.194-.148-.196.038c-.172.033-.177.028-.04-.037.227-.108.598-.097.816.024.213.118.478.08.478-.07 0-.068.155-.099.51-.1.32-.003.51.028.51.082 0 .048.043.029.097-.042.071-.093.284-.142.765-.179.366-.027.889-.1 1.161-.16a5.33 5.33 0 01.745-.119c.137-.004.426-.056.642-.115.367-.1.326-.104-.667-.064-.582.024-1.111.044-1.176.044-.064 0-.876.084-1.803.185-.927.102-1.938.195-2.246.208-.308.013-.544.05-.524.083.02.032-.116.059-.302.06-.186 0-.655.05-1.043.113-.666.107-2.231.218-2.019.143.054-.02.079-.068.054-.107-.024-.04.055-.073.176-.076.121-.002.344-.07.495-.152a9.62 9.62 0 01.431-.222c.284-.132 4.907-.898 5.997-.993.324-.028 1.259-.121 2.078-.206.82-.086 1.9-.19 2.403-.232.502-.042 1.083-.127 1.29-.19.273-.082.392-.089.431-.026.05.08.875.059 1.873-.05.151-.016.627-.051 1.059-.078a20.028 20.028 0 002.612-.36c.186-.043.371-.057.412-.032.04.025.586-.033 1.214-.128.928-.14 1.173-.155 1.32-.076.146.078.334.065 1.034-.073 1.165-.23 2.685-.528 3.442-.676.345-.068.846-.173 1.114-.234.267-.061.602-.111.744-.11.143 0 .417-.051.612-.113.327-.105.996-.221 2.783-.484a36.808 36.808 0 002.038-.342 83.01 83.01 0 011.568-.278l1.019-.168c.915-.152 1.09-.149 1.272.02.098.091.178.206.178.255 0 .05.027.085.06.08a1.79 1.79 0 01.237 0c.15.008.166.033.1.156-.095.18-.018.276.125.157.162-.135.125-.014-.06.2a.874.874 0 01-.475.243c-.263.045-.293.07-.209.171.127.153.02.162 5.044-.446a23.97 23.97 0 011.372-.114c.41-.02 1.15-.074 1.646-.12a53.388 53.388 0 011.45-.113 5.57 5.57 0 00.859-.113c.17-.044.847-.083 1.503-.086.656-.002 1.24-.02 1.297-.04.141-.047 1.978-.143 2.416-.126.193.007.405.062.47.122.148.134.525.147 2.275.081.804-.03 1.543-.1 1.785-.167.317-.088.842-.112 2.235-.103 1 .007 2.667-.014 3.702-.046 2.097-.066 1.985-.067 4.155.027 1.405.061 2.215.064 3.449.011.216-.01.33-.033.255-.053-.076-.02-.137-.072-.137-.118 0-.054.22-.066.646-.036.356.025 1.423.082 2.372.125a97.76 97.76 0 012.704.16c2.166.178 2.992.24 4.116.313 2.813.18 4.296.25 5.84.282.712.014 1.594.05 1.96.079.367.03.914.05 1.216.046.302-.004.901.028 1.332.07.432.043 1.828.093 3.104.112 1.275.019 2.475.069 2.665.111.191.042.624.096.962.119.339.023.727.06.863.083.463.076 1.187.127 2.245.16.932.029 1.838.098 3.175.242.216.023.516.052.667.064.15.012.539.044.862.072.323.028.87.072 1.215.098.345.027.645.06.666.072.022.014.24.046.485.072.246.026.498.067.561.091.063.025.427.055.809.068 1.047.035 1.046.035 1.046.162 0 .064.037.117.083.117.046 0 .058-.04.026-.091-.038-.063-.013-.075.081-.04a1 1 0 00.309.053c.117 0 .177.05.185.157.014.187-.028.196-.186.039-.164-.164-.347-.152-.292.02.027.084.019.103-.022.05-.045-.06-.266-.072-.694-.036-.735.062-1.291.045-2.312-.07-.41-.047-.939-.103-1.176-.127a4.58 4.58 0 01-.523-.072c-.05-.016-.112.024-.137.09-.034.087-.108.105-.287.065-.281-.061-.461-.085-1.209-.157-.302-.029-.57-.066-.596-.082-.055-.033-1.103-.039-2.54-.013-.911.016-1.554-.029-2.034-.142-.27-.064-2.16-.092-2.16-.032 0 .031.238.082.529.113.291.031.6.07.686.088.605.119 2.225.253 3.528.291.302.009.586.04.632.07.075.048 2.476.235 2.605.202.03-.007.32.011.643.041.5.047 1.777.14 2.098.154.115.005.129.107.023.172-.077.047-.667.058-1.202.022-.164-.01-.326-.066-.361-.123-.047-.077-.182-.09-.526-.05-.255.03-.486.067-.515.085-.029.017-.106-.023-.172-.088-.065-.066-.137-.089-.16-.052-.044.072-1.627.041-2.085-.04a5.806 5.806 0 00-.591-.065 1.438 1.438 0 01-.49-.11c-.139-.073-.173-.07-.173.013 0 .062-.105.113-.255.125-.62.05-1.488.046-2.176-.012-.495-.04-.706-.036-.629.016.309.207-.271.309-1.174.206-.8-.09-.943-.095-1.289-.043a1.662 1.662 0 01-.557-.013c-.335-.09-2.08-.249-2.858-.26a16.145 16.145 0 01-1.176-.064 30.78 30.78 0 00-1.254-.094 99.452 99.452 0 01-2.156-.156 87.496 87.496 0 00-2.565-.168c-1.034-.047-1.16-.039-1.204.078-.043.112-.18.13-.924.128-.48-.002-1.032.025-1.226.06l-.352.063.588.088c.323.048.711.086.862.085.15-.001.768.053 1.372.12.603.066 1.75.16 2.548.209.797.048 1.528.104 1.624.125.096.02.89.072 1.764.114 1.572.075 2.672.137 3.511.196.237.017 1.05.066 1.807.11.758.044 1.428.095 1.49.114.062.02.183.062.27.095.086.032.292.069.458.08.165.013.342.078.392.147.072.099.276.128.992.144.496.012.937.042.98.069.043.026.343.069.666.094 1.546.121 3.091.22 3.802.242a34.23 34.23 0 012.039.162c.69.075 1.571.149 1.96.163 2.685.099 4.83.224 5.958.347.388.042 1.068.099 1.511.127.443.028.825.08.847.117.023.037-.075.07-.218.074-.142.003-.359.013-.48.022-.122.009-.237-.009-.256-.039-.018-.03-.164-.02-.323.025-.162.045-.517.057-.803.028-.283-.028-1.784-.065-3.336-.082a200.16 200.16 0 01-4.116-.082c-1.268-.05-1.627-.019-.795.068.231.024.436.06.457.081.056.056-.23.194-.468.226-.277.037-.365.137-.128.145.104.004.648.04 1.209.08.56.04 1.663.094 2.45.12 1.293.042 1.43.06 1.43.184 0 .172.316.213 2.218.286.767.03 1.413.084 1.435.12.023.037.196.066.385.066.644 0 .463.217-.328.393-.223.05-.523.084-.666.076-.955-.052-.705.102.367.227.431.05 1.03.108 1.332.129.302.02.849.073 1.215.116.367.043 1.108.102 1.647.13.663.035 1.005.085 1.058.154.043.057.323.126.627.154.302.028.584.095.627.147.044.053.336.12.651.149.315.029.652.105.749.168.11.073.449.128.917.15 1.007.047 1.796.135 1.84.206.046.074-.641.18-.746.115-.043-.026-.079-.015-.079.026 0 .041.124.098.275.126.298.056.354.153.137.238-.256.099.102.256.908.398.677.12 1.105.267.793.274-.293.006.159.144.63.192.28.029.55.086.6.128.05.041.314.111.587.155.757.123.749.22-.024.281-.288.023-.553.09-.632.161-.111.1-.248.112-.745.066-1.011-.095-1.211-.076-1.362.125-.075.098-.12.204-.101.234.018.03.271.08.562.11.29.03.563.082.607.116.043.034.245.087.45.117.562.084.447.195-.202.195-.316 0-.602.026-.635.059-.032.032-.361.058-.73.058-.467 0-.682.03-.705.098-.023.068.061.099.267.099.165 0 .424.033.575.072.15.04.573.095.938.122.364.027.703.082.751.123.049.04.109.053.135.027.025-.025.127-.016.228.02.14.05.057.076-.367.115-.5.046-1.07.16-1.372.275-.191.074.106.154 1 .27.442.058.803.127.803.152 0 .026.23.032.51.014.409-.026.509-.01.509.082 0 .143-.248.375-.398.373-.092 0-.091-.014.006-.077.1-.065.097-.076-.022-.077a.21.21 0 00-.186.12c-.04.104-.182.116-.958.081-.973-.044-1.212.008-1.033.224.3.362 1.525.75 2.366.75.509 0 .774.095.774.277 0 .092-.125.115-.607.114-.335-.001-.749-.04-.922-.085-.172-.045-.985-.098-1.805-.118-1.452-.035-1.493-.031-1.505.122-.011.15.085.26.253.287l.752.14c1.211.228 2.287.367 3.388.438 1.02.065 1.368.155 1.263.326-.024.039-.078.05-.119.024-.041-.025-.065 0-.053.058.012.057-.04.099-.115.093-.075-.006-.119.017-.099.05.021.034-.082.084-.228.111-.316.06-.391.2-.229.432.086.124.095.197.034.271-.101.122-.035.206.162.206.079 0 .144.014.144.032 0 .018.023.094.052.169.047.124-.005.131-.647.084a17.035 17.035 0 01-.993-.1c-.234-.036-.294-.02-.294.077 0 .067-.057.154-.126.193-.18.1-.072.552.153.643.161.065.162.069.012.079-.156.01-.156.01 0 .078.153.065-.06.093-.862.113-.334.008-.588.114-.588.245 0 .07-.081.113-.216.113a1.851 1.851 0 00-.393.05c-.168.044-.17.053-.04.152a.7.7 0 00.354.108c.118.002.447.127.732.277.287.153.631.275.773.275.475 0 1.216.1 1.18.159-.02.032.024.054.097.048a.158.158 0 01.161.124c.036.173-.427.47-.666.428-.095-.017-.186.008-.202.055-.037.111-.952.143-1.318.045-.155-.04-.958-.084-1.783-.096-1.396-.02-1.807.02-1.286.125.119.024.375.08.569.123.194.044.502.082.686.084.183.002.333.038.333.081 0 .044.055.079.123.079.067 0 .195.039.283.086.16.085.159.087-.024.179-.322.16-.222.312.318.484.277.088.521.211.541.274.02.063.068.135.106.16.12.078-.024.32-.159.268-.069-.026-.103-.026-.077 0 .027.027-.041.138-.149.247-.143.143-.291.2-.534.21-.184.007-.321.036-.303.064.017.029-.306.034-.719.013-.6-.03-.777-.014-.882.08-.146.133-.916.187-1.317.094-.154-.036-.266-.025-.299.03-.029.047-.136.086-.238.086-.236 0-.433.075-.433.165 0 .038.051.07.114.07.062 0 .143.054.18.119.041.074.348.174.807.263.906.176 1.573.446 1.51.61a.122.122 0 01-.156.072c-.061-.023-.092-.01-.068.028.025.04-.048.181-.161.316-.152.18-.247.23-.363.194-.088-.028-.138-.018-.114.021.024.04-.078.075-.228.08a5.3 5.3 0 00-.823.142l-.551.135.175.187c.097.102.208.186.248.186.04 0 .194.058.342.128.258.122.264.135.15.31-.076.114-.09.2-.041.23a.095.095 0 01.029.13c-.033.053-.075.044-.119-.025-.045-.069-.089-.078-.128-.026-.032.044-.164.131-.294.193l-.235.114.248.027c.269.028.413.23.218.304-.066.026-.139.027-.163.003-.024-.024-.161.023-.304.103a2.2 2.2 0 01-.559.203c-.164.03-.346.103-.404.161-.137.138-.191.135-.919-.051-.654-.168-.838-.152-1.107.093-.151.139-.212.145-.622.07-.537-.1-1.549-.112-1.492-.02.023.037.298.11.613.164.801.136.891.166.76.247-.229.141.793.474 1.791.584.27.03.507.082.528.116.021.033-.036.155-.126.27-.152.194-.155.22-.038.35.069.076.126.158.126.182 0 .096-1.328-.043-1.764-.186-.627-.205-1.898-.355-2.016-.238-.062.063-.062.116-.002.19.082.098.208.14 1.254.42.326.088.49.171.49.25 0 .1-.093.11-.582.066-.373-.034-.6-.024-.632.028-.027.045-.007.081.046.081s.078.018.056.04c-.053.053-1.163-.18-1.274-.267-.086-.068-1.231-.244-1.475-.227-.076.005-.138.054-.138.108a.695.695 0 01-.04.204c-.039.1.919.303 2.569.545.247.036.578.119.734.184.157.066.395.12.53.12.355 0 .865.155.782.238-.038.038-.515.08-1.061.092-.545.012-.985.028-.978.035.007.008.187.082.4.166.371.146.38.156.211.247-.133.071-.275.074-.568.01-.477-.102-.54-.103-.54-.01 0 .039.105.095.234.123.429.094.336.196-.178.196-.3 0-.602.05-.749.123-.149.075-.316.102-.42.068-.224-.07-3.905-.098-3.862-.028.091.148-.937.147-1.815-.002-1.777-.3-3.289-.47-4.264-.48a18.43 18.43 0 01-1.803-.12 47.025 47.025 0 00-1.792-.188c-.534-.044-.992-.094-1.02-.11-.027-.017-.314-.053-.638-.081a33.093 33.093 0 01-.862-.083c-.314-.038-1.744-.118-2.783-.155-.751-.028-1.893-.1-2.665-.169a54.788 54.788 0 00-2.235-.075 56.177 56.177 0 01-2.548-.098c-.431-.036-1.623-.061-2.65-.057-1.552.007-1.878.028-1.94.124-.063.098-.085.099-.144.006-.047-.073-.148-.094-.303-.063-.127.025-.27.008-.317-.04-.047-.047-.202-.093-.345-.102a2.367 2.367 0 01-.415-.063c-.47-.14-.96-.18-1.157-.096-.158.068-.553-.012-.499-.1.02-.033-.357-.07-.84-.08-1.297-.032-1.431-.046-1.578-.168-.12-.1-.132-.095-.108.041.018.104-.011.144-.09.125a1.634 1.634 0 00-.295-.03c-.097 0-.176-.028-.176-.061s-.057-.082-.127-.11c-.091-.034-.113-.014-.079.075.032.084.017.103-.05.06-.053-.033-.432-.072-.842-.085-.861-.029-.733-.029-4.782-.014-1.703.006-3.315-.015-3.581-.046-.267-.031-.544-.034-.617-.006-.133.051-2.694.152-3.481.137-.615-.011-1.313.35-.925.48.058.02.018.075-.098.136a.87.87 0 00-.24.17c-.086.131-.752.205-.94.103-.12-.063-.435-.086-.932-.067-.413.016-1.77.047-3.014.07-1.246.023-2.35.063-2.455.09-.104.026-.55.053-.989.06-.439.006-.869.05-.955.1-.154.086-.881.229-1.003.196-.15-.04-.428-.03-.682.025a1.945 1.945 0 01-.432.046l-.313-.027c-.087-.008-.492.028-.902.078-.41.05-.897.092-1.084.09-.186 0-.38.032-.43.073a1.09 1.09 0 01-.348.13c-.208.044-.255.03-.255-.08 0-.117-.064-.126-.568-.076a30.85 30.85 0 01-1.822.073c-.69.01-1.445.06-1.677.11-.232.051-.44.093-.46.093-.022 0 .005.053.059.117.054.065.217.118.362.118.146 0 .265.015.265.033a.81.81 0 00.048.157c.065.17-.156.161-.33-.013-.099-.099-.145-.11-.169-.039-.018.054-.065.078-.104.054-.04-.025-.072-.016-.072.019s-.08.068-.176.073c-.097.005-.635.05-1.196.098-.56.05-1.69.103-2.509.12-.819.018-1.577.051-1.685.075-.365.08-2.373.266-3.45.32-1.993.098-3.505.383-3.817.72a.644.644 0 01-.392.194c-1.015.033-2.424.139-3.042.228-.259.038-.713.09-1.009.117-.296.026-.715.081-.931.122a9.734 9.734 0 01-.423.075c-.015 0-.028-.09-.028-.2zm0-.714c0-.086-.035-.093-.154-.029-.092.05-.136.13-.108.201.035.091.07.098.153.029.06-.05.109-.14.109-.201zm13.21-1.167c.306-.11.299-.112-.353-.073-1.493.087-1.96.132-1.96.186 0 .102 1.983.006 2.313-.113zm-36.415-.947c0-.017-.053-.03-.118-.03s-.117.033-.117.075c0 .042.053.056.117.03.065-.024.118-.058.118-.075zm5.683-.266c.028-.045-.036-.079-.147-.079-.108 0-.218.036-.245.079-.027.044.037.078.148.078.108 0 .218-.035.244-.078zm-3.723-.402c0-.08-.094-.088-.268-.021-.197.075-.144.17.072.128.107-.02.196-.069.196-.107zm44.359-.012c.267-.075.304-.104.172-.135-.21-.05-2.703.055-4.04.17-.363.031 2.442.107 3.018.082.28-.012.663-.065.85-.117zm2.717-.242c.086-.02-.072-.034-.353-.03-.669.008-.933.08-.51.138.173.024.403.018.51-.014.108-.031.267-.073.353-.094zm-50.03.023c.162-.004.161-.008-.02-.081-.214-.085-.397-.043-.397.092 0 .05.055.068.124.042.068-.026.2-.05.294-.053zm51.208-.088c.02-.021-.119-.044-.31-.051-.192-.008-.373.026-.403.074-.038.062.054.077.31.051.2-.02.382-.053.403-.074zm61.304-.926c.03-.049-.096-.075-.329-.07-.335.009-.351.016-.142.07.343.087.417.087.471 0zM4.524 31.907c-.056-.023-.124-.02-.15.006-.026.026.02.045.103.041.091-.003.11-.022.047-.047zm.926-.103c.158-.05.166-.064.04-.066a.916.916 0 00-.314.066c-.2.086.006.086.274 0zm1.052.03a.215.215 0 00.124-.188c0-.12-.049-.135-.333-.1-.36.046-.595.18-.314.18.092 0 .19.035.216.078.056.09.132.098.307.03zm127.36-1.364c0-.043-.061-.078-.137-.077-.117 0-.12.012-.019.077.148.096.156.096.156 0zM8.444 27.28c-.056-.024-.124-.02-.15.005-.026.026.02.045.103.041.091-.003.11-.022.047-.047zm-.642-.23c0-.128-.218-.142-.504-.033-.312.119-.238.202.151.171.237-.019.353-.064.353-.138zm1.456.057c-.078-.127-.358-.16-.358-.041 0 .066.08.11.2.11.11 0 .182-.031.158-.07zm-.593-.088c.087-.057.042-.076-.177-.077-.161-.001-.294.034-.294.077 0 .1.316.1.47 0zm130.685-9.177a.078.078 0 10-.157 0 .078.078 0 00.157 0zm.569-1.464a.303.303 0 00-.196 0c-.054.022-.01.04.098.04.107 0 .151-.018.098-.04zm-1.176-.945a1.118 1.118 0 00-.353 0c-.097.019-.018.034.176.034.194 0 .274-.015.177-.034zm-3.626-.633c0-.034-.291-.103-.647-.154a9.9 9.9 0 01-.835-.147c-.118-.034-.171-.025-.141.023.026.043.358.122.737.177.38.055.725.111.768.125l.098.03c.011.004.02-.02.02-.054zm-114.34-.723c.14-.06.134-.068-.054-.073-.116-.003-.233.03-.26.073-.058.093.096.093.314 0zm113.791-.46c0-.037-.354-.107-.787-.157-.974-.11-1.149-.113-1.05-.013.042.042.464.107.937.146.473.038.87.075.88.08.011.007.02-.019.02-.056zm-118.19-.939c.023-.036-.01-.065-.073-.065s-.114.029-.114.065c0 .036.033.065.073.065a.15.15 0 00.114-.065zm10.49-.145c-.057-.023-.125-.02-.151.006-.026.026.02.045.103.041.091-.004.11-.022.047-.047zM14.7 12.43c0-.044-.062-.078-.137-.078-.117.001-.12.013-.02.078.148.095.157.095.157 0zm.314-.123c0-.019-.036-.034-.079-.034-.043 0-.078.037-.078.083 0 .046.035.061.078.034.043-.026.079-.064.079-.083zm4.468-.546a7.34 7.34 0 01.745-.12c.302-.036.672-.103.823-.149.151-.045.275-.08.275-.076 0 .03.537-.138.803-.251.404-.172.43-.304.059-.304-.192 0-.274-.036-.274-.118 0-.12.35-.168.933-.127.253.018.977-.117 1.143-.213.124-.072-.272-.153-.788-.162a2.403 2.403 0 00-.975.188c-.275.108-.573.197-.662.198-.128 0-.138.016-.047.073.062.04.142.055.176.033.035-.02.063-.005.063.036 0 .07-.172.12-.77.223-.144.024-.28.094-.304.155-.034.09-.065.092-.165.01-.103-.084-.116-.08-.077.024.034.09 0 .12-.123.11a1.583 1.583 0 00-.428.058c-.18.05-.295.043-.373-.022-.063-.052-.112-.06-.112-.016 0 .087-.598.334-.806.334-.074 0-.135.049-.135.107 0 .08.105.102.412.086.226-.012.5-.047.607-.077zm3.225-2.844a.2.2 0 00-.185.048c-.059.058-.028.069.102.034.106-.027.142-.063.083-.082zm94.691-.311c0-.033-.107-.067-.238-.076-.136-.01-.218.016-.191.06.055.088.429.102.429.016zm-94.466-.494l.196-.006-.183-.074c-.207-.083-.562-.019-.562.101 0 .044.079.058.176.032a1.97 1.97 0 01.373-.053zm93.839.017c0-.036-.053-.066-.117-.066-.065 0-.118.03-.118.066 0 .036.053.065.118.065.064 0 .117-.03.117-.065zm.328.011c-.056-.022-.124-.02-.15.007-.026.026.02.044.103.04.091-.003.11-.022.047-.047zm-92.82-.156c-.056-.023-.124-.02-.15.006-.026.026.02.044.103.04.091-.003.11-.021.047-.046zm-8.795-.104a.079.079 0 00-.078-.078.079.079 0 000 .157.079.079 0 00.078-.079zm2.038-.205c0-.088-.147-.011-.19.099-.04.107-.029.112.07.03.067-.055.12-.113.12-.13zm.784.01c0-.066-.014-.119-.03-.119-.018 0-.052.053-.076.118-.025.065-.011.118.03.118.042 0 .076-.053.076-.118zm102.635-2.682c-.057-.023-.124-.02-.15.006-.026.026.02.045.103.041.091-.003.109-.022.047-.047zm-72.18-1.588a.085.085 0 00-.027-.118c-.039-.024-.091.009-.116.074-.049.127.069.163.143.044zM11.55 37.078c-.045-.053-.052-.099-.014-.1.038-.001.003-.04-.078-.087-.207-.12-.024-.224.382-.215.211.004.262.023.156.057-.149.049-.26.249-.137.246.23-.004.397-.106.36-.222-.034-.113-.025-.112.074.008.134.162.73.192.782.039.026-.078.058-.077.155.002.152.127.242.433.113.385-.05-.019-.08-.082-.067-.14.018-.074-.018-.066-.12.026-.115.105-.284.128-.834.116-.438-.01-.72-.052-.772-.114zm-1.077-.172c-.104-.065-.054-.24.07-.24.089 0 .167.222.094.268-.033.02-.106.007-.164-.028zm1.66-.631c-.087-.14-.078-.159.078-.17.098-.006.23-.017.295-.024.21-.023.248.049.11.201-.174.193-.36.19-.484-.007zm47.489-.584c0-.02.035-.056.078-.083.043-.027.079-.011.079.034a.081.081 0 01-.079.083c-.043 0-.078-.015-.078-.034zm.92-.054c.053-.053.116-.077.14-.053.024.024-.02.068-.096.097-.112.043-.121.034-.044-.044zm-42.078-.216c0-.038.055-.114.121-.169.094-.078.142-.08.215-.006.073.073.068.11-.023.168-.148.093-.313.097-.313.007zm88.509-.715c0-.043.051-.079.113-.079.062 0 .134.036.161.079.027.043-.024.078-.113.078s-.161-.035-.161-.078zm-1.333-.084c0-.089.211-.098.264-.011.021.034-.029.067-.113.074-.083.006-.151-.022-.151-.063zm-77.745-.126c-.07-.184.037-.211.308-.077.14.07.221.132.178.138-.33.05-.45.035-.486-.061zm67.789-.182c0-.044.015-.079.034-.079.02 0 .057.035.083.079.027.043.011.078-.034.078-.046 0-.083-.035-.083-.078zm-1.13-.068c-.034-.055-.04-.12-.015-.147.07-.07.147.033.109.147-.027.08-.045.08-.094 0zm.287.016c-.16-.065-.111-.172.059-.128.086.023.157.072.157.11 0 .075-.061.08-.216.018zm37.584-.393c-.09-.09-.057-.183.066-.183.064 0 .117.053.117.118 0 .122-.093.155-.183.065zm-97.292-.48c-.02-.035.03-.068.115-.074.084-.006.132.022.107.062-.055.09-.17.096-.222.012zm.707-.135a.212.212 0 01.173-.123c.071-.003.288-.022.482-.041.255-.026.32-.014.235.044-.097.065-.098.08-.006.08.06.001.089.023.062.05-.027.027-.26.062-.52.078-.392.024-.463.01-.426-.088zm-31.993-.19c-.058-.094.09-.187.194-.122.087.054.03.195-.08.195-.038 0-.09-.033-.114-.073zm.741-2.04c0-.04.035-.096.078-.122.044-.027.057.004.03.074-.052.136-.108.16-.108.048zm.575-.04c0-.063.03-.096.067-.074.036.023.046.075.021.115-.063.102-.088.09-.088-.042zm136.617-10.24c-.064-.042-.082-.076-.039-.076.043 0 .132.034.196.076.065.042.083.076.039.076a.474.474 0 01-.196-.076zM12.976 14.923c0-.034.07-.062.157-.062.086 0 .157.033.157.074 0 .04-.07.068-.157.061-.086-.006-.157-.04-.157-.073zm3.283-1.152l-.183-.149.469-.062a8.87 8.87 0 01.88-.067c.227-.002.412-.029.412-.058 0-.06.467.06.54.14.026.03-.06.033-.194.008a.756.756 0 00-.47.075c-.126.066-.414.124-.64.128-.227.004-.412.036-.412.07 0 .113-.213.068-.402-.085zm-.988.023c.026-.026.094-.029.15-.006.063.025.044.043-.047.047-.083.004-.129-.015-.103-.04zm-1.426-1.083c-.004-.083.015-.13.041-.103.026.026.029.093.006.15-.025.063-.043.044-.047-.047zm2.141-.66c.022-.035-.032-.126-.12-.201-.159-.136-.153-.142.324-.367.575-.273.628-.279.628-.073 0 .097-.053.157-.137.158-.112.001-.117.014-.027.071a.406.406 0 00.255.043c.08-.015.144.008.144.052s-.115.074-.255.066a4.675 4.675 0 00-.411-.005c-.131.008-.138.022-.04.085.1.065.098.077-.02.078-.075 0-.136.036-.136.08 0 .043-.055.078-.123.078-.067 0-.104-.03-.082-.065zm1.002-.633c-.078-.048-.075-.081.015-.156.127-.105.228-.013.14.128-.03.05-.099.063-.155.028zM14.27 8.116c-.027-.044.004-.079.07-.079.064 0 .139.035.165.079.027.043-.004.078-.069.078s-.14-.035-.166-.078zm1.606-.352c.112-.136.158-.15.158-.05 0 .04-.058.093-.129.12-.107.042-.112.03-.03-.07zM126.672 6.5c.092-.092.594-.164.695-.1.059.037.071.071.028.076-.422.048-.759.06-.723.024zm-.476-.097c-.065-.042-.016-.064.137-.064.131 0 .239.029.239.065 0 .083-.244.083-.376-.001zm-2.015-.1c-.336-.076-1.151-.13-2.673-.177-.521-.017-1.023-.07-1.115-.12-.101-.053-.452-.08-.875-.068-.389.012-.708.014-.708.004 0-.027.457-.257.511-.257.026 0 .026.035-.001.078-.028.046.052.079.191.079.132 0 .24-.036.24-.079 0-.043.038-.078.083-.078.046 0 .057.044.024.098-.043.072-.029.077.055.019a.495.495 0 01.269-.07l.573.02c.229.006.4.038.38.07-.02.033.181.054.446.048.266-.007.545.02.62.061.092.049.137.045.137-.013 0-.047.043-.06.095-.027.052.032.396.068.764.08.369.012.67.026.67.03 0 .006.176.022.392.036.216.014.401.033.412.042.018.017.099.04.235.07.062.013-.306.24-.373.23a16.86 16.86 0 01-.352-.076zm-3.175-.393c0-.037-.069-.068-.153-.068-.083 0-.171.03-.194.068-.023.038.045.07.152.07s.195-.032.195-.07zm4.193-.226c-.027-.044-.082-.06-.122-.035-.04.025-.073.01-.073-.033 0-.152.126-.154.22-.004.052.083.079.151.059.151-.019 0-.057-.035-.084-.08zm-1.678-.306c-.083-.083-.167-.134-.187-.114-.02.02-.208.048-.418.062-.364.026-.815-.136-.7-.25.091-.092.633-.07.751.03.121.102.342.105.44.006.084-.083.484-.065.539.025.075.121-.037.391-.163.391-.061 0-.18-.068-.262-.15zm.809.06c-.033-.055-.022-.07.029-.038a.097.097 0 00.134-.028c.073-.118.171-.096.171.038 0 .139-.253.16-.334.028zm-91.655-.585c.026-.026.094-.029.15-.006.063.025.044.044-.047.047-.083.004-.13-.015-.103-.04zM48.49 2.625c0-.043.015-.079.034-.079.02 0 .057.036.083.079.027.043.011.078-.034.078-.046 0-.083-.035-.083-.078zm1.828.008c-.127-.093-.097-.227.043-.19.089.023.146-.01.154-.087l.026-.24c.007-.066.078-.123.157-.128.079-.006.17-.017.202-.026l.294-.08c.288-.077.444-.193.387-.286-.024-.038.026-.07.112-.07.085 0 .172.045.194.099.028.068.06.072.105.014.115-.15.355-.197.482-.094.101.082.11.08.055-.012-.05-.085-.034-.099.07-.059a.836.836 0 00.243.053c.058 0 .127.067.153.149.03.095.097.135.188.112.2-.053.18-.247-.022-.21-.16.03-.16.029-.007-.044a1.27 1.27 0 01.422-.08 7.08 7.08 0 00.745-.083c.684-.11 2.401-.301 3.184-.356.367-.025.825-.06 1.02-.077.408-.036 1.215-.093 2.273-.162.41-.026.974-.067 1.254-.09.674-.058 1.734-.062 1.882-.008.064.023.267.07.45.103.184.033.334.086.334.118 0 .031-.088.145-.194.251-.158.158-.267.193-.589.186-.234-.004-.383.025-.368.072.015.044.298.083.63.086.522.006.869.107.75.22-.053.05-1.092.099-1.092.051 0-.023-.238-.031-.529-.018a5.848 5.848 0 01-.979-.046c-.247-.04-.466-.055-.487-.034-.02.02-.188.044-.373.053-.185.01-.434.044-.553.077-.129.037-.257.028-.316-.022-.055-.045-.44-.09-.858-.1-.516-.013-.742-.045-.707-.103.027-.046-.01-.036-.083.024-.091.074-.233.092-.452.057-.21-.034-.302-.024-.27.029.056.09.046.091-.664.11-.28.008-.59.042-.687.076-.096.034-.176.033-.176-.003 0-.035-.088-.064-.196-.064-.108 0-.196.027-.196.06 0 .032-.055.058-.122.058s-.104-.03-.081-.066c.054-.088-.751.041-.81.13-.107.162-1.574.327-1.574.176a.083.083 0 00-.083-.083c-.046 0-.063.033-.038.073.071.115-.11.185-.226.089-.078-.065-.115-.061-.144.015-.026.066-.155.096-.362.085-.178-.01-.323.015-.323.055 0 .13-.403.045-.48-.102-.042-.077-.11-.12-.152-.094-.042.026-.058.076-.036.111.022.036-.012.085-.075.11-.063.023-.135.009-.161-.033-.029-.047-.13-.03-.258.04-.24.135-.99.278-1.086.208zm-1.123-.356c0-.138.047-.158.114-.05.025.04.01.095-.034.123-.044.027-.08-.006-.08-.073zm.296-.136a.2.2 0 01.185-.049c.059.02.023.056-.083.083-.13.034-.16.024-.102-.034zm27.005-.199c-.097-.019-.176-.06-.176-.094 0-.096.34-.044.375.058.016.05.018.087.004.08a2.469 2.469 0 00-.203-.044zm-1.626-.18c.215-.093.339-.093.196 0a.484.484 0 01-.235.072c-.078-.003-.065-.027.039-.072zm.475.007c-.025-.039.026-.052.113-.03.183.048.206.102.043.102-.062 0-.132-.032-.156-.072zm-10.093-.177c-.123-.124-.067-.133.902-.139.568-.003 1.112-.021 1.208-.04.096-.018.193-.004.215.032.023.037.149.059.28.05.357-.025.36.089.002.123-.168.016-.29.002-.269-.031.064-.104-.056-.065-.18.057-.132.134-.464.158-.537.04-.032-.053-.1-.052-.202.003-.174.093-.337.03-.257-.1.035-.056.015-.061-.058-.015-.06.038-.304.088-.541.11-.34.033-.46.014-.563-.09zm6.286.092c0-.043.016-.079.035-.079.019 0 .056.036.083.079.026.043.01.078-.035.078-.046 0-.083-.035-.083-.078zm-3.136-.157c-.07-.046-.08-.077-.024-.077a.183.183 0 01.142.077c.06.097.033.097-.118 0zm30.62-.01c.04-.067-.258-.144-.318-.083-.085.084-.433.1-.433.02 0-.05-.223-.062-.608-.033-.471.035-.669.017-.882-.082-.15-.07-.215-.112-.142-.092.073.02.143.005.157-.033.013-.037.077-.08.142-.093a.337.337 0 00.175-.104c.032-.043.058-.001.06.093 0 .163.012.166.216.06.193-.102.227-.1.324.024.103.13.106.13.061 0-.036-.106-.004-.138.143-.138.104 0 .225.062.27.138.044.076.08.093.082.039.002-.103.237-.142.237-.04 0 .033.267.058.593.055.326-.002.61.024.632.059.021.035.114.063.207.063.134 0 .148.02.069.098-.098.098-1.044.145-.985.048zm1.287-.003c0-.036.027-.068.059-.071.032-.003.172-.02.31-.038.31-.04.42.094.122.149-.295.054-.491.038-.491-.04zm-5.644-.262c0-.043-.133-.078-.294-.078-.162 0-.32.035-.352.078-.038.053-.058.053-.059 0-.002-.098-.471-.121-.471-.023 0 .04-.032.052-.072.028-.074-.046-.764-.12-1.496-.161-.237-.013-.431-.032-.431-.042 0-.052-1.032-.053-1.098 0-.118.093-.901.159-.901.075 0-.04-.053-.073-.118-.073s-.118.034-.118.076c0 .047-.552.062-1.47.038-.808-.02-1.555-.036-1.659-.036-.104 0-.306-.032-.45-.071-.158-.044-.262-.044-.262-.001 0 .071-.274.06-.349-.015-.021-.021-.378-.026-.792-.01-.5.018-.791-.004-.865-.065-.086-.072-.111-.068-.112.016 0 .068-.022.077-.059.025-.034-.049-.48-.085-1.116-.091-.582-.006-2.346-.03-3.92-.055a628.37 628.37 0 00-4.488-.055c-.894-.006-1.626-.033-1.626-.06 0-.027-.195-.049-.432-.049s-.43.027-.43.059-.038.059-.084.059c-.045 0-.06-.035-.034-.079.026-.043-.007-.078-.074-.078-.067 0-.122-.035-.122-.078a.081.081 0 00-.083-.079c-.046 0-.062.035-.035.079.029.046-.058.077-.21.077-.197-.001-.232-.02-.143-.077.087-.057.09-.077.014-.078-.08 0-.076-.028.014-.119a.457.457 0 01.28-.117c.09 0 .163-.038.163-.084 0-.05.067-.062.166-.03.112.035.15.024.113-.035-.03-.047-.032-.087-.007-.087s.073.073.106.162l.06.161.206-.163c.142-.111.224-.135.262-.074.038.062.073.057.12-.018.053-.087.591-.106 2.871-.104 1.543.002 3.44.026 4.217.054.776.027 2.063.07 2.861.095 2.88.09 3.623.124 3.687.163.144.09.776.169.872.11.059-.037.127-.024.162.03.046.07.08.064.139-.023.042-.065.077-.083.078-.04 0 .05.486.075 1.314.07 1.31-.01 3.547.117 3.548.2 0 .024.273.04.607.035.573-.008 1.892.1 2.126.173.086.028.088.057.008.153-.08.096-.078.112.011.084a5.01 5.01 0 01.328-.083c.135-.03.201-.085.173-.144-.025-.052-.004-.04.046.027.074.1.175.112.527.064.248-.034.495-.027.573.015.075.04.237.078.358.084.203.01.206.013.032.046-.147.028-.164.052-.079.106.121.077.02.086-1.085.102-.385.006-.646-.022-.646-.069zM71.88.547c-.025-.065-.076-.098-.115-.074-.11.068-.082.191.045.191.07 0 .097-.046.07-.117zm-4.572.268c.08-.15.076-.168-.035-.125-.111.042-.116.025-.036-.124l.092-.173.078.175c.09.2.252.23.318.057.025-.065.017-.118-.018-.118-.034 0-.063-.053-.063-.119 0-.096.071-.109.38-.068.258.034.378.022.378-.038 0-.05.124-.089.28-.089.182 0 .26.03.225.087-.038.06-.006.06.111-.002.137-.073.157-.068.119.031-.025.066-.078.12-.116.12-.039 0-.07.035-.07.078 0 .164.142.07.235-.157.11-.263.112-.265.308-.16.1.054.13.137.103.278-.021.112-.008.192.03.18.038-.013.086.011.108.053.023.046-.163.083-.456.09-.453.013-.503-.002-.581-.174-.085-.186-.374-.267-.374-.105 0 .045.035.061.077.035.044-.027.058.003.033.069-.026.068-.096.097-.169.069-.08-.031-.105-.016-.069.042.064.102-.197.177-.5.144a.738.738 0 00-.339.049c-.128.062-.133.051-.05-.105zM69.452.52c.023-.036-.01-.065-.07-.065-.06 0-.093.03-.07.065.022.036.054.066.07.066.016 0 .048-.03.07-.066zm-3.2.31c-.024-.038.027-.088.113-.11.104-.028.14-.083.108-.166-.026-.07-.014-.125.026-.125.108 0 .09.256-.025.371-.117.117-.164.124-.222.03zm.48-.218c.022-.058.05-.105.063-.105.012 0 .04.047.063.105.022.057-.007.104-.063.104S66.71.67 66.732.612zm.303-.22a.65.65 0 01.324-.118c.187-.002.306.117.189.189-.04.025-.087.005-.103-.045-.023-.068-.072-.068-.198 0-.24.128-.392.11-.212-.026zm-1.042-.01c.026-.027.094-.03.15-.007.063.025.044.044-.047.047-.083.004-.129-.015-.103-.04zM70.127.35c-.1-.065-.098-.076.02-.077.075 0 .137.034.137.077 0 .096-.01.096-.157 0zm-.421-.12c-.038-.097-.017-.103.109-.036.182.098.199.156.046.156-.06 0-.13-.054-.155-.12z" fill="#000"/></svg>