<svg width="143" height="43" fill="none" xmlns="http://www.w3.org/2000/svg"><path d="M7.385 42.95c0-.03.063-.126.14-.213.134-.149.133-.163-.034-.295-.186-.147-.257-.573-.148-.9.073-.22.19-.238.327-.049.056.077.155.116.226.088.1-.039.126-.18.12-.674-.008-.853-.106-.987-.677-.928-.457.048-.634-.076-.396-.277.159-.133.387-.627.331-.718-.024-.04-.201-.12-.394-.177a8.935 8.935 0 01-.538-.18c-.406-.16-.769-.012-.721.295.025.166.373.47.469.41.055-.035.077-.027.05.017-.026.043-.016.13.023.195a.196.196 0 01-.02.23c-.067.081-.068.151-.004.255.129.21-.14.35-.762.401-.39.032-.538.012-.633-.085-.209-.21-.693-.487-.77-.439-.039.025-.058.13-.04.233.023.143-.046.24-.297.413-.18.124-.328.291-.329.37-.004.33-.48.678-.718.526-.085-.054-.057-.13.13-.348.204-.24.241-.357.258-.815.012-.356.063-.586.151-.684.136-.154.194-.324.192-.573 0-.08.025-.145.055-.145.031 0 .179-.117.329-.259.298-.282.25-.397-.168-.399-.156 0-.209-.035-.178-.117.052-.137-.097-.253-.17-.133-.064.104-.205.11-.205.01 0-.041.132-.154.294-.25.477-.285 1.084-.838 1.041-.95-.022-.057-.126-.151-.232-.209-.112-.06-.175-.153-.15-.218.03-.077.002-.099-.082-.066a.33.33 0 00-.168.163c-.061.16-.577.364-.892.352a1.01 1.01 0 00-.433.082c-.152.082-.536.066-.688-.03-.032-.02-.025-.183.015-.363.09-.411.06-.625-.122-.84-.173-.204-.124-.281.1-.16.091.05.247.09.346.09.191 0 1.172-.44 1.244-.557.058-.094-.039-.227-.212-.292-.09-.033-.142-.14-.142-.287 0-.3.181-.555.349-.49.158.062.338-.142.274-.31-.033-.087-.163-.125-.421-.125H2.73l.025-.433c.022-.39.045-.436.226-.462a.515.515 0 00.31-.185.433.433 0 01.335-.157c.309 0 .35-.066.162-.257-.087-.088-.136-.197-.11-.242.028-.045-.075-.134-.228-.199-.21-.089-.31-.204-.41-.472-.22-.6-.241-.77-.106-.884.122-.102.573-.083.885.038.239.093.17-.2-.11-.465-.14-.131-.289-.24-.332-.24-.042 0-.055-.036-.027-.082.028-.045.005-.082-.05-.082-.054 0-.08-.02-.055-.044.024-.025.178.035.342.133.3.18.9.236 1.037.098.074-.074-.214-.685-.367-.779-.398-.243-.406-.267-.181-.538.23-.277.262-.434.117-.581-.071-.072-.072-.124 0-.21.116-.142-.078-.338-.414-.419a.345.345 0 01-.274-.258c-.037-.15-.105-.205-.252-.205-.267 0-.21-.17.115-.336.323-.167.253-.282-.287-.475-.562-.2-.748-.379-.71-.683a.43.43 0 00-.134-.396c-.163-.154-.163-.155.067-.203.257-.055.752-.111 1.635-.188.425-.036.624-.02.716.056.104.087.21.087.58-.003.513-.125.63-.283.363-.487-.163-.124-.169-.15-.055-.246.175-.147.135-.497-.09-.775-.103-.129-.188-.284-.188-.346s-.066-.161-.147-.22c-.374-.273-.156-.37.351-.158.479.201.672.206.73.017.058-.182-.009-.503-.104-.503-.048 0-.058-.28-.024-.636.014-.15.232-.036.279.147.029.113.112.16.286.16.135 0 .313.025.395.056.129.049.135.038.043-.076-.09-.112-.08-.14.061-.186.092-.029.168-.09.168-.134 0-.044.1-.174.224-.289.15-.138.19-.221.123-.25-.077-.032-.072-.072.02-.165a.6.6 0 00.131-.343c.015-.359.023-.38.214-.588.1-.109.203-.264.228-.344.025-.08.094-.128.154-.105.059.023.13-.016.156-.086.03-.082.15-.129.327-.129.23 0 .294-.041.376-.241.055-.133.15-.262.214-.286.063-.025.115-.123.115-.22 0-.096.073-.268.162-.383.089-.114.145-.236.124-.269-.02-.033.052-.043.161-.022a.382.382 0 00.33-.095.463.463 0 01.275-.133c.161 0 .333-.317.333-.615 0-.252.137-.297.479-.157.15.062.282.113.29.113.049 0 .535-.477.535-.524 0-.03-.091-.033-.204-.004-.142.036-.204.018-.204-.06-.002-.088-.018-.086-.078.009-.064.103-.084.1-.13-.024-.031-.08-.034-.168-.008-.194.026-.027.013-.114-.029-.194-.062-.118-.038-.156.128-.198.113-.029.184-.088.157-.132-.027-.044.024-.08.114-.08.182 0 .315-.155.204-.236-.121-.089-.12-.259.002-.259.193 0 .691-.506.787-.801.05-.154.07-.364.045-.467-.035-.143.011-.23.196-.37.155-.115.243-.254.243-.384 0-.143.045-.204.15-.204.083 0 .213-.07.29-.156.078-.087.264-.18.414-.209.207-.04.293-.11.357-.297.046-.134.123-.245.17-.245.048 0 .146-.148.217-.33.127-.32.142-.33.52-.33.317 0 .438-.043.639-.233.137-.13.452-.3.701-.38.25-.078.474-.177.5-.218.024-.041.153-.075.286-.075.179 0 .266-.054.334-.206.052-.113.134-.206.183-.206.05 0 .135-.074.191-.165.056-.09.152-.165.214-.165.139 0 .217-.272.122-.424-.086-.138-.095-.34-.011-.291.033.02.143.005.244-.034.214-.082.265-.487.061-.487-.135 0-.167-.21-.044-.287.043-.026.057-.103.032-.17-.025-.066-.003-.12.05-.12.052 0 .068-.043.036-.096-.032-.052-.023-.073.02-.046.093.058.68-.448.68-.585 0-.082-.38-.335-.488-.324-.105.011-.652-.226-.652-.283 0-.035.1-.05.224-.035.123.015.178.012.122-.008a.166.166 0 01-.102-.146c0-.143.257-.24.328-.123.031.05.203.112.382.136.4.054.74-.168.571-.373-.085-.105-.044-.112.309-.053.849.142 1.584-.062 1.591-.44.003-.12.018-.118.122.021.066.088.12.128.12.088 0-.04.053-.001.118.087a.47.47 0 01.074.339c-.03.123.007.205.118.265.184.1.728.1.92.002.081-.042.197-.02.308.058.213.151.876.231.948.115.027-.046.01-.083-.04-.083-.204 0-.618-.373-.587-.528.018-.086-.026-.19-.098-.23-.172-.098-.166-.207.018-.306.1-.055.277-.045.55.03.22.062.346.118.28.126-.078.009-.088.029-.027.054.116.048.597-.191.597-.297 0-.041.1-.054.224-.027.123.026.334.056.468.068a7.1 7.1 0 01.297.03c.029.004.075.1.103.212.061.248.231.347.66.385l.326.03.002-.33c0-.182-.034-.355-.077-.386-.05-.036-.048-.125.007-.247.061-.136.06-.233-.003-.334-.154-.246.028-.305.584-.187.282.06.564.152.626.204.198.166 1.184-.082 1.184-.297 0-.067-.11-.184-.244-.262-.135-.077-.245-.17-.245-.207 0-.037-.035-.045-.076-.02-.042.027-.102.005-.135-.047-.04-.067.006-.084.155-.055.117.023.223.015.236-.017.04-.1.635-.181.635-.086 0 .125.306.416.438.416.062 0 .132.074.156.164.023.091.105.165.18.165.094 0 .123.043.09.13a.762.762 0 00-.05.207c0 .041-.075.075-.168.075-.25 0-.444.221-.323.369.053.064.142.099.197.077.056-.022.201.013.323.077.206.108.21.12.056.16-.247.065-.2.288.099.472.317.196.505.213.44.04-.037-.094.017-.123.235-.123.19 0 .282-.038.282-.118 0-.21.404-.463.642-.403.23.059.663.45.663.6 0 .055.153.088.387.084.213-.004.835-.003 1.383.003.867.01 1.897-.106 1.897-.213 0-.02-.073-.11-.163-.2-.09-.09-.163-.202-.163-.248 0-.124.266-.098.469.045.17.12.193.112.423-.144.134-.15.245-.3.247-.333 0-.034.04-.062.088-.062.048 0 .066.034.04.077-.026.042-.006.102.044.134.065.04.06.077-.019.128-.189.121.205.086.518-.046.435-.184.516-.327.275-.487-.227-.15-.253-.446-.038-.433.077.005.211.091.298.193.086.1.179.162.205.135.026-.026.13.01.23.081l.181.129-.222.086a1.332 1.332 0 01-.3.085c-.041 0-.075.089-.075.197 0 .169.05.204.346.248.19.027.445.022.566-.012.25-.07.997-.764 1.218-1.132.146-.241.145-.246-.034-.347-.178-.1-.177-.102.053-.105.283-.003.97-.637 1.115-1.027.24-.645.355-.792.688-.88.443-.116.774-.265.774-.348 0-.188.717-.675 1.141-.775.491-.117.652-.104.654.053 0 .086.021.098.06.036.036-.055.294-.095.62-.097.435-.002.597.031.722.15.118.11.237.14.438.106.153-.025.494-.002.76.05.468.094.5.089 1.037-.168.42-.2.686-.27 1.093-.286.416-.016.539.005.539.094 0 .063-.037.091-.081.064-.05-.031-.06.025-.028.148.029.109.053.263.053.342.002.224.396.19.488-.041.04-.102.076-.144.079-.094.003.05.203.112.446.138.242.025.535.108.651.185.224.148.418.688.347.963-.048.183.157.298.29.162.063-.063.136-.064.25-.002.107.058.43.066.946.024a23.24 23.24 0 011.644-.06l.861.003.62.381c.5.306.695.382.994.382.254 0 .366-.033.352-.103-.026-.133.262-.087.434.069.076.068.303.116.555.116.468 0 1.168.151 1.114.24-.057.093 1.109.087 1.462-.006.507-.134 1.482-.629 1.646-.834.081-.102.253-.268.383-.37.22-.172.242-.175.338-.042.088.122.07.162-.133.287-.202.124-.275.265-.25.485.005.05-1.526.839-1.82.938-.09.03-.566.073-1.059.097-.493.023-.913.058-.932.078-.105.107.205.225.6.23.297.002.424.032.37.085-.044.045-.08.108-.08.14 0 .104.443.208.685.16l.237-.045-.196-.1a2.21 2.21 0 00-.359-.14c-.09-.023.02-.023.245 0 .224.023.532.082.684.13.33.106 1.385.022 1.527-.122.031-.031.133-.058.227-.06a.659.659 0 00.328-.123.595.595 0 01.285-.122c.07 0 .23-.054.355-.12.195-.104.234-.104.272-.004.053.14-.2.514-.394.58a2.237 2.237 0 01-.466.06c-.18.008-.287.04-.237.07.05.032.069.117.04.19-.038.102-.17.131-.592.131-.387 0-.616.045-.797.155-.14.086-.394.2-.565.256-.28.09-.307.125-.285.352.037.376.212.445.806.32.278-.057.592-.162.699-.233.13-.087.3-.115.516-.085.177.024.452.014.61-.022.478-.11.4.05-.102.206-.256.08-.503.174-.548.208-.045.034-.32.127-.611.207-.712.195-.783.285-.221.285.845 0 3.09-.711 3.412-1.081a.48.48 0 01.31-.155c.25 0 1.47-.732 1.47-.882 0-.082.046-.107.132-.074.073.028.32-.009.55-.082.566-.18.924-.085 1.136.299.086.156.235.363.33.46.097.097.241.274.322.393.243.359.643.473 1.646.472.593 0 1.165.056 1.69.167.84.178 1.12.169 1.855-.064.551-.174 1.224-.198 1.96-.07.308.053.68.078.828.056.528-.08 1.04-.027 1.017.104-.008.048-.125.148-.26.223-.134.075-.226.152-.203.17.057.048-.214.311-.32.311-.049 0-.088.036-.088.08 0 .118-.303.26-.573.268-.13.004-.22.034-.2.067.068.111-1.14.07-1.565-.053a3.053 3.053 0 01-.73-.334c-.289-.198-.346-.207-.963-.153a7.97 7.97 0 00-1.065.164c-.578.152-1.435.148-1.892-.007-.531-.181-1.204-.607-1.352-.856-.17-.287-.864-1.009-1.134-1.18-.337-.214-.6-.1-1.242.538-.447.444-.545.582-.453.64.092.057.057.106-.161.223-.4.215-.838.662-.765.78.042.069.016.082-.086.042-.318-.123-.493.304-.233.568a.576.576 0 01.148.315c.005.097.038.26.072.362.047.14.03.185-.066.185-.07 0-.128-.043-.128-.096 0-.053-.026-.07-.058-.038-.032.033.05.148.184.256.217.177.23.214.133.375-.123.205-.137.182.217.364.274.141.556.119.462-.036-.034-.054.023-.054.168.002.213.082.69-.017.887-.184.042-.036.196-.066.341-.066.145 0 .367-.042.493-.093.25-.1.933-.1 1.002.001.023.035.218.112.433.172.317.088.428.089.584.005.16-.087.223-.083.38.03a.863.863 0 00.426.133c.209 0 .223.015.126.134-.1.12-.076.13.236.1.263-.025.337-.007.306.076-.023.06.013.13.08.155.066.026.12.099.12.162 0 .12.304.152.622.065.164-.044.167-.06.053-.292-.125-.254-.073-.449.062-.233.042.067.076.088.077.047 0-.041.07.005.153.103.206.24.447.223.953-.065 1.139-.65 2.97-.825 2.97-.283 0 .066.085.113.204.113.12 0 .204-.047.204-.115 0-.133.221-.243.26-.128.013.042.117.078.229.08 1.163.013 1.716-.026 2.37-.165 1.176-.251 2.76-.18 3.11.14.119.109.311.129 1.06.11.505-.014 1.082-.027 1.284-.031.345-.006 1.28.152 1.548.263.067.027 1.278.054 2.69.06 2.714.01 5.174.08 5.285.15.036.022.577.038 1.2.033.624-.004 3.097-.014 5.495-.023 4.696-.018 5.18-.025 5.126-.08-.019-.02-.713-.095-1.542-.167-.828-.073-1.653-.146-1.832-.163-.179-.017-1.206-.04-2.282-.05-1.076-.012-2.066-.045-2.2-.074-.239-.051-.236-.055.138-.152.21-.055.577-.1.815-.102.238 0 .762-.056 1.166-.124.747-.125 2.047-.116 4.564.031 1.086.064 2.663.054 4.034-.026.775-.045 1.616-.077 4.36-.167 2.062-.068 4.947-.2 5.624-.256.579-.05.646.018.177.18-.165.057-.268.153-.285.264-.021.149-.099.184-.509.23-.266.031-.484.085-.484.12 0 .035-.192.092-.428.125-.235.034-.372.079-.305.1a.726.726 0 01.26.215c.128.163.203.174 1.019.152.484-.013 1.339-.05 1.899-.082.561-.033 1.294-.03 1.63.005.355.037.765.03.978-.016.202-.044.697-.137 1.1-.206l1.264-.218c.291-.051.603-.09.692-.086.293.014.965-.176 1.628-.458.65-.276.907-.34.824-.203-.025.04-.172.133-.328.208-.481.231-.3.358.53.372.824.013 1.003.057.936.233-.032.084-.008.107.077.074.152-.059.164.08.015.17-.103.062-.405.606-.361.648.012.011.226.046.476.077l.454.057.343-.415c.203-.244.457-.452.619-.506.152-.05.323-.15.381-.22.088-.108.08-.148-.05-.244-.256-.19.005-.318.589-.289.101.005.184.061.184.124 0 .149.352.38.58.38.169 0 .171-.008.041-.154-.132-.146-.125-.16.13-.279.147-.068.412-.15.588-.182.227-.04.287-.078.206-.128-.087-.055-.059-.093.116-.16.153-.059.214-.13.183-.21-.054-.144-.042-.147.208-.051.232.088.556-.023.556-.191 0-.128.392-.376.596-.376.063 0 .203-.068.309-.152.107-.084.296-.177.419-.208.123-.03.224-.092.224-.136 0-.045.092-.081.204-.081.112 0 .204.029.204.064 0 .073-.437.31-.724.393-.335.096-.015.203.446.15.263-.032.484-.012.604.053.189.102.189.102.024.236-.241.196-.29.488-.099.592.086.046.156.138.156.205 0 .15-.348.159-.876.024-.286-.072-.386-.073-.409 0-.018.052-.129.206-.247.343-.168.194-.283.248-.524.248-.192 0-.3.037-.287.097.011.053-.064.14-.167.195l-.187.098.2.24c.491.591.194.765-.608.356-.461-.236-1.11-.63-1.214-.738-.049-.05-.203-.093-.521-.147-.219-.038-.232-.025-.183.172.038.155.014.236-.091.297-.128.076-.123.085.041.087.247.004.233.137-.021.202-.158.04-.203.104-.203.29 0 .217-.031.243-.347.293-.543.085-.637.127-.613.275.019.117-.061.14-.515.15-.463.009-.566.04-.752.228-.261.264-.414.538-.34.612.064.065.556.091 2.485.134.785.017 1.53.072 1.656.12.126.05.264.09.305.09.197 0 .046.151-.188.189a8.224 8.224 0 00-.591.124c-.179.044-1.166.104-2.192.132-1.641.045-1.879.069-1.97.194-.057.079-.093.154-.08.167.047.048.426.111.853.143.51.037.747.203.581.407-.077.093-.079.127-.009.127.053 0 .074.037.046.083-.028.045-.156.082-.285.082-.194 0-.232.032-.218.186.034.373.154.461.689.506.281.024.541.062.577.084.061.038.702.051 1.804.036.247-.003.558.003.693.013.134.01.428.007.652-.01.231-.016.408.007.409.052.001.045.03.128.066.184.078.125-.049.133-.412.027-.145-.042-.259-.05-.255-.02.037.273-.039.417-.27.514-.143.06-.219.122-.171.138.061.021.063.12.006.33-.069.253-.06.317.064.408.132.098.124.108-.094.108-.132 0-.374.038-.537.084-.506.142-.974.155-1.022.029-.024-.065-.153-.111-.299-.108-.227.005-.236.013-.081.077a.555.555 0 01.224.152c.068.11-.029.343-.143.343-.078.001-.334.42-.276.452l.219.095c.181.076.165.085-.163.095-.684.022-1.288.115-1.431.22-.1.074-.144.225-.148.508-.004.303-.044.425-.159.494-.224.132-.084.18.698.243.481.038.715.027.753-.037.07-.113.427-.121.495-.01.08.13.409.038.397-.112-.008-.086.052-.135.163-.136a.653.653 0 00.292-.077c.094-.06.074-.095-.102-.177-.121-.055-.22-.148-.22-.206 0-.081.14-.095.591-.057.325.027.612.082.639.122.026.04.154.103.285.138.155.043.239.12.241.223.002.088.053.26.114.383.128.26.014.477-.25.477-.084 0-.153.055-.153.123s.037.124.082.124c.137 0 .09.461-.062.598-.078.07-.303.172-.5.225-.604.163-1.019.517-1.103.942l-.048.24-1.894-.05c-1.541-.04-1.933-.027-2.098.067-.128.072-.457.117-.878.119-.644.002-.678.012-.752.208-.043.114-.132.207-.197.207-.19 0-.249.18-.096.293.086.063.298.09.552.068.328-.027.435-.005.519.111.087.121.243.148.915.157.902.013 1.404.174 1.404.452 0 .15-.118.196-.433.168-.081-.007-.126.022-.1.064.045.074-.098.102-1.083.212a3.75 3.75 0 00-.814.2l-.382.154.326.051c.837.134 1.68.303 1.87.376.284.11.263.221-.039.2-.963-.067-3.599-.122-3.738-.077a.52.52 0 00-.259.22c-.071.134-.058.19.061.281.13.1.042.116-.707.13-.47.009-.911.007-.978-.003a27.922 27.922 0 00-1.353-.023c-.873-.003-1.382.035-1.752.129-.719.183-1.345.433-1.296.517.023.039-.052.081-.166.095a.483.483 0 00-.314.198l-.108.174.844-.055c.465-.03 1.156-.129 1.537-.219 1.335-.314 1.631-.356 1.821-.254.184.099 1.204.091 1.144-.008-.063-.105.809-.11 1.803-.01a21.56 21.56 0 001.222.097c.242-.001.241-.003-.081-.149-.179-.081-.359-.128-.4-.105-.04.024-.05.005-.022-.041.049-.08.296-.12 1.461-.242.535-.055.995.083.921.278a.79.79 0 00-.045.236.118.118 0 01-.117.117c-.232 0-.215.17.04.387.258.22.258.22.074.29-.102.038-.392.063-.645.055s-.597.032-.765.088c-.258.086-.296.128-.251.28.03.097.061.186.07.196.008.01.265.055.572.099.306.044.596.119.643.167.109.11.048.116-1.334.122-.987.005-1.119.023-1.27.17-.256.25-.306.454-.111.454.088 0 .16.043.16.096 0 .053-.022.074-.049.046-.051-.051-.168.03-.444.306-.088.09-.159.117-.159.062 0-.054-.039-.098-.086-.098-.048 0-.064.037-.036.083.028.045.012.082-.036.082-.052 0-.068-.11-.041-.281.026-.169.007-.305-.049-.34-.122-.076-.485.122-.485.264 0 .06-.078.11-.172.11-.116 0-.157.038-.127.118.031.082-.045.15-.241.215-.3.1-.528.434-.391.572.041.042.47.102.951.133.482.032.876.083.876.114 0 .03.11.04.244.02s.381-.01.549.021c.283.054.293.065.135.154-.094.052-.154.142-.135.198.025.07-.061.103-.27.103-.62 0-.14.134.557.156.297.01.45.174.161.174-.08 0-.21.077-.29.171-.127.15-.207.165-.65.126a53.37 53.37 0 00-1.462-.097c-.836-.045-.958-.035-.958.078 0 .265-.295.316-.854.147-.447-.136-.54-.142-.62-.045-.064.078-.274.115-.648.115-.78 0-.905.067-.482.258.187.085.425.154.528.154.104 0 .2.032.215.071.033.086.883.177.883.094 0-.032.226-.065.502-.073.275-.009.525-.03.554-.048.029-.018.099-.004.156.032.061.038-.096.085-.383.116-.527.055-.931.203-.862.315.023.038-.016.07-.089.07s-.112.033-.087.073c.025.04-.083.098-.24.128-.17.032-.284.102-.284.174 0 .096-.151.12-.77.12-.43 0-.792.036-.82.083-.033.054-.446.065-1.166.03l-1.115-.053-.897.35c-.493.191-1.237.462-1.653.601-1.041.349-.9.444.489.33.845-.07 2.48-.086 2.753-.028.023.004-.012.042-.077.084-.143.09-.864.152-2.449.206-1.871.065-2.364.142-2.364.369 0 .17-.297.201-2.761.294-1.522.058-3.087.186-4.028.33-.439.066-.824.115-.855.108-.058-.013-1.16.083-1.606.14-.304.039-3.056.063-5.542.049-1.03-.006-1.966.006-2.078.028-1.076.206-5.49.384-6.52.263-.157-.018-.45-.055-.652-.082-.564-.075-3.27-.171-4.32-.154-.515.01-1.18.057-1.477.106-1.033.172-6.965.075-7.866-.129-.243-.054-1.512.16-1.7.288-.044.03-.393.061-.774.068-.38.007-.9.035-1.153.063-.419.045-.466.034-.515-.122-.066-.21-.382-.229-.731-.045-.25.132-.811.09-1.901-.144-.337-.073-.472-.07-.629.016-.22.119-.2.218.068.338.12.054-.061.068-.583.045-.524-.022-.789-.001-.857.068-.08.081-1.275.23-1.767.22-.582-.011-2.09-.191-2.47-.294a3.72 3.72 0 00-.753-.129c-.22 0-.804.238-1.175.478-.02.013.01.1.067.193.142.23.081.265-.352.2-.242-.037-.37-.098-.37-.175 0-.083-.095-.119-.314-.119a1.49 1.49 0 01-.564-.126c-.27-.137-.975-.123-1.067.02-.028.046-.217.104-.419.13a7.786 7.786 0 00-.57.093c-.62.142-1.178.066-1.985-.27l-.803-.334-.42.17c-.23.095-.584.233-.786.308a4.667 4.667 0 00-.448.186 2.982 2.982 0 01-.387.148c-.32.105-.406.243-.163.265l.252.021c.06.005.151.064.203.132.064.082.238.122.529.12.238-.002.449.022.468.053.158.258-2.106.158-3.676-.162-.67-.137-1.48-.27-1.8-.296-.728-.058-1.434-.191-1.493-.282-.184-.282-1.118-.383-1.375-.149-.092.085-.288.138-.505.138a2.54 2.54 0 00-.605.076c-.48.147-1.075.218-1.354.163-.56-.11-1.518-.15-1.601-.066-.134.136-.527-.002-.475-.166.075-.239-.322-.317-.976-.194-.314.06-.583.145-.598.189-.015.044-.092.08-.172.08-.08 0-.236.073-.347.161-.178.141-.263.152-.716.087-.446-.064-.557-.051-.838.094-.342.176-.354.175-.998-.073-.69-.267-.912-.284-1.33-.102-.21.09-.527.161-.706.158a120.44 120.44 0 00-1.65-.012c-.523-.002-.697.074-.895.392-.217.346-.172.381.51.398.245.006.446.038.446.072a.065.065 0 01-.062.065c-.11.006-.708.083-.978.127-.154.025-.264.091-.264.16 0 .18-.593.3-1.416.285-1.928-.035-5.993.07-6.286.163a5.132 5.132 0 01-.734.133c-.268.031-.53.09-.58.13-.05.04-.347.081-.661.092l-.571.02.193.181c.106.1.193.215.193.255 0 .18-.689.287-2.106.325-1.39.038-1.491.05-1.456.19.028.107-.022.167-.176.212-.319.095-.334.091-.444-.133-.09-.185-.157-.208-.654-.23-.523-.023-.576-.008-.962.273-.402.291-.788.361-.74.134.013-.06-.052-.128-.142-.152-.091-.024-.166-.077-.166-.117 0-.088-.656-.087-1.426.003-.314.036-.607.038-.652.003-.11-.085-1.535.01-1.45.096.037.037.213.102.392.144.298.07.304.078.08.087-.564.021-.805.202-.405.303.262.067.415.326.234.396-.235.091-.522.054-.522-.068 0-.133-.28-.25-.406-.171-.17.106-.087.425.14.53.198.091.207.11.08.183-.079.044-.12.117-.094.161.094.153-.146.322-.459.322-.225 0-.345.048-.433.175-.103.15-.138.16-.233.062a.889.889 0 01-.166-.258c-.073-.196-.557-.222-.774-.042-.13.108-1.21.026-1.365-.104-.136-.114-.402.012-.529.25-.047.09-.14.164-.205.164-.066 0-.12.073-.12.163 0 .106-.072.182-.203.215-.113.029-.204.1-.204.159 0 .058-.116.147-.257.197-.301.106-.314.107-.314.035zm1.431-1.385c.114-.087.126-.122.041-.124-.18-.004.165-.244.355-.247.242-.004.124-.056-.26-.116-.341-.053-.347-.05-.33.176.01.127-.01.276-.044.331-.084.138.046.127.238-.02zm1.809.07c.1-.028.183-.096.183-.151 0-.121-.325-.282-.468-.232-.056.02-.102.075-.102.123s-.064.136-.143.196c-.129.1-.119.11.102.111.134.001.327-.02.428-.048zm.139-.602c.028-.047.148-.047.31 0 .144.042.271.076.282.076.082 0 .267-.538.222-.646-.032-.075-.062-.295-.067-.487-.008-.272-.041-.35-.149-.35-.076 0-.23-.043-.342-.095-.294-.135-.813.113-.738.353.039.123.008.176-.118.21-.22.058-.216.143.013.256l.183.09-.186.056c-.143.044-.173.096-.132.232.029.096.058.179.063.183.219.18.582.247.659.122zM5.592 39.88c.281-.206.321-.442.069-.407-.118.017-.183-.011-.171-.074.024-.125-.441-.38-.505-.276-.025.04-.023.133.004.205.028.074.009.131-.045.131-.052 0-.072.037-.045.083.028.045.012.082-.035.082-.105 0-.077.348.035.434.113.087.45 0 .693-.178zm3.179-.71c.2-.115.199-.117-.14-.12-.273-.002-.335.023-.297.12.058.154.173.154.437 0zm-3.88-.418c.092-.244.056-.362-.093-.306-.284.106-.367.436-.111.436.085 0 .177-.058.204-.13zm-.521-.24c0-.069-.037-.124-.082-.124-.045 0-.081.055-.081.123s.036.124.081.124c.045 0 .082-.056.082-.124zm26.813-.776c.702-.012.78-.046.861-.371.037-.15.03-.22-.02-.189-.044.028-.646.089-1.337.135a27.22 27.22 0 00-1.379.114 22.97 22.97 0 01-.424.093c-.167.034-.344.113-.395.174-.076.094.088.107.996.084.598-.016 1.362-.034 1.698-.04zm2.17-.003c.006-.003.058-.12.115-.26.086-.21.085-.267-.007-.324-.06-.038-.149-.046-.195-.016-.047.029-.232.054-.412.056-.275.003-.33.032-.352.19-.016.11.025.205.101.235.07.027.106.084.08.128-.036.057.55.05.67-.009zM6.697 36.701c.207-.158.445-.157.67.003.235.166.7.127.736-.062.014-.078-.065-.2-.182-.277-.234-.154-.78-.236-.78-.115a.079.079 0 01-.08.078c-.043 0-.056-.057-.03-.127.027-.07.016-.121-.023-.114-.331.061-.436-.223-.13-.355l.222-.096-.213-.03c-.221-.03-.457-.353-.366-.501.029-.047.216-.068.42-.048.382.038.72-.077.67-.229-.016-.047-.21-.097-.433-.11a4.924 4.924 0 01-.65-.078c-.281-.065-.512.095-.699.485-.063.132-.17.265-.237.296-.067.031-.204.1-.304.152a1.05 1.05 0 01-.408.096c-.124 0-.335.074-.47.164-.134.09-.203.164-.152.165.05 0 .207.119.347.264.208.215.377.289.927.404.858.179.973.182 1.165.035zm39.58-.274c.05-.051-.004-.157-.152-.296-.25-.235-.318-.258-.394-.133-.028.045-.212.082-.408.082-.436 0-.542.136-.278.353.162.133.28.153.675.117.263-.024.513-.08.556-.123zm.554-.171c0-.04.119-.098.265-.128.252-.053.257-.061.106-.175-.241-.183-.475-.158-.412.045.036.115.015.165-.071.165-.068 0-.146.037-.173.082-.028.046.025.083.117.083s.168-.033.168-.072zm12.327-.063c.124-.024.207-.074.184-.11-.022-.037.088-.091.244-.12.157-.03.285-.086.285-.124 0-.135-.366-.163-.549-.042-.101.067-.185.104-.185.081 0-.022-.1-.003-.224.043l-.224.084.224-.199c.123-.109.224-.231.224-.271 0-.095-.399-.273-.611-.273a2.68 2.68 0 01-.416-.052c-.184-.038-.366.006-.666.16-.519.266-.556.328-.28.469.121.062.283.175.358.25.11.11.208.124.489.07.194-.037.416-.092.495-.123.083-.032.142-.018.142.036 0 .05-.055.09-.122.09s-.122.04-.122.09c0 .056.097.07.265.036l.49-.095zm-51.12-.154c.12-.07.153-.118.08-.12-.209-.002-.488.095-.488.171 0 .106.174.084.407-.05zm44.557-.076c.384-.078 1.161-.423 1.162-.516.002-.128-.883-.46-1.11-.416-.124.024-.165 0-.136-.076.075-.197-.275-.17-.769.059-.19.088-.383.16-.428.16a.083.083 0 00-.082.082c0 .045-.092.083-.204.083-.112 0-.204.037-.204.082 0 .045.037.082.082.082.045 0 .081.038.081.083 0 .045-.108.082-.24.082-.247 0-.393.116-.253.203.043.028.34.064.658.08.319.017.605.056.635.087.05.051.3.028.808-.075zm1.367-.295c.028-.045-.005-.082-.072-.082-.067 0-.145.037-.172.082-.028.046.004.083.071.083.068 0 .145-.037.173-.083zm-3.13-.44c.251-.12.484-.22.517-.22.034 0 .154-.073.268-.164l.207-.165-.398-.017-.765-.032a4.534 4.534 0 01-.839-.148c-.793-.223-1.093-.134-1.082.32.005.21-.022.245-.177.228-.101-.01-.184.017-.184.062s.083.083.184.084c.1.001.385.075.631.163.57.205 1.049.172 1.638-.11zm3.823.193c.095-.062.073-.08-.102-.081-.123 0-.224.036-.224.08 0 .105.166.105.326 0zm11.846-.079c.054-.054.032-.137-.065-.245a1.103 1.103 0 01-.202-.435c-.048-.236-.087-.27-.296-.262-.339.013-1.202.199-1.3.28-.044.036-.27.029-.5-.018-.376-.075-.436-.066-.584.084-.195.197-.154.263.16.263.152 0 .232-.043.232-.124 0-.068.055-.124.122-.124.07 0 .122.075.122.173 0 .16.03.169.428.116.384-.05.412-.044.273.062-.17.13-.122.19.263.316.269.088 1.236.027 1.347-.086zM7.956 35.16c0-.092-.106-.087-.38.018-.17.066-.198.105-.114.158.12.075.494-.058.494-.176zm53.73.045c.526-.267.53-.27.383-.364-.088-.056-.043-.078.165-.082a1.45 1.45 0 00.556-.15c.379-.205.197-.325-.454-.304-.28.01-.51.008-.51-.002 0-.011.12-.101.266-.2.145-.1.191-.158.102-.129-.42.135-1.662.659-1.795.758-.222.164-.072.244.229.121 1.005-.41 1.036-.418 1.036-.256 0 .083.046.17.102.192.056.023-.01.045-.146.048-.309.008-1.124.293-1.16.406-.027.079.192.137.616.166.102.006.377-.085.61-.204zm6.762-.22c.257-.109.444-.222.414-.252-.03-.03-.223-.054-.431-.054s-.413-.035-.455-.078c-.043-.043-.225-.102-.406-.131-.258-.042-.37-.019-.527.11-.161.132-.18.185-.1.283.054.066.074.144.045.174-.03.03.01.054.087.054.085 0 .117.037.082.096-.095.155.759.022 1.29-.203zm-1.101.014c.055-.057.121-.082.146-.057.025.026-.02.072-.1.103-.117.044-.126.035-.046-.047zm6.513-.386a7.77 7.77 0 01.579-.277c.358-.148.335-.263-.041-.203-.674.107-.977.138-1.605.163-.392.016-.755.078-.901.156l-.244.13.305.057c.167.032.36.037.427.01.078-.03.123.001.123.085 0 .112.08.126.521.09.293-.024.659-.116.836-.21zm17.633-.01c1.518-.114 7.085-.188 8.25-.11.645.043 1.24.03 1.833-.042a17.636 17.636 0 011.408-.114c1.006-.016 2.65-.17 2.975-.276.43-.142 1.648-.234 2.812-.213.515.009 1.121-.026 1.344-.078.565-.132 1.671-.19 1.671-.089 0 .045.064.07.142.054.079-.015.388-.051.686-.08 1.009-.097 3.255-.456 3.394-.542.098-.061-.095-.074-.677-.045-.448.023-1.585.063-2.526.09-1.593.045-2.141.085-3.953.288-1.93.217-2.404.228-6.439.155-2.09-.038-3.278.037-3.458.219-.192.194-4.583.235-6.484.061-2.517-.23-5.868-.147-5.868.146 0 .041-.101.08-.225.086-.179.01-.189.018-.049.046.097.02.193.101.214.183.046.18.383.24 1.73.306.538.027.987.056.996.065.031.028 1.067-.023 2.224-.11zM7.889 34.54c-.058-.024-.129-.02-.156.007-.027.027.021.047.107.043.095-.004.114-.023.05-.05zm77.238-.072c.02-.02-.1-.036-.268-.036-.167 0-.282.034-.257.076.044.072.445.04.525-.04zm-6.694-.057c-.04-.122-.55-.19-.55-.074 0 .1.143.162.393.17.118.005.177-.032.157-.096zm5.784.043a2.998 2.998 0 00-.57 0c-.145.019-.007.033.307.033s.432-.015.263-.033zm-77.81-.215c.086-.036.076-.046-.034-.032-.086.01-.171.074-.19.142-.02.08-.009.092.035.033a.542.542 0 01.19-.143zm74.967.066c1.029-.024 1.356-.147.622-.234-.498-.06-1.301-.276-1.967-.53-.315-.121-.506-.146-.757-.1-.41.076-.466.125-.332.288.085.104.08.126-.024.126-.07 0-.15-.037-.178-.083-.074-.12-.555-.1-.732.03-.138.102-.115.118.247.173.27.04.46.128.59.269.187.203.21.207.899.146a30.391 30.391 0 011.632-.085zM71.2 34.187c0-.044-.055-.058-.122-.032-.067.026-.122.062-.122.08 0 .017.055.032.122.032s.122-.036.122-.08zm6.086-.02c.15-.054.271-.125.271-.158 0-.032-.48-.06-1.065-.06-.903-.002-1.051.016-.971.113.06.073.308.126.678.144.321.015.636.035.7.044.064.01.239-.028.387-.082zm-30.515-.285a.31.31 0 00-.204 0c-.056.023-.01.042.102.042.112 0 .158-.019.102-.041zm14.894-.618c0-.094-.141-.087-.334.018-.231.125-.11.256.133.144.11-.05.2-.124.2-.162zm7.436-.171c.264-.094.264-.095.062-.15-.194-.054-.723-.028-1.121.053-.1.02-.183.097-.183.17 0 .114.07.125.488.077.268-.03.608-.098.754-.15zm5.726-.722c.028-.046-.025-.083-.118-.083-.092 0-.167.037-.167.083 0 .045.053.082.117.082.065 0 .14-.037.168-.082zm38.59-.582c2.618-.204 2.938-.357.611-.294-2.123.058-2.893.136-2.893.296 0 .085.565.152.937.111.135-.015.74-.066 1.345-.113zm14.848-1.04c-.059-.025-.129-.022-.156.006-.027.027.021.047.107.043.095-.004.114-.023.049-.05zm-56.63-2.433c.383-.198.298-.285-.154-.159a1.362 1.362 0 01-.514.042.497.497 0 00-.378.084c-.141.11-.147.14-.04.215.165.117.674.032 1.087-.182zm.808.176c.168-.047.306-.121.306-.165 0-.167-.875-.023-1.097.18-.108.1.418.09.791-.015zm23.643-.232c.143-.057.143-.066.008-.18-.213-.178-2.482-.23-2.482-.056 0 .16.445.229 1.13.173.395-.032.508-.02.419.044-.093.066-.013.087.326.083.246-.002.516-.031.599-.064zm-22.11-.309c.308-.092.637-.122 1.078-.096.665.04.694 0 .19-.26-.266-.138-.376-.148-.81-.08a7.714 7.714 0 00-.748.153c-.135.04-.383.096-.553.125-.334.057-.35.208-.017.172.112-.013.203.009.203.048 0 .103.158.088.658-.062zm27.802-.335c-.059-.024-.129-.021-.157.006-.027.027.021.047.107.043.095-.004.115-.023.05-.05zm.636-.044c0-.036-.093-.065-.208-.065-.115 0-.188.035-.162.077.056.092.37.082.37-.012zm-97.185-.198c-.036-.34-.296-.453-.573-.248-.144.107-.134.124.168.285.414.221.433.22.405-.037zm99.421.122c1.164-.147 1.125-.25-.076-.202-1.075.043-1.244.062-1.752.2-.433.119.895.12 1.828.002zm9.577-.532c.117-.125.09-.132-.362-.087a98.19 98.19 0 01-1.119.104c-.391.033-.61.085-.578.137.032.053.391.065.991.032.719-.039.97-.083 1.068-.186zm.861-.116c-.028-.046-.122-.083-.209-.083s-.158.037-.158.082c0 .046.094.083.208.083.119 0 .187-.036.159-.082zm-38.245-.34c-.106-.103-.997-.182-.997-.089 0 .047.045.103.102.125.156.062.963.029.895-.037zm9.109-.075c0-.144-.228-.184-.633-.113l-.386.068.448.051c.247.029.476.058.51.065.033.008.06-.024.06-.071zm-21.274-.077c.145-.093.1-.112-.553-.245-.345-.07-.476-.065-.652.03-.163.087-.188.128-.097.16.366.13 1.134.163 1.302.055zm54.383-.092c.747-.103.945-.187.68-.29-.064-.025-.53.013-1.036.084-.507.072-1.093.13-1.302.13-.25 0-.418.045-.489.133-.099.12-.043.128.622.092a22.74 22.74 0 001.525-.15zm5.766.013c0-.14-.052-.156-.433-.134-.95.053-1.012.289-.077.291.449.001.51-.018.51-.157zm1.076.054c-.196-.063-.294-.06-.363.009-.071.072-.006.093.269.087l.362-.008-.268-.088zm-48.456-.105c.068-.178.001-.22-.247-.157-.245.063-.28.172-.07.227.245.065.268.06.317-.07zm15.944-.011c.037-.023.41-.039.827-.034.595.006.782-.02.865-.12.094-.116-.04-.123-1.355-.077-.96.034-1.567.092-1.771.17-.171.066-.34.102-.374.08-.034-.021-.17-.006-.3.034-.15.046.182.057.902.03.627-.022 1.17-.06 1.206-.083zm-8.743-.077c0-.018-.129-.032-.286-.032-.157 0-.285.03-.285.066 0 .036.128.05.285.032.157-.019.285-.049.285-.066zm14.812-.01a5.883 5.883 0 00-.774 0c-.213.016-.039.03.387.03s.6-.014.387-.03zm-8.99-.1c-.042-.043-.343-.096-.668-.119-.479-.033-.59-.019-.59.078 0 .094.14.119.668.119.418 0 .64-.03.59-.078zm-24.504-.074c.08-.051.066-.1-.056-.212-.168-.155-.306-.138-.804.095-.24.112-.282.112-.41-.005-.094-.086-.182-.105-.26-.056-.103.064-.102.079.002.113l.242.08c.202.068 1.174.057 1.286-.015zm20.719-.013c0-.046-.075-.083-.168-.083-.092 0-.145.037-.117.083.028.045.103.082.168.082.064 0 .117-.037.117-.082zm16.281-.119c.085-.085-.672-.045-.796.043-.089.063-.005.075.314.045.24-.023.457-.062.482-.088zm-18.563-.144c.291-.045.585-.095.652-.11.067-.015.14-.03.163-.034.022-.005-.009-.04-.07-.078-.182-.118-1.529-.114-1.716.005l-.166.105.168.091c.218.118.33.12.969.021zm-8.517-.31c.463-.224.476-.238.245-.265a1.418 1.418 0 00-.53.072 8.815 8.815 0 01-.634.19c-.192.049-.327.124-.3.167.095.157.732.072 1.22-.164zm-71.842-.375c.083-.101.068-.15-.085-.275-.182-.15-.474-.165-.965-.05l-.195.045.186.132c.18.127.55.245.826.263.073.005.178-.047.233-.115zm5.587-.86c-.03-.049-.153-.084-.273-.079-.17.008-.182.019-.057.05.09.021.198.072.24.112.096.093.16.033.09-.083zm114.035.015c.024-.074-.086-.103-.381-.103-.388 0-.493.057-.356.196.094.096.7.019.737-.093zM11.623 23.29c0-.183-.48-.669-.612-.618-.056.022-.14.001-.186-.046-.11-.112-.78-.102-.817.011-.015.048-.08.088-.144.088-.154 0-.146.287.014.535.124.19.165.199.937.185.702-.012.808-.032.808-.155zm66.46-2.208c.064-.107-.28-.336-.504-.336-.21 0-.22.028-.101.253.088.167.517.226.604.083zm9.864-.212c0-.045-.1-.094-.224-.109-.163-.019-.224.01-.224.109 0 .098.06.127.224.108.123-.014.224-.063.224-.108zm-7.91-.197c.072-.12-.36-.355-.651-.355a2.19 2.19 0 00-.575.101c-.284.095-.295.11-.153.215.171.127 1.305.159 1.378.039zm46.521-1.75a.99.99 0 00-.53 0c-.232.067-.199.077.265.077.463 0 .496-.01.265-.077zm3.891-.32c0-.046-.071-.083-.158-.083-.087 0-.181.037-.209.083-.028.047.04.082.159.082.114 0 .208-.037.208-.082zm-56.418-2.69c.29-.079.22-.223-.079-.163-.313.063-.5.215-.263.214.087-.001.241-.024.342-.051zm-12.938-.195c0-.046-.055-.083-.122-.083h-.183c-.034 0-.074.037-.089.083-.015.045.068.082.184.082.115 0 .21-.037.21-.082zm72.525-.194c.176-.144.662-.146.662-.002 0 .139.414.09.884-.103.151-.062.307-.092.347-.067.04.025.073.006.073-.042s.055-.087.122-.087c.068 0 .122-.073.122-.165 0-.187.014-.185-1.895-.198-1.15-.008-1.272.03-.962.298.112.098.169.109.197.04.021-.055.042-.034.046.046.003.079-.049.144-.116.144-.07 0-.122.074-.122.171 0 .15.032.165.264.114.146-.031.316-.098.378-.149zm-44.592-.27c.239-.065.155-.196-.126-.197-.12 0-.403-.059-.627-.13-1.045-.329-2.944-.133-1.984.205.327.116.926.117 1.292.002.395-.124.822-.104.97.046.136.137.202.148.475.074zm8.879-.04c-.203-.12-2.733-.206-2.623-.09.118.124.431.155 1.67.166.81.008 1.062-.013.953-.077zM81.06 15.15c.111-.031.166-.078.122-.104-.044-.026-.227 0-.407.056-.245.079-.275.105-.122.105.112 0 .295-.025.407-.057zm-66.015-.173c.037 0 .048-.075.025-.165-.031-.121-.002-.166.11-.167.083-.001.243-.074.355-.163.112-.089.25-.162.306-.163.056-.001.102-.033.102-.07 0-.038.091-.119.203-.18.112-.06.204-.155.204-.211 0-.122.423-.283.746-.283.173 0 .232-.04.232-.156 0-.2-.228-.29-.39-.154-.1.083-.132.083-.16.001-.018-.057-.123-.103-.23-.103-.11 0-.202.046-.207.103a1.5 1.5 0 01-.029.185c-.01.046-.024.139-.031.207-.01.093-.139.128-.519.143-.401.016-.544.059-.689.206-.1.103-.239.234-.308.293-.18.15-.156.34.05.418.15.056.156.073.04.118-.074.03-.135.095-.135.147 0 .051.058.071.13.044a.702.702 0 01.195-.05zm116.905.032c.357-.139.008-.197-1.175-.197-.858 0-1.304.03-1.304.087 0 .053.203.08.531.069.291-.01.554.007.584.037.067.068 1.19.071 1.364.004zm-58.143-.181c0-.037-.144-.131-.32-.21-.176-.078-.496-.308-.713-.51-.414-.386-.51-.421-.766-.283-.154.084-.154.091.021.33.152.208.234.245.546.245.337 0 .354.01.209.117-.154.114-.153.12.045.194l.326.124c.19.072.652.067.652-.007zm19.397-.18c.188-.012.191-.018.04-.084-.225-.098-2.58-.098-2.73 0-.087.058.005.083.327.089.246.005.631.033.855.063.224.03.61.03.856 0s.54-.06.652-.068zm8.822.11a.313.313 0 00-.204 0c-.056.022-.01.04.102.04.112 0 .158-.018.102-.04zm3.743.002c.282-.047.296-.063.222-.258-.043-.114-.068-.216-.055-.225.187-.146.47-.178 1.315-.148.544.02 1.041.052 1.103.072.187.061.027.147-.382.205-.211.03.673.059 1.964.065 1.553.007 2.331-.017 2.298-.072-.028-.045-.135-.061-.238-.035-.114.03-.29-.016-.454-.117-.146-.09-.313-.146-.37-.124-.057.022-.131-.005-.165-.06-.046-.076.008-.088.216-.049.206.04.242.032.139-.03-.077-.046-.29-.058-.484-.027-.295.048-.319.066-.167.123.098.037.175.114.172.173-.005.082-.015.083-.048.002-.022-.056-.108-.103-.19-.103s-.163-.041-.18-.092c-.018-.054-.285-.104-.639-.12a67.067 67.067 0 01-1.178-.067c-2.115-.143-3.265-.151-3.561-.026-.27.115-.311.115-.405.001-.088-.107-.25-.118-1.044-.07-1.415.085-4.076.065-5.17-.04-1.076-.102-1.453-.064-1.263.127.075.075.383.13.88.158.422.024.78.058.799.077.018.018-.098.057-.257.087-.281.054-.39.17-.187.2.858.123 1.248.15 1.691.119a16.7 16.7 0 01.978-.04c1.073-.007 1.222.013 1.364.181.13.153.24.165 1.568.164.786 0 1.564-.024 1.728-.051zm-27.352-.205c.087-.14-.14-.243-.413-.187-.313.065-.38.107-.322.202.066.108.668.096.736-.015zm-2.231-.226c.293.018 1.22-.178 1.45-.306.185-.103.137-.11-.487-.074-.381.022-.803.074-.938.114a8.044 8.044 0 01-.468.125c-.154.034-.224.102-.224.215 0 .157.012.159.24.04a.997.997 0 01.427-.114zm5.02-.039c.36-.149.426-.209.4-.358-.028-.162-.012-.17.18-.092.254.103.902.087 1.036-.025.053-.044.127-.072.166-.061.171.047.436-.12.436-.275 0-.154-.033-.162-.428-.107-.235.032-.52.097-.631.144-.112.047-.24.077-.286.066a8.793 8.793 0 00-.611-.064c-.291-.023-.565-.076-.607-.116-.13-.124-.476-.09-.426.042.065.171-.24.425-.374.312-.188-.158-1.286-.145-1.771.021l-.367.126.326-.04c.18-.023.442-.063.584-.09.214-.041.291-.01.448.176.251.298.912.593 1.238.552.141-.017.45-.112.688-.21zm4.028.183c-.146-.13-.656-.238-1.116-.238-.54 0-.66.048-.527.21.057.07.337.099.892.09.445-.005.783-.034.751-.062zm32.99.004c.202-.029.312-.063.245-.075a.73.73 0 00-.184-.012c-.033.005-.052-.037-.04-.094.011-.056-.025-.093-.081-.082-.06.012-.093-.054-.081-.165.018-.175-.014-.187-.582-.21-.579-.023-.6-.017-.556.151.033.131.015.163-.076.128-.066-.025-.1-.014-.076.026.068.111-.176.277-.509.344-.374.077 1.408.067 1.94-.01zm-.917-.462a.313.313 0 01.204 0c.056.023.01.042-.102.042-.112 0-.158-.019-.102-.042zm-52.939.41c-.058-.023-.129-.02-.156.007-.027.028.021.047.107.043.095-.003.114-.023.05-.05zm10.079-.068c.093-.094-.124-.205-.4-.205-.336 0-.464.196-.179.275.136.037.518-.009.579-.07zm44.429.047c0-.097-.159-.2-.217-.142-.058.06.044.22.141.22a.077.077 0 00.076-.078zm.937-.087c-.027-.045-.014-.082.03-.082.043 0 .094.046.113.102.024.072.079.057.186-.052.084-.085.166-.117.181-.07.033.1.346.034.346-.072 0-.04-.144-.073-.319-.073-.176 0-.387-.025-.469-.055-.082-.03-.122-.024-.089.013.083.093-.099.3-.204.234-.049-.03-.061-.013-.027.042a.233.233 0 00.181.096c.067 0 .099-.037.071-.083zm2.812.003c.202-.003.422-.042.489-.087.218-.144-.076-.244-.61-.206-.268.02-.701.043-.961.053-.26.01-.493.049-.516.087a.085.085 0 01-.118.024c-.041-.026-.054.009-.028.078.039.101.172.118.713.09.365-.018.829-.036 1.031-.039zm6.439-.212c.487-.061 1.033-.257.951-.34-.028-.028-.562-.003-1.186.056-.918.088-1.127.13-1.091.225.065.172.35.253.631.18.136-.035.448-.09.695-.12zm-16.728-.008c.344-.093.184-.196-.245-.158-.235.02-.455.04-.489.041-.033.003-.061.041-.061.087 0 .09.503.11.795.03zm19.152-.005a.662.662 0 00-.285 0c-.078.021-.014.038.143.038.156 0 .221-.017.142-.038zm-12.367-.19c0-.17-.272-.238-.362-.09-.025.04.027.055.117.031.114-.03.163-.002.163.09 0 .074.019.134.041.134.022 0 .041-.074.041-.165zm-29.059-.092c.045-.043-.209-.07-.611-.066-.653.006-.676.012-.444.12.254.12.907.085 1.055-.054zm5.872-.027c-.741-.45-.788-.464-1.492-.45-.445.008-.694.048-.718.113-.027.069-.266.094-.788.084-.885-.018-1.07.025-.729.17.316.134.948.184.984.078.015-.045.272-.124.57-.176.469-.08.571-.075.747.04.357.236.679.322 1.222.331l.53.009-.326-.198zm19.458.147a.311.311 0 00-.204 0c-.056.023-.01.041.102.041.112 0 .158-.018.102-.041zm.876-.028c0-.045-.119-.08-.265-.077-.222.005-.238.018-.101.077.225.098.366.098.366 0zm.571.017c0-.035-.11-.073-.245-.083-.134-.01-.244.018-.244.065 0 .046.11.083.244.083.135 0 .245-.029.245-.065zm1.67-.017c.029-.046-.032-.082-.137-.081-.152 0-.165.017-.066.08.151.1.143.1.203 0zm-30.832-.139c-.059-.024-.129-.02-.156.007-.027.027.021.046.107.043.095-.004.114-.024.05-.05zm32.499-.081c.02-.018-.081-.024-.224-.012-.144.01-.261.05-.261.086 0 .061.401 0 .485-.074zm-51.564-.048c.043-.13.631-.138.631-.008 0 .053.125.095.285.095.355 0 .36-.07.02-.267a3.083 3.083 0 01-.439-.312c-.27-.246-.676-.171-.866.16-.084.146-.13.304-.102.35.073.12.43.106.47-.018zm6.025.047c-.058-.024-.129-.021-.156.006-.027.028.021.047.107.043.095-.003.114-.023.05-.05zm11.573 0c-.058-.024-.129-.021-.156.006-.027.028.021.047.107.043.095-.003.114-.023.05-.05zm38.156-.233c.298-.157.372-.155.559.016.144.132.149.132.094-.013-.04-.106-.029-.135.037-.094.053.033.096.025.096-.018 0-.123-.299-.17-.842-.13-1.077.079-1.447.171-1.15.29.271.106.962.078 1.206-.051zm4.672-.007c.426-.045.61-.171.652-.448.033-.218-.197-.24-.656-.063-.243.093-.432.124-.489.079-.273-.216-.917-.162-1.33.112l-.215.143.179.096c.098.053.159.117.135.141-.048.048 1.052.01 1.724-.06zm-58.637-.106a.555.555 0 01.27-.197c.131-.034.123-.043-.046-.05a.5.5 0 00-.318.093c-.065.06-.088.064-.058.009.032-.057-.036-.112-.171-.14-.123-.024-.33-.071-.46-.103l-.235-.058.184.187c.18.18.554.412.67.413.031 0 .105-.069.164-.154zm15.651-.065a.31.31 0 00-.203 0c-.056.023-.01.042.102.042.112 0 .157-.019.101-.042zm44.316-.069c-.05-.1-.579-.059-.693.054-.053.052.061.07.326.054.237-.015.39-.06.367-.108zm-47.737-.052c-.05-.05-.36-.109-.689-.128-.55-.033-.584-.026-.438.093.193.157 1.281.191 1.127.035zm-20.249-.266l.189-.105-.316-.221c-.311-.219-.547-.264-.89-.171-.166.045-.168.055-.035.189.413.418.705.504 1.052.308zm59.428-.913a43.819 43.819 0 011.977-.202c.151-.01.161-.027.061-.096-.151-.103-3.345-.022-3.717.095-.37.115-.532.141-1.276.203-.369.03-.69.073-.712.095-.047.045 3.24-.04 3.667-.095zm-45.98-.05c.128-.001.128-.007 0-.082-.15-.088-.393-.025-.393.103 0 .045.058.06.129.032a.924.924 0 01.265-.052zm16.518-.075c.045-.032.87-.066 1.834-.074.964-.008 1.82-.037 1.905-.064.084-.027.18-.005.211.047.044.073.339.075 1.192.01a32.887 32.887 0 011.337-.085c.189.002.193.01.06.114-.128.097-.13.117-.02.16.142.055 2.731-.009 3.3-.081.334-.043.352-.056.212-.16-.232-.172-.97-.368-1.539-.41-2.48-.18-4.609-.23-5.395-.129-1.397.18-3.366.212-4.165.066-1.303-.238-4.721-.342-5.248-.16-.457.16-.97.142-1.69-.055-.37-.101-.753-.172-.85-.157-.267.04-.276.22-.013.274.127.026.363.083.525.127.61.162 1.4.182 1.915.046.737-.194 1.963-.24 2.447-.09.218.066.476.121.573.121.097.001.189.037.204.08.024.072.63.143 1.371.162a.86.86 0 01.53.219c.223.194.283.207.733.155.27-.03.526-.083.571-.116zm16.259-.01a30.01 30.01 0 011.671-.094c.766-.007 1.078-.133.367-.148a5.904 5.904 0 01-.693-.046c-.514-.11-3.837.009-6.275.222-.09.008.332.055.937.105 1.238.102 2.379.09 3.993-.04zm-25.575-.298c-.059-.023-.13-.02-.156.007-.028.027.02.047.107.043.094-.004.114-.023.049-.05zm-.178-.298c0-.194-.191-.305-.526-.304h-.33l.244.203c.263.218.611.276.611.101zm44.639-.032a.46.46 0 00-.244.003c-.055.022.009.04.144.038.134-.002.18-.02.1-.041zm.971-.108c.066 0 .101-.032.077-.071-.058-.094-.455-.016-.455.09 0 .044.058.059.129.031a.826.826 0 01.249-.05zm-66.314-.244c.181-.116.06-.18-.369-.195-.233-.009-.399.024-.419.082-.053.154.582.245.788.113zm.778-.087c.028-.046.086-.062.129-.035.043.027.196.02.34-.013.26-.06.26-.062.06-.121-.225-.067-.815-.097-.815-.043 0 .02.022.094.05.165.056.15.16.17.236.047zm66.451-.392c.028-.045.202-.1.386-.12.184-.022.372-.063.418-.091.127-.08.179-.37.074-.41-.263-.102-1.927.277-1.927.438 0 .039-.082.097-.183.13-.158.052-.133.073.183.152.383.097.961.042 1.049-.099zm-65.026.014c0-.018-.055-.033-.122-.033s-.122.036-.122.08c0 .044.055.059.122.032.067-.026.122-.062.122-.08zm51.711-.362c.028-.046-.004-.06-.077-.032-.141.055-.167.114-.05.114.043 0 .1-.037.127-.082zm3.22-.004c.067-.013-.19-.048-.571-.076-.831-.061-2.445-.006-2.445.085 0 .058 2.725.05 3.016-.009zm-53.79-.162c0-.045-.057-.082-.127-.082s-.104.037-.077.082c.028.046.085.083.127.083.043 0 .077-.037.077-.083zm65.552-.202c-.023-.266.127-.457.364-.463.121-.003.294-.037.384-.076.128-.056.091-.073-.168-.077-.182-.003-.402.049-.489.115a.616.616 0 01-.288.124c-.072.001-.196.076-.276.166-.122.136-.129.185-.04.292.153.187.531.127.513-.081zm-72.871.064c-.06-.024-.13-.021-.157.006-.027.028.021.047.107.044.095-.004.115-.024.05-.05zm6.667-.175c0-.116-.19-.264-.342-.264-.144 0-.2.167-.093.275.077.078.435.069.435-.01zm13.448-.09c.248-.07.254-.184.016-.305a1.823 1.823 0 01-.339-.236c-.122-.112-.233-.134-.469-.092-.794.14-.984.4-.323.443.267.018.381.061.381.145 0 .128.36.15.734.045zm-21.336-.185c-.366-.17-.67-.144-.67.058 0 .09.12.117.51.111l.51-.007-.35-.162zm9.245-.05c-.124-.451-.152-.516-.221-.516-.11 0-.094.304.025.496.125.202.25.215.196.02zm42.816.112c0-.017-.074-.05-.163-.074-.09-.024-.163-.01-.163.031s.073.075.163.075c.089 0 .163-.014.163-.032zm-25.067-.257c-.004-.045-.163-.14-.354-.212-.289-.108-.411-.113-.727-.032-.517.132-.561.349-.08.384.505.036 1.168-.043 1.16-.14zM56.285 8.96c-.16-.105-.49-.105-.49 0 0 .045.138.082.306.08.228 0 .275-.02.184-.08zm1.467-.15a.587.587 0 00-.11-.218c-.076-.105-.128-.123-.168-.057-.081.133-.293.119-.293-.02 0-.144-.177-.215-.536-.215-.288 0-.326.044-.206.236.106.17 1.313.421 1.313.275zm4.508-.47c.31-.156.47-.154.264.004-.202.155-.117.154.252-.003.37-.156.518-.156.518 0 0 .083.06.112.183.088.1-.019.248-.037.326-.04.244-.01.157-.151-.122-.197-.53-.087-.835-.189-.8-.266.085-.186-.364-.295-1.04-.253-.714.045-.855.005-1.44-.412-.725-.516-3.022-1.197-3.178-.941-.028.046-.022.084.015.084.036 0 .212.095.392.21.344.222.283.221-.467-.007-.39-.119-.507-.125-.713-.039-.289.121-.306.199-.085.39.174.15.809.367.903.308.054-.034.311-.005 1.828.205 1.802.25 2.057.332 1.488.482-.146.038-.276.128-.29.2-.02.102.114.158.612.257.687.137.975.122 1.354-.07zm-7.423-.304c.024-.075.145-.078.499-.013.257.047.482.06.501.029.047-.076-.803-.494-1.004-.494a2.64 2.64 0 00-.41.051c-.228.046-.244.069-.161.227.153.294.504.417.575.2zm1.774-.313c0-.045-.076-.082-.168-.082-.092 0-.145.037-.117.082.027.045.103.083.167.083.065 0 .118-.038.118-.083zm-26.65-.33c0-.045-.035-.082-.077-.082-.042 0-.1.037-.127.082-.028.046.007.083.076.083.07 0 .128-.037.128-.083zm23.06-.314c.05-.11.073-.22.05-.243-.078-.08-.657-.06-.644.022l.04.206c.019.082-.047.132-.196.15-.21.024-.279.097-.184.193.022.022.221.003.442-.043.303-.063.424-.133.492-.285zm1.226.324c0-.14-.238-.27-.4-.218-.238.076-.117.29.164.29.13 0 .236-.032.236-.072zm-31.866-.38c.266-.104.255-.145-.04-.145-.35 0-.449.032-.449.144 0 .148.109.148.49 0zm3.357-.18c-.059-.024-.13-.021-.156.006-.027.027.02.047.107.043.095-.004.114-.023.049-.05zm5.68-.155c.168-.169-.713-.263-1.396-.149-.324.055-.401.159-.163.22.187.047 1.501-.012 1.56-.07zm5.04-.011a.461.461 0 00-.244.003c-.055.022.01.04.144.038.135-.002.18-.02.1-.041zm16.893-.158c0-.14-.116-.146-.35-.02-.172.094-.172.097-.015.154.204.074.365.014.365-.134zm-13 .064c.209-.037.327-.102.327-.18 0-.1-.143-.123-.75-.125-.411 0-.775-.029-.808-.061-.032-.033-.22-.06-.418-.06-.298 0-.354.024-.33.144.021.109.094.138.291.118.16-.015.314.025.391.103.137.14.713.166 1.298.061zM35.6 6.43c-.059-.024-.129-.02-.156.007-.027.027.021.047.107.043.095-.004.114-.023.05-.05zm1.37-.018c0-.11-.452-.25-.646-.198-.189.05-.221.155-.067.218.178.073.713.058.713-.02zm15.94-.046l.23-.12-.363-.166c-.2-.092-.408-.168-.464-.169-.124-.002-.133.2-.018.416.1.19.303.203.616.04zm-6.374-.38c.384-.187.566-.235.676-.18.082.042.287.083.455.092.26.014.306-.009.306-.155 0-.41-.38-.821-.53-.575-.028.045-.156.082-.284.082a.582.582 0 00-.361.129c-.07.07-.192.12-.271.11-.079-.01-.253.027-.388.08a13.5 13.5 0 01-.346.134c-.056.02-.102.149-.102.286 0 .328.16.327.845-.004zm2.089-.236c0-.112-.144-.186-.196-.1-.049.08.022.177.128.177.037 0 .068-.035.068-.077zm2.479.027c.215-.083.145-.197-.121-.197a1.03 1.03 0 01-.407-.086c-.12-.064-.158-.058-.158.025 0 .255.353.387.686.258zm-22.45-.341c-.002-.065-.567-.357-.567-.294 0 .02.038.108.084.196.08.15.49.233.484.098zm1.47-.112c0-.04-.036-.074-.081-.074-.045 0-.082.04-.082.087 0 .048-.042.061-.094.029-.057-.036-.072-.023-.038.033.062.1.296.041.296-.075zm-1.207.035c-.058-.024-.129-.021-.156.006-.027.027.021.047.107.043.095-.004.114-.023.05-.05zm21.99-.027c0-.045-.064-.081-.143-.08-.122 0-.125.012-.02.08.154.101.163.101.163 0zm5.001-.05c.565-.095.622-.12.622-.271 0-.09-.076-.174-.183-.203-.236-.064-1.284.267-1.284.405 0 .14.16.202.397.152.106-.022.308-.06.448-.083zM39.17 5.27a.503.503 0 00-.117-.152c-.118-.119-.262-.024-.177.116.042.069.294.1.294.036zm-14.018-.192c0-.048-.037-.064-.082-.036-.044.028-.081.067-.081.087 0 .02.037.037.081.037.045 0 .082-.04.082-.088zm32.01-.401c-.033-.178-.269-.165-.255.015.007.079-.02.144-.06.144-.04 0-.073.036-.073.08 0 .05.082.043.207-.014.118-.055.196-.151.182-.225zm-28.261.076c0-.13-.444-.226-.652-.142l-.204.083.27.061c.147.034.288.082.313.107.059.06.273-.026.273-.11zm1.532-.346c.147-.148.118-.295-.069-.356a.31.31 0 00-.404.3c0 .18.315.217.473.056zm29.316.017c-.028-.046-.088-.083-.132-.083-.045 0-.06.037-.031.083.027.045.087.082.131.082.045 0 .06-.037.032-.082zm-30.93-.248c0-.045-.07-.082-.158-.082-.087 0-.18.037-.208.082-.029.047.04.083.158.083.115 0 .209-.037.209-.083zm.754.028a.311.311 0 00-.203 0c-.056.023-.01.042.101.042.113 0 .158-.019.102-.042zm29.029-.43c.024-.04-.038-.096-.138-.123-.269-.073-.305-.064-.305.072 0 .134.366.176.443.05zm-.95-.175c.024-.133-.737-.46-.873-.374-.04.025-.167.01-.28-.034-.303-.117-.35.046-.058.199.134.07.321.127.416.127.095 0 .23.057.3.128.153.155.462.126.494-.046zm2.626-.103c0-.034-.146-.062-.326-.062-.18 0-.326.034-.326.075 0 .04.147.068.326.061.179-.006.326-.04.326-.074zm-10.91-.189c.55-.195.967-.393.967-.457 0-.215-.723-.202-1.159.021-.517.265-.57.318-.462.45.118.145.215.142.654-.014zm-4.677-.584c.101-.027.184-.092.184-.144 0-.052.092-.194.204-.317.242-.264.26-.394.05-.394-.173 0-.364.192-.277.279.03.032-.026.08-.127.106-.1.026-.237.155-.304.285-.13.256-.09.283.27.185zm3.711-1.153c.075-.075-.187-.444-.314-.444-.095 0-.28.238-.28.36 0 .036.204.092.456.124a.187.187 0 00.138-.04zm.749-.335c.318-.154.344-.207.171-.351-.083-.07-.198-.076-.402-.019-.157.044-.3.064-.32.045-.019-.02-.082.023-.14.095-.092.11-.081.136.069.176.097.026.176.08.176.12 0 .107.123.09.446-.066zM.725 38.229c-.007-.088.05-.18.125-.203.076-.024.037-.032-.087-.017-.123.015-.224-.01-.224-.054 0-.046-.103-.06-.237-.034-.174.036-.25.013-.288-.085-.028-.074-.013-.172.032-.218.135-.137.392-.143.442-.01.025.066.123.121.217.121.093 0 .147.037.12.083-.028.045.006.087.076.092.236.02.276.031.343.099.07.07-.273.38-.423.384-.046 0-.09-.07-.096-.158zm3.772-16.633c-.044-.118-.035-.127.046-.047.056.056.08.123.055.148-.025.026-.07-.02-.1-.101zm133.049-3.064l-.197-.056.229-.152c.215-.142.247-.143.507-.018.153.074.256.171.228.216-.055.09-.462.096-.767.01zm.32-2.649a.662.662 0 00-.301-.08c-.139-.002-.172-.042-.146-.178a.65.65 0 01.066-.208c.06-.061.709.334.683.415-.04.121-.164.142-.302.051zm3.241-1.546c-.051-.199.127-.371.253-.245.118.12.119.39.001.39-.05 0-.068-.063-.04-.144.046-.135.042-.135-.063.002-.108.14-.114.14-.151-.003zm-129.945-.83c-.074-.12-.07-.152.02-.152.064 0 .115.068.115.152 0 .083-.01.15-.021.15a.569.569 0 01-.114-.15zm124.4-.849c.055-.056.121-.082.146-.056.025.025-.02.071-.101.102-.116.045-.125.035-.045-.046zm4.382-1.451a1.435 1.435 0 01-.38-.197c-.119-.085-.27-.155-.336-.155s-.166-.056-.221-.124a.395.395 0 00-.269-.124c-.091 0-.145-.021-.119-.048.026-.026.262-.02.523.013.262.034.43.077.374.096-.143.05-.128.187.02.187.068 0 .123.037.123.082 0 .046.082.083.183.084.288.002.553.093.504.173-.048.077-.136.08-.402.012zm-.707-1.176c-.299-.023-.568-.066-.597-.097-.03-.03-.014-.13.036-.224.116-.22.576-.35.721-.203.057.058.094.122.081.143-.013.02.065.114.173.21.108.094.182.18.163.193-.018.011-.278.002-.577-.022zm3.168-.794c-.028-.029-.243-.116-.478-.193-.384-.127-.427-.165-.427-.378 0-.204.04-.247.282-.301.343-.077.671-.013.626.122-.018.055.108.24.28.413.171.172.312.33.312.35 0 .058-.536.046-.595-.013zm-68.9-.317c-.143-.05-.287-.117-.319-.15-.032-.032-.116-.058-.187-.057-.113 0-.114.01-.007.08.067.045.086.08.04.08-.104 0-.403-.324-.471-.512-.062-.17.067-.195.162-.033.07.118.417.337.554.348.045.004.209.062.364.129.343.148.23.243-.136.115zm-56.341-.5c-.057-.068-.083-.145-.058-.17.062-.064.385.119.385.217 0 .124-.213.094-.328-.046zm57.112-.344c-.413-.046-.39-.189.032-.189.213 0 .371-.048.43-.13.085-.117.115-.113.295.034.11.09.175.19.145.22-.074.076-.522.108-.902.065zm66.524-.162c0-.075-.025-.112-.054-.082-.03.03-.106-.021-.17-.114-.078-.111-.168-.15-.272-.117-.141.045-.154.012-.133-.323.023-.375.14-.639.14-.316 0 .103.117.265.284.394.156.12.266.25.243.287-.022.037.033.091.123.12.213.068.214.289.002.289-.098 0-.163-.055-.163-.137zM16.513 7.636c0-.048.11-.15.244-.227.134-.077.244-.202.245-.277 0-.117.072-.13.51-.092.847.074.908.342.088.394-.199.013-.427.083-.507.156-.16.147-.58.18-.58.046zm59.26-.105c-.163-.096-.172-.121-.058-.165.073-.029.295-.03.492-.003.197.028.464.013.593-.033.202-.071.236-.061.245.073.007.094-.041.155-.126.155-.075 0-.32.02-.545.043-.267.028-.474.004-.6-.07zm45.48-.515c-.137-.071-.16-.114-.082-.15.06-.028-.01-.038-.155-.024-.172.018-.265-.009-.265-.076 0-.057-.064-.117-.143-.134-.078-.017.03-.032.241-.034.211-.001.365.028.342.065-.023.038.016.046.085.019.07-.027.127-.086.127-.132 0-.047.088-.06.203-.03.134.033.204.017.204-.05 0-.077.022-.078.098 0 .126.126.338.13.261.003-.039-.065-.005-.082.105-.053.103.028.196-.011.255-.107.121-.195.058-.226-.499-.249-.332-.013-.464-.051-.464-.133 0-.104.454-.328.588-.289.032.01.252-.035.489-.1.237-.064.366-.12.288-.123-.079-.003-.143-.036-.143-.074 0-.039.241-.078.536-.087.749-.025 1.074-.075 1.369-.21.14-.064.477-.14.749-.17.616-.067.79-.162.586-.32-.079-.06-.143-.125-.143-.143 0-.019.211-.014.469.009.633.057 1.498-.04 1.811-.204.294-.154.842-.232.767-.11-.045.074.336.049.947-.06.158-.03.135 0-.102.13-.168.091-.306.201-.306.244 0 .043.185.102.41.133.454.06.457.113.011.245-.164.049-.289.132-.278.186.013.064-.128.096-.426.096a2.57 2.57 0 00-.754.118 4.17 4.17 0 01-.715.178c-.224.033-.444.069-.489.078l-.571.12c-.268.055-.528.133-.576.173-.048.04-.213.09-.367.111-1.289.183-1.603.24-1.739.312-.149.081-.15.087-.007.168.215.122 1.423.088 1.974-.055a30.75 30.75 0 011.367-.298 20.24 20.24 0 001.299-.293 5.44 5.44 0 01.444-.117c.024 0-.209.167-.516.37-.307.205-.635.372-.729.373-.236.001-1.147.296-1.373.444-.101.067-.404.143-.673.17-.269.026-.691.069-.937.095-.926.097-3.377.087-3.573-.015zm14.575-.364v-.146c0-.034.046-.062.102-.062a.23.23 0 00.163-.082c.04-.055.082-.053.122.005.034.048.144.144.244.213.177.122.169.127-.224.141-.231.009-.407-.021-.407-.069zm-44.18-.456c-.104-.106-.456-.187-.968-.224-.147-.01-.436-.273-.456-.414-.009-.058.078-.106.199-.11.275-.01.879-.1 1.6-.235.607-.115 3.013-.113 3.645.002.191.035.476.074.633.086.527.041.816.127.758.225-.032.053.001.047.075-.013.108-.088.149-.088.234.004.06.065.206.097.353.076l.25-.035-.187.168c-.186.167-.684.202-.904.065a.191.191 0 00-.184.002c-.052.032-.428.064-.837.07-.409.007-.786.04-.838.072-.16.1-1.573.141-1.573.047 0-.047-.06-.024-.135.052-.088.09-.212.122-.353.093a.788.788 0 00-.445.075c-.294.154-.71.152-.867-.006zm29.368-.095c-.135-.054-.132-.357.002-.357.058 0 .112.092.121.206.01.113.009.203-.002.2a4.041 4.041 0 01-.121-.049zm-21.95-.06c-.02-.02-.218-.054-.442-.078a3.255 3.255 0 01-.604-.118c-.188-.07-.182-.079.144-.21.364-.148.693-.168 1.376-.085.406.05.607.194.27.194-.087 0-.18.037-.208.082-.028.045-.003.083.056.084.078 0 .073.023-.016.081-.121.08-.512.113-.577.05zm17.121-.135c0-.146.023-.156.174-.074.139.075.151.109.061.167-.176.112-.235.089-.235-.093zm1.304.085c0-.045.057-.082.127-.082s.104.037.076.082c-.027.045-.084.082-.127.082-.042 0-.076-.037-.076-.082zm.713.027c-.207-.056-.175-.166.061-.212.112-.022.204-.01.204.025 0 .036.308.059.686.05.502-.01.665.011.609.08-.076.092-1.269.135-1.56.057zm2.282-.004c-.209-.032-.33-.27-.138-.27.047 0 .064.037.036.082-.028.045.005.083.072.083.067 0 .145-.038.172-.083a.184.184 0 01.137-.082c.06 0 .058.035-.004.11-.049.061-.066.135-.037.165.03.03.039.049.02.042a3.16 3.16 0 00-.258-.047zm-36.35-.116c.055-.056.12-.081.146-.056.025.025-.02.071-.1.102-.117.045-.126.036-.046-.046zm30.176.01c-.073-.048-.083-.08-.025-.08a.19.19 0 01.148.08c.062.103.034.103-.123 0zm.428.018c-.31-.049-.203-.162.119-.126.167.019.315.046.33.06.048.05-.263.095-.449.066zm.591-.017c-.028-.046-.011-.083.036-.083s.086.037.086.083c0 .045-.016.082-.036.082-.019 0-.058-.037-.086-.082zm.204.018c0-.046.055-.105.122-.13.067-.027.122-.035.122-.02 0 .016-.055.075-.122.132-.07.059-.122.067-.122.018zm20.375-.008c0-.045-.165-.108-.367-.138-.202-.031-.367-.082-.367-.113 0-.078.731-.22.962-.186.264.038.225.455-.045.494-.101.015-.183-.011-.183-.057zm-51.385-.092c-.029-.047.004-.06.076-.032.142.054.168.114.05.114-.042 0-.099-.037-.126-.082zm29.275-.025c-.023-.062.022-.112.107-.118.081-.007.168.042.192.106.029.077-.008.119-.107.119-.083 0-.17-.049-.192-.107zm-3.198-.145c-.029-.047-.114-.08-.189-.071-.195.02-.66-.098-.712-.183-.053-.086.026-.095.657-.075.487.015.635.096.556.305-.05.132-.238.146-.312.024zm1.054-.027c-.08-.21-.027-.22.444-.08.483.142.534.221.077.117-.188-.043-.329-.036-.382.018-.059.06-.102.043-.139-.055zm-21.712-.005c0-.02.037-.06.081-.087.045-.028.082-.012.082.036s-.037.087-.082.087c-.044 0-.081-.016-.081-.036zm21.149-.129c-.028-.045-.012-.082.036-.082.047 0 .086.037.086.082 0 .046-.016.083-.036.083-.019 0-.058-.037-.086-.083zm3.953-.085c0-.054-.055-.076-.122-.05-.077.03-.123 0-.123-.08 0-.142.398-.136.516.009.044.054.082.046.109-.02.022-.058.075-.083.116-.058.108.068.091.174-.028.175-.056 0-.184.028-.285.06-.119.04-.183.027-.183-.036zm-98.574-.08c-.028-.046.008-.106.08-.134.156-.06.243.006.168.129-.067.11-.182.113-.248.005zm97.611.015c-.245-.036-.188-.195.099-.273.171-.046.215-.034.183.05-.029.077.019.104.157.088.121-.013.198.02.198.087 0 .105-.157.116-.637.048zm-80.74-.837c-.028-.047.006-.108.076-.135.07-.027.128-.122.128-.21 0-.089.037-.138.082-.11a.103.103 0 01.03.14c-.03.049.026.15.124.225.178.136.178.136-.104.156-.156.01-.307-.02-.335-.066zm105.055-.113c-.142-.105-.138-.115.068-.167a.628.628 0 01.398.042c.175.094.175.099.018.16-.236.094-.317.088-.484-.035zM32.36 4.17c-.03-.05-.2-.157-.376-.237l-.32-.145.31-.052c.17-.028.44-.052.602-.052.162-.001.517-.115.797-.256.342-.173.537-.23.604-.177.217.173 1.48.24 2.503.133.653-.068 1.631-.082 1.724-.023.106.066-.281.131-1.194.202-.876.068-.975.098-.841.26.092.113.058.121-.302.074-.223-.03-.53-.017-.684.029-.178.053-.313.054-.373.004-.051-.043-.366-.08-.699-.082-.333-.002-.834-.01-1.113-.017-.553-.016-.668.032-.519.213.061.075.068.137.018.169-.044.027-.106.008-.137-.043zm91.217-.25c-.037-.143-.093-.168-.298-.137-.14.02-.268.013-.286-.016-.018-.029-.241-.03-.496-.001-.387.043-2.604.039-3.825-.007a18.44 18.44 0 00-.692-.01c-.721.007-.893-.006-.857-.064.02-.033.153-.063.296-.067.143-.004.281-.04.308-.08.059-.087.742-.087.688.001-.055.09.263.029.392-.076.168-.135.53-.181 2.46-.314.978-.067 2.097-.183 2.485-.257.389-.074.78-.143.87-.155a14.884 14.884 0 002.724-.59c.063-.02.143.01.177.065.096.158-.259.479-.532.48-.131.001-.497.13-.815.285-.317.156-.759.305-.984.332-.539.066-.963.14-1.038.183-.106.061.136.256.283.228.077-.015.161.007.186.047.026.044.124.045.233.003.192-.074.46.016.316.107-.096.06-.565.135-1.132.182-.372.03-.423.015-.463-.14zm.234.017c-.025-.041 0-.094.057-.117.061-.025.045-.044-.041-.048-.078-.004-.142.049-.142.117s.039.123.086.123c.047 0 .066-.033.04-.075zm1.838-.179c-.107-.043-.173-.102-.145-.13.089-.09.463-.098.463-.01 0 .053.043.049.115-.012.08-.067.131-.07.168-.008.03.048.094.063.142.032.055-.034.065-.017.027.046a.148.148 0 01-.173.057c-.061-.024-.133-.008-.159.036-.059.096-.181.093-.438-.01zm-59.61-.205c.054-.025.08-.094.057-.154-.026-.068.044-.124.188-.152.126-.024.238-.036.248-.025.059.058-.21.286-.386.328-.112.027-.16.028-.106.003zm48.889-.027c-.025-.042.028-.056.118-.032.19.05.214.106.045.106-.064 0-.138-.033-.163-.074zm.808-1.069c-.107-.108-.014-.238.17-.238.153 0 .196.034.161.125-.035.093-.02.104.057.042.125-.101.451-.168 1.367-.28.819-.1.628-.09 1.833-.084.538.003 1.042.004 1.119.003.078 0 .163-.036.189-.079.059-.097.855-.099 1.006-.002.065.042.22.04.366-.005.325-.098.641-.142 1.151-.16.224-.008.829-.07 1.345-.136 1.184-.155 1.469-.174 1.421-.095-.022.035-.231.119-.465.187-.425.124-.719.171-1.649.264-.269.027-.636.08-.815.118-.179.038-.64.072-1.024.075a7.878 7.878 0 00-1.074.077c-.206.04-.417.045-.468.013-.05-.031-.257-.003-.459.065-.252.084-.422.097-.545.044-.098-.043-.399-.063-.668-.044a56.59 56.59 0 01-1.386.065c-.493.018-1.053.044-1.245.059-.192.014-.366.008-.387-.014zM51.15.137c0-.044.017-.082.036-.082.02 0 .059.038.087.083.027.045.011.082-.036.082a.085.085 0 01-.087-.082z" fill="#000"/></svg>