<svg width="177" height="66" fill="none" xmlns="http://www.w3.org/2000/svg"><path d="M114.07 65.99a76.39 76.39 0 012.14-.025c.588.003 1.527-.002 2.088-.011l1.987-.033c1.709-.029 3.541-.165 3.742-.28.226-.127-.74-.133-2.405-.015-.615.044-2.452-.011-5.009-.15-3.92-.214-4.039-.215-4.047-.026-.005.106-.077.19-.161.187-.084-.004-.155.057-.159.135-.008.193.514.255 1.824.218zm-8.823-1.014c.199-.22-.034-.284-.247-.068-.16.163-.166.194-.034.2a.42.42 0 00.281-.132zm-11.017-.642c.203-.062.203-.063.005-.18-.11-.066-.403-.157-.651-.202-.506-.093-1.444-.391-1.769-.562-.15-.08-.271-.08-.407-.002-.115.065-.131.097-.04.077a.275.275 0 01.25.088c.084.106.767.35 2.056.737.194.058.444.078.556.043zm2.835.055a.28.28 0 00.075-.17c.003-.064-.045-.06-.121.01-.07.063-.103.14-.075.17.027.03.082.025.12-.01zm7.504.15c.024-.021.468-.046.986-.055.518-.008 1.032-.059 1.142-.112.146-.07.21-.062.237.031.026.092.085.082.213-.035.098-.09.178-.184.179-.21.004-.088-.547-.227-1.158-.292l-1.318-.142c-1.066-.114-1.794-.22-2.074-.3-.139-.04-.65-.14-1.136-.222-.487-.083-.883-.188-.881-.234.002-.047.038-.088.08-.093l.37-.03c.439-.031.435-.099-.015-.195-.33-.07-.442-.05-.622.116-.178.162-.348.196-.875.173-.36-.016-.68-.074-.712-.13-.03-.056-.288-.143-.57-.193-.379-.067-.526-.141-.556-.28-.03-.143-.084-.167-.222-.1a.777.777 0 01-.423.036 48.272 48.272 0 00-.628-.126c-.213-.041-.47-.125-.571-.185-.123-.072-.277-.078-.459-.018-.217.072-.37.04-.738-.15-.498-.257-.53-.268-1.221-.397a6.155 6.155 0 01-.887-.25 5.566 5.566 0 00-.99-.245 4.277 4.277 0 01-1.124-.37 7.018 7.018 0 00-.635-.304.46.46 0 01-.18-.13c-.08-.088.004-.158.315-.267.512-.18.666-.18.804.004.102.134.307.144 1.103.057.234-.026.313-.08.277-.188a.273.273 0 00-.217-.166c-.106-.01-.12-.033-.038-.062.071-.025.131-.089.134-.142.002-.06-.067-.065-.178-.014-.1.047-.238.061-.307.033-.069-.028-.128.022-.132.11-.004.089-.026.16-.05.16a1.125 1.125 0 00-.222.058c-.106.036-.154.021-.116-.035.036-.053.026-.165-.023-.248-.075-.13-.103-.131-.186-.014-.128.18-.42.05-.411-.183.005-.144-.014-.153-.09-.044-.052.076-.233.137-.402.136-.17-.002-.29.017-.268.041.022.024-.055.104-.171.178-.116.074-.19.174-.163.221.027.048-.025.111-.114.141-.267.09-.534.047-.573-.09-.02-.072-.237-.15-.485-.175-1.104-.112-1.204-.136-1.325-.318-.115-.173-1.114-.442-1.865-.502-.139-.01-.208-.067-.176-.142.03-.068.021-.117-.02-.108-.165.036-1.03-.187-1.082-.279-.03-.054-.138-.102-.24-.106a.452.452 0 01-.298-.158c-.063-.083-.293-.189-.512-.236-.329-.07-.396-.126-.387-.32.008-.2.091-.252.53-.337.285-.056.544-.073.576-.039.031.035-.008.08-.087.1-.792.207-.656.247.617.184 2.459-.12 3.165-.24 3.178-.533.007-.172-.162-.185-.238-.019-.044.096-.078.092-.15-.021-.061-.097-.159-.121-.285-.072-.224.086-.194.079-.654.17-.491.096-1.045.058-1.296-.092-.115-.068-.369-.13-.564-.14-.195-.008-.42-.086-.501-.174-.082-.09-.327-.168-.56-.178-.33-.014-.412-.055-.406-.2.011-.244.577-.532 1.059-.538.408-.005.47.053.26.246-.262.24-.01.212.444-.05.368-.21.57-.26.92-.224.302.032.553-.011.779-.135.372-.205.848-.218 1.98-.052.629.091.86.083 1.25-.047.304-.102.621-.134.875-.088.242.043.506.02.677-.06.154-.07.38-.125.502-.12a.547.547 0 00.342-.1c.07-.064.196-.074.301-.024.233.11.673.15.742.067.03-.035.421-.072.87-.083.448-.01 1.25-.094 1.783-.187a39.01 39.01 0 011-.167c.018 0 .036-.071.04-.16.004-.088.063-.14.132-.113.069.026.123.113.121.192-.002.084.081.138.198.129.111-.01.432-.023.712-.03.28-.007.65-.076.822-.153.17-.077.586-.135.922-.13.335.007.865-.05 1.176-.124.858-.207 1.348-.28 1.769-.267.209.007.383-.034.385-.09.003-.06-.334-.117-.808-.137-.893-.04-1.052-.18-.368-.325.24-.05.595-.157.787-.235a1.3 1.3 0 01.679-.075c.18.037.376.024.434-.03.058-.053.452-.09.875-.082.797.015 1.243-.114.506-.146-.23-.01-.444-.067-.477-.125-.075-.134.576-.381.957-.364.167.007.336-.064.411-.174.089-.13.306-.2.715-.234.351-.028.86-.175 1.266-.365.374-.175.778-.313.9-.308.196.008.598-.107 1.228-.351.334-.13.943-.233 1.641-.279.278-.018.663-.1 2.416-.522a6.89 6.89 0 011.22-.148c.359-.007.899-.052 1.199-.101.301-.049.584-.064.629-.033.046.031.214-.005.374-.08.161-.074.412-.126.558-.115.147.01.759.016 1.362.013.602-.004 1.093.03 1.091.076-.002.045.18.072.404.06.335-.02.395.004.339.132-.037.085-.131.152-.208.149-.078-.004-.144.04-.146.095a.102.102 0 00.097.107c.187.008.097.155-.21.342-.216.132-.303.262-.299.446.004.24-.029.26-.413.244-.23-.01-.484.031-.564.09-.296.217-.821.41-1.2.442-.213.018-.595.056-.849.085-.253.03-.503.04-.555.022-.051-.017-.283.028-.513.1-.588.184-1.233.295-2.007.346-.365.025-.871.122-1.124.218-.358.135-.715.163-1.601.128-.628-.025-1.224-.075-1.325-.111-.234-.085-.493.059-.402.222.042.075.178.105.341.075l.271-.05-.261.188c-.144.104-.233.22-.198.258.035.038.49.101 1.011.14 1.32.097 1.302.094 1.294.277-.005.114.056.15.196.12.112-.023.374.004.583.06.26.071.543.066.895-.017.828-.194 2.203-.301 2.314-.18.065.071.009.125-.167.16-.146.03-.267.105-.27.167-.005.12.168.105 1.227-.112 1.356-.278 2.673-.466 2.819-.402.244.106.163.253-.198.355-.186.053-.413.176-.505.275-.092.098-.451.226-.798.284-.619.104-.676.148-.655.51.006.107-.058.177-.16.172-.127-.005-.156-.072-.111-.26.047-.198.018-.254-.134-.26-.106-.005-.296.078-.42.185-.125.107-.302.19-.394.187-.091-.004-.279.102-.416.237-.138.134-.31.241-.383.238-.073-.003-.302.145-.508.329-.207.184-.468.36-.581.39-.112.03-.18.1-.15.153.087.155.48.13.92-.06.642-.275 1.278-.392 1.423-.26.068.062.153.085.19.052.068-.063.696-.178 1.303-.237.864-.085 1.959-.32 2.775-.594.484-.162 2.118-.372 2.297-.294.078.034.251.006.384-.061.617-.313.94-.104.818.526-.094.483-.07.505.334.32.278-.127 1.233-.407 1.548-.455.387-.057 1.412-.328 1.509-.398.058-.042.373-.114.701-.16.327-.045.633-.104.68-.13.046-.026.422-.03.834-.01.413.02.879.04 1.036.046a.699.699 0 00.466-.179c.231-.242 1.623-.591 1.994-.5.203.05.309.021.382-.102.11-.187.976-.446 1.133-.339.054.037.449-.029.878-.145.633-.171.78-.184.774-.065-.004.112.078.135.352.096.267-.039.37-.013.409.103.042.125.132.14.481.076.471-.086 1.117.008 1.617.235.177.08.411.182.521.227.2.082.2.082-.01.23-.203.144-.201.148.061.099.148-.028.491.008.76.079.269.07.626.158.792.193.293.063.467.133 1.101.446.165.081.481.185.703.231 1.028.214 2.271.833 3.051 1.52.166.146.433.244.752.276.599.06 1.781.524 2.991 1.173.491.264 1.037.486 1.213.494.176.007.368.077.427.155s.435.263.835.41c1.083.4 1.66.637 2.348.963.341.162.814.342 1.052.4l1.541.378c1.061.26 1.461.362 2.467.636.249.068 1.265.172 2.256.232 1.71.103 1.804.099 1.811-.083.013-.292-.845-.562-1.393-.44-.078.018-.156-.038-.173-.123-.018-.084-.008-.098.02-.03.04.095.115.1.308.022.316-.128.156-.273-.328-.296-.343-.017-.413.064-.23.264.078.085-.135.127-.784.153-.924.036-1.704-.13-3.882-.825-.414-.133-.957-.303-1.205-.38-1.195-.367-1.509-.504-1.632-.712-.184-.31-1.091-.662-1.82-.708-1.175-.073-1.273-.097-1.503-.368-.123-.146-.316-.27-.429-.274-.113-.005-.275-.126-.36-.27a.86.86 0 00-.43-.338c-.318-.091-.523-.247-.516-.392.005-.126 1.274.035 2.329.295a7.178 7.178 0 011.367.511c.337.179.654.327.705.33.052.001.274.1.495.22.371.2.84.224.848.043.002-.043-.137-.112-.308-.154a1.931 1.931 0 01-.601-.304 1.736 1.736 0 00-.615-.29 2.92 2.92 0 01-.599-.194c-.322-.155-.361-.494-.056-.48.224.009.284-.15.086-.23-.068-.028-.088-.087-.043-.131.046-.045.363.033.706.173.343.139 1.097.43 1.675.647.579.216 1.345.505 1.704.64.358.137.878.304 1.155.373a27.6 27.6 0 011.056.29c1.042.31 1.942.555 2.166.589.269.04.68.38.762.63.038.112.176.19.368.207.169.014.341.037.383.05.561.182.633.225.581.346-.079.18-.015.212.662.327.498.084.583.075.589-.066.005-.115-.085-.169-.298-.178-.168-.007-.303-.06-.3-.115.002-.056.038-.104.08-.106.463-.026.861-.188.745-.303-.023-.024-.338-.086-.7-.138-.846-.124-2.121-.52-2.791-.867-.288-.15-1.033-.426-1.653-.613-1.188-.358-2.696-.879-3.033-1.048a3.176 3.176 0 00-.552-.184c-.194-.047-.397-.12-.451-.165-.119-.098-1.396-.573-1.559-.58-.189-.009-.794-.357-.789-.455.005-.128.755-.079 1.087.072.153.07.458.216.678.325 1.406.699 1.977.922 2.29.897l.273-.022-.243-.393c-.181-.291-.315-.396-.52-.406a1.382 1.382 0 01-.524-.155c-.137-.078-.52-.213-.853-.299-1.096-.284-1.358-.386-1.351-.525.012-.286.354-.224 1.821.332.83.315 1.669.579 1.864.587.33.015.347 0 .248-.206-.19-.397.35-.453 1.027-.108.351.18.302.327-.114.347-.44.021-.622.16-.36.275.106.046.263.18.351.298.142.192.195.203.509.104.623-.195 1.311-.205 2.18-.03.468.094.878.145.913.113.035-.032-.015-.203-.109-.38-.185-.348-.473-.476-1.576-.698-.796-.16-1.268-.338-1.262-.474.005-.108 1.143.01 1.469.151.083.036.153.015.156-.047.002-.062-.052-.115-.12-.118-.069-.003-.351-.103-.627-.222L159.89 55c-.758-.327-.885-.541-.306-.516.279.012.357-.034.444-.261.058-.152.156-.274.219-.271.083.004.085-.027.005-.114-.11-.12-.371-.048-.299.083.094.168-.769.073-1.192-.13-.501-.242-.597-.44-.206-.423.193.008.264-.058.33-.304.081-.308.094-.313.532-.233.247.045.427.041.4-.007-.071-.127-1.107-.44-1.801-.543-.756-.114-1.211-.546-.536-.509 1.277.07 2.445.21 2.497.299.099.17.47.272.768.211.258-.053.263-.065.106-.255a.643.643 0 00-.403-.209c-.131-.006-.236-.059-.234-.117.003-.06-.141-.181-.319-.27a9.073 9.073 0 01-.473-.256c-.44-.27-.611-.347-.782-.354-.104-.005-.319-.079-.478-.165-.159-.086-.722-.205-1.252-.265-1.347-.15-2.363-.439-2.534-.717-.045-.072-.186-.07-.433.007-.201.063-.411.084-.466.047-.055-.038-.131.002-.168.088-.037.085-.108.128-.156.095-.049-.033-.094.054-.1.193-.01.236-.033.247-.326.148-.428-.143-.448-.184-.213-.427.147-.152.169-.225.079-.261-.22-.088-.122-.333.155-.39.29-.06 1.507.081 1.672.194.056.038.613.108 1.237.155.624.048 1.408.117 1.743.154l1.774.193c1.66.178 2.227.296 2.22.461-.002.049.328.107.733.13 1.268.07 1.53.133 1.723.413.163.238.21.25.604.171.234-.047.539-.166.677-.263s.347-.175.466-.174c.205.003.204-.002-.017-.102-.319-.145-1.026-.185-1.339-.077-.321.11-.871.011-1.019-.184a.49.49 0 00-.328-.157c-.248-.011-1.089-.592-.99-.683.036-.034-.064-.095-.223-.136a41.77 41.77 0 01-1.093-.317 35.82 35.82 0 00-1.194-.341c-.214-.054-.42-.152-.456-.217-.037-.065-.162-.142-.279-.17a1.902 1.902 0 01-.435-.182l-.221-.132.251-.125c.139-.07.494-.117.789-.106.296.011.687-.035.87-.103.184-.067.424-.103.535-.08.604.131 1.71.154 1.755.037.026-.07.133-.122.237-.117.104.004.22-.037.257-.093.038-.055.11-.072.161-.038.05.035.094.013.096-.048.003-.061-.07-.144-.162-.184-.15-.065-.147-.08.031-.141.282-.097 2.566.002 2.628.113.054.096 1.093.307 2.36.478.604.081.732.13.701.262-.023.098-.256.218-.582.301-.299.076-.625.202-.725.28a.511.511 0 01-.38.093c-.255-.062-1.579.127-1.652.236-.031.045.003.088.076.096.329.035 1.342.03 1.543-.007a6.16 6.16 0 01.714-.054c.272-.007.578-.085.686-.174.173-.144.202-.144.275 0 .071.14.099.136.214-.032.117-.17.102-.203-.127-.272-.47-.14-.036-.36.73-.37.673-.009.876-.053.882-.194.006-.131-1.337-.397-2.574-.51-.67-.06-1.239-.146-1.265-.19-.027-.044-.209-.083-.405-.086a1.78 1.78 0 01-.702-.196c-.279-.155-.639-.206-1.896-.266-1.221-.06-1.552-.104-1.547-.21.008-.193.244-.231 1.282-.207 1.482.035 2.623.256 3.019.587.277.231.355.256.456.145.177-.196-.065-.417-.783-.716-.555-.23-.89-.475-.572-.417.076.014.48.033.9.043l.763.018-.317-.315c-.175-.174-.315-.385-.311-.469.01-.221.613-.41 1.727-.54.537-.063 1.013-.135 1.058-.16.045-.025.373-.057.728-.071.356-.014.785-.06.955-.104.17-.043.632-.116 1.026-.162 1.091-.127 1.191-.15 1.127-.266-.053-.093-.426-.089-1.191.014-.097.013-.203-.022-.234-.079-.092-.165.141-.349.586-.461.502-.127.522-.217.087-.396-.442-.183-.638-.183-.717 0-.037.083-.184.19-.327.238-.144.047-.263.133-.266.19-.006.139-.284.123-.324-.017-.022-.078-.116-.082-.32-.014a1.737 1.737 0 01-.508.086c-.215-.01-.215-.012-.013-.134a2.8 2.8 0 01.567-.223c.979-.268 1.188-.367 1.162-.555-.047-.34-.162-.354-1.139-.137-.533.118-1.095.21-1.249.203-.154-.007-.281.029-.283.079-.006.121-.623.203-1.31.172-.33-.014-.659.035-.802.12-.188.113-.475.127-1.257.066-1.152-.09-1.406-.225-.943-.5.251-.15.49-.165 1.67-.103.757.04 1.535.11 1.729.158.292.072.376.052.488-.116.121-.181.109-.21-.115-.267l-.522-.133c-.148-.038-.776-.09-1.395-.114-1.566-.063-1.74-.229-.719-.688.464-.208.655-.233 1.455-.19a19.83 19.83 0 001.636.018 15.014 15.014 0 011.383.01c.476.031.705.002.798-.1.107-.118.081-.162-.15-.25l-.28-.108.363-.148c.517-.212 1.233-.26 1.693-.114.217.069.599.157.85.197.25.039.582.097.738.129.186.037.272.016.249-.064-.018-.066-.128-.139-.243-.16a.347.347 0 01-.253-.248c-.038-.175-.099-.198-.406-.154-.307.044-.398.01-.598-.227-.205-.242-.291-.273-.644-.232-.256.03-.432.004-.472-.069-.096-.17-.515-.16-.677.02-.084.092-.237.131-.381.097-.132-.031-.427-.023-.655.017-.447.08-.744-.066-.637-.315.033-.073.013-.136-.043-.138-.056-.003-.131.063-.167.146-.04.093-.198.144-.416.134-.423-.018-.363-.167.097-.239.293-.045.314-.069.184-.21-.09-.1-.355-.173-.699-.194-.305-.02-.606-.081-.67-.137-.064-.056-.269-.117-.455-.136l-.34-.033.419-.691c.652-1.077.907-1.341 1.285-1.337.179.003.441-.024.583-.059.255-.063.254-.064-.061-.152-.3-.083-.506-.334-.343-.417.26-.133.822-.116 1.079.033.286.166.512.158.945-.032.181-.079.284-.053.52.132.161.126.335.231.386.233.109.005.464-.633.473-.85a.152.152 0 01.159-.142c.084.003.154-.03.156-.073.002-.043-.18-.07-.405-.058-.253.013-.406-.021-.403-.091.002-.062-.03-.109-.072-.104-.2.023-.242-.036-.12-.17.144-.16.364-.199.26-.046-.034.051.022.09.126.087.176-.006.174-.031-.032-.367-.122-.198-.221-.4-.219-.448.003-.048-.078-.091-.179-.096-.425-.018-.553-.493-.154-.575.139-.029.303-.17.37-.317.273-.604.524-.862.965-.994.246-.074.43-.18.41-.238-.045-.125-.453-.133-1.212-.025-.31.044-.583.06-.607.034-.024-.025-.037-.203-.029-.394.02-.456.496-.893.856-.785.19.056.319-.003.598-.274.322-.314.382-.335.633-.227.317.137.49.039.447-.252-.022-.15-.12-.195-.459-.21-.346-.015-.418-.049-.359-.168.117-.242.136-.647.036-.794-.066-.097.035-.25.36-.545l.452-.41-.269-.045c-.148-.024-.29-.105-.315-.18-.043-.127.18-.847.468-1.515.072-.165.121-.335.109-.377-.011-.043.025-.076.081-.073a.101.101 0 00.106-.095c.008-.187 1.015-1.591 1.137-1.586.067.003.206-.08.308-.183.179-.181.178-.187-.03-.142-.119.025-.244.086-.276.134-.079.116-.455.095-.45-.025.003-.052-.075-.119-.171-.149-.142-.043-.135-.054.037-.056.259-.003.563-.293.574-.547.005-.102.127-.328.271-.502l.263-.316-.243-.124c-.135-.068-.242-.171-.24-.228.007-.146-.334-.145-.495.001-.107.098-.117.085-.052-.066.054-.125.026-.22-.084-.289-.09-.056-.161-.168-.157-.25.006-.146-.191-.224-.204-.08-.02.236-.495.562-.962.662-.661.14-.877.014-.611-.357.094-.131.141-.24.104-.241-.037-.002.051-.147.197-.323.203-.245.284-.482.343-1.006.06-.525.046-.686-.057-.69a.255.255 0 00-.202.093c-.116.17-.509.089-.633-.13-.168-.297-.377-.27-.74.095-.265.266-.332.292-.41.16-.051-.086-.065-.428-.031-.76.076-.742-.048-.912-.702-.961-.644-.049-.89-.155-.944-.409-.026-.118.029-.321.122-.45.156-.218.155-.236-.021-.246-.257-.016-.451-.199-.712-.674-.242-.438-.22-.489.339-.759.418-.201.476-.444.113-.471-.526-.04-.608-.075-.6-.255.01-.22 1.973-1.932 2.529-2.205.454-.223 1.021-.618.892-.622-.202-.006-1.055.254-1.639.5-.342.145-.714.26-.826.256-.152-.005-.209.066-.226.282-.015.187-.159.413-.409.643-.383.351-.388.352-.668.17-.291-.19-.522-.118-.534.167-.01.224-.33.434-.558.366a3.872 3.872 0 00-.522-.101c-.42-.05-.479-.397-.063-.38.203.01.41-.098.685-.356.521-.49.529-.712.027-.736-.327-.016-.862-.229-.576-.23.056 0 .024-.05-.072-.111-.096-.062-.223-.085-.282-.052-.06.033-.162.012-.227-.046-.065-.06-.346-.141-.624-.182a18.198 18.198 0 01-.531-.083c-.014-.005-.021-.1-.016-.212.007-.174-.059-.207-.456-.224-.262-.012-.524-.085-.601-.17-.074-.081-.417-.193-.761-.248-.73-.118-1.305-.363-1.262-.538.017-.067-.069-.142-.189-.166a.636.636 0 01-.335-.195.464.464 0 00-.306-.16c-.185-.009-.185-.015.003-.187.318-.292.552-.33.603-.095.026.122.092.178.162.137.221-.127 1.086-.058 1.08.086-.005.1.202.141.804.163.446.017.856.062.913.1.123.084.136-.043.023-.239-.049-.086-.252-.148-.508-.156-.359-.01-.406-.035-.298-.154.07-.077.252-.135.403-.129.357.016.433-.062.31-.319-.066-.138-.064-.227.006-.267.109-.06.126-.107.137-.361.009-.196.376-.259.817-.14.253.068.362.161.396.34.036.192.127.26.398.303.193.03.387.093.432.14.044.048.239.045.432-.005a1.14 1.14 0 01.728.043c.207.073.646.17.973.215.473.064.638.047.794-.083.194-.16.194-.169.006-.36-.108-.11-.343-.202-.539-.21a2.247 2.247 0 01-.714-.188c-.201-.095-.414-.146-.472-.113-.138.078-.707-.188-.634-.296.124-.183-.944-.508-1.612-.49-.402.01-1.108-.28-1.101-.453.004-.083-.173-.169-.462-.223-.257-.049-.559-.143-.671-.21a1.012 1.012 0 00-.389-.129c-.177-.008-.725-.447-.72-.577.002-.035.162-.122.355-.193.296-.109.595-.483.478-.598-.018-.018-.286.021-.596.088-.318.068-.895.093-1.327.057l-.763-.062.014-.327c.011-.25.075-.35.274-.429.142-.056.376-.173.52-.259a1.49 1.49 0 01.509-.18c.137-.013.345-.072.464-.131.211-.105.209-.11-.059-.22-.333-.138-.348-.261-.037-.313.318-.052 1.256-.112 1.835-.116.331-.002.558-.07.729-.217.136-.118.307-.211.38-.208.191.008 1.145-.394 1.149-.485.006-.147-.41-.094-.478.061-.037.086-.131.128-.209.094-.088-.038-.118-.017-.077.055.039.07.01.095-.074.06-.077-.03-.27.003-.43.076-.16.072-.368.105-.461.072-.094-.032-.651-.09-1.237-.126-1.243-.079-1.375-.113-1.197-.31.069-.076.097-.17.062-.207-.034-.038-.53-.101-1.103-.142a90.055 90.055 0 01-1.113-.082c-.04-.005-.046-.071-.013-.147.105-.243-.272-.302-.584-.092-.263.178-.423.19-1.589.124a58.263 58.263 0 00-1.949-.081c-.443-.006-.677-.052-.728-.144-.06-.108-.103-.11-.207-.014a.457.457 0 01-.29.11c-.103-.006-.054-.08.14-.212.163-.111.341-.305.396-.432.075-.175.192-.234.486-.245.464-.018.491-.18.054-.326-.326-.11-1.131.021-1.138.185-.002.046-.219.287-.483.536-.457.432-.712.543-.818.354-.062-.112-4.112-.358-5.952-.361-.757-.002-2.595-.267-2.769-.4-.405-.309-2.967-.077-3.849.348a.572.572 0 00-.302.379c-.024.14-.099.292-.168.34-.266.183-.963.285-1.263.184a.678.678 0 00-.555.025c-.139.07-.487.117-.774.107-.287-.01-.69.043-.897.119-.206.076-.662.152-1.013.168-.35.017-.777.084-.947.15a9.002 9.002 0 01-.774.237c-.39.101-.473.167-.528.423-.057.265-.113.305-.44.318-.205.008-.432.079-.502.157-.071.078-.19.139-.265.136-.075-.004-.189.083-.254.193a.421.421 0 01-.362.188c-.135-.006-.279.04-.321.101-.083.123-1.519.737-1.703.729-.063-.003-.365.1-.672.23-.438.185-.573.296-.634.528-.103.389-.462.797-.692.787-.101-.004-.212.081-.245.19-.034.109-.223.267-.42.35a1.422 1.422 0 00-.545.44c-.102.157-.323.35-.492.428-.168.078-.308.204-.311.28-.003.077-.124.209-.268.295-.16.095-.265.251-.272.404-.006.136-.083.304-.172.372-.461.355-.905.824-.887.936.03.176-.2.498-.584.819-.442.37-.453.485-.094 1.027.183.276.182.286-.073 1.068-.142.435-.301.864-.353.954-.052.09-.103.396-.113.678-.021.597-.087.727-.358.715-.254-.01-.257.11-.006.283.22.15.243.566.056 1-.086.2-.081.345.021.574.17.382.088.584-.261.643a11.56 11.56 0 00-.754.17c-.266.069-.524.123-.575.121-.12-.005-.307-.476-.295-.744.007-.178-.017-.192-.152-.09-.231.176-.258.085-.083-.286.158-.334.431-.415.637-.19.248.27.349-.011.336-.928-.014-.932-.051-1.112-.229-1.12-.056-.002-.076.043-.044.1.033.058-.009.102-.091.098-.083-.003-.239-.166-.348-.36-.109-.195-.291-.383-.404-.418-.176-.055-.194-.115-.122-.425.113-.485-.127-.499-.534-.032-.348.4-.548.416-1.198.094-.52-.259-.625-.434-.456-.765.077-.152.088-.393.035-.744-.07-.458-.049-.577.179-1.006.581-1.097.576-1.085.399-.95-.166.126-.372.06-.364-.118.002-.055.221-.306.485-.56.448-.427.466-.462.255-.504-.213-.043-.465.15-.709.545-.079.13-.12.126-.322-.03-.325-.25-.591-.242-.603.016-.012.28-.16.518-.545.871-.187.171-.325.4-.331.55-.014.31-.179.424-.367.253-.218-.197-.757.008-.776.296-.002.042.141.145.32.23.178.085.408.258.512.385.186.23.186.231-.032.278a.36.36 0 00-.26.265.29.29 0 01-.251.238c-.166.017-.216.1-.237.394-.049.68-.688.91-1.326.476-.245-.167-.382-.2-.573-.137-.138.046-.518.06-.846.033-.562-.047-.614-.075-.947-.497-.193-.246-.465-.53-.605-.63-.815-.59-1.342-1.018-1.547-1.256-.315-.367-.448-.346-.466.073-.012.274.04.385.233.494.983.555 2.159 1.865 2.137 2.378-.006.135.038.247.098.25.06.002.173.074.251.16.078.085.211.131.296.103.197-.067.679.451.597.641-.036.084-.266.157-.554.178-.271.02-.815.067-1.209.106-1.603.16-2.277.22-2.811.25-.79.046-1.039.094-.984.192.026.047.313.062.639.034 1.025-.087 2.518-.066 2.763.04.195.084.213.127.104.247a.396.396 0 01-.586.007c-.087-.095-.125-.09-.16.018-.22.672-.27.747-.511.769-.14.013-.294.058-.342.1-.049.043-.344-.003-.658-.103-.639-.203-.991-.222-1.198-.065-.077.059-.42.09-.761.07-.382-.021-.743.021-.937.111-.249.116-.482.125-1.108.042-.435-.058-1.028-.084-1.317-.056-.449.041-.519.077-.483.244.035.164-.015.192-.322.179-.2-.009-.451.057-.558.145-.17.141-.255.143-.671.016-1.026-.314-1.373-.362-1.694-.231-.275.111-1.387.343-1.953.406-.112.013-.385-.05-.605-.138-.488-.196-1.293-.281-4.51-.48-1.37-.084-2.603-.174-2.742-.2a1.072 1.072 0 00-.525.07c-.15.066-.301.086-.337.047-.036-.04-.44-.093-.899-.12-1.94-.113-1.916-.108-1.87-.35.036-.195-.012-.227-.415-.27-.485-.053-.92.08-.93.285-.005.134-.4.256-.533.165-.153-.104-.075-.233.156-.258.225-.024.225-.028.032-.145-.11-.067-.906-.184-1.771-.262a68.672 68.672 0 01-1.825-.18c-.14-.02-.398-.051-.576-.068-.177-.016-.386-.1-.464-.185-.118-.129-.255-.142-.793-.077-.596.072-3.123-.08-3.897-.234-.653-.13-2.427-.283-2.359-.203.04.047.279.087.53.088.253.002.457.049.455.105-.002.057.15.11.337.118.189.008.587.075.885.148.299.074.679.164.845.202.167.037.37.085.454.106a3.7 3.7 0 00.487.06c.187.013.307.066.272.118-.074.109-1.446-.017-1.98-.182-.289-.088-2.252-.378-2.834-.418-2.076-.14-4.094-.336-4.39-.425-.21-.062-.961-.155-1.671-.206-.71-.052-1.519-.132-1.796-.179l-.936-.159c-.288-.049-.427-.122-.423-.224.004-.087-.069-.141-.172-.128-.121.015-.177-.044-.17-.182.006-.142.065-.191.196-.163.112.024.172-.01.15-.086-.062-.22-.888-.433-2.124-.548-1.41-.131-1.402-.13-2.022-.431a2.985 2.985 0 00-.956-.259 5.624 5.624 0 01-1.035-.185c-.52-.149-1.42-.149-1.581 0-.034.032.158.099.427.15.269.05.64.162.823.246.184.085.501.158.706.163a4.5 4.5 0 01.875.145c.276.076.889.195 1.36.266.473.071.87.167.883.213.012.046.287.083.61.081.735-.003.928.113.733.442-.112.19-.217.23-.535.208-.218-.015-.427-.06-.465-.102-.037-.04-.22-.081-.407-.09-.186-.008-.337-.058-.335-.11.003-.061-.101-.066-.28-.012-.155.047-.42.065-.587.04-.435-.066-1.156-.344-1.151-.445.002-.047-.1-.09-.225-.094-.19-.007-.204.011-.081.107.106.083-.205.084-1.105.006-.727-.064-1.31-.162-1.39-.235-.076-.07-.56-.167-1.076-.218-.616-.06-1.072-.164-1.33-.3-.236-.126-.616-.219-.957-.234-.326-.014-.692-.1-.863-.203-.164-.098-.573-.198-.91-.223-.336-.024-.66-.078-.718-.118-.114-.077-.24-.103-2.005-.415-.612-.108-1.461-.26-1.887-.337-.427-.078-1.65-.406-2.718-.73a81.077 81.077 0 00-2.246-.656 244.5 244.5 0 00-.907-.204l-.858-.194a32.46 32.46 0 00-.98-.187c-.67-.118-1.94-.52-3.991-1.264a14.221 14.221 0 01-1.502-.662c-1.168-.62-1.248-.645-1.259-.396-.008.193-.049.205-.452.126-.244-.048-.789-.237-1.21-.422-.422-.184-.826-.337-.898-.34-.072-.004-.232-.102-.356-.22-.124-.118-.321-.219-.439-.224-.29-.014-.654-.293-1.164-.893-.305-.358-.507-.506-.7-.514-.307-.014-.321.013-.175.319.166.346.187.783.036.77-.408-.035-.488.014-.5.302-.012.25-.047.286-.222.231a.616.616 0 01-.31-.243c-.079-.14-.182-.166-.478-.125-.43.059-.723-.039-1.02-.34-.112-.115-.26-.19-.327-.167-.067.022-.316-.15-.553-.381-.333-.327-.472-.403-.61-.336-.323.155-.724-.143-1.607-1.191-.102-.122-.224-.223-.27-.225-.124-.006-.119.38.006.464.218.148.768 1.221.703 1.37-.06.138-.093.136-.31-.02-.357-.258-.552-.233-.565.073-.006.143.034.357.09.474.149.31-.045.46-.375.292-.139-.071-.254-.093-.256-.048-.005.13-1.252-.052-1.464-.214a.816.816 0 00-.377-.156c-.208-.009-.53-.193-.837-.48-.131-.122-.29-.176-.415-.142-.255.069-.726-.164-.718-.354.003-.078-.045-.113-.108-.078s-.1.199-.084.364c.017.165-.01.322-.059.35-.155.087-.695-.102-.618-.216.043-.064.023-.079-.05-.038-.07.039-.246-.069-.415-.253-.27-.295-.685-.38-.534-.109.037.066.004.087-.079.053l-.684-.277c-.441-.177-.588-.301-.785-.662-.224-.411-.492-.598-.503-.35-.002.057-.354-.096-.782-.341-.886-.507-.97-.528-1.052-.262-.058.19.07.42.237.427.143.006 1.49 1.043 1.742 1.34.13.152.276.279.325.281.049.002.23.148.4.323.172.176.366.322.43.325.066.003.133.043.15.088.016.045.277.2.579.342.552.261 1.089.718 1.08.919-.002.06.196.247.44.417.245.17.443.351.441.402-.002.051.073.096.167.1.095.004.262.1.373.212.11.112.47.266.798.34.328.076.667.2.752.276.27.243 1.421.827 2.15 1.09.825.299.95.39.887.652-.025.108-.003.198.05.2.052.002.092.078.088.169-.008.185-.072.17-.907-.209-.69-.313-1.204-.421-1.211-.255-.007.155-.737.012-1.154-.225-.27-.154-1.894-.824-2.008-.83-.028-.001.114.158.315.354.33.319.834.668 1.637 1.133.225.131.27.22.234.468-.032.22.011.342.152.43.374.237.448.42.362.897-.045.25-.105.489-.132.53-.08.116-.437-.136-.43-.303.004-.082-.027-.151-.07-.153-.041-.002-.203-.124-.36-.27-.261-.247-.393-.314-.494-.252-.022.013-.202-.19-.4-.451-.199-.261-.402-.504-.453-.539-.05-.035-.163-.208-.251-.383-.228-.456-.677-1.181-.874-1.414a.634.634 0 01-.125-.475c.04-.245-.005-.297-.401-.46-.339-.138-.447-.152-.451-.055-.003.07.06.188.141.262.08.073.144.209.14.302-.004.092.06.273.14.401.082.129.12.232.083.23-.037-.001.044.206.178.461.16.302.206.486.133.527-.062.034-.166-.019-.231-.117-.171-.257-.508-.178-.552.13-.027.188.045.309.278.47.277.193.553.73.432.84-.024.023-.186-.006-.359-.064-.452-.152-.673.161-.552.783.017.092-.058.161-.192.176-.226.025-.728-.455-.718-.686.006-.137-.271-.279-.402-.206-.05.028-.003.329.102.668.12.387.155.65.092.706-.056.048-.376.096-.713.107-.505.016-.663-.02-.907-.208-.27-.208-.531-.27-1.408-.332-.178-.012-.358.05-.44.151-.076.095-.135.122-.133.059.006-.124-.157-.198-.682-.31-.269-.059-.348-.037-.393.108-.099.321-.732.412-1.385.2-.565-.184-.964-.168-.851.034.032.058.165.11.295.116.163.007.23.065.215.188-.017.137.07.189.384.227.222.028.446.095.497.15.051.054.192.103.315.109.123.005.29.123.372.263.083.14.235.285.337.322.12.044.174.149.152.295l-.047.303c-.034.217-1.228-.076-1.218-.3.002-.046-.057-.087-.13-.09-.222-.01-.939-.744-1.1-1.127-.083-.196-.214-.36-.291-.363-.078-.003-.14-.04-.138-.082.004-.12-.597-.468-.704-.408-.138.077-.125.206.07.66l.174.405-.304.053c-.167.03-.667.005-1.111-.054-.643-.085-.943-.187-1.473-.497-.365-.214-.686-.423-.712-.464-.063-.097-.494-.348-.497-.289-.007.16.128.375.238.38.072.003.154.075.183.16.028.086.145.16.258.165.116.005.204.076.2.162a.151.151 0 00.142.159c.082.003.3.15.483.327.184.176.386.323.45.326.064.003.282.12.484.261.203.141.47.293.594.339.124.045.28.14.347.212.068.07.38.273.697.45.364.203.528.346.447.39-.07.04-.286-.018-.48-.128-.554-.312-1.007-.405-1.016-.21-.004.088.036.163.088.165.052.002.117.087.144.19.047.173.273.306 1.807 1.065.574.284.705.429.863.96.153.51.199.768.136.756-.344-.063.024.36.625.72.317.188.715.911.84 1.526.031.15.164.351.296.446.195.14.23.24.184.531-.046.297-.017.375.167.455.389.168 1.314 1.26 1.557 1.838.24.572.583.881.87.785.218-.073.215-.347-.008-.753-.108-.196-.143-.36-.084-.393.125-.07.933.065 1.436.24.42.145.501.409.122.392-.134-.006-.353.071-.488.171-.21.155-.226.207-.117.351.07.093.163.15.206.126.148-.083 1.187.328 1.417.56.127.129.432.324.677.435.245.11.503.291.574.403.07.11.192.204.27.208a.28.28 0 01.207.127c.046.08.022.091-.071.031-.077-.05-.04.031.084.179.165.199.187.28.085.314-.075.025-.152.167-.17.314-.026.2.03.301.213.395.137.07.247.163.245.207-.002.044.106.214.24.377l.417.508c.095.117.288.381.429.588l.256.376-.283.209-.284.209-.635-.711c-.35-.391-.678-.807-.73-.924-.053-.118-.218-.279-.367-.359-.149-.08-.269-.18-.267-.224.005-.108-.457-.337-.7-.348-.131-.006-.178.042-.143.147.029.085.005.153-.052.15-.215-.009-.42-.146-.415-.277.004-.074-.084-.168-.194-.208-.11-.04-.198-.14-.194-.22.003-.08-.037-.147-.089-.15-.135-.006-.493-.586-.532-.863-.019-.128-.154-.34-.302-.47-.147-.13-.24-.262-.205-.293.091-.084-.416-.682-.586-.69-.118-.005-.115.03.015.188.088.107.126.226.084.264-.042.039-.002.046.088.015.118-.04.18.022.22.213.03.148.03.305.001.349-.03.044.14.302.378.573.238.272.496.646.575.831.205.488.324.689.78 1.318.225.31.406.625.403.701a.296.296 0 00.118.226c.068.048.178.207.246.353.067.147.275.358.463.47.187.112.338.271.334.353-.005.122.022.127.155.026.195-.148.864.05 1.142.34.24.25.503.433.825.576.22.098.253.157.17.297-.073.123-.053.28.067.53.093.194.195.332.226.305.095-.084.467.35.458.535-.004.097.095.21.219.25.124.041.355.258.513.483.405.574 1.057 1.003.84.553-.055-.116-.07-.255-.033-.31.037-.055.03-.092-.017-.083-.15.03-.627-.273-.568-.36.032-.047-.014-.089-.101-.092a.156.156 0 01-.152-.157c.012-.276-.285-.841-.499-.948-.116-.059-.29-.26-.388-.446l-.177-.34.3.014c.375.017.93.233.925.361-.002.053.054.086.124.073.134-.025.995.27 1.079.369.152.18 1.691.818 2.1.87.312.04.605.189.544.277-.034.051-.014.095.045.097.205.009.26.031.314.129.033.058.153.066.299.02a.793.793 0 01.525.041c.313.135.351.233.12.31-.086.029-.158.117-.162.197-.003.08-.076.169-.161.197-.085.029-.157.102-.16.163-.007.168.95.619 1.796.846.416.112.972.322 1.236.468.264.146.563.269.663.273.1.005.237.08.304.169.087.115.285.16.695.163.61.002.82.082.81.308-.009.21.46.52 1.202.796.752.279 1.598.805 1.539.956-.022.056-.218.083-.436.06-.218-.022-.328-.012-.246.022.596.247.915.45 1.043.667.081.138.204.244.272.236.068-.008.25.044.404.116.155.072.323.133.373.135.276.012 1.007.525 1.105.776.061.155.148.262.193.236.045-.025.08.002.078.06-.003.057.06.082.137.056.088-.03.161.043.191.19.027.13.152.288.278.35.129.063.225.2.22.316-.013.276.374.457.9.421.485-.033.654.12.395.358-.221.204-.12.36.192.295.18-.037.248-.01.244.098-.011.248.461.725.709.716.37-.014.446.015.457.177l.02.302c.007.082.05.127.098.1.048-.026.084.023.08.11a.16.16 0 00.152.166c.087.004.133.045.101.092-.031.046.053.15.188.229.135.08.243.18.241.224-.002.043.155.06.348.036a.774.774 0 01.629.174c.337.26 1.434.55 1.442.38.002-.048.164-.08.36-.072.287.013.353.055.346.22-.005.111.037.205.093.208.056.002.098.096.093.208-.005.112-.05.202-.1.2-.05-.003-.123.07-.163.161-.092.214.284.66.566.673.122.005.292.143.401.323.105.173.267.317.36.321.093.005.183.043.2.086.017.043.187.157.38.254.191.097.64.33.995.52.356.19.864.38 1.13.423.498.08 1.507.541 1.616.737.034.061.152.115.263.12.11.005.223.078.252.163.028.084.229.21.446.279.216.069.37.16.34.204-.087.13-1.685-.044-2.338-.252-1.16-.37-2.169-.764-2.483-.968-.175-.113-.683-.268-1.13-.344-.447-.076-.936-.19-1.087-.256a3.874 3.874 0 00-.497-.173c-.386-.095-1.594-.609-1.658-.706-.14-.209-.918-.588-1.236-.602-.188-.008-.428-.087-.533-.173-.105-.087-.265-.163-.356-.169a.437.437 0 01-.277-.158c-.061-.081-.34-.233-.62-.339a6.895 6.895 0 01-1.116-.595c-.699-.465-2.46-1.457-2.662-1.5-.403-.088-.968-.363-1.182-.577-.135-.133-.513-.393-.84-.576a18.638 18.638 0 01-1.436-.941c-.462-.334-.891-.61-.954-.612-.063-.003-.174-.083-.246-.177-.071-.095-.404-.319-.739-.497a5.223 5.223 0 01-1.038-.757c-.433-.434-2.556-2.034-2.709-2.04-.045-.003-.241-.19-.435-.418a2.25 2.25 0 00-.845-.605c-.271-.105-.624-.327-.785-.493-.161-.167-.383-.323-.494-.348-.111-.025-.2-.099-.197-.163.011-.257-.16-.272-.4-.035l-.251.25.34.31c.186.17.489.466.672.657.183.19.36.347.395.349.131.005.422.488.417.69-.007.265.282.565.556.577.113.005.28.1.372.21.092.112.299.264.46.34.16.074.289.197.286.27-.008.173.563.764.828.858.11.04.278.146.372.236.094.09.172.13.174.086.002-.043.155.048.341.203.186.155.365.283.4.285.033.001.335.198.67.437.334.24.66.437.724.44.177.008.744.342.74.437-.002.046.12.12.273.165.152.046.77.353 1.373.684.603.33 1.178.604 1.277.608.1.005.276.12.393.259.118.137.393.356.61.486.611.364.77.487.965.745.1.132.217.218.261.194.044-.025.228.074.41.22.18.147.384.27.452.272.068.003.359.212.647.465.288.253.636.522.773.6.136.077.449.267.694.422.771.487 1.559.918 1.688.924.068.003.251.105.407.226.155.122.521.303.813.403.291.1.596.243.677.318.267.247 1.538.65 2.309.732.474.05.82.14.92.24a.886.886 0 00.4.203c.131.023.306.068.389.1.794.313 2.37.69 2.992.718.234.01.534.066.667.123.132.057.734.157 1.337.22.602.065 1.166.159 1.253.21.444.258 1.065.452 1.506.471a2.7 2.7 0 01.86.194c.413.195 1.592.517 2.272.622l.456.07-.36-.22c-.209-.128-.463-.204-.604-.18-.24.041-.24.04-.032-.116.229-.172.763-.116 1.433.15.314.124.336.156.188.269-.272.206-.207.284.353.419 1.266.303 1.565.317 1.962.095.376-.21.548-.21 1.522.013.166.038.408.088.538.113.13.024.264.093.299.153.034.06.245.148.467.194.458.095.466.096 1.575.12.45.01.842.044.872.077.03.033.225.01.433-.054.494-.149 1.123-.03.977.186-.225.332-1.597.535-1.46.215.034-.076-.023-.139-.14-.153-.108-.013-.225.042-.26.121a.247.247 0 01-.22.138c-.134-.006-.132.023.014.2.168.203.16.206-.545.172-.394-.018-.81.012-.924.067-.114.055-.55.085-.966.067-.6-.026-.77-.068-.813-.198-.048-.142-.222-.164-1.303-.16-2.285.006-2.631.046-2.9.332l-.241.255.724.139c.399.076.858.11 1.02.074.4-.088 3.492.149 3.892.298.343.128.686.174 3.168.42.864.086 1.804.236 2.087.334.31.107.572.146.658.096.23-.132.87-.066.999.105.077.102.209.139.372.105.255-.052.737.16.73.321-.004.112-.436.255-.876.29-.399.032-1.395.417-1.4.541-.002.047.397.082.888.078 3.503-.026 4.504.038 4.493.286-.008.196.88.261 1.98.147.506-.053 1.08-.091 1.277-.085.195.006 1.157.004 2.136-.005 1.812-.016 2.898.087 2.78.262-.04.056.076.094.276.092.675-.008.798.026.722.2-.044.1-.025.15.048.13.066-.02.126-.08.133-.136.014-.103.905-.308 1.277-.294.192.007.193.015.018.137-.117.08-.163.195-.126.308.05.146.137.17.48.13.831-.098 1.523-.081 1.729.042.115.07.414.148.665.175.58.062 1.57.195 1.57.21 0 .006.113.037.251.069.139.031.266.102.282.158.016.055.243.11.504.122.522.025.75.134.695.332-.02.071.026.155.103.187.082.034.113.011.076-.056-.075-.133.318-.348.46-.252.088.06.157-.218.13-.53-.013-.156.01-.156.762.013.669.15 1.45.455 1.446.565-.007.162.555.336 1.385.427.486.053 1.063.17 1.283.26.22.09.492.182.603.203.11.022.358.123.55.226.256.137.857.236 2.275.376 1.06.105 2.108.247 2.329.316.22.069.696.201 1.056.294 1.041.269 1.208.325 1.262.422.029.051.223.1.432.11.209.008.428.068.487.132.061.068.366.113.728.108.343-.004.621.027.619.069-.004.079.436.128.515.058zm-17.153-3.873c-.132-.095-.13-.117.009-.2.173-.104.649-.11.74-.01.032.034.03.126-.003.203-.07.162-.526.166-.746.007zm-18.462-1.665c-.307-.024-.64-.008-.74.035-.114.049-.18.038-.177-.03.003-.06.084-.136.181-.169.098-.032.275-.159.395-.281.178-.183.391-.235 1.188-.291a37.801 37.801 0 001.452-.128c.265-.032.457-.022.426.023-.031.046.13.091.356.101.227.01.41.06.409.113-.01.21-.336.377-.717.365a1.92 1.92 0 00-.727.138c-.177.082-.367.119-.422.081-.056-.037-.158-.026-.228.026-.176.131-.508.188-.688.118-.082-.033-.401-.078-.708-.101zm-6.295-2.782c-.115-.082-.084-.103.138-.094.164.006.257.053.218.11-.084.123-.166.12-.356-.016zm16.972.366c.075-.026.162-.019.195.016.032.036-.03.057-.136.048-.118-.01-.141-.035-.059-.064zm-2.517-.416c-.118-.129.072-.153.825-.103.401.026.726-.032 1.16-.205.408-.162.642-.206.721-.136a.85.85 0 00.314.15c.176.04.165.065-.095.22-.198.118-.556.177-1.121.187-.457.007-.849.03-.87.05-.08.072-.84-.06-.934-.163zm4.31-.214a1.22 1.22 0 01.5-.112c.238.01.242.019.06.145-.107.074-.332.124-.5.112l-.307-.022.246-.123zm-25.61-1.605c.007-.151.287-.248.491-.169.07.027.124.087.122.135-.003.074-.105.105-.542.165-.042.006-.074-.053-.07-.13zm43.098-.446c.002-.05-.043-.066-.1-.034-.058.033-.103.013-.1-.044.004-.106.244-.147 1.23-.213.524-.035.551-.026.389.125-.276.256-1.429.392-1.42.166zm20.384.714a.128.128 0 01.176-.038c.066.046.054.098-.036.148-.168.094-.24.037-.14-.11zm-18.695-.924c.037-.055.113-.098.169-.095.056.003.072.049.035.104-.037.054-.113.097-.169.094-.056-.002-.072-.049-.035-.103zm51.354 1.843c-.03-.053-.189-.132-.355-.176-.165-.044-.299-.128-.296-.186.003-.064.113-.074.281-.023.152.045.424.113.604.151.386.081.44.358.068.342-.137-.006-.273-.055-.302-.108zm5.949.088c.001-.022.07-.037.154-.033.084.004.15.051.148.105-.002.055-.072.07-.154.034-.083-.036-.149-.084-.148-.106zm-4.108-.275c-.176-.145-.178-.172-.024-.313.134-.123.211-.13.379-.03.207.123.265.328.128.454-.11.1-.273.063-.483-.11zm-7.019-.506c-.177-.148-.379-.272-.449-.275-.245-.01-.986-.47-.918-.57.043-.064.096-.051.144.034.058.104.109.11.223.023.278-.212 2.249.605 2.352.975.025.092-.117.122-.497.105-.412-.018-.606-.084-.855-.292zm6.251.05c.075-.026.162-.018.195.017.032.035-.029.057-.136.047-.118-.01-.141-.035-.059-.064zm-39.186-1.868c.187-.258.749-.41 1.864-.505.496-.042 1.339-.17 1.872-.284 1.108-.237 1.072-.233 1.066-.114-.004.099-1.08.51-1.307.5-.077-.004-.141.026-.143.066-.007.16-.59.255-1.619.26-.478.003-.799.056-.9.148-.086.08-.341.14-.567.136-.388-.009-.403-.02-.266-.207zm6.792.175c.143-.068.461-.14.706-.16.393-.033.421-.023.244.09-.174.112-.489.168-1.057.188-.084.003-.036-.05.107-.118zm-1.873-.25c.467-.197 1.29-.229.922-.036-.252.132-.743.232-1.083.22-.216-.008-.192-.035.161-.184zm25.683.72c.003-.056.093-.098.202-.093.108.004.223.055.256.113.033.059-.055.1-.202.093-.143-.006-.258-.057-.256-.113zm2.973-.438c.001-.024.073-.041.16-.038.087.004.128.053.09.108-.062.092-.255.038-.25-.07zm-27.379-1.432c.155-.13.666-.204.661-.096-.004.102-.228.172-.562.178-.119.001-.159-.031-.099-.082zm24.124.338c-.029-.05-.218-.131-.421-.178-.202-.048-.426-.15-.497-.228-.231-.252.148-.27.575-.027.213.12.449.222.525.226.075.003.223.077.327.164.181.15.174.157-.133.147-.179-.006-.348-.053-.376-.104zm11.203-.194c-.395-.155-.392-.156.309-.069.833.104.961.142.955.284-.006.128-.684.013-1.264-.215zm1.386-.242c.001-.025.047-.043.103-.04.056.002.1.052.097.111-.002.06-.049.078-.103.04-.055-.036-.098-.087-.097-.111zm-2.317-.007c-.124-.04-.224-.112-.222-.161.006-.15.479-.08.607.09.135.178.021.2-.385.071zm1.914-.101c.003-.081-.116-.213-.266-.293-.15-.08-.284-.227-.299-.325-.022-.148.051-.176.424-.16.248.011.658.058.91.104.38.07.466.126.495.328.03.204-.008.244-.23.248-.479.007-.512.014-.645.136-.178.163-.397.142-.389-.038zm2.548-.048c.002-.056.096-.097.208-.093.112.005.201.055.199.111-.003.056-.096.098-.208.093-.112-.005-.201-.055-.199-.11zm-1.119-.038c.006-.128.286-.207.464-.13.254.111.159.249-.163.235-.167-.008-.303-.055-.301-.105zm-5.763-.432c-.237-.044-.456-.125-.487-.18-.081-.145 1.258.073 1.629.265.296.154.292.155-.204.076a52.53 52.53 0 01-.938-.16zm2.894-.316c.037-.055.133-.096.213-.093.081.004.145.052.142.108-.002.056-.098.098-.213.093-.116-.005-.179-.054-.142-.108zm-.559-.209a.52.52 0 01.286.04c.143.062.146.086.019.157a.24.24 0 01-.287-.04c-.094-.085-.1-.134-.018-.157zm-3.292-.359c.034-.05.005-.112-.064-.139-.07-.026-.008-.066.137-.087a1.02 1.02 0 01.457.044c.178.075.173.089-.066.177-.328.12-.544.122-.464.005zm-1.555-.405c.002-.056.075-.07.162-.032.087.037.203.07.257.073.055.002.072.044.039.094-.077.114-.464 0-.458-.135zm7.32-.586c-.615-.095-1.031-.22-1.32-.4-.233-.144-.527-.281-.654-.305-.315-.06-.357-.286-.064-.337.71-.123.913-.107.849.07-.093.253.432.43 1.394.47.77.033 1.975.402 1.967.602-.01.227-.075.224-2.172-.1zm-3.247-.591c.003-.056.177-.109.387-.117.298-.011.381.022.376.15-.006.129-.092.155-.387.117-.209-.027-.378-.094-.376-.15zm-.408-.554c-.026-.088.089-.123.366-.111.318.014.416-.025.465-.184.045-.147.148-.197.377-.188.319.015.36.076.237.36-.045.104-.196.153-.439.144-.203-.009-.441.027-.527.078-.198.118-.431.07-.479-.099zm-115.54-5.252c-.079-.102-.13-.22-.114-.264.05-.133-.25-.284-.598-.301-.204-.01-.395-.098-.497-.228-.09-.116-.225-.214-.298-.217-.073-.003-.158-.08-.188-.169-.03-.09-.164-.21-.299-.269-.134-.058-.222-.161-.196-.23.065-.17.608-.076.753.13.072.103.212.15.377.125a.566.566 0 01.468.158c.114.108.303.23.42.273.256.093.785.672.807.884.036.352-.387.424-.634.108zm119.469 4.899c-.096-.129-.074-.14.137-.075.139.043.309.082.379.086.069.003.125.052.122.107-.006.15-.506.058-.638-.118zm7.071-2.319c.13-.144.606-.164.6-.026-.007.151-.125.201-.425.18-.235-.017-.27-.048-.175-.154zm4.439-1.678c.206-.121.442-.11.356.015-.037.055-.167.094-.29.088-.181-.009-.193-.028-.066-.103zm1.743-.241c.376-.087.512-.08.507.026-.004.106-.511.173-.664.088-.055-.03.016-.081.157-.114zm-2.297-.223c-.125-.137.105-.204.553-.16.148.014.204.07.164.161-.061.142-.587.141-.717-.002v.001zm-.8-.004c.037-.054.213-.087.391-.072l.324.026-.308.064c-.447.094-.481.092-.407-.017zm-4.664-1.632c.002-.056.05-.1.106-.097.055.002.099.05.097.106a.102.102 0 11-.203-.009zm6.182-1.664c-.117-.014-.106-.05.052-.158.225-.156 1.049-.154 1.274.002.11.077.074.112-.16.154-.166.03-.349.064-.405.078a1.279 1.279 0 01-.356-.018 9.599 9.599 0 00-.405-.058zm-1.321-.062c-.081-.058-.125-.109-.097-.113.028-.005.27-.02.536-.036.393-.023.484.002.478.131-.008.184-.666.197-.917.018zM29.006 30.267c.035-.05.017-.122-.038-.16-.15-.103-.113-.261.06-.254.095.004.149.103.142.262-.006.14-.06.252-.119.25-.059-.003-.08-.047-.045-.098zm-11.05-.744c-.063-.192.022-.188.342.015l.248.156-.269-.008c-.148-.005-.292-.078-.32-.163zm.456-1.063c-.157-.08-.305-.093-.418-.036-.425.215-1.412-.335-1.77-.986l-.178-.325.512.084c.31.05.598.17.727.302.118.12.294.222.392.226.098.004.205.055.238.114.033.058.097.085.142.06.046-.026.254.118.463.32.383.37.339.469-.108.24zm151.038 5.85c-.013-.012.039-.098.115-.193.094-.117.334-.183.745-.204.583-.03.601-.024.452.155-.307.369-.454.427-.876.343a3.77 3.77 0 01-.436-.102zm1.531-5.825c.114-.105.327-.016.32.135-.005.12-.354.169-.396.055-.018-.05.016-.135.076-.19zm.14-.4c.006-.137.237-.52.357-.591.345-.205.632.301.329.58-.261.239-.697.246-.686.012zm.72-1.093c.172-.302.358-.284.344.033-.008.183-.136.269-.387.258-.086-.004-.074-.087.043-.29zM24.624 19.917c.003-.084.052-.151.108-.149.056.003.099.073.095.157-.004.084-.052.151-.108.149-.056-.003-.099-.073-.095-.157zm69.49-.811a7.642 7.642 0 00-.858-.182c-.278-.042-.554-.144-.613-.226-.124-.176-.374-.204-.648-.072-.182.088-1.587-.1-1.704-.227-.024-.027.021-.12.1-.208.129-.142.405-.14 2.535.009 1.315.091 2.641.203 2.948.247.534.076 1.303.385 1.3.522-.001.036-.268.124-.594.196-.637.142-1.897.111-2.466-.06zm-5.568-.784c-.26-.05-.501-.193-.451-.267.145-.213 1.886.054 1.876.288-.005.114-.509.156-.92.077l-.505-.098zm82.591 2.87c.026-.776.12-1.245.246-1.24.057.003.073.05.036.104-.037.054-.001.102.081.105.163.007.298.287.16.332-.048.016-.116.188-.152.383-.19 1.023-.4 1.203-.371.315zm-101.83-4.208c-.248-.12-.36-.123-.644-.02-.278.102-.48.098-1.068-.023-.398-.082-1.267-.192-1.93-.245-.664-.053-1.279-.14-1.367-.192-.088-.052-.755-.122-1.482-.156s-1.525-.124-1.773-.2a10.62 10.62 0 00-1.063-.241c-.335-.057-.697-.156-.805-.22-.107-.063-.547-.19-.977-.282-.48-.102-.78-.215-.777-.291.007-.15 2.05.011 2.139.168.029.052.644.14 1.366.195 1.346.103 3.58.399 3.717.492.042.029.716.101 1.498.161.781.06 1.52.15 1.643.2.122.052.495.116.827.144.333.028.727.122.877.208.15.086.344.16.43.163.189.008.203.175.02.24-.202.071-.31.054-.632-.101zm15.225-.01a.102.102 0 11.203.008.102.102 0 01-.106.098.102.102 0 01-.097-.107zm-3.395-.113c-.785-.128-.324-.25.603-.16.448.044 1.01.097 1.25.118.25.021.38.068.306.11-.154.086-1.464.045-2.159-.068zm-.925-.076c-.033-.059.045-.1.176-.093.189.01.204.03.078.104-.195.114-.184.114-.254-.011zm30.825.41c-.528-.294-.561-.517-.074-.495.338.015.956.447.946.663-.007.162-.424.082-.872-.168zm-54.915-2.372c-.107-.075-.09-.108.082-.154.233-.063.421.015.414.172-.005.12-.314.11-.496-.018zm-37.177-1.796a5.178 5.178 0 00-.34-.474c-.093-.112-.169-.225-.168-.253.005-.114.556-.017.7.122.128.124.636.272 1.055.308.052.004.063.035.027.07-.037.033-.025.148.026.255.101.212-.013.258-.182.073-.075-.083-.146-.073-.25.036-.235.243-.672.174-.868-.137zM113 17.104c-.195-.178-.194-.426.003-.417.189.008.656.245.653.33-.006.121-.235.28-.367.254a.766.766 0 01-.289-.168zm58.186 2.198c.087-.08.116-.067.111.048-.009.202-.151.333-.195.18-.019-.066.019-.169.084-.228zm-109.77-4.716a.153.153 0 01.16-.146c.158.007.196.13.074.241-.122.112-.24.064-.234-.095zm-41.412-3.187c.003-.056-.068-.105-.156-.109-.238-.01-.103-.254.156-.28.179-.02.22.027.21.238-.006.144-.056.26-.112.257a.102.102 0 01-.098-.106zm145.076 5.727c.002-.056.053-.1.112-.097.059.002.077.049.04.104-.037.054-.087.098-.112.097-.024-.002-.043-.048-.04-.104zm-40.834-2.028c-.012-.168.039-.33.118-.376.214-.123.293-.094.284.107a.48.48 0 00.1.301c.154.168-.006.353-.263.304-.156-.029-.224-.125-.239-.336zm-4.499-.05a.83.83 0 01.218-.25c.147-.083.118.194-.035.335-.198.181-.31.13-.183-.084zm46.067 1.628c.259-.165.392-.083.204.125-.072.08-.197.115-.278.08-.118-.052-.103-.092.074-.205zm-2.592-1.697c-.226.208-.569.118-1.505-.398-.498-.274-.958-.502-1.022-.507-.171-.012-.446-.473-.359-.6.041-.061.2-.128.353-.149.152-.02.325-.065.383-.098.059-.032.105-.016.102.037-.006.138.559.272 1.21.287.409.01.591.06.675.185.159.235 1.552.54 1.917.418.189-.063.302-.053.376.03.077.087.009.189-.251.374-.405.29-1.573.571-1.679.405-.044-.067-.115-.061-.2.016zm-36.714-1.859c-.277-.327-.286-.377-.119-.66.155-.262.091-.317-.468-.408-.605-.098-.714-.284-.504-.86.41-1.124.94-1.912 1.851-2.756.937-.867 1.318-1.17 1.462-1.163.047.002.172-.085.278-.192.106-.108.236-.194.289-.192.053.003.269-.119.48-.27.339-.243.852-.525 1.684-.926.143-.069.313-.123.378-.12.065.002.41-.119.767-.27.357-.15.688-.246.736-.213.048.032.144.016.214-.035.07-.052.416-.162.77-.244.353-.082.645-.19.647-.241.002-.055.074-.052.178.007a.594.594 0 00.327.076c.498-.08 1.588-.3 2.212-.448 1.196-.283 2.053-.343 4.177-.292 1.375.033 2.178.008 2.499-.078.694-.185 1.24-.216 1.679-.095.499.137.598.249.419.472-.128.161-.374.172-2.576.11-1.339-.036-2.642-.053-2.894-.037-2.339.152-3.633.323-4.109.544-.27.125-.306.174-.184.25.086.053.302.058.498.01.596-.143 1.496-.166 1.566-.04.088.158-.297.27-1.415.41-.519.066-1.131.2-1.36.298-.228.098-.881.368-1.451.599-.569.231-1.155.521-1.301.644-.145.123-.546.363-.889.532-.344.17-.797.467-1.007.66-.21.194-.703.633-1.095.976-.393.343-.788.728-.879.854-.191.266-.371.286-.542.061-.217-.286-.298-.175-.325.447-.024.55-.053.624-.277.715-.138.055-.278.19-.311.298a.4.4 0 01-.274.242c-.217.047-.256.125-.234.472.014.224-.448 1.162-.57 1.157-.044-.002-.191-.134-.327-.294zm38.317.63c-.168-.099-.185-.159-.091-.317.162-.275.601-.237.699.06.042.132.036.247-.016.264-.05.016-.069.07-.041.12.064.114-.279.035-.551-.127zm-.831-.485c-.033-.099.034-.139.218-.13.25.01.254.018.068.142a1.545 1.545 0 01-.218.131c-.011 0-.042-.065-.068-.143zm-30.4-1.816c-.037-.066.011-.172.107-.236.095-.064.175-.174.179-.244.004-.1-.037-.099-.179.003-.161.116-.168.113-.056-.019.071-.083.318-.247.55-.364l.421-.214.244.267c.134.147.242.308.24.357-.002.05-.179.166-.393.258-.214.092-.459.2-.545.241-.231.11-.491.088-.568-.049zM20.051 6.1c-.116-.17-.208-.358-.205-.417.009-.208.33-.086.625.237.242.264.272.344.153.413-.243.14-.353.095-.573-.233zm112.53 4.83c-.053-.186.155-.138.218.05.034.101.009.147-.064.119a.286.286 0 01-.154-.169zm.402-.297c-.078-.163-.036-.238.244-.429.472-.322 1.72-.924 1.9-.916.238.01.165.191-.146.367-.158.09-.36.238-.448.331-.285.303-.903.56-1.025.427-.08-.088-.111-.047-.12.156-.014.324-.262.363-.405.064zm2.984-.04c-.03-.09.007-.266.081-.392.106-.179.254-.238.674-.269.54-.04 1.169.126 1.161.305-.002.051-.109.13-.237.176-.19.068-1.234.292-1.545.332-.044.006-.104-.063-.134-.152zm27.185.53c-.163-.08-.139-.093.13-.068.181.017.328.067.326.111-.004.102-.199.083-.456-.043zm-25.02-1.5c.273-.15 1.111-.203 1.105-.07-.003.061.076.09.175.062.115-.031.136-.02.058.032-.068.044-.436.078-.818.076-.507-.003-.648-.03-.52-.1zm21.405-5.35c.224-.22.926-.612 1.084-.605.13.005.024.24-.25.555-.246.283-.36.336-.693.322l-.399-.018.258-.253zm-65.138 58.94a1.594 1.594 0 00-.501-.184 3.9 3.9 0 01-.69-.222c-.23-.1-.394-.125-.435-.065-.036.053-.006.106.067.118l.245.038c.062.009.174.07.248.137.075.066.386.161.692.211.44.072.518.065.374-.033zm-3.726-.157c.002-.056-.062-.105-.142-.108-.08-.004-.177.038-.214.092-.037.055.027.104.142.109.115.005.211-.037.214-.093zm-1.049-.95c.106-.116.089-.13-.104-.077-.164.044-.248.015-.286-.1-.062-.186-.217-.212-.444-.074-.135.082-.13.113.04.223.279.18.645.193.794.028zm17.278.728c-.066-.072-.146-.107-.179-.077s.021.09.12.132c.142.061.154.05.059-.055zm-37.066-3.048c.226-.08.238-.104.093-.194-.228-.143-.81.041-.598.189.172.12.176.12.505.005zm37.504 1.554c.1-.056.097-.087-.013-.134a.347.347 0 00-.272.01c-.1.056-.097.087.013.135.078.034.2.03.272-.011zm-1.188-.022a.392.392 0 00-.254-.011c-.072.025-.015.05.124.057.14.006.198-.015.13-.046zm1.912-.053c.135-.08.133-.093-.016-.101-.094-.005-.202.036-.239.09-.085.125.05.131.255.011zm-6.998-.309c.217-.114.195-.436-.032-.49-.178-.044-.605.357-.529.494.061.108.352.106.561-.004zm2.35.04c.099-.024.183-.105.186-.181.008-.18-.332-.303-.62-.225a2.54 2.54 0 01-.53.063c-.408.002-.498.243-.097.26a5 5 0 01.591.07c.159.03.371.036.47.012zm7.608.097l.359-.054-.371-.096c-.277-.071-.433-.057-.611.057l-.239.153.252-.003a5.56 5.56 0 00.61-.057zm-46.905-2.061c.04-.058.051-.128.026-.156-.026-.028-.077.019-.114.104-.076.176-.019.21.088.052zm-.612-.062l.514-.102-.432-.066c-.426-.065-.915.066-.783.21.079.087.042.089.7-.042zm-1.832-.038c.037-.054-.004-.102-.09-.106-.088-.004-.161.039-.164.095-.002.056.039.104.092.106.052.002.125-.04.162-.095zm33.306 1.065c-.374-.209-1.919-.364-1.926-.195-.004.082.633.174.987.144.07-.006.125.037.123.095-.003.062.239.115.58.128l.584.021-.348-.193zm22.09.833c-.065-.073-.146-.108-.179-.078-.032.03.022.09.12.132.143.062.155.05.059-.054zM89.37 59.015c-.065-.117.229-.19.68-.17.219.009.4-.029.402-.085.003-.056-.052-.11-.122-.12l-.352-.053a1.057 1.057 0 00-.5.093c-.15.07-.336.125-.414.121-.24-.01-.162.17.1.233.137.033.23.024.206-.02zm77.864 3.106c.14-.044.043-.1-.348-.204-.757-.2-1.619-.301-1.554-.184.03.054.169.102.309.108.14.006.34.062.444.123.243.145.9.234 1.149.157zm-79.44-4.198c.04-.058.051-.129.026-.157-.026-.027-.077.02-.114.104-.076.177-.019.21.088.053zm79.644 3.282c.002-.043-.101-.153-.229-.246-.195-.14-.292-.15-.602-.058-.332.098-.351.122-.189.233.2.138 1.015.195 1.02.071zm-55.497-2.62c.112-.066.06-.109-.211-.172-.425-.1-.739-.069-.745.072-.006.133.765.214.956.1zm-20.434-1.824c.225-.034.614-.105.864-.158.354-.074.47-.066.527.036.057.102.115.098.264-.02.294-.231.57-.304.986-.26.257.026.402-.008.445-.107.09-.206.523-.274.75-.118.153.105.27.103.588-.011.645-.233 1.523-.424 1.875-.409.18.008.422-.03.537-.086.222-.107 1.102-.31 1.655-.383.609-.08.533-.212-.104-.182-.39.018-.671-.016-.754-.09-.146-.133-.53-.067-1.045.18a1.698 1.698 0 01-.668.138 3.894 3.894 0 00-.767.073c-.655.137-.683.138-1.091.045-.214-.05-.411-.055-.44-.014-.088.13-.957.176-1.153.06-.102-.061-.23-.077-.282-.035-.052.042-.328.148-.611.236a5.117 5.117 0 00-.727.278 2.178 2.178 0 01-.568.18 2.008 2.008 0 00-.62.228 1.984 1.984 0 01-.62.227c-.198.033-.43.096-.516.14-.196.101.9.14 1.475.052zm66.231 2.7c.005-.119-.071-.167-.421-.267-.382-.11-.358.08.03.234.382.153.386.153.391.033zm-48.013-2.448l.412-.107-.311-.125c-.272-.11-.35-.098-.615.101-.265.198-.278.229-.101.233a3.03 3.03 0 00.615-.102zm-3.747-.125c.122-.043.251-.122.287-.175.037-.053.156-.069.267-.035.12.037.203.012.206-.063.004-.081-.102-.114-.301-.094-.169.018-.306-.002-.304-.044.005-.12-.917-.317-1.32-.282-.251.022-.416-.022-.522-.137-.265-.29-.675-.22-.827.142-.058.138-.02.203.149.256l.227.072-.25.048c-.293.058-.412.264-.147.256a.767.767 0 00.286-.063c.137-.076.729-.016.819.083.098.107 1.155.134 1.43.036zm-.364-.17c.147-.162.415-.189.409-.04-.004.084-.187.156-.453.18-.05.004-.03-.058.044-.14zm2.053.143c.377-.018.559-.066.515-.137-.038-.06-.179-.122-.313-.136-.135-.015-.28-.088-.322-.163-.06-.104-.08-.106-.086-.008-.003.07-.093.123-.199.118-.187-.008-.391.253-.25.32.039.018.334.02.655.006zm-5.003-.22c.005-.129-.203-.138-.407-.018-.122.072-.095.095.123.106.153.008.281-.032.284-.088zm7.44-.138l.361-.112-.433-.017c-.239-.01-.457.016-.486.059-.098.145.196.182.558.07zm-2.025-.283c.005-.107-.188-.161-.25-.07-.038.056.003.104.09.108.087.004.159-.013.16-.038zm59.612 1.827c.494-.136.518-.155.23-.177a1.79 1.79 0 00-.584.062c-.32.106-.872-.088-.863-.303.005-.115-.079-.136-.378-.096a2.439 2.439 0 00-.54.127c-.181.088-.16.1.596.336.674.21.93.219 1.539.051zm-54.01-2.356c.239-.348-.077-.756-.425-.55-.1.059-.127.282-.079.658.02.16.373.084.504-.108zm40.782 1.795c.002-.05-.067-.121-.154-.16-.273-.118-.365-.083-.214.082.162.177.362.22.368.078zM39.904 52.279c.215-.127.055-.316-.278-.33-.258-.011-.5.13-.403.236.097.105.556.169.681.094zm74.94 2.956c.002-.056-.039-.104-.092-.106-.052-.002-.125.04-.162.095-.037.055.004.102.091.106.087.004.16-.039.163-.095zM36.331 51.6c-.215-.122-.483-.224-.597-.227-.198-.006-.197.004.024.205.135.124.382.217.597.227l.366.016-.39-.221zm69.937 2.95c.396-.087.832-.156.969-.153.55.012.025-.193-.682-.266-.731-.075-.754-.07-1.131.248-.373.314-.377.324-.13.327.14.001.578-.069.974-.156zm59.215 2.673c.085-.224.089-.804.006-.86-.061-.042-.082-.027-.047.035.034.062-.062.135-.221.168-.257.053-.267.07-.11.196.095.075.17.187.168.248-.005.099.176.288.204.213zM38.725 51.591c.125-.081.11-.094-.074-.062-.127.023-.23-.004-.227-.058.003-.054-.042-.072-.1-.04-.057.033-.102.018-.1-.032.002-.05-.053-.097-.123-.105a4.634 4.634 0 01-.78-.212c-.1-.037-.218-.016-.261.047-.107.157.157.319.319.196.134-.102.377-.01.294.11-.025.038.076.075.224.084.149.008.36.05.47.094.11.044.271.034.358-.022zm.512-.069c.002-.055-.064-.104-.148-.108-.084-.004-.155.04-.157.095-.003.056.064.105.148.109.084.003.154-.04.157-.096zm128.331 5.413c.034-.05.245-.114.47-.142.306-.038.412-.099.418-.24.014-.34-.293-.423-.649-.176-.399.278-.888.394-.88.209.003-.072-.023-.104-.057-.072-.035.031-.037.154-.005.271.04.152.143.218.349.227.161.008.32-.028.354-.077zm-59.174-2.558c.038-.034.047-.1.021-.148-.059-.105-.35-.017-.355.108-.005.104.233.133.334.04zm-3.765-.253c.255-.082.484-.09.679-.024.244.081.305.066.352-.087.067-.218-.145-.343-.317-.185-.066.061-.304.09-.529.063-.388-.045-.71.078-.719.274-.005.114.064.109.534-.041zm59.595 2.55c.183-.06.188-.076.039-.145a.855.855 0 00-.383-.053c-.202.023-.204.032-.039.144.097.067.269.09.383.053zm-129.04-5.615c.002-.054-.09-.127-.203-.162-.132-.04-.194-.02-.172.057.042.149.369.24.374.105zm74.374 3.105c.101-.148 0-.18-.321-.098-.327.082-.325.096.029.151.127.02.259-.004.292-.053zm-6.105-.352c.039-.059.05-.13.023-.16-.077-.084-.786.044-.79.144-.006.129.681.143.767.016zm-68.766-3.075c.007-.33-1.282-.94-1.296-.613-.006.136.22.336.387.344.087.004.286.082.442.173.314.181.464.212.467.096zm73.106 2.697c.87-.19.911-.21.65-.323a.772.772 0 00-.457-.03 1.42 1.42 0 01-.485.039c-.309-.037-.852.197-.775.335.074.134.383.127 1.067-.021zm58.247 2.474c.014-.34-.639-.658-1.329-.648-.385.005-.139.338.368.498.276.087.604.191.728.232.164.054.228.032.233-.082zm-27.497-1.169c.037-.054-.002-.102-.085-.105-.084-.004-.183.038-.22.092-.037.055.001.102.085.106.084.004.183-.038.22-.093zm31.82 1.025c.038-.087.073-.26.079-.384.005-.124.063-.275.128-.334.257-.237-.015-.32-1.043-.323-1.777-.005-2.323-.063-3.572-.385-1.719-.444-1.762-.452-1.767-.334-.003.058.164.168.371.244.207.076.547.312.756.525.209.213.353.334.32.268-.127-.252.997-.233 1.307.022.119.098.605.202 1.811.389.498.077 1.006.212 1.129.301.286.206.396.208.481.011zm-134.87-6.029c.112-.038.336-.048.497-.023.505.082.13-.243-.41-.355-.564-.116-.471-.09-1.023-.283-.248-.087-.486-.152-.529-.144-.042.008-.075-.026-.073-.076.007-.153-.314-.253-.977-.307-.347-.028-.688-.102-.756-.163-.069-.062-.317-.173-.551-.247-.235-.074-.534-.252-.666-.396-.132-.144-.304-.265-.384-.268-.08-.004-.201-.082-.27-.173-.076-.1-.226-.153-.372-.131-.164.024-.262-.02-.297-.133-.124-.404-1.763-1.824-2.123-1.84a.31.31 0 01-.23-.143c-.095-.17-.818-.553-.901-.477-.072.067.461.59.61.598.056.003.263.173.46.378.198.204.406.374.464.376.058.003.241.15.408.328.166.178.432.355.59.395.16.039.308.129.332.2.05.152 1.017.906 1.935 1.51.354.232.739.516.856.63.155.152.355.212.753.226.349.011.763.117 1.16.295.618.279 1.117.353 1.497.223zm71.423 2.965c.202-.05.487-.164.634-.252.147-.089.457-.17.691-.182.566-.028.789-.224.279-.247-.205-.008-.398-.044-.43-.078-.031-.035-.217.027-.412.137-.274.153-.447.18-.753.117-.219-.045-.403-.047-.409-.004-.006.042-.029.15-.051.24-.069.288.062.367.451.27zm55.862 2.105c.169-.018.372-.081.452-.142.118-.09.091-.126-.144-.194a10.13 10.13 0 01-.506-.16c-.164-.06-.234-.028-.293.132-.042.116-.139.207-.216.204-.077-.003-.17.038-.207.093-.068.1.314.128.914.067zm-1.431-.076c.092-.136-.274-.348-.481-.279-.165.056-.234.233-.095.242.042.002.173.035.291.072.118.038.246.022.285-.035zm10.717-1.533c.004-.084-.117-.18-.27-.218a8.822 8.822 0 01-.762-.246 6.422 6.422 0 00-1.159-.267c-.371-.047-.85-.157-1.063-.243-.214-.086-.668-.17-1.011-.186a5.95 5.95 0 01-1.075-.156c-.333-.093-.554-.098-.836-.02-.481.136-.415.28.142.307 1.058.051 4.978.775 5.482 1.012.427.201.544.205.552.017zm1.689-.566c.059-.089-.125-.273-.327-.328-.103-.028-.092.023.037.18.203.245.219.254.29.148zm.45-.068c-.032-.035-.12-.042-.195-.016-.082.029-.059.054.059.064.107.01.168-.012.136-.047zm-10.548-.618c.349-.113.238-.177-.189-.108-.223.036-.301.082-.208.123.083.035.261.029.397-.015zm1.461-2.109c.079-.18-.101-.327-.242-.197-.065.06-.051.14.038.22.11.1.154.095.204-.023zm-1.293-.192c-.033-.036-.191-.08-.352-.099a15.578 15.578 0 01-.806-.127c-.431-.078-.515-.067-.521.067-.006.134.136.166.866.192.48.018.846.002.813-.033zM25.131 43.362c.002-.053-.04-.127-.095-.164-.054-.037-.102.005-.106.092-.004.087.04.16.095.163.056.002.104-.039.106-.091zm-.69-.6c-.254-.297-.39-.339-.399-.123-.007.17.103.26.407.332.216.052.215.05-.008-.21zm138.701 6.012c-.032-.058-.124-.108-.205-.111-.08-.004-.148.04-.151.095-.002.056.09.106.205.111.115.005.183-.038.151-.095zm1.644.002c-.103-.113-.67-.155-.674-.05-.002.05.164.098.369.107.205.009.342-.017.305-.057zm-140.84-6.287c.006-.114-.31-.366-.716-.572-.5-.253-.506-.249-.176.147.157.188.284.374.282.414-.002.04.134.074.302.077.168.002.307-.027.309-.066zm138.88 5.357c.003-.055-.065-.076-.151-.047-.085.029-.155.07-.156.092-.001.022.067.043.15.047.084.003.155-.038.157-.092zM22.711 41.619c.037-.056-.003-.104-.09-.108-.18-.008-.208.052-.07.146.05.034.122.017.16-.038zm-.612-.4c.128-.118.085-.212-.128-.277-.151-.047-.2-.02-.182.099.027.182.198.28.31.178zm141.233 6.073c-.032-.035-.12-.043-.195-.017-.082.03-.059.055.059.065.107.009.168-.013.136-.048zm10.926-3.542c.077-.115-.187-.127-.559-.025-.232.063-.22.073.117.097.206.015.405-.018.442-.072zm2.668-.87c.152-.14.065-.235-.226-.248-.204-.009-.308.038-.312.14-.007.154.4.235.538.108zm-.735-.27a.767.767 0 00-.351-.115c-.168-.007-.178.01-.055.097.081.058.239.11.351.114.169.008.178-.009.055-.096zm-156.935-7.3c.12-.133.07-.269-.1-.276-.05-.002-.064.043-.032.1.032.058.01.103-.05.1-.059-.002-.109.041-.111.097-.007.145.152.133.293-.022zm151.317 1.629c.25-.238.282-.314.17-.394a.473.473 0 00-.319-.065c-.099.02-.203-.008-.232-.06-.072-.128-.419-.136-.504-.012-.106.157.029.52.185.495.077-.012.197.057.266.154.114.16.152.15.434-.118zm3.386-9.732c.037-.054.019-.101-.04-.104-.059-.002-.11.041-.112.097-.003.056.016.103.04.104.025.002.075-.042.112-.097zm.11-6.903c-.018-.124.021-.245.086-.269.086-.03.085-.046-.002-.056-.177-.02-.227.108-.134.343.077.195.08.193.05-.018zm-52.886-3.077c.013-.303.001-.316-.16-.168-.095.087-.149.233-.119.322.094.282.264.188.279-.154zm-49.664-1.945c-.032-.057-.25-.112-.485-.121-.312-.013-.386.01-.278.088.198.141.838.169.763.033zm-1.267-.133c.002-.05-.053-.099-.123-.107a2.292 2.292 0 01-.366-.1c-.18-.063-.229-.049-.198.061.044.159.68.293.687.146zm24.603.95c.003-.057-.064-.106-.148-.11-.083-.003-.154.04-.156.096-.003.056.064.105.147.108.084.004.155-.039.157-.095zm-.864-.03c.275-.05.25-.066-.237-.148-.572-.097-.843-.047-.613.113.152.106.4.116.85.035zm-25.16-1.051c.002-.025-.042-.075-.096-.112-.055-.037-.101-.02-.104.04-.003.06.041.11.097.113.056.002.103-.016.104-.041zm24.002.748c.001-.023-.068-.07-.153-.108-.09-.039-.13-.024-.098.036.056.1.248.154.251.072zm-1.37-.217c.08-.116-.01-.167-.393-.225-.636-.096-1.014-.095-1.018.003-.003.056.096.108.22.116.123.008.255.049.293.09.101.11.826.123.898.016zm83.458 3.282c.04-.091.006-.152-.084-.156-.165-.008-.209.15-.069.245.048.033.117-.007.153-.09zm-87.75-3.987a.102.102 0 00-.098-.106.102.102 0 00-.009.203.102.102 0 00.106-.097zm-6.129-.63c.12-.076.34-.142.49-.148.152-.006.276-.044.278-.084.006-.136-.675-.293-1.855-.427-.44-.05-.828-.096-.861-.101-.383-.062-.377.117.007.193.122.024.265.09.317.147.052.057.222.109.379.116.157.006.282.063.28.125-.003.07.094.092.254.06.182-.038.275-.007.312.104.064.191.12.194.4.015zm-2.73-.769c-.057-.066-.384-.15-.726-.188-.343-.037-.657-.09-.7-.117-.122-.078-3.816-.234-3.747-.158.09.098.167.107 2.152.264a65.52 65.52 0 012.468.231c.49.066.631.058.553-.032zm95.279 4.083c.287-.043.305-.18.036-.263-.134-.041-.24.002-.315.128-.061.104-.076.185-.032.18l.311-.045zm-107.1-4.767c.1-.111.098-.142-.012-.146a.624.624 0 00-.279.076c-.113.065-.11.092.012.146.083.036.208.002.279-.076zm55.495 2.38c.124-.07.131-.114.035-.219-.094-.103-.149-.106-.248-.015-.082.075-.094.154-.035.219.058.062.153.068.248.015zm-48.993-2.145c.002-.04-.18-.084-.405-.097-.225-.013-.385.019-.356.071.062.11.757.134.761.026zm-1.524-.076c.002-.049-.164-.096-.369-.105-.44-.019-.412.068.045.142.176.028.322.012.324-.037zm.536-.03a.392.392 0 00-.254-.012c-.071.025-.015.051.125.057.14.006.197-.014.129-.046zm-7.85-.394c.004-.102-.865-.263-1.003-.186-.266.15-.08.258.44.259.308 0 .561-.032.563-.073zm110.872 4.229c.274-.14.607-.45.844-.786.219-.309.091-.375-.184-.096a.968.968 0 01-.465.228.58.58 0 00-.415.305c-.232.454-.172.548.22.349zm-7.949-6.357c.018-.151-.02-.197-.133-.159a.986.986 0 01-.301.047.148.148 0 00-.151.146c-.005.1.092.157.276.166.215.009.29-.04.309-.2zm-1.628-.572c.038-.056-.043-.104-.187-.11-.14-.007-.284.033-.321.087-.038.056.043.104.187.11.139.007.284-.033.321-.087zM10.902 2.94c.002-.056-.016-.103-.04-.104-.026-.002-.076.042-.113.097-.037.054-.019.101.04.104.06.002.11-.041.113-.097zm109.04 4.056c.207-.199.28-.345.236-.474-.053-.158-.105-.124-.327.209-.407.61-.373.709.091.265zm44.954 2.094c.071-.025.107-.087.079-.137-.062-.11-.353-.027-.359.102-.004.098.075.108.28.035zm-41.143-5.396c.081-.118-.105-.247-.244-.17-.117.066-.05.252.092.259.049.002.118-.038.152-.089zm7.562-.493c.037-.054.019-.1-.04-.103-.059-.003-.11.04-.112.097-.003.056.015.102.04.103.025.002.075-.042.112-.097zm.462-.075c.002-.06-.041-.11-.097-.113-.056-.002-.103.016-.104.04-.001.025.043.076.097.113.055.037.101.019.104-.04zm.24-.064a.277.277 0 00.075-.17c.003-.064-.044-.06-.121.01-.069.063-.102.14-.075.17.028.03.082.026.121-.01zm30.876 1.132c-.246-.169-.701-.269-.706-.156-.002.057.036.106.084.108.049.002.243.036.43.076.232.05.293.04.192-.028zm3.576-.273c1.208-.028.93-.213-.432-.287-.694-.038-1.231-.11-1.265-.172-.101-.18-.451-.201-.698-.043l-.235.15.234.139c.259.154 1.23.24 2.396.213zm.93-1.277c.098-.09.043-.21-.101-.217-.084-.004-.153-.064-.155-.134-.002-.102-.014-.102-.059-.002-.032.069-.098.098-.148.064-.05-.034-.094.028-.099.137-.006.15.056.198.254.196.145-.002.283-.022.308-.044zm-.053-.787c-.032-.035-.119-.043-.194-.016-.083.029-.06.054.059.064.107.01.168-.013.135-.048z" fill="#000"/></svg>