<svg width="169" height="58" fill="none" xmlns="http://www.w3.org/2000/svg"><path d="M33.565 79.83c-.226-.153-.367-.569-.273-.808.023-.059.071-.255.106-.436.036-.18.236-.621.445-.98.21-.358.422-.825.472-1.038.05-.213.163-.521.25-.685.187-.35.656-1.692.973-2.782.123-.425.277-.927.342-1.115.064-.189.134-.42.156-.514.022-.094.166-.42.32-.724.265-.526.356-.845.487-1.706.032-.207.154-.554.272-.77.197-.365.22-.523.298-2.045.071-1.393.112-1.703.258-1.99.108-.21.2-.619.242-1.076.038-.405.123-.93.189-1.166.066-.237.134-.566.153-.733.017-.167.072-.536.12-.821.047-.285.116-.85.152-1.258.048-.532.136-.893.315-1.29.137-.303.353-.899.48-1.324.127-.425.264-.83.304-.9.04-.07.11-.34.156-.601.047-.261.119-.532.16-.602a.775.775 0 00.09-.213c.035-.213.158-.448.363-.691.133-.158.251-.436.295-.696.063-.38.053-.433-.081-.427-.103.005-.16-.066-.174-.212a59.38 59.38 0 00-.052-.558c-.031-.324-.023-.336.186-.286.12.03.278.012.35-.038.192-.13.303-.913.16-1.113-.139-.192-.401-.132-.412.093-.005.103-.115.188-.318.244-.238.065-.312.133-.32.29-.005.113-.04.223-.077.243-.037.02-.056-.164-.042-.41.018-.306.092-.541.233-.742.114-.163.186-.355.16-.428-.108-.302-.115-.44-.024-.436.054.003.101-.072.106-.164.005-.093.049-.191.098-.218.05-.028.096-.168.103-.312.01-.201-.023-.256-.14-.24-.103.015-.191.163-.273.463-.14.51-.588 1.075-.782.986a1.44 1.44 0 00-.238-.082.489.489 0 01-.208-.133c-.184-.201-.412-.125-.67.223a5.087 5.087 0 01-.636.673c-.209.179-.407.417-.441.529a7.273 7.273 0 01-.366.781 3.896 3.896 0 00-.39 1.14 5.297 5.297 0 01-.305 1.074 6.994 6.994 0 00-.274.726c-.03.119-.22.462-.425.764a16.47 16.47 0 00-.711 1.184 21.67 21.67 0 01-.9 1.567 6.01 6.01 0 00-.396.765c-.644 1.53-.783 1.885-.79 2.015-.003.08-.12.37-.258.645a82.31 82.31 0 00-.437.881c-.231.478-.34.648-.731 1.139-.172.215-.463.772-.648 1.238-.184.466-.397.933-.471 1.038-.075.104-.172.384-.215.621-.254 1.39-1.165 2.31-1.665 1.683-.193-.243-.431-.817-.422-1.018.012-.25.372-.82.761-1.207.207-.205.46-.53.562-.723.101-.192.246-.396.322-.452.075-.057.139-.143.14-.193.01-.169.594-1.19.856-1.492.265-.306.592-1.111.848-2.084.076-.293.295-.834.486-1.202.19-.368.35-.723.353-.788.005-.105.742-1.553 1.113-2.185.077-.132.143-.29.145-.35.004-.06.102-.205.22-.32.184-.18.231-.34.326-1.107.17-1.381.177-1.422.307-1.638a8.81 8.81 0 01.574-.736c.265-.312.45-.61.443-.718-.005-.102.152-.49.35-.864.355-.67.36-.69.344-1.464-.009-.443.027-.908.084-1.07.12-.34.7-1.004.974-1.112.286-.114.413-.347.484-.888.093-.706.022-.802-.548-.75-.877.081-1.67.545-1.692.988-.003.073-.044.154-.09.18-.045.024-.114.16-.152.302-.07.254-.13.288-.427.244-.184-.028-.691.28-.699.425-.008.166-.817 1.69-1.077 2.029-.318.416-.43.887-.259 1.094.206.25.133.609-.211 1.04a7.438 7.438 0 00-.571.858 5.64 5.64 0 01-.699.93c-.244.26-.538.642-.652.85-.114.21-.267.424-.34.479-.108.081-.129.06-.12-.119.015-.308-.689-.649-1.41-.683-.438-.02-.617.021-1.097.26-.673.333-.957.693-1.306 1.656-.203.557-.333.836-.582 1.245-.031.052-.472.533-.979 1.068a42.883 42.883 0 00-1.177 1.282c-.402.485-.814 1.027-.816 1.074-.001.023-.147.236-.324.472a5.306 5.306 0 00-.544.97c-.135.332-.283.558-.38.584-.088.023-.233.152-.322.287-.089.135-.311.297-.494.36-.295.102-.381.097-.772-.039-.498-.173-.597-.347-.566-.989.017-.357.064-.434.537-.883.285-.27.57-.488.635-.485.065.003.12-.025.121-.063.002-.037.135-.136.295-.22.383-.199.765-.572.992-.967.101-.175.242-.348.314-.383.072-.036.238-.28.37-.542s.339-.547.459-.632c.123-.087.251-.291.293-.467a1.5 1.5 0 01.238-.509c.332-.4.77-1.313.85-1.774.121-.693.732-1.876 1.208-2.336.297-.288.546-.591 1.205-1.466.261-.346.573-.723.693-.837.12-.114.289-.357.376-.54.088-.183.38-.542.65-.798s.54-.56.598-.676c.059-.116.168-.305.243-.421.195-.303.184-.504-.061-1.049-.183-.405-.292-.524-.682-.741-.256-.143-.489-.335-.518-.427-.075-.237.197-.716.656-1.154.255-.244.393-.451.4-.6.014-.28.172-.557.314-.551.058.002.284-.123.5-.279.218-.155.532-.324.7-.376.344-.105.397-.375.067-.345-.107.01-.193-.023-.19-.074.008-.161-.309-.115-.626.092-.169.11-.452.27-.63.357-.403.196-1.152.978-1.517 1.582-.299.495-.548.745-1.365 1.37-.29.222-.583.522-.652.667-.07.146-.263.38-.43.521-.715.603-1.412 1.252-1.559 1.45-.087.118-.29.27-.454.337-.162.068-.42.277-.574.466-.153.188-.69.731-1.194 1.208-.88.83-.942.872-1.564 1.033-.419.109-.766.266-.981.443a3.372 3.372 0 01-.559.38c-.124.057-.588.428-1.03.824-1.04.93-1.517 1.286-1.624 1.213-.047-.032-.118-.013-.157.044-.11.158-.65-.408-.698-.733-.023-.149 0-.34.052-.425.094-.157 1.279-.925 1.753-1.137.144-.065.95-.73 1.79-1.48 1.458-1.3 1.707-1.475 3.033-2.13.356-.177.494-.306.626-.589.343-.736.497-.955.796-1.135.168-.101.4-.18.515-.174.158.007.25-.069.374-.308.143-.28.388-.589 1.15-1.454.298-.34.731-.935.735-1.011.001-.038.257-.234.567-.436.31-.2.73-.556.934-.79.35-.4.53-.584 1.358-1.39.19-.184.404-.482.477-.663l.132-.328-.407-.453c-.356-.397-.428-.441-.58-.357-.267.15-.434.105-.513-.137-.05-.151-.139-.224-.281-.231-.115-.005-.455-.102-.756-.213-.487-.181-.619-.196-1.207-.139-.363.036-.878.105-1.145.154-.302.055-.98.06-1.793.012-1.5-.09-1.919-.02-2.444.409a2.795 2.795 0 01-.663.393 2.677 2.677 0 00-.623.353c-.221.176-.358.223-.53.181-.127-.03-.534.024-.905.12-.504.131-.756.252-1.002.483-.476.445-.937.558-2.216.541-1.272-.017-2.192.115-2.967.425-.305.121-.586.22-.624.217-.04-.001-.232.095-.428.214-.629.383-1.54.186-1.514-.328.011-.23.258-.584.537-.77.178-.12.419-.154 1.06-.149.909.007 1.054-.036 1.528-.456a2.54 2.54 0 011.539-.613c.253-.013.58-.071.727-.127.147-.056.454-.12.682-.143.299-.03.56-.142.937-.405.288-.201.539-.4.557-.443.018-.043.083-.076.145-.073.062.004.287-.133.5-.302.213-.17.553-.386.755-.48 1.099-.515 1.137-.524 2.266-.534 1.24-.01 1.608-.124 2.488-.766.273-.198.566-.383.651-.41.085-.027.16-.13.164-.23.008-.189-.42-.68-.678-.775a.365.365 0 01-.193-.227c-.025-.094-.092-.177-.149-.183a1.23 1.23 0 01-.64-.25c-.205-.148-1.68-.677-2.273-.816-.156-.036-.365.012-.62.143-.21.11-.621.254-.913.321a4.444 4.444 0 00-.827.276c-.163.084-.383.15-.488.145a1.125 1.125 0 00-.428.1c-.131.06-.391.15-.579.201-.187.05-.51.215-.718.367-.207.15-.813.467-1.345.701a18.21 18.21 0 00-1.463.72c-.478.283-.514.29-1.06.21a32.208 32.208 0 00-1.609-.17c-.865-.07-1.136-.06-1.576.06-.293.078-.649.122-.792.096a70.61 70.61 0 00-1.128-.185L4.062 37a7.328 7.328 0 01-.985-.224c-.4-.142-1.038-.124-1.762.051-.659.159-.956.081-1.167-.303-.306-.558-.145-.935.553-1.299.376-.195.49-.211 1.232-.166.45.027.917.093 1.038.145.268.117 1.94.068 2.22-.063.104-.05.376-.083.604-.073.227.01.614-.046.858-.122.244-.077.937-.164 1.54-.192.602-.03 1.136-.083 1.186-.119.05-.036.331-.141.624-.233.292-.092.707-.272.921-.4.835-.498 1.036-.553 2.348-.655.377-.03.874-.126 1.103-.214.23-.089.709-.203 1.066-.253.356-.05.694-.124.75-.164.398-.276 2.422-.231 3.57.08.401.11.6.119 1.047.05.303-.047.582-.112.619-.144.037-.032.113-.29.168-.573.056-.283.12-.572.142-.643.034-.108-.068-.129-.637-.13-.423 0-.676-.034-.674-.09.002-.048.1-.305.218-.571.18-.41.195-.498.093-.573-.136-.1-.9-.066-1.149.052-.09.043-.554.093-1.029.111-.475.018-.947.072-1.048.12-.1.048-.379.078-.617.067-.296-.014-.627.054-1.04.216l-.607.236-.76-.144c-.71-.135-.792-.134-1.228.013-.258.087-.698.23-.979.318l-.976.306c-.257.08-.844.234-1.306.341-.983.23-1.75.468-2.537.79-.311.127-.627.228-.703.224-.075-.003-.386.086-.69.198a2.6 2.6 0 01-1.078.182c-.871-.038-1.136-.336-.814-.918.251-.456.631-.59 1.557-.551.552.023.794-.002.894-.092.075-.068.19-.123.253-.121.426.01.707-.659.464-1.103-.204-.373-.18-.556.105-.814.268-.242.244-.237.925-.187.687.051 2.031-.216 2.687-.534.316-.153.872-.245 2.4-.4.388-.04 1.022.16 1.508.476.22.142.292.144 1.013.033.427-.066.934-.203 1.126-.305.33-.173.424-.179 1.701-.095.743.05 1.622.117 1.953.151.6.062 1.012 0 1.02-.153.002-.044-.12-.168-.271-.274-.188-.134-.227-.193-.122-.189.084.003.155-.033.157-.081.002-.048-.084-.092-.192-.098-.218-.011-.31-.07-.477-.304-.143-.2-.005-.37.428-.526.275-.1.3-.138.29-.43-.015-.433-.218-.568-.572-.382l-.267.14-.126-.273c-.302-.658.408-1.177 1.613-1.178.508 0 .648-.1.52-.369-.11-.23.044-.458.276-.408.08.018.281-.072.449-.2.256-.194.354-.22.614-.159.17.04.332.1.36.133.084.102-.124.618-.247.613-.063-.004-.164.09-.225.21-.09.174-.088.225.015.27.069.03.188-.002.264-.07.195-.177.627-.233.835-.109.233.139.484.013.497-.249.007-.13.11-.256.298-.362.197-.11.293-.231.303-.379.012-.18.084-.236.435-.33.303-.082.43-.164.455-.294.03-.155-.023-.193-.37-.261-.254-.05-.44-.048-.503.008-.13.118-.41.095-.652-.055-.182-.112-.185-.13-.046-.235.222-.166.336-.47.433-1.152.078-.549.105-.607.29-.624.114-.01.268.04.345.112.227.213.44.27.501.132.03-.068.168-.174.306-.234.246-.108.251-.105.276.163.014.15.052.343.085.429.047.123-.01.18-.276.276-.184.067-.402.1-.484.075a.397.397 0 00-.272.02c-.102.056-.101.09.003.197.17.174 1.217.152 1.226-.026.003-.066.056-.117.117-.114.061.003.223-.11.36-.25.136-.141.287-.23.334-.197.144.098.078.484-.127.743-.115.146-.174.311-.147.412.05.189.373.316.618.242.27-.08.749-.43.754-.551.004-.063.114-.219.245-.347.218-.213.237-.28.214-.746-.014-.282-.047-.551-.073-.598-.026-.047-.2-.093-.385-.102-.274-.014-.38.033-.563.244-.214.246-.237.252-.428.12-.305-.212-1.133-.428-1.18-.308-.023.06-.153.01-.346-.134-.34-.255-.657-.313-.736-.134-.028.063-.192.189-.366.28-.269.141-.321.146-.359.032-.076-.228-.034-.44.107-.546.222-.166.165-.272-.12-.224-.15.026-.263.009-.26-.038.001-.046-.118-.14-.267-.21a4.81 4.81 0 01-.657-.418c-.605-.454-1.453-.896-1.749-.91-.148-.007-.422-.118-.608-.244-.248-.17-.465-.238-.811-.256-.67-.036-1.567-.244-1.866-.433-.408-.257-1.07-.476-1.678-.556-.655-.085-1.115-.19-1.302-.296-.19-.108-2.375-.702-2.88-.784-.236-.038-.469-.106-.519-.151-.121-.11-1.197-.41-1.53-.426-.279-.014-.834-.519-.823-.75.003-.066.232-.177.53-.256l.526-.14 1.015.376c.559.207 1.209.457 1.444.554.543.225 1.25.404 1.672.424.18.009.362.052.406.097.1.102 1.389.427 2.026.511.66.087.823.127 1.036.254.302.18 1.142.486 1.375.5.12.009.529.108.908.223s.826.236.992.27c.167.032.376.084.464.114.14.048.159.015.14-.255-.018-.258-.002-.293.096-.204a.86.86 0 01.184.311c.037.113.136.23.219.26.083.03.265.124.403.207.138.084.447.21.686.282.239.072.647.201.908.288.6.2.949.217 1.197.062.107-.068.244-.11.304-.094.06.015.113-.03.119-.102.012-.157.39-.208.515-.07.13.142.23.128.237-.035.008-.179-.594-.845-.773-.854-.073-.003-.255.086-.404.199-.148.112-.288.204-.312.203-.023-.002-.132-.212-.242-.469-.196-.46-.616-.965-1.07-1.288-.518-.368-.038-.422.778-.087.278.114.654.209.835.21.275.002.34.038.4.221.079.241.627.693.855.703.079.004.337.154.573.333.236.178.493.328.572.332.13.006.43.228.824.61.179.173.641.142 1.046-.07.274-.144.462-.072.615.237.18.366.382.665.45.668.038.002.096-.103.13-.233.032-.13.23-.405.44-.61.21-.205.423-.44.473-.521a.316.316 0 01.257-.14c.213.01.62-.15.625-.245.001-.04.062-.07.134-.067.311.015-.008-.775-.558-1.382-.478-.526-.854-1.067-.847-1.217.004-.058-.435-.571-.972-1.14a664.833 664.833 0 01-1.084-1.148c-.855-.918-2.756-3.088-2.753-3.143.002-.04-.187-.216-.42-.39-.231-.174-.44-.383-.461-.463-.038-.142-.713-.803-.92-.9-.056-.027-.263-.194-.46-.37a5.065 5.065 0 00-.792-.561c-.366-.201-.445-.29-.5-.564-.082-.42.064-.59.49-.565.407.023.552.12 1.294.858.771.767 1.082 1.12 2.232 2.528a50.368 50.368 0 001.433 1.686c.28.304.84.938 1.245 1.409.406.47.837.924.957 1.009.245.171 1.215 1.195 1.694 1.788.208.257.382.387.528.394.243.012.253-.007.142-.256l-.158-.353a.882.882 0 01-.07-.335c.002-.086-.085-.295-.197-.462-.112-.168-.203-.339-.2-.38.001-.041-.103-.225-.233-.408a3.25 3.25 0 01-.367-.748c-.073-.228-.203-.485-.29-.571a.612.612 0 01-.144-.407c.015-.31-.116-.606-.696-1.583-.505-.85-.626-1.007-.889-1.16-.1-.057-.317-.33-.482-.605-.165-.276-.383-.537-.484-.582-.102-.045-.482-.276-.844-.514-.363-.238-.708-.435-.766-.438-.147-.007-.572-.306-.822-.577-.272-.295-1.16-.886-1.462-.973-.131-.038-.258-.105-.283-.149-.024-.044-.171-.085-.327-.093-.237-.012-.37-.115-.817-.635-.691-.806-.986-1.205-.98-1.33.01-.215.391-.54.622-.528.31.015 1.133.375 1.343.587.091.093.358.261.594.374.235.112.464.253.51.313.044.06.277.287.517.504.24.217.454.466.478.554.049.183.596.509 1.128.67.259.08.48.245.76.567.216.25.556.56.754.689.198.13.359.265.357.301-.002.037.258.37.578.742.32.372.835 1.04 1.146 1.487.31.445.756 1.035.99 1.31l.733.861c.17.2.36.478.422.62.063.14.255.43.425.642.171.213.309.46.306.547-.007.24.764 1.254 1.17 1.537.195.136.406.303.468.372.17.185.578.405.644.345.12-.11.055-.273-.272-.682-.187-.232-.37-.57-.406-.75l-.125-.606c-.033-.154-.193-.46-.356-.68-.164-.219-.296-.435-.294-.481.002-.046-.113-.204-.257-.352-.349-.358-1.024-1.503-1.08-1.831-.031-.184-.199-.393-.552-.691-.278-.236-.552-.553-.607-.705-.11-.304-.473-.77-.604-.777-.046-.001-.186-.185-.312-.406-.126-.221-.255-.404-.287-.405-.12-.007-1.06-1.287-1.053-1.435.008-.163.347-.34.628-.327.114.005.312.25.613.758.3.502.53.79.702.87.327.153.43.295.457.623.027.354.209.643.659 1.047.222.2.526.627.746 1.05.205.394.423.737.484.764.061.027.11.084.108.127-.002.043.15.33.338.638.413.675 1.115 1.438 1.592 1.73.218.134.4.335.483.535.095.23.231.364.483.479.366.167.552.138.79-.121a.394.394 0 01.263-.123c.079.003.225-.127.323-.29.173-.286.175-.315.053-.803a8.807 8.807 0 01-.178-.955c-.033-.29-.162-.633-.363-.964-.171-.283-.402-.68-.513-.883-.411-.754-.765-1.22-1.034-1.363a4.153 4.153 0 01-.619-.446c-.728-.636-.839-.714-1.294-.908-.684-.293-2.77-2.003-2.758-2.26.008-.171.193-.285.373-.229.093.03.294.27.447.535.292.507.696.847 1.025.863.177.008.198-.032.217-.411.015-.304-.024-.465-.14-.579a1.337 1.337 0 01-.252-.417c-.051-.143-.123-.26-.16-.262-.036-.002-.111-.13-.167-.286-.056-.155-.297-.52-.535-.813-.238-.293-.508-.72-.6-.949C33.728.6 32.965-.624 32.557-.884c-.125-.08-.33-.348-.454-.597a7.735 7.735 0 00-1.177-1.71c-.495-.523-.427-1.08.152-1.251.39-.115.684.062.807.485.053.182.19.467.305.632.115.166.207.344.204.395-.001.051.025.107.061.125.036.018.238.295.449.616.596.909.777 1.179 1.126 1.677.178.255.322.502.32.55-.004.077.532.704.976 1.14.094.092.209.372.255.621.13.7.3 1.026 1.003 1.927.493.63.75.882 1.06 1.032.413.202.891.713 1.515 1.619.312.454.71.915 1.532 1.775.38.398 1.27.847 1.422.718.138-.116.437.088.675.461.136.214.393.453.616.574.211.114.547.33.747.478.433.323.665.3.592-.06a9.566 9.566 0 01-.094-.809c-.088-1.1-.342-2.106-.709-2.803-.162-.308-.204-.513-.182-.886.052-.891-.244-1.89-1.064-3.6-.232-.481-.479-1.114-.55-1.404a15.84 15.84 0 00-.576-1.856c-.154-.39-.292-.956-.365-1.497-.027-.193-.174-.688-.328-1.1-.302-.81-.334-1.156-.122-1.314.154-.115.499-.037.671.152.064.07.151.416.196.77.096.777.31 1.507.532 1.819.104.145.157.359.146.586-.022.437.27 1.52.678 2.502.166.404.3.794.297.867-.005.12.127.479.655 1.767.217.527.389 1.393.415 2.083.017.463.231 1.185.57 1.925.079.171.164.45.19.618.037.246.74 2.027.965 2.449.065.122.547.834.709 1.048.527.697 1.76-.772 1.301-1.552-.112-.19-.12-.404-.059-1.638a5.016 5.016 0 00-.072-1.048c-.055-.262-.133-.73-.174-1.038a7.472 7.472 0 00-.29-1.189 5.75 5.75 0 01-.256-1.108c-.022-.265-.09-.59-.15-.721a1.187 1.187 0 01-.1-.455c.006-.118-.059-.4-.144-.628-.32-.853-.093-1.174.564-.8l.351.2-.045.581c-.072.941.066 2.187.29 2.618.133.256.184.482.158.704-.021.18.003.416.056.524.053.109.112.385.133.616.02.23.122.638.226.906.174.45.181.554.088 1.355-.093.792-.086.917.086 1.446.364 1.125.699 1.69.896 1.515.146-.13.368-2.56.283-3.107a14.82 14.82 0 01-.112-1.28c-.056-1.257-.13-1.784-.369-2.629-.19-.675-.223-.983-.221-2.056.002-.74-.043-1.408-.108-1.615-.06-.195-.123-.883-.139-1.53-.017-.647-.049-1.57-.073-2.05-.038-.773-.024-.906.128-1.168.21-.363.456-.403.752-.122l.222.212-.082 2.302c-.05 1.428-.048 2.398.005 2.552.048.137.072.57.054.96-.017.391.004.87.046 1.063.042.194.08.626.083.961.003.335.034.728.07.874.035.146.1.501.146.79.044.29.128.703.184.917.057.215.092.617.079.894-.017.337.029.617.137.851.09.192.185.558.213.814.037.34.111.522.277.678.125.118.258.35.295.516.038.167.125.365.194.44.093.102.1.18.03.298-.117.193-.066.267.153.22.1-.02.184-.137.22-.305.03-.15.137-.562.235-.915.149-.537.163-.696.085-.976-.077-.275-.07-.373.04-.555.157-.262.334-.337.461-.197.05.055.084.405.072.776-.01.372.017.89.061 1.153.045.262.055.596.022.74-.08.36.01.472.355.437l.29-.03-.04-.404a3.993 3.993 0 00-.094-.578c-.03-.095-.009-.329.046-.52.066-.23.084-.703.05-1.394-.027-.576-.01-2.1.04-3.388.083-2.16.103-2.352.255-2.49.215-.194.387-.18.595.047.148.162.159.254.085.766-.046.32-.148.696-.225.836-.222.4-.326 1.513-.18 1.932.083.24.099.494.05.817-.058.374-.044.493.07.596.12.109.188.113.424.03.155-.055.39-.115.521-.132.132-.017.286-.082.342-.143.165-.18.403-1.224.369-1.618-.018-.203.033-.572.115-.835.081-.26.168-.725.193-1.035.025-.31.12-1.246.212-2.08l.18-1.644c.007-.072.005-.564-.003-1.094-.017-.901-.005-.978.178-1.188.263-.302.727-.295.85.013.117.293.007 1.162-.2 1.569-.152.301-.185.623-.29 2.858-.144 3.094-.189 4.148-.212 5.015-.01.375-.068.753-.13.856-.085.142-.094.37-.038.98.04.437.108.845.152.907.106.15.593.168.802.03.145-.095.155-.148.08-.4-.181-.611.018-1.204.354-1.056.1.044.119.137.073.37-.206 1.044-.222 1.22-.123 1.352.057.074.18.14.276.144.247.012 1.052-.474 1.059-.639.01-.246-.126-.391-.303-.325-.32.12-.56.113-.554-.015.003-.072.131-.141.305-.165.303-.042.41-.163.425-.479.005-.095.113-.296.24-.447a1.01 1.01 0 00.247-.586c.02-.392.488-1.656.73-1.969.145-.187.238-.227.455-.196.347.05.398.352.118.693-.107.13-.199.344-.205.475-.007.13-.118.375-.247.543-.14.183-.282.527-.353.858-.065.304-.163.634-.217.733-.217.394.071.729.655.76.156.008.288.043.293.08.047.324-.017 1.034-.098 1.08-.07.04-.057.105.04.212.12.13.165.137.287.046.08-.06.137-.19.128-.29-.012-.13.06-.218.25-.301.235-.103.27-.162.275-.466a4.617 4.617 0 00-.043-.67c-.04-.259-.009-.385.155-.623l.206-.3.568.341c.312.187.587.375.61.416.024.042.336.102.694.132.559.049.69.031.935-.127.158-.1.486-.21.731-.245.675-.094 1.313-.421 1.836-.941.259-.258.75-.73 1.091-1.048l.62-.578-.214-.125c-.466-.273-.161-.74.6-.922.766-.182 1.269-.531 1.797-1.247.256-.348.544-.813.64-1.034.217-.506.44-.696.716-.612.116.035.227.113.247.175.02.06-.13.416-.332.79-.203.373-.373.745-.379.828-.005.082-.105.323-.221.535-.174.316-.272.398-.55.459-.257.055-.377.144-.497.366-.087.161-.192.291-.233.29-.042-.002-.141.12-.22.272-.252.478-.659 1.138-.789 1.28-.09.098-.118.281-.1.637l.027.5-.164-.246c-.162-.242-.169-.244-.448-.116-.156.071-.603.223-.994.337-.622.183-.772.27-1.224.71l-.515.503.127.464c.125.456.133.465.5.51.33.04.365.026.315-.117-.194-.542-.056-.653.186-.149.082.172.19.318.239.324.366.05 1.193.039 1.647-.023.3-.041.605-.08.677-.086.072-.006.192-.033.265-.06.247-.09 1.174-.18 1.625-.16.247.012.663-.004.926-.037s.672-.074.909-.092c.237-.017.496-.063.576-.1a1.93 1.93 0 01.494-.101c3.749-.343 3.689-.34 3.844-.17.073.08.203.126.29.103.088-.023.435-.067.77-.098 1.118-.101 1.314-.13 1.424-.211.06-.044.14-.06.177-.035.037.025.383.023.769-.004s.919-.058 1.184-.068c.265-.01.61-.053.766-.095.157-.041.536-.052.844-.024.345.032.608.014.69-.047.073-.055.152-.078.176-.052.024.026.159.01.3-.037s.845-.075 1.565-.062c1.06.017 1.34-.004 1.476-.116.192-.156 1.262-.175 1.6-.028.111.048.223.055.25.017.027-.039.374-.078.772-.087.398-.008.94-.024 1.206-.033.265-.01 1.052-.014 1.749-.009.697.005 1.543.004 1.88-.005a71.272 71.272 0 011.88.004c.697.008 1.425.005 1.618-.007.193-.014 1.204-.005 2.247.02 1.043.023 2.314.023 2.825 0 .51-.025.959-.023.997.002.176.12 6.874.335 8.693.279.722-.022 1.489-.024 1.705-.002.946.093 1.358.091 2.929-.012a52.51 52.51 0 012.97-.104c1.292.005 1.303.007 1.247.184-.04.129-.021.168.067.138.068-.022.121.004.119.058-.004.058.076.081.197.057.3-.06.668.129.658.337-.009.163.048.18.755.218 1 .054 1.503.133 1.641.26.209.19 2.801.44 4.642.449.12 0 .354.038.52.082.166.045.625.095 1.02.112.394.017.733.058.752.093.047.085 1.3.104 1.846.027.263-.036.561-.024.741.03.166.051.472.122.679.157.208.036.413.09.455.118.043.03.675.097 1.405.15 1.367.101 1.978.193 1.973.299-.001.033-.127.125-.278.205-.35.184-.29.245.241.252.313.004.473.053.617.19.177.168.309.19 1.511.239.725.03 1.414.032 1.532.005.529-.12 1.135.18 1.16.575.011.195-.014.207-.347.168-.36-.042-.676.06-.566.18.033.036.363.092.735.124 1.06.093 1.924.201 2.63.329.358.064.959.133 1.336.152.628.033.7.019.867-.173.208-.239.643-.267.752-.05.076.153.344.191 1.085.155.294-.013.502.01.5.058-.002.046.102.136.231.2s.272.166.317.227c.102.136 3.171.714 3.907.735.221.007.398.064.462.148.087.116.06.16-.174.278-.153.078-.28.17-.282.206-.002.036-.112.063-.244.06-.235-.006-.68.116-.509.138.047.007.027.045-.045.086-.226.128.302.307 1.089.37.858.07 1.116.186.947.428-.167.24-.03.34.661.478.603.12.973.332.71.405-.07.02-.618.027-1.219.015-1.042-.018-1.543.074-1.709.314-.097.142.094.299.442.362.439.08.468.123.29.428-.076.13-.131.29-.122.353.011.063-.063.169-.163.235-.118.08-.152.15-.097.206.112.114 1.047.335 1.202.284.124-.04.383.206.611.582.068.111.167.203.222.205.054.002.042-.036-.027-.084-.084-.059.063-.069.439-.03.31.033.711.07.891.083.18.013.325.062.322.11-.002.053-.415.067-1.064.036l-1.06-.05-.349.331c-.192.183-.419.329-.505.325-.086-.003-.206.088-.267.205-.101.191-.093.212.084.22.107.006.221.039.254.075.032.035.224.06.427.057.273-.005.342.016.267.086-.055.052-.562.098-1.134.105-1.857.02-1.175.304 1.185.492.286.023.483.075.452.12-.03.043-.009.108.045.146.062.042.078.029.042-.036-.085-.152.18-.115.327.046.147.161.259.186.177.038-.037-.065-.02-.077.045-.032.058.04.181.006.28-.074.168-.138.183-.135.341.064.09.115.166.182.167.15.002-.033.078-.016.17.039.091.054.687.143 1.324.196 2.22.187 5.281.556 5.632.68.071.026.245.083.387.128.268.084.471.222.466.318-.003.057-.461.205-.957.308-.353.074-1.838.037-5.412-.136-1.499-.072-2.716-.121-2.705-.11.078.085 1.525.386 2.079.434.769.066.928.142.438.21-.242.033-4.331-.218-4.821-.297a19.512 19.512 0 00-.691-.028c-.575-.018-.626-.007-.511.12.158.173.979.277 3.224.408 1.942.113 1.843.099 1.9.271.074.225-.258.266-1.968.244-2.544-.033-2.775.003-2.367.365.15.133.161.188.07.34-.1.166-.082.19.215.284.983.31 1.826.423 4.254.569l.716.043.502.537c.288.308.499.613.494.713-.011.228.037.242 1.12.342.503.047 1.157.146 1.454.22.933.236.661.345-.869.35-.553.001-1.086.032-1.184.067-.098.036-.419.13-.714.21-.614.164-1.562.119-5.011-.238-2.424-.251-4.153-.333-4.297-.202-.194.175.074.314.727.377.768.073.857.103.783.27-.031.072-.091.107-.133.079-.042-.029-.079.008-.082.08-.004.083-.055.112-.135.077-.071-.03-.131-.013-.133.04-.003.053-.083.092-.179.088-.096-.005-.177.037-.18.093-.003.056.023.077.056.047s.101-.019.152.025c.05.044.171.053.269.018.123-.042.138-.067.048-.08-.072-.011-.014-.05.127-.084.376-.093.456.018.164.228l-.254.182.205.122c.112.067.265.205.341.308.096.13.276.207.603.255.257.038.465.108.462.155-.005.111-1.342.239-2.064.197-.825-.049-.89-.044-.828.068.067.12-.127.242-.37.232-.098-.003-.336.064-.529.15-.192.087-.476.151-.63.144-.685-.033-.734.165-.095.384.261.089.472.202.469.25-.001.05.036.068.086.041.049-.027.087-.003.085.053-.004.075.027.078.113.014.089-.067.148-.045.233.086.063.097.352.267.642.379.384.148.551.263.616.425.103.256.091.263-.57.31-1.963.141-2.068.18-1.318.492.367.153.794.235 1.629.312 1.726.158 2.401.24 2.486.297.042.029.073.132.068.23a.232.232 0 00.164.23c.236.073.207.247-.058.353-.216.086-3.799-.104-4.495-.238a2.015 2.015 0 00-.612-.003l-.308.055.413.084c.227.047.688.113 1.024.146.978.098 1.586.223 1.701.349.152.166.142.178-.244.285-.195.053-.332.14-.313.198.022.065-.088.105-.296.108a2.65 2.65 0 00-.508.053 1.84 1.84 0 01-.477.076c-.069.003-.096.038-.062.075.034.038.45.09.924.118.861.05 1.125.145 1.113.4-.012.236-.491.31-1.872.29-.239-.003-.187.116.135.309.246.147.278.201.199.334-.142.235.153.329 1.341.429.555.046 1.035.114 1.068.149.032.035-.021.116-.117.179-.141.092-.41.093-1.377 0-.661-.062-1.203-.089-1.205-.06-.001.03.056.192.127.36.146.348.242.383 1.405.512 1.159.128 1.39.19 1.381.37-.005.11.089.186.309.249.342.098.491.313.207.3a.398.398 0 00-.279.11c-.096.104-.353.162-1.023.231-.096.01-.652-.005-1.233-.032-.99-.048-1.062-.04-1.113.123-.046.147-.126.17-.504.153-.476-.023-1.148.073-1.473.21-.121.05-.353.048-.611-.007-.603-.128-2.283-.209-2.644-.127-.332.075-.419.123-.795.441-.133.112-.29.191-.349.176-.082-.022-.089.028-.029.21.058.178.05.256-.033.301-.061.034-.136.045-.166.024-.03-.02-.108.052-.174.161-.168.28-.02.55.349.638.233.055.281.102.24.233-.028.09-.008.166.046.168.054.004.094-.024.09-.06-.033-.304.026-.326.733-.272.389.029.75.09.803.135.132.114.57.207.574.122.003-.075 1.041.02 1.115.1.09.1-.055.121-.69.104a5.911 5.911 0 00-1.161.091c-.325.07-.624.082-.832.032a4.636 4.636 0 00-.76-.094c-.241-.008-.807-.094-1.259-.191-.712-.153-1.018-.187-1.544-.173-.06.002-.112.056-.115.12-.005.09-.187.105-.812.064-.556-.037-.937-.015-1.23.07-.267.078-.723.112-1.229.092l-.804-.032.433.177c.238.097.614.208.836.246.401.069 1.001.355.748.357-.072.001-.509-.005-.971-.011-.523-.009-.941.031-1.11.105-.21.092-.375.096-.734.02-.256-.055-1.209-.153-2.12-.219a89.23 89.23 0 01-2.501-.212c-.942-.103-1.242-.067-1.172.142.04.121-.107.123-1.28.012-.729-.068-1.364-.15-1.411-.182-.047-.032-.99-.094-2.096-.138-1.105-.044-2.499-.146-3.096-.228a42.898 42.898 0 00-1.87-.212 95.688 95.688 0 01-1.697-.16c-2.921-.302-13.365-.865-16.613-.894-1.312-.012-4.666-.03-8.523-.045-.697-.004-1.308.018-1.357.046-.05.028-.464.04-.92.026a16.939 16.939 0 00-1.268.005c-.241.017-1.082.056-1.868.085-1.115.042-1.469.085-1.606.197-.166.136-.183.135-.337-.017-.155-.154-.26-.157-2.335-.077-2.924.113-3.798.154-4.628.213-.386.027-1.49.093-2.455.146-4.262.234-6.4.419-7.877.68-.422.075-.664.34-.446.49.111.075.16.072 1.276-.08.573-.077 1.359-.085 2.843-.026 1.715.067 2.094.06 2.319-.05.298-.144.64-.153.83-.02.143.1.088.125-.445.198-.568.078-.657.087-1.45.147-.787.06-1.055.18-.971.433.028.084-.162.12-.734.137-1.093.034-2.38.172-2.796.302-.195.06-.44.108-.542.105-.208-.006-2.93.505-3.557.667a49.88 49.88 0 01-.845.21c-1.214.29-1.383.35-1.344.468.053.16-.08.225-.517.253-.199.014-.428.055-.511.093-.083.04-.293.064-.467.056-.86-.041-1.458.297-1.484.838-.007.126-.105.343-.22.483-.19.233-.239.248-.569.183-.367-.073-.611.041-.298.14.23.07.21.214-.036.264-.31.064-.714.446-.665.629.12.452-.031 1.048-.264 1.036-.086-.003-.29-.473-.308-.71-.003-.049-.085-.092-.181-.096-.166-.009-.163.013.044.436.156.315.273.447.405.454.237.014.403.217.272.335-.172.155-.017.55.268.682l.268.124-.476.21c-.262.116-.53.208-.593.205-.065-.004-.24.087-.39.201-.224.17-.33.195-.603.14-.226-.047-.389-.03-.511.052-.167.111-.17.132-.046.286.073.092.155.252.181.355.038.151.003.197-.18.233-.125.026-.262.022-.304-.006-.043-.03-.15.07-.236.22-.151.259-.165.264-.271.104a.733.733 0 01-.117-.305c-.015-.466-.037-.569-.124-.602-.053-.02-.09-.154-.084-.297.007-.143-.038-.315-.1-.382-.061-.068-.126-.371-.143-.675-.032-.564-.299-1.315-.492-1.384-.192-.068-.13.294.068.396.18.092.167.104-.183.182-.207.046-.378.12-.38.163-.001.043-.108.18-.236.305a.69.69 0 00-.235.538c-.002.17-.034.426-.071.568-.078.298.005.48.239.526.104.02.166.11.17.242 0 .115.038.368.079.561.041.194.052.416.023.494-.028.079-.012.17.037.203.25.171-.524.891-.938.872-.263-.012-.457-.237-.333-.386a.435.435 0 00.087-.236c.001-.187-.29-.884-.37-.888-.038-.001-.138.092-.222.207-.093.127-.236.207-.362.2-.125-.006-.21.042-.214.119-.003.07-.107.187-.231.26-.137.08-.229.214-.235.342-.017.334-.26.34-.532.011-.273-.328-.294-.471-.089-.624.116-.087.199-.083.441.017.232.096.328.102.43.026.111-.084.107-.132-.03-.346-.155-.239-.178-.246-.581-.183-.231.037-.481.115-.556.173a.742.742 0 01-.316.127c-.192.022-.637-.31-.63-.469.007-.156-.186-.12-.42.08-.215.182-.22.182-.334.01-.208-.314-.048-1.118.282-1.417.212-.192.244-.322.128-.525-.114-.2-.52.181-.61.57-.038.17-.123.365-.188.434-.185.197-.457.79-.443.967.006.089-.07.242-.17.34-.22.213-.416.788-.474 1.383-.077.794-.226 1.38-.408 1.602-.172.21-.178.28-.135 1.474.042 1.174.032 1.292-.163 1.895-.314.966-.445 1.766-.575 3.5a21.21 21.21 0 01-.16 1.488c-.048.293-.105.916-.126 1.385a8.59 8.59 0 01-.207 1.49c-.129.485-.165.856-.151 1.56.01.507.01 1.313.003 1.791-.01.554.033 1.014.116 1.268.073.219.158.682.19 1.029.056.61.05.643-.201.997-.312.443-.645.59-1.107.49-.418-.091-.554-.253-.693-.825a1.787 1.787 0 01.208-1.39c.208-.355.37-1.368.518-3.225.066-.835.22-2.218.341-3.074.255-1.787.288-2.251.253-3.504-.018-.603.016-1.081.1-1.431.07-.29.16-.975.201-1.524.041-.548.111-1.172.156-1.385.069-.328.054-.419-.095-.592-.262-.305-.497-.267-.934.151-.427.41-.464.422-.696.229-.221-.184-.124-.57.358-1.418.214-.376.395-.771.403-.877.007-.106.095-.326.195-.489.402-.655.478-.862.502-1.366.02-.423-.002-.525-.115-.53-.106-.005-.124-.06-.075-.222.043-.142.028-.219-.045-.229a5.407 5.407 0 01-.24-.04 6.348 6.348 0 00-.326-.05c-.147-.018-.193-.078-.185-.24.007-.158-.036-.22-.159-.226-.093-.005-.194-.052-.223-.105-.04-.07-.082-.072-.154-.007-.201.182-.338.089-.296-.203.033-.228.078-.277.237-.264.148.012.198-.032.205-.182.016-.333-.127-1.055-.244-1.232-.107-.161-.12-.16-.386.015-.15.1-.29.182-.31.181-.045-.001.102-.598.195-.792a.416.416 0 01.239-.19c.102-.027.173-.125.178-.246.005-.11.04-.32.078-.469.059-.234.043-.27-.12-.278-.104-.005-.214.05-.245.12-.032.07-.15.123-.264.117-.256-.011-.285.085-.396 1.328-.051.573-.123.962-.181.978-.057.015-.09-.095-.082-.269l.014-.296-.471-.035c-.53-.039-.564-.015-.825.595-.13.306-.216.795-.304 1.727-.102 1.088-.157 1.369-.342 1.724-.177.34-.223.557-.234 1.088-.016.743-.158 1.124-.532 1.436-.237.198-.627.972-.642 1.275-.003.087-.102.346-.217.574-.115.228-.383.999-.595 1.713-.212.715-.455 1.388-.539 1.495-.084.108-.155.256-.159.33-.003.072-.135.349-.292.614-.363.612-.98 2.198-.999 2.568-.008.155-.127.582-.264.948-.137.367-.255.783-.262.926a1.747 1.747 0 01-.152.552c-.077.16-.225.69-.33 1.178-.122.562-.29 1.058-.458 1.353a3.2 3.2 0 00-.345.984c-.054.353-.204.745-.472 1.227-.317.573-.423.876-.552 1.584-.088.482-.167 1-.175 1.153-.015.284-.37.957-.654 1.24-.383.384-.835.443-1.248.165l-.002.002zM15.374 54.675c-.104-.105-.212-.17-.24-.144-.082.074.138.322.29.33.106.005.094-.038-.05-.186zm39.583.304c.005-.114-.096-.305-.232-.438-.132-.129-.257-.288-.277-.354-.029-.09-.077-.098-.206-.03-.278.145-.265.413.037.723.338.347.663.395.677.1zm.41-1.713c-.016-.061-.114-.127-.218-.148-.14-.027-.176-.001-.142.102.055.165.406.209.36.045zm4.47-1.593c.002-.048-.064-.09-.148-.093-.13-.005-.134.007-.026.085.16.113.17.114.175.008zm-26.129-4.817c.032-.047-.003-.087-.078-.091-.075-.003-.138.033-.14.08-.002.048.033.089.078.091.045.002.108-.034.14-.08zm30.252.922c.413-.08.797-.202.854-.27.058-.067.165-.095.24-.063.073.033.492-.025.93-.128.437-.103.855-.184.929-.18.074.003.424-.072.778-.167.355-.095.863-.213 1.13-.263.743-.137.887-.197.836-.35-.082-.247-.848-.161-2.362.264-.293.082-1.09.285-1.771.452-.681.166-1.359.351-1.506.411a5.53 5.53 0 01-.659.202c-.215.051-.411.144-.436.207-.03.077.009.1.121.073.091-.022.503-.107.916-.188zm72.644-2.26c-.023-.043-.328-.092-.677-.11-.494-.026-.568-.016-.333.047.43.114 1.061.153 1.01.062zm8.433-.944c.077-.098.14-.205.142-.239.007-.133-.628-.294-1.022-.259-.635.057-1.335.182-1.337.239-.003.19.205.297.733.375.884.13 1.32.096 1.484-.116zM25.378 37.863c.21-.122.395-.25.413-.285.063-.126.207-.05.41.215.172.224.274.275.584.29.352.016.486-.07.498-.32.005-.107-.665-.241-1.415-.284-.588-.033-.705-.015-.837.132a.902.902 0 01-.315.224c-.088.029-.138.093-.11.143.086.157.38.113.772-.115zm3.424-.077c.29-.232.336-.306.254-.415-.206-.273-1.114.31-.948.608.087.158.344.086.694-.193zm-1.268-.708c.167-.058.163-.07-.059-.186-.186-.097-.26-.102-.348-.023-.087.079-.083.12.016.188.146.103.156.103.391.021zm.578-.187c.01-.214-.083-.403-.2-.408-.063-.004-.105.063-.093.147.012.085.023.203.024.263.001.151.261.15.269-.002zm122.793 4.277a.726.726 0 00-.305-.015c-.085.018-.017.039.151.047.168.008.237-.007.155-.033l-.001.001zM23.776 33.273c.077-.026.143-.104.147-.174.005-.09-.076-.125-.279-.117-.497.017-.727.302-.263.325.14.006.318-.009.395-.034zm5.348-.715c-.01-.188.033-.293.148-.35.219-.11.06-.282-.207-.226-.181.038-.474.4-.483.598-.005.094.344.292.468.266.049-.01.082-.14.074-.288zm-6.26-.31c.03-.042-.004-.127-.073-.189-.222-.202-.12-.416.445-.927l.553-.5-.13-.313c-.073-.172-.17-.315-.217-.317-.22-.01-.615.355-.729.675-.076.216-.2.378-.328.43-.307.12-.527.852-.324 1.075.115.126.727.176.804.065zm130.858 5.947c.037-.084.001-.107-.126-.08-.136.028-.151.055-.064.116.143.1.129.102.19-.036zM21.436 30.263c.005-.106-.236-.203-.295-.118a.11.11 0 00.005.127c.08.087.285.08.29-.009zm2.869-.439c-.039-.278-.072-.317-.238-.281a1.6 1.6 0 01-.302.038c-.185-.007-.136.288.093.558.193.229.232.243.354.133.1-.09.125-.213.093-.448zm-2.061-1.794c.001-.048-.055-.09-.127-.094-.072-.003-.133.033-.135.081-.002.048.055.09.127.093.071.003.132-.033.134-.08zm.851.019c-.035-.125-.176-.119-.226.01-.018.047.032.088.112.092.08.003.131-.043.114-.103zm1.884-.8c.041-.17-.107-.309-.343-.322-.172-.01-.22.246-.077.404.132.144.375.096.42-.082zm.904-1.004c.03-.07.126-.125.212-.12.159.006.302-.187.212-.286-.027-.03-.198-.062-.378-.07-.252-.012-.34-.057-.376-.192-.025-.096-.025-.206 0-.243.026-.038.017-.123-.02-.19-.056-.101-.095-.098-.22.015-.084.075-.208.135-.277.131-.068-.003-.126.033-.129.081a.088.088 0 00.083.091c.123.005.091.383-.041.503-.086.077-.088.123-.01.208.077.085.123.088.209.01.152-.137.42-.11.473.05.024.072.08.134.125.136.044.001.106-.054.137-.124zm1.41-1.452c.112-.063.108-.101-.023-.26-.267-.325-.585-.204-.388.146.113.2.21.227.41.114zm4.445-.686a.63.63 0 01.39-.133c.44.02.64-.076.82-.39.14-.245.168-.387.123-.643-.07-.39-.048-.365-.374-.441-.21-.05-.294-.02-.438.154-.11.134-.13.192-.051.152.092-.046.087-.025-.017.075-.177.17-.435.079-.424-.15.005-.091-.034-.167-.085-.17-.158-.006-.715.416-.665.506.026.047-.008.203-.077.347-.116.244-.109.278.099.474.123.116.185.232.138.258-.046.026-.067.101-.044.168.046.14.328.043.605-.207zm.77-2.435a.54.54 0 00.417-.054c.263-.179.738-.123.968.113.184.19.205.194.291.057.051-.08.148-.144.216-.141.133.007.317-.244.326-.443.009-.186-1.21-.818-1.615-.837-.278-.014-.356.02-.414.174-.039.104-.268.362-.51.572-.33.288-.428.428-.399.567.037.174.052.177.256.057a.636.636 0 01.464-.065zm-3.64-2.657c.154-.138.16-.57.01-.734-.197-.216-.587-.144-.698.13-.163.401.383.88.69.604h-.001zm6.308-.202c.074.003.11-.081.099-.236-.014-.185-.086-.268-.317-.362a1.964 1.964 0 00-.483-.132c-.1-.005-.3-.075-.441-.154-.352-.196-.543-.117-.56.23a.476.476 0 00.587.487c.102-.021.29.023.416.098.127.075.31.12.407.1.097-.02.228-.034.292-.031zm125.501 5.12c.002-.05-.036-.07-.086-.043-.049.028-.09.067-.091.088-.001.021.037.04.085.043a.091.091 0 00.092-.088zM35.81 16.246c-.076-.091-.136-.222-.133-.29.008-.25-.667-.91-.804-.787-.12.108.057.53.348.83.435.447.923.652.589.247zm9.752-3.14c-.057-.345-.128-.456-.91-1.406-.373-.455-.572-.457-.444-.005.044.156.15.369.234.471.085.103.153.224.151.269-.005.15.72.942.869.95.12.005.138-.045.1-.278v-.001zm-1.79-.042c.004-.084-.099-.392-.227-.685-.127-.294-.23-.616-.225-.717.003-.101-.084-.332-.195-.512a6.984 6.984 0 01-.323-.593c-.176-.382-.51-.605-.727-.484a.698.698 0 01-.301.088c-.073-.003-.133.012-.134.033-.007.14.225.586.452.87.147.183.286.473.31.644.032.232.187.459.618.905.6.62.744.706.753.45v.001zm3.663.24a.088.088 0 00-.083-.09.088.088 0 00-.09.082.088.088 0 00.082.091.088.088 0 00.091-.082zm18.647-2.274c.02-.415-.101-.61-.317-.513a4.03 4.03 0 01-.61.15c-.401.074-.466.114-.451.273.013.146.11.212.45.302.237.063.539.124.67.135.225.02.24-.002.258-.347zm34.329-.673c.183-.005.039-.142-.168-.159a39.16 39.16 0 01-1.021-.114c-.807-.098-1.271-.051-1.343.135-.033.083.232.11 1.212.123l1.32.015zm22.896-.216c.002-.031-.116-.046-.261-.032-.254.025-.324.09-.219.206.058.063.476-.088.48-.174zM23.776 65.635a4.42 4.42 0 01.367-.564 4.4 4.4 0 00.465-.877c.22-.569.553-1.104.904-1.452.115-.114.227-.281.248-.372.021-.091.086-.178.145-.195.116-.032.095.038-.295 1.007-.123.306-.34.693-.485.86-.143.168-.262.33-.263.361-.002.031-.076.128-.166.215-.09.087-.22.324-.287.527-.15.446-.322.658-.564.692-.165.024-.171.007-.07-.202zm2.35-3.864c.003-.072.047-.129.098-.126.05.002.067-.042.035-.099-.036-.064-.02-.078.04-.036.07.048.07.114 0 .23-.118.197-.182.208-.174.03zm2.693-5.1c.007-.14.216-.376.327-.37.138.006.154.088.06.3-.054.123-.392.184-.387.07zm36.091-4.629c-.278-.214-.221-.31.173-.291.373.018.56.235.32.37-.179.102-.28.085-.493-.079zm27.292-5.997c-.082-.109-.058-.172.132-.344.21-.19.299-.207.934-.176.635.03.701.05.694.2-.012.249-.258.43-.573.42a10.64 10.64 0 00-.682.012c-.288.015-.433-.018-.505-.113zM19.545 27.913c-.115-.039-.224-.125-.243-.192-.027-.098.064-.106.467-.046.485.074.88.277.507.262a2.187 2.187 0 00-.346.02.98.98 0 01-.385-.044zm-.627-.274a.339.339 0 01.218.01c.059.027.009.044-.111.039-.12-.005-.168-.028-.107-.05v.001zm13.242-9.855c-.051-.157.088-.399.175-.303.033.035.017.148-.035.251-.075.149-.104.16-.14.052zm127.268 5.345c.03-.027.105-.027.167.002.068.03.047.05-.055.05-.092-.001-.143-.024-.112-.052zM25.96 9.522c-.047-.14.14-.37.294-.363.14.006.424.353.347.422-.117.106-.601.061-.641-.06zm126.996 4.983a8.378 8.378 0 00-.999-.128c-.726-.052-.796-.075-.724-.238.038-.085.241-.095.846-.04.438.04.836.103.885.14.049.038.231.074.405.082.203.008.301.048.273.111-.063.141-.29.166-.686.073zm1.003.06c-.238-.09-.232-.096.115-.136.176-.02.241.009.236.106-.007.145-.034.148-.351.03zm-3.416-.483c-.098-.107-.054-.193.125-.24.188-.05.522.109.516.245-.005.094-.555.09-.641-.005zM52.146.866c-.056-.073-.117-.36-.136-.638-.02-.277-.066-.559-.103-.626-.038-.067-.062-.538-.055-1.047.007-.508-.03-1.133-.084-1.387-.08-.378-.075-.489.023-.608.09-.111.143-.12.217-.04.103.11.322 1.278.409 2.181.028.289.112.704.186.923.188.55.16 1.122-.064 1.268-.217.143-.268.14-.393-.026z" fill="#000"/></svg>