<svg width="118" height="25" fill="none" xmlns="http://www.w3.org/2000/svg"><path d="M22.857 24.869c-.587-.036-1.574-.089-2.195-.117-2.211-.103-3.578-.177-3.763-.206a17.449 17.449 0 00-.909-.073 11.905 11.905 0 01-.94-.085 6.752 6.752 0 00-.625-.068 12.46 12.46 0 01-1.957-.265c-.208-.048-.407-.073-.441-.055-.035.017-.044.006-.02-.026.029-.04-.18-.066-.646-.081-.38-.012-.731-.038-.782-.057-.051-.019-.109-.123-.129-.23-.04-.224-.106-.259-.705-.369a7.903 7.903 0 01-.78-.192 7 7 0 00-.538-.15c-.26-.05-.254-.174.015-.41.283-.249.507-.352.962-.446.294-.06.698-.311.701-.436.002-.042-.269-.124-.653-.198-.104-.02-.441-.055-.751-.08a6.742 6.742 0 01-.916-.134c-.216-.055-.649-.097-1.115-.108-.827-.018-1.18-.106-1.232-.305-.018-.068-.173-.175-.393-.272-.2-.088-.348-.18-.33-.206.019-.025-.003-.035-.049-.022-.203.058-.506-.07-.614-.262-.117-.207-.062-.4.114-.395.05.001.093-.017.094-.04 0-.023.192-.045.425-.049.233-.003.434-.03.446-.06.012-.03.075-.052.139-.05.064 0 .135-.023.157-.053a.141.141 0 01.103-.054c.035 0 .049.02.031.045-.018.024.05.045.152.046.109 0 .185-.028.186-.072.001-.04.03-.057.064-.037.034.02.062.012.063-.018.003-.087-.16-.122-.45-.097a2.018 2.018 0 01-.55-.047 11.892 11.892 0 00-.375-.09 1.353 1.353 0 01-.203-.063.475.475 0 00-.235-.018c-.16.034-.213-.044-.089-.131.053-.037.095-.046.095-.019s.021.024.047-.006c.081-.093.335-.195.333-.133-.001.03.028.057.065.058.036 0 .053-.019.037-.044-.042-.064.462-.062.588.002.068.034.131.031.178-.009.085-.072.338-.096.288-.027-.059.08.143.053.224-.03.058-.059.118-.065.232-.023.2.073.267.073.149 0-.07-.043-.038-.055.127-.047.12.005.432-.015.692-.044.26-.029.548-.054.64-.056.275-.006.201-.196-.165-.426-.21-.131-.309-.23-.285-.281.023-.05.062-.06.106-.027.039.028.127.033.197.01a1.42 1.42 0 01.36-.042c.182.002.26-.031.348-.145.142-.184.163-.288.084-.428-.034-.06-.036-.095-.005-.077.031.018.097-.06.146-.173.049-.113.12-.223.16-.245.038-.022-.043-.043-.18-.047-.186-.006-.227-.021-.156-.06.072-.04.046-.054-.11-.058a.937.937 0 01-.312-.059c-.059-.03-.367-.152-.684-.274-.636-.244-1.006-.304-2.358-.387-1.036-.063-1.152-.077-1.315-.16-.165-.083-1.02-.219-1.562-.247a2.135 2.135 0 01-.719-.146 2.75 2.75 0 00-.592-.167c-.342-.05-.779-.2-.777-.267 0-.023.165-.086.365-.14.308-.082.568-.094 1.682-.072.89.018 1.397.005 1.56-.04.235-.064.46-.05 1.034.069.148.03.569.066.935.08.366.014.72.053.786.087.07.035.214.045.35.023a1.3 1.3 0 01.284-.024c.112.027 2.023.053 2.236.03a17.47 17.47 0 011.439-.074c.324-.006.62-.038.658-.07.068-.059-.047-.09-.253-.072-.044.004-.078-.021-.077-.057 0-.036-.04-.052-.089-.036-.05.016-.124-.01-.165-.056-.06-.07-.086-.072-.13-.014-.043.058-.053.058-.052-.002 0-.047-.043-.063-.118-.044-.079.02-.132-.002-.158-.069-.022-.055-.01-.108.028-.118.097-.027.259-.171.26-.233.003-.086-.243-.29-.308-.255-.033.017-.043-.006-.023-.05.03-.063.004-.076-.104-.053-.113.023-.133.01-.1-.061.062-.134-.07-.18-.178-.063-.059.065-.08.072-.059.018.038-.093-.251-.25-.358-.194-.037.02-.045.006-.018-.03.026-.035.017-.065-.02-.066-.036 0-.067.037-.069.083-.003.12-.127.103-.13-.017 0-.083-.009-.081-.055.013-.029.061-.045.125-.035.142.01.017-.036.033-.103.036-.147.007-.154-.038-.02-.12.078-.05.023-.06-.255-.053-.209.005-.338-.012-.316-.043.021-.029-.018-.04-.089-.025-.073.015-.125-.001-.124-.04 0-.036-.032-.048-.073-.027-.052.028-.06.008-.023-.067a1.05 1.05 0 00.067-.183c.029-.13.19-.165.385-.082.102.043.15.08.107.081-.154.005-.079.115.082.119.118.003.154-.02.13-.08-.018-.046-.004-.098.032-.116.04-.022.035-.067-.015-.126-.067-.077-.064-.086.02-.055.054.02.14.01.189-.019.07-.043.066-.048-.022-.025-.094.025-.104.006-.065-.123.025-.083.07-.165.098-.18.092-.052-.005-.274-.106-.242-.065.02-.086-.002-.07-.076.017-.077-.01-.103-.103-.096-.069.005-.09-.004-.046-.02s.066-.051.049-.078c-.018-.026.026-.082.097-.124.07-.042.11-.094.088-.114-.023-.021.013-.038.08-.037.098.002.104-.008.029-.052-.06-.036-.107-.033-.138.01-.026.035-.065.048-.086.028-.04-.037.084-.273.168-.323.07-.04.156-.296.089-.261-.032.016-.09-.018-.128-.077-.063-.095-.052-.105.1-.092.107.009.165-.012.156-.057-.007-.038.008-.067.034-.063.129.022.204-.01.206-.086.002-.046.033-.083.07-.082.036 0 .05-.022.032-.051-.02-.029.001-.064.045-.079.048-.016.036-.03-.03-.034-.06-.003-.109-.026-.108-.05 0-.023-.098-.04-.219-.038-.12.002-.203-.019-.183-.046.02-.027-.024-.05-.097-.053-.073-.001-.115-.027-.092-.058.022-.03.007-.056-.033-.057-.042 0-.056-.04-.031-.093.035-.076.026-.08-.056-.022-.08.056-.097.053-.095-.016.001-.047.06-.097.129-.111.076-.016.128-.074.13-.145.002-.1-.024-.115-.17-.09-.143.023-.154.018-.065-.03.102-.055.1-.07-.021-.201-.072-.078-.173-.143-.224-.144-.189-.005-.018-.06.236-.077.153-.01.246.005.224.035-.02.028-.01.052.025.053.035 0 .078-.02.096-.044.019-.026.127-.04.24-.03.114.007.24-.008.281-.035.046-.03.09-.026.114.01.026.041.077.043.158.007a.675.675 0 01.264-.045c.223.012.994-.032 1.047-.06.043-.022.73-.084.94-.085.11 0 .106-.265-.006-.343-.05-.036-.096-.135-.101-.22-.006-.098-.04-.147-.088-.132-.045.014-.063-.007-.043-.05.023-.05-.03-.09-.152-.117-.206-.046-.35-.172-.29-.254.022-.03-.017-.04-.088-.026-.09.019-.126-.001-.124-.07.002-.052-.053-.11-.122-.128-.139-.036-.16-.105-.048-.163.046-.024.056-.014.026.027-.026.035-.024.062.004.058.135-.018.208.018.206.099-.003.116.149.074.18-.049.012-.052 0-.091-.03-.088-.174.023-.27-.023-.268-.127.002-.063.031-.1.065-.08.034.02.063-.015.065-.079.002-.063.043-.115.09-.113a.154.154 0 00.128-.085c.022-.047.014-.072-.018-.056-.032.017-.07-.002-.084-.04-.013-.04-.018-.028-.01.026.007.055-.013.098-.044.098-.031-.001-.056-.032-.055-.069.001-.036-.04-.018-.09.04-.068.079-.073.118-.02.149.04.023.015.036-.06.03-.115-.01-.192-.16-.08-.157.024 0 .063-.075.086-.167.034-.133.076-.167.201-.164.088.002.16-.022.16-.053.001-.03.059-.054.128-.053.133.003.166.086.057.143-.116.06-.009.126.189.116.256-.014.32-.076.089-.088-.18-.01-.18-.01-.025-.046l.158-.037-.139-.072c-.16-.083-.182-.181-.038-.178.053.001.08.027.057.058-.022.03-.01.056.026.056.037.001.068-.049.07-.11.002-.068.045-.112.11-.11.091.002.09-.009-.014-.08-.096-.067-.127-.07-.153-.012-.02.044-.08.056-.15.031-.11-.037-.11-.045-.008-.133a.374.374 0 01.2-.09c.08.002.118-.066.101-.18-.003-.024.038-.042.092-.04.054 0 .082-.022.063-.052-.045-.069.076-.132.16-.082.044.025.04.062-.01.115-.055.056-.057.078-.006.08.073 0 .095-.067.079-.246-.013-.14.108-.198.396-.193.139.003.23-.02.222-.058-.01-.04.122-.06.363-.056.207.004.412-.017.456-.047.044-.029.162-.036.262-.016.13.026.206.01.267-.057.046-.052.059-.076.027-.053-.031.022-.134-.068-.227-.202-.094-.134-.171-.22-.172-.192-.001.028-.057.003-.125-.054-.067-.058-.12-.132-.119-.166.002-.034.031-.017.065.038s.108.101.165.102c.076.002.086-.014.035-.062a.137.137 0 01-.031-.146c.03-.066.047-.067.088-.005.038.056.052.046.053-.036.003-.14-.14-.325-.21-.271-.028.022-.03.008-.004-.03.027-.039.074-.055.106-.037.031.019.058.009.059-.022 0-.031-.025-.072-.058-.091-.08-.046 0-.209.144-.297.065-.04.1-.098.079-.13-.026-.04.013-.045.109-.016.12.035.134.03.072-.032-.093-.092-.096-.262-.005-.287.062-.017.08-.113.06-.34-.005-.058-.061-.1-.14-.102-.075-.002-.101-.02-.062-.043.1-.058.163-.226.1-.263-.03-.017-.067 0-.084.039-.016.038-.046.056-.066.04-.02-.018-.01-.067.022-.11.05-.067.078-.063.185.028.123.105.126.105.134 0 .004-.058.021-.074.038-.035.016.039.058.072.094.072.035.001.049-.036.03-.083-.018-.046-.013-.08.011-.075a.78.78 0 00.225-.052c.099-.034.205-.046.236-.028s.057.005.059-.03c0-.035.027-.048.059-.03.031.02.075.01.096-.018.02-.03.087-.051.147-.05.173.005.281-.024.57-.15.15-.066.311-.118.36-.117.047 0 .099-.029.114-.066.03-.073.615-.095.613-.023 0 .022.078.024.173.002.189-.042.588-.024.876.04.15.032.196.016.267-.096.048-.074.07-.16.05-.19-.05-.078-.474-.14-1.165-.173-.328-.015-.658-.06-.733-.098a.51.51 0 00-.187-.065 2.983 2.983 0 01-.277-.005c-.172-.01-.235-.04-.258-.125-.024-.092.002-.113.137-.111.16.001.162-.002.05-.083-.106-.075-.058-.081.456-.058.316.015.574.042.574.06 0 .02.077.029.172.021a22.244 22.244 0 011.317-.067c.144 0 .25-.02.233-.044-.016-.025.022-.048.084-.051.248-.013.307-.022.417-.063.062-.024.17-.137.24-.251.128-.212.333-.331.372-.218.015.044.05.043.116-.004.06-.042.11-.046.136-.01.042.059 1.055.082 1.122.025.021-.018.072-.007.112.024.076.06.456.06.572-.001.038-.02.166-.01.284.022.118.032.736.083 1.372.114.637.03 1.525.075 1.973.1 2.417.139 3.155.17 4.658.198 1.181.023 1.647.05 1.646.095-.001.045.021.046.082.004.085-.06.463-.067 1.552-.03.328.011.624.019.659.017l.755-.041c.38-.02.738-.024.795-.006.057.017.12.01.138-.016.02-.026.27-.047.557-.047.287 0 .684-.023.882-.05.198-.026.722-.051 1.164-.055.441-.004 1-.012 1.242-.018.242-.006.493.014.556.046.064.03.101.033.083.005-.019-.029.23-.043.574-.032.334.01.708-.01.83-.044.167-.047.232-.046.265.004.03.045.045.047.047.004.002-.038.178-.062.459-.064.622-.003 2.518.035 2.903.058.172.01.568.008.88-.004.75-.03 1.915-.02 1.914.016 0 .043.3.03.805-.035.253-.033.535-.04.628-.016.218.057.64.08.64.036 0-.019.079-.032.174-.03 1.756.042 5.07.012 5.182-.047.027-.014.048-.003.047.024 0 .028.084.041.187.03a.765.765 0 01.298.024c.138.055.389.078.359.032-.012-.019.463-.018 1.057.002.593.02 1.08.04 1.079.046 0 .005.176.019.392.03.215.01.392.003.393-.017 0-.02.1-.014.22.014.12.027.23.032.247.01.015-.021.284-.031.597-.023.339.01.57-.006.57-.04.002-.033.022-.03.048.007.055.077.529.083.594.008.032-.037.048-.036.047.001 0 .031.105.056.235.055.13 0 .3.022.38.051a.38.38 0 00.26 0c.113-.051.377-.067 1.733-.103.345-.01.911-.033 1.257-.053.346-.02 1.124-.028 1.728-.019.604.01 1.212.002 1.35-.018.14-.02.903-.027 1.697-.014 1.865.029 3.269.015 3.828-.037l1.17-.11A58.966 58.966 0 0177.2.088c.415-.026.882-.057 1.038-.07a5.824 5.824 0 011.45.063c.264.05 1.07.092 2.245.118 1.007.022 1.852.052 1.875.065.024.013 1.088.065 2.365.114 1.277.05 2.547.107 2.823.127 1.548.117 2.724.166 5.3.218.363.007.759.023.88.036.26.027 1.467.103 2.601.164 2.451.133 3.366.175 5.018.234 1.001.036 1.918.081 2.038.1.121.02.445.05.721.068.51.033 1.093.108 1.168.15.023.014.234.042.469.063.236.022.597.067.803.101.207.034.46.075.563.09.103.015.417.086.697.157a5.1 5.1 0 00.64.133c.072.002.13.024.129.05 0 .026.034.048.077.05.424.012 1.437.122 1.596.172.111.034.259.14.329.233.139.184.515.373.862.433.434.074 1.185.154 1.343.142.088-.006.16.015.159.049-.001.033.018.044.042.023.024-.02.101.014.171.076.07.063.316.207.546.32.336.167.507.215.863.241.471.035.554.085.502.302-.034.138-.287.246-.562.24-.079-.002-.162.021-.184.052-.023.03-.137.053-.254.05-.33-.008-.85.095-.85.168 0 .12.474.277.941.312.253.019.841.058 1.307.087.94.058 1.039.075 1.085.193.069.173-.81.737-1.526.979-.231.078-.348.158-.429.292-.138.23-.078.342.294.55.145.08.262.185.261.233-.001.047.039.125.089.172.143.135.104.27-.108.376a3.34 3.34 0 00-.471.319c-.231.185-.326.223-.584.235-.227.01-.337.045-.417.135-.059.067-.095.142-.079.166.016.025 0 .044-.036.043-.035 0-.099.055-.141.124-.042.068-.055.107-.029.086.067-.053.236.115.185.183-.023.032.008.044.074.03.063-.015 0 .021-.14.08-.14.058-.344.104-.454.103a1.38 1.38 0 00-.363.048c-.12.037-.163.033-.162-.018 0-.038-.03-.026-.066.026-.123.179-.01.378.301.528.161.078.335.202.386.277.052.074.204.168.339.207.503.148.573.44.131.543-.276.064-.411.243-.334.44.04.102.038.149-.007.148-.116-.003-.231.135-.228.273.003.137-.002.139-.534.236a1.059 1.059 0 00-.35.172 2.332 2.332 0 01-.368.22c-.096.041-.176.112-.177.157-.003.104-.231.207-.502.226-.297.022-.42.088-.436.236-.014.124.227.393.354.396.077.002.425.333.423.403-.003.096-.231.157-.67.179a8.12 8.12 0 00-.751.074c-.287.048-1.313.18-1.547.2-.097.008-.146.207-.05.21.028 0 .022.047-.015.104-.036.057-.046.122-.023.144.079.074.03.787-.059.866-.047.041-.215.08-.374.086-.256.01-.428.094-.372.183.011.017-.021.063-.07.101-.049.04-.089.052-.088.03 0-.024-.033-.013-.075.022-.055.047-.097.047-.157.001-.059-.046-.132-.046-.271.002-.321.11-.221.282.209.361.481.09.589.13.513.194-.021.017-.467.03-.993.028-1.118-.004-1.247.039-1.35.449-.033.133-.13.334-.215.449-.14.188-.252.434-.262.58-.002.03-.099.061-.216.069-.145.009-.222.047-.246.12-.019.059-.059.093-.089.075-.03-.018-.055-.006-.056.025-.001.031-.132.121-.29.2-.45.222-.517.41-.189.53.153.056.159.099.049.334-.081.172.123.289.795.454.651.16.833.266.642.373-.118.067-.969-.018-2.306-.23-.606-.096-.862-.058-1.003.149-.14.206-.285.265-.702.285-.346.016-.672.162-.676.302-.002.086.274.174.594.188.241.011.524.166.383.21a.644.644 0 00-.176.105c-.052.045-.095.066-.094.048.002-.068-.385.136-.463.245-.098.135-.428.316-.558.306-.324-.024-.754.005-.755.05-.003.087.321.344.389.309.034-.018.042-.006.018.027a.066.066 0 00.02.098c.035.02.046.061.025.09-.022.03-.006.094.036.14.118.135-.002.186-.482.205a7.1 7.1 0 00-.724.066c-.156.027-.68.095-1.166.15-.485.056-1.04.146-1.234.2a2.971 2.971 0 01-.742.09 4.216 4.216 0 00-.846.096c-.432.098-.58.1-2.654.024a150.226 150.226 0 01-2.728-.117c-.764-.053-1.703-.135-1.832-.16-.06-.012-.795-.055-1.631-.095-1.197-.057-1.703-.058-2.371-.005-.468.038-1.327.073-1.909.079-.582.005-1.162.019-1.288.03-.436.037-1.93.092-2.807.103-.484.006-1.36.024-1.949.04-.587.015-1.775.027-2.638.027a70.182 70.182 0 00-1.76.012 56.73 56.73 0 01-1.576.019c-.764.002-1.47.011-1.571.02-.193.017-.669.035-2.352.09-1.32.045-2.313.103-3.132.185a10.75 10.75 0 01-.887.06 1.842 1.842 0 00-.423.043 3.751 3.751 0 01-.58.069 11.95 11.95 0 00-1.009.117 12.96 12.96 0 01-.989.12c-.207.011-.59.04-.85.065a25.5 25.5 0 01-.85.063c-.207.01-.684.052-1.06.09-.375.04-.913.081-1.195.093-.283.012-.676.037-.874.056-.199.019-.708.031-1.132.028-.423-.004-.983.012-1.242.034-.513.044-1.604.072-2.452.063a6.98 6.98 0 00-.817.035c-.156.023-1.23.033-2.388.023-1.156-.01-2.164-.008-2.239.004-.074.012-.682.026-1.35.032-.67.005-1.358.015-1.53.02a93.6 93.6 0 01-1.415.02c-.604.006-1.34.02-1.634.034a5.597 5.597 0 01-.596.008c-.035-.009-.473.002-.975.024-.501.022-1.194.047-1.54.056-.346.01-.728.025-.849.035-.121.01-.602.026-1.069.035-.466.009-.862.024-.88.033-.017.01-.385.025-.817.035-.433.01-.843.028-.912.039-.127.02-4.575-.01-6.5-.042a58.14 58.14 0 01-2.101-.083zm-12.739-7.245c.032-.001.007-.055-.055-.12-.097-.1-.176-.116-.551-.11-.242.003-.45.033-.463.065-.034.086.399.192.73.178l.34-.013zm1.569-3.035c0-.013-.028-.025-.062-.026-.035 0-.064.025-.065.058 0 .033.027.045.062.026.035-.018.064-.044.065-.058zM8.533 12.84c0-.012-.042-.038-.095-.057-.056-.021-.081-.012-.06.02.035.054.154.083.155.037zm.75-1.774c-.06-.057-.068-.05-.036.03.022.056.056.088.076.071.02-.017.001-.062-.04-.101zm.52-.663c-.06-.057-.067-.05-.035.03.022.056.056.088.076.072.02-.017.002-.063-.04-.102zm-.468-.333c-.02-.032-.05-.058-.065-.058-.016 0-.029.025-.03.056 0 .03.029.056.065.057.037.001.05-.024.03-.055zm2.567-2.622c-.045-.017-.1-.017-.12.002-.022.018.015.032.08.03.074 0 .09-.013.04-.032zm-.008-.148c-.094-.073-.243-.295-.24-.36 0-.02.042-.002.094.038.122.095.196.031.096-.083-.089-.1-.252-.026-.256.117 0 .044-.024.067-.05.052-.028-.016-.055.02-.062.08-.008.072.028.108.11.11.066.002.12.028.12.06-.001.03.061.056.14.057.12.001.127-.009.048-.07zm-.373-.128c0-.014.03-.04.064-.058.036-.019.063-.007.063.026a.062.062 0 01-.065.058c-.034 0-.062-.013-.062-.026zm1.143-1.144c.006-.07-.004-.095-.021-.056-.018.038-.058.055-.089.037-.03-.018-.04.007-.02.055.05.128.118.11.13-.036zm-.321-.053c.07-.097-.006-.119-.095-.028-.051.052-.057.084-.015.085a.15.15 0 00.11-.057zm2.092-1.882c0-.012-.041-.038-.093-.057-.05-.019-.094-.01-.094.02-.001.03.04.056.092.057.052 0 .095-.008.095-.02zM3.841 18.83c0-.03.03-.068.065-.086.035-.019.063.006.061.054-.001.048-.03.087-.065.086-.035 0-.062-.025-.061-.054zm2.69-4.561a.175.175 0 01.15-.032c.046.015.017.04-.068.058-.105.022-.13.014-.082-.026zm.893.03c-.064-.04-.069-.059-.014-.063.138-.01.172-.019.249-.06a.092.092 0 01.119.026c.027.042.016.051-.028.025-.042-.025-.072-.006-.074.046-.003.099-.114.11-.252.026zm-.32-.134c.05-.042.095-.044.135-.006.04.037.015.059-.074.063-.101.004-.116-.01-.06-.057zm1.604-.824c0-.048.03-.071.064-.052.034.02.06.06.06.09 0 .028-.03.052-.064.05-.035 0-.062-.04-.06-.088zm.096-.938c.107-.173.118-.178.103-.046-.007.064-.05.129-.096.144-.066.02-.068.001-.007-.098zm.432-2.052c-.052-.03-.022-.057.094-.08.21-.042.25-.016.098.065-.063.033-.149.04-.192.015zm1.377-3.771c.021-.019.075-.02.12-.002.05.02.034.032-.039.033-.066.001-.103-.013-.081-.031zm.194-.22c.022-.019.076-.02.12-.002.05.019.035.032-.038.033-.066 0-.103-.014-.082-.032zm1.139-.695c-.001-.06.014-.092.035-.073.02.02.021.068.002.108-.022.044-.036.03-.037-.035zm2.28-3.073c-.055-.034-.062-.056-.017-.055a.15.15 0 01.112.058c.046.07.024.07-.095-.003z" fill="#000"/></svg>