<svg width="294" height="294" fill="none" xmlns="http://www.w3.org/2000/svg"><path d="M145.953 79.314c10.867 0 19.676-9.113 19.676-20.354s-8.809-20.354-19.676-20.354c-10.866 0-19.675 9.113-19.675 20.354s8.809 20.354 19.675 20.354z" fill="#FF0001" stroke="#000" stroke-width="2" stroke-miterlimit="10"/><path d="M126.391 83.91l-26.146 29.9c-1.938 2.005-3.008 7.123-2.366 10.678l2.442 14.377 2.933 17.215c.554 2.513 2.014 4.389 4.355 5.639a7.22 7.22 0 003.361.859c1.448.026 2.845-.039 4.104-.273 2.077-.456 3.626-1.797 4.696-3.985.604-1.237.906-2.591.956-3.972l.177-4.896c.025-.625 0-1.25-.076-1.862l-1.662-14.195-.793-8.425a6.47 6.47 0 01.038-1.393v-.274c.013-.99.353-1.953.919-2.761l6.722-9.61v40.161c0 .521-.063 1.028-.201 1.523l-20.016 75.79c-1.107 7.579.642 12.462 4.734 14.012 4.934 2.461 9.567 1.224 13.343-2.761 1.209-1.263 2.065-2.839 2.543-4.545l20.04-70.086a.202.202 0 01.391 0l8.195 31.098 12.474 40.499c1.31 4.076 4.759 6.29 9.039 6.941 1.221.182 2.467.169 3.676-.065 4.909-.951 7.187-3.868 7.641-10.744a15.506 15.506 0 00-.491-4.987l-19.575-74.175a8.647 8.647 0 01-.29-2.201V111.14l6.357 8.842c.34.482.617 1.016.794 1.589l.163.521c.139.417.202.846.202 1.289v3.712c0 .351-.026.69-.063 1.041l-2.216 19.703c-.05.456-.075.925-.063 1.393l.176 6.42c.491 3.829 2.506 5.939 5.64 6.759.378.104.755.156 1.133.182 3.965.3 6.634-.39 8.698-3.047 1.058-1.367 1.725-2.995 2.027-4.714l5.174-30.524a7.36 7.36 0 00.113-1.485 28.34 28.34 0 00-.176-2.813 12.88 12.88 0 00-2.996-6.758l-24.761-28.962a2.035 2.035 0 00-1.561-.729h-39.074c-.252 0-.529.13-.73.352z" fill="red" stroke="#000" stroke-width="2" stroke-miterlimit="10"/><path d="M126.064 119.149l48.98-26.41 2.354 2.761-51.334 23.649zm0-5.639l42.988-27.373 2.455 2.475-45.443 24.898z" fill="#000"/><path d="M181.011 203.989l-20.292 10.418 21.123-7.813-.831-2.605zm1.259 6.511l-20.292 10.418 21.123-7.813-.831-2.605z" fill="#000" stroke="#000" stroke-width=".25" stroke-miterlimit="10"/><path d="M196.595 125.647l1.687-.951c.906-.651 1.611-1.64 2.14-2.917l3.89-1.315c.138-.039.264-.091.39-.156l4.028-1.81c.139-.065.277-.143.416-.222 1.598-.781 3.046-1.614 4.229-2.539.189.495.391.964.617 1.393.101.196.239.365.403.508.227.404.743.821 1.372 1.25a.59.59 0 01.189.508l-.138 1.394c-.026.273.012.547.113.807l.038.104c.088.209.188.417.327.599l2.203 2.943c.025.039.012.091-.038.091l-4.167 1.094-2.958 1.107-3.474 1.459c-1.448.625-2.77 1.328-3.928 2.122-1.12-.651-2.366-.924-3.764-.794l-1.523.612-2.052-5.287z" fill="#615C54"/><path d="M143.662 169.089c-2.266-1.106-4.305-2.852-4.922-4.753-.906-2.188-.906-3.893-.227-5.573.177-.443.517-1.185.819-1.563.352-.417.78-.521 1.296-.677h.013l23.477-9.767 19.461-8.555 15.094-6.733c2.014-.899 3.889-1.393 5.224-.3l1.145-.742.743-.443c.252-.143.529-.221.78-.325l2.644-1.237.894-.378 2.958-1.107.78-.325 4.935-1.394c-1.888-2.526-2.933-4.024-2.732-3.985-.201-.625-.201-1.523 0-2.5-1.397-.742-2.19-1.94-2.631-3.555-.881.69-1.762 1.289-2.656 1.719-.491.274-.982.534-1.183.638-.957.534-1.788 1.068-2.82 1.446l-1.007.416c-.957.508-2.014.808-3.071 1.146l-1.058.313-1.498.495c-.654 1.979-1.976 3.451-3.625 3.88l-34.542 13.661-18.341 7.422-2.266-3.776-1.246-1.498c-2.027-1.979-4.306-3.294-6.861-3.893a5.21 5.21 0 00-3.487.416c-.277.144-.655.287-.931.443-.026.013-.063.039-.089.052a9.611 9.611 0 00-2.228 1.706l-5.048 5.378c-.906.717-2.001.886-3.172.717-6.483-2.071-11.933-3.79-15.433-3.777-1.913.143-3.563.534-5.413.99l-2.417 1.016c-.919.39-1.8.898-2.593 1.51l-1.75 1.355a11.843 11.843 0 00-2.215 2.239l-.44.586a17.227 17.227 0 00-1.75 2.8c-.819 1.615-1.499 2.982-1.813 4.779l-.139.326c-.189 1.107-.39 2.149-.415 3.268l-.038.56c-.025 1.459.126 3.139.352 4.571l.026.391c.189 1.198.314 2.331.705 3.477l1.61 3.776.404 1.042 1.384 3.868c.705 1.458 1.448 2.969 2.442 4.232.907 1.146 2.015 2.539 3.085 3.555 1.724 1.406 3.688 2.513 5.652 3.438 1.838.716 3.587 1.003 5.438 1.224 2.719.534 5.979-.052 9.101-1.393 3.877-1.758 7.05-4.845 9.504-8.699 3.009-5.3 5.199-9.533 6.332-9.806 1.271-1.068 3.21-.807 6.886-.729.277 0 .755-.013 1.032-.026l1.8-.078c.567-.04 1.397-.196 1.926-.404l2.115-.86z" fill="#0F0E0A"/><path d="M196.797 125.855l1.372-.69c.189-.091.352-.208.516-.351.869-.808 1.536-1.706 1.976-2.735 2.065-.703 3.676-1.263 4.444-1.589l3.651-1.536c.138-.066.289-.131.415-.209l4.053-2.344.542 1.055c.163.326.403.625.68.859l1.158 1.003-.126 1.12c-.063.235-.038.638.05.873.088.234.139.56.315.807.088.208.239.365.365.547l1.762 2.409-1.208.234-.894.17c-.214.039-.415.104-.629.169l-.793.287-2.153.716c-.151.052-.29.104-.441.169l-4.229 1.771-.982.521-2.694 1.432c-.743-.299-1.611-.468-2.606-.52a5.043 5.043 0 00-2.19.364l-.642.261-.315-.795c2.644-.976 4.293-2.214 4.633-3.828-.705-.782-2.631-.56-5.904.586l-.277-.704.151-.052z" fill="red"/><path d="M138.941 157.512c-1.17 1.824-1.409 3.842-.893 6.043.705 2.617 2.266 4.44 4.62 5.482-.97.378-1.863.69-2.442.755l-8.019.157c-1.083-.039-2.216.403-3.412 1.263-.78.781-1.46 1.641-2.014 2.604l-3.084 6.017a29.23 29.23 0 01-2.857 4.024c-2.304 2.448-4.759 4.284-7.402 5.391-4.545 2.005-9.253 1.927-14.137-.143-3.6-1.863-6.596-4.519-8.862-8.126a58.346 58.346 0 01-5.023-11.681c-1.195-5.04-1.12-9.702.252-13.999 2.102-5.209 5.526-8.829 10.41-10.705 3.311-1.484 6.786-1.784 10.386-1.12 2.719.613 5.451 1.407 8.22 2.357 2.656.847 4.519 1.107 5.476.678 1.964-.482 3.6-3.295 5.576-5.235 1.7-1.654 3.173-2.527 4.243-2.982 1.057-.469 2.127-.665 3.197-.469 2.832.651 5.098 2.24 6.974 4.492 1.196 1.407 2.115 2.8 2.82 4.207l-4.029 10.99z" fill="#FF2727" stroke="#000" stroke-width="2" stroke-miterlimit="10"/><path d="M109.963 184.117c.737 0 1.335-.618 1.335-1.38 0-.763-.598-1.381-1.335-1.381s-1.334.618-1.334 1.381c0 .762.597 1.38 1.334 1.38z" fill="url(#paint0_linear_9_1058)" stroke="#000" stroke-width=".25" stroke-miterlimit="10"/><path d="M115.766 181.278c.737 0 1.335-.618 1.335-1.38 0-.762-.598-1.38-1.335-1.38-.736 0-1.334.618-1.334 1.38 0 .762.598 1.38 1.334 1.38z" fill="url(#paint1_linear_9_1058)" stroke="#000" stroke-width=".25" stroke-miterlimit="10"/><path d="M119.241 176.186c.737 0 1.334-.618 1.334-1.38 0-.762-.597-1.38-1.334-1.38-.737 0-1.334.618-1.334 1.38 0 .762.597 1.38 1.334 1.38z" fill="url(#paint2_linear_9_1058)" stroke="#000" stroke-width=".25" stroke-miterlimit="10"/><path d="M132.081 151.158l64.514-25.511 2.14 5.456-63.595 27.855-3.059-7.8z" fill="#241D1C"/><path d="M108.503 170.678l-3.386-8.673 1.888-.82 3.399 8.699-1.901.794z" fill="url(#paint3_linear_9_1058)" stroke="#000" stroke-width=".5" stroke-miterlimit="10"/><path d="M105.117 162.005l-.705-1.797c.34-1.016.969-1.289 1.901-.794l.692 1.784" fill="#000"/><path d="M105.117 162.005l-.705-1.797c.34-1.016.969-1.289 1.901-.794l.692 1.784" stroke="#000" stroke-width=".5" stroke-miterlimit="10"/><path d="M110.404 169.845l.705 1.797c-.34 1.016-.969 1.289-1.901.794l-.692-1.784" fill="#000"/><path d="M110.404 169.845l.705 1.797c-.34 1.016-.969 1.289-1.901.794l-.692-1.784" stroke="#000" stroke-width=".5" stroke-miterlimit="10"/><path d="M110.706 171.303a.814.814 0 01-.428 1.055.77.77 0 01-1.02-.443.804.804 0 01.265-.95.789.789 0 01.176-.105c.39-.169.843.026 1.007.443z" fill="#D02900" stroke="#4D4D4D" stroke-width=".25" stroke-miterlimit="10"/><path d="M109.535 170.939l.907 1.354" stroke="#4D4D4D" stroke-width=".25" stroke-miterlimit="10"/><path d="M106.401 160.299a.815.815 0 01-.428 1.055.77.77 0 01-1.02-.443.804.804 0 01.265-.95.785.785 0 01.176-.104c.377-.17.843.026 1.007.442z" fill="#D02900" stroke="#4D4D4D" stroke-width=".25" stroke-miterlimit="10"/><path d="M105.218 159.935l.918 1.354" stroke="#4D4D4D" stroke-width=".25" stroke-miterlimit="10"/><path d="M110.14 159.205l4.355 9.78c.881.365 1.473.026 1.637-.82l-4.457-9.728c-.881-.612-1.41-.417-1.535.768z" fill="url(#paint4_linear_9_1058)" stroke="#000" stroke-width=".25" stroke-miterlimit="10"/><path d="M110.882 159.258a.488.488 0 00.479-.495.487.487 0 00-.479-.495.486.486 0 00-.478.495c0 .273.214.495.478.495z" fill="#000" stroke="#666" stroke-width=".25" stroke-miterlimit="10"/><path d="M115.175 168.907a.487.487 0 00.478-.495.487.487 0 00-.478-.495.488.488 0 00-.479.495c0 .273.215.495.479.495z" fill="#000" stroke="#4D4D4D" stroke-width=".25" stroke-miterlimit="10"/><path d="M111.625 161.002l-.491-1.276.781.352-.29.924zm.718 1.159l-.403-1.015.742.221-.339.794zm.755 1.433l-.441-1.107.818.3-.377.807zm-.151.456l.554 1.068.226-.743-.78-.325zm.868 1.367l.378.964.315-.69-.693-.274zm.844 1.328l.365.938.315-.547-.68-.391z" fill="#000" stroke="#000" stroke-width=".25" stroke-miterlimit="10"/><path d="M113.928 155.859l5.3-2.214a.436.436 0 01.592.26l4.632 11.825a.382.382 0 01-.201.494l-5.388 2.266a.362.362 0 01-.478-.208l-4.658-11.889c-.088-.222.013-.456.201-.534z" fill="#0F0E0A"/><path d="M115.25 157.2l3.827-1.602a.504.504 0 01.655.274l3.499 8.477a.517.517 0 01-.264.677l-4.016 1.68a.482.482 0 01-.629-.273l-3.349-8.543a.524.524 0 01.277-.69z" fill="url(#paint5_linear_9_1058)" stroke="#000" stroke-width=".5" stroke-miterlimit="10"/><path d="M114.369 156.731a.371.371 0 00.365-.377.371.371 0 00-.365-.378.372.372 0 00-.365.378c0 .208.164.377.365.377zm4.998-2.227a.372.372 0 00.365-.377.372.372 0 00-.365-.378.371.371 0 00-.365.378c0 .208.163.377.365.377zm4.582 11.694a.372.372 0 00.365-.377.372.372 0 00-.365-.378.371.371 0 00-.365.378c0 .208.163.377.365.377zm-5.048 2.11a.372.372 0 00.365-.378.372.372 0 00-.365-.377.371.371 0 00-.365.377c0 .209.163.378.365.378zm-1.939-12.267a.371.371 0 00.365-.378.371.371 0 00-.365-.377.372.372 0 00-.365.377c0 .209.164.378.365.378zm4.268 10.887a.372.372 0 00.365-.378.372.372 0 00-.365-.378.371.371 0 00-.365.378c0 .209.163.378.365.378z" fill="#CB1300" stroke="#4D4D4D" stroke-width=".25" stroke-miterlimit="10"/><path d="M125.069 151.327l5.3-2.214a.435.435 0 01.591.261l4.633 11.824a.384.384 0 01-.202.495l-5.387 2.266a.363.363 0 01-.479-.209l-4.657-11.889c-.088-.222 0-.456.201-.534z" fill="#0F0E0A"/><path d="M125.497 152.199a.371.371 0 00.365-.377.371.371 0 00-.365-.378.372.372 0 00-.365.378c0 .208.164.377.365.377zm4.998-2.226a.372.372 0 00.365-.378.372.372 0 00-.365-.378.371.371 0 00-.365.378c0 .209.163.378.365.378zm4.582 11.694a.371.371 0 00.365-.378.371.371 0 00-.365-.378.371.371 0 00-.365.378c0 .209.163.378.365.378zm-5.048 2.122a.371.371 0 00.365-.377.371.371 0 00-.365-.378.371.371 0 00-.365.378c0 .208.163.377.365.377zm-1.926-12.28a.371.371 0 00.365-.377.371.371 0 00-.365-.378.371.371 0 00-.365.378c0 .208.163.377.365.377zm4.255 10.9a.372.372 0 00.365-.378.372.372 0 00-.365-.377.371.371 0 00-.365.377c0 .209.163.378.365.378z" fill="#CB1300" stroke="#4D4D4D" stroke-width=".25" stroke-miterlimit="10"/><path d="M126.454 152.499l3.827-1.602a.502.502 0 01.654.274l3.5 8.477a.518.518 0 01-.264.677l-4.016 1.68a.483.483 0 01-.63-.273l-3.348-8.543a.533.533 0 01.277-.69z" fill="url(#paint6_linear_9_1058)" stroke="#000" stroke-width=".5" stroke-miterlimit="10"/><path d="M133.264 144.699c.633 0 1.146-.531 1.146-1.185 0-.655-.513-1.185-1.146-1.185-.633 0-1.145.53-1.145 1.185 0 .654.512 1.185 1.145 1.185z" fill="#000" stroke="#4D4D4D" stroke-width=".25" stroke-miterlimit="10"/><path d="M133.264 143.956a.435.435 0 00.428-.442.435.435 0 00-.428-.443.436.436 0 00-.428.443c0 .244.192.442.428.442z" fill="#CB1300" stroke="#4D4D4D" stroke-width=".25" stroke-miterlimit="10"/><path d="M140.238 141.196l.428-.183c.126-.052.176-.195.126-.312l-.126-.313c-.025-.078 0-.156.063-.195l.113-.065a.207.207 0 01.227.026l1.095.937a.466.466 0 01.151.378l-.013.104c-.012.118-.113.196-.226.17l-.302-.079a.204.204 0 00-.151.013l-.227.092a.228.228 0 00-.138.221v.508l-1.02-1.302z" fill="url(#paint7_linear_9_1058)" stroke="#000" stroke-width=".25" stroke-miterlimit="10"/><path d="M86.826 174.91l-.403.17a.136.136 0 00-.075.169l.088.312a.099.099 0 01-.113.131l-.315-.092c-.063-.013-.113-.065-.138-.13l-.466-1.185a.332.332 0 010-.221l.126-.313a.108.108 0 01.201 0l.189.391c.025.052.1.078.15.052l.492-.26.365.924-.1.052z" fill="url(#paint8_linear_9_1058)" stroke="#000" stroke-width=".25" stroke-miterlimit="10"/><path d="M201.782 120.933l-.29-.729c-.012-.039-.038-.078-.063-.118l-1.183-1.549c-.063-.091-.063-.209.012-.287l.252-.299a.969.969 0 01.39-.287l.466-.195a.989.989 0 01.542-.078l.289.039a.208.208 0 01.176.208l.025 2.136c0 .065.013.13.038.182l.277.716-.931.261zm12.16 5.782l.34.703.075.117 1.297 1.446c.075.078.075.195.013.286l-.227.326a1.06 1.06 0 01-.365.312l-.453.235a.978.978 0 01-.542.117l-.289-.013c-.101 0-.189-.091-.202-.195l-.201-2.123a.436.436 0 00-.05-.182l-.34-.691.944-.338zm-8.145-7.202l-.289-.729a.558.558 0 00-.063-.117l-1.183-1.55c-.063-.091-.063-.208.012-.286l.252-.3a.966.966 0 01.39-.286l.466-.195a.978.978 0 01.541-.079l.29.039a.21.21 0 01.176.209l.025 2.135a.43.43 0 00.038.183l.239.599-.894.377zm4.293 8.712l.29.73c.012.039.037.078.062.117l1.196 1.536a.242.242 0 010 .287l-.251.3a.97.97 0 01-.391.286l-.465.208a.98.98 0 01-.542.078l-.289-.026a.208.208 0 01-.176-.208l-.051-2.136a.415.415 0 00-.038-.182l-.239-.599.894-.391zm-.466-10.587l-.201-.495c-.013-.039-.038-.078-.063-.117l-1.183-1.549c-.063-.092-.063-.209.012-.287l.252-.299a.96.96 0 01.39-.287l.466-.195a.986.986 0 01.541-.078l.29.039c.1.013.176.104.176.208l.025 2.136c0 .065.013.13.038.182l.101.26-.844.482zm-3.436 12.515l.188.508a.558.558 0 00.063.117l1.171 1.563c.063.091.063.208-.013.286l-.251.299a1.05 1.05 0 01-.391.287l-.465.195a1.116 1.116 0 01-.542.065l-.276-.039a.208.208 0 01-.177-.208l-.012-2.136a.43.43 0 00-.038-.182l-.101-.26.844-.495z" fill="#FF1D25" stroke="#000" stroke-width=".25" stroke-miterlimit="10"/><path d="M203.028 123.433c.535 0 .969-.449.969-1.003 0-.553-.434-1.002-.969-1.002-.535 0-.969.449-.969 1.002 0 .554.434 1.003.969 1.003zm4.003-1.406c.535 0 .969-.449.969-1.003 0-.554-.434-1.003-.969-1.003-.535 0-.969.449-.969 1.003 0 .554.434 1.003.969 1.003zm4.104-1.849c.535 0 .969-.449.969-1.003 0-.554-.434-1.003-.969-1.003-.536 0-.97.449-.97 1.003 0 .554.434 1.003.97 1.003zm2.089 5.99c.536 0 .97-.449.97-1.003 0-.554-.434-1.003-.97-1.003-.535 0-.969.449-.969 1.003 0 .554.434 1.003.969 1.003zm-7.955 3.334c.535 0 .969-.449.969-1.003 0-.554-.434-1.003-.969-1.003-.536 0-.97.449-.97 1.003 0 .554.434 1.003.97 1.003zm3.99-1.797c.535 0 .969-.449.969-1.003 0-.554-.434-1.003-.969-1.003-.535 0-.969.449-.969 1.003 0 .554.434 1.003.969 1.003z" fill="#E4290B" stroke="#000" stroke-width=".25" stroke-miterlimit="10"/><path d="M196.96 126.598c3.248-1.185 5.086-1.303 5.867-.612.025.013.037.052.025.078-.302 1.484-1.851 2.747-4.62 3.776l-1.272-3.242z" fill="#000" stroke="gray" stroke-width=".25" stroke-miterlimit="10"/><path d="M202.185 126.532c.132 0 .239-.11.239-.247a.243.243 0 00-.239-.247c-.132 0-.24.11-.24.247s.108.247.24.247z" fill="#E4290B" stroke="#4D4D4D" stroke-width=".25" stroke-miterlimit="10"/><path d="M192.403 128.434l2.417-1.146.214.56c.089.338.277.482.567.456-.189.468-.227.937-.101 1.393l1.171 1.328c-.919.039-1.762.195-2.505.521-.466-.286-.831-.612-1.07-.977-.101-.325-.088-.612.038-.859.05-.104.063-.221 0-.326a.916.916 0 00-.504-.364c-.013 0-.025-.013-.025-.026l-.202-.56zm-8.723 3.542l2.266-1.107.239.612c.101.378.302.547.579.534-.151.495-.176 1.003-.025 1.497l1.208 1.511c-.881-.013-1.686.117-2.379.417-.466-.326-.831-.703-1.082-1.12-.126-.365-.126-.677 0-.938a.387.387 0 00-.026-.351 1.021 1.021 0 00-.503-.417c-.013 0-.025-.013-.025-.026l-.252-.612zm-7.729 3.229l2.266-1.107.239.613c.101.377.302.546.579.533-.151.495-.176 1.003-.025 1.498l1.208 1.511c-.881-.013-1.687.117-2.379.416a3.75 3.75 0 01-1.083-1.12c-.125-.364-.125-.677 0-.937a.389.389 0 00-.025-.352 1.025 1.025 0 00-.503-.416c-.013 0-.025-.014-.025-.027l-.252-.612zm-6.722 2.566l1.699-.873.264.677c.126.417.302.612.529.638a3.667 3.667 0 00.151 1.589l1.146 1.745c-.718-.117-1.347-.091-1.876.143a5.245 5.245 0 01-1.007-1.328c-.139-.404-.176-.729-.113-.99a.602.602 0 00-.063-.377 1.452 1.452 0 00-.453-.508c-.013 0-.013-.013-.026-.026l-.251-.69zm-6.269 2.63l1.699-.872.264.677c.126.417.303.612.529.638a3.667 3.667 0 00.151 1.589l1.146 1.745c-.718-.118-1.347-.092-1.876.143a5.28 5.28 0 01-1.007-1.328c-.138-.404-.176-.73-.113-.99a.605.605 0 00-.063-.378 1.47 1.47 0 00-.453-.508c-.013 0-.013-.013-.026-.026l-.251-.69zm-14.615 6.004l1.221-.691.277.717c.138.429.302.651.478.703 0 .508.101 1.042.29 1.615l1.082 1.888c-.566-.209-1.057-.248-1.435-.078a7.36 7.36 0 01-.919-1.446c-.151-.417-.214-.755-.188-1.003a.754.754 0 00-.089-.377 2.016 2.016 0 00-.402-.56l-.026-.026-.289-.742zm-3.764 1.445l.743-.495.302.768c.163.456.302.704.428.782.075.508.214 1.055.44 1.667l1.02 2.07c-.428-.299-.768-.417-1.007-.299a16.228 16.228 0 01-.856-1.602c-.164-.443-.264-.794-.29-1.042a1.317 1.317 0 00-.113-.39c-.113-.235-.227-.456-.365-.626 0-.013-.013-.026-.013-.039l-.289-.794zm-3.512 1.341l.831-.534.302.782c.163.469.314.716.453.794.063.521.214 1.094.428 1.706l1.07 2.11c-.453-.3-.831-.404-1.095-.274-.34-.521-.63-1.068-.894-1.628-.164-.455-.264-.807-.277-1.067a1.542 1.542 0 00-.113-.404 3.328 3.328 0 00-.378-.638c-.013-.013-.013-.026-.025-.039l-.302-.808zm-3.072 1.159l.642-.469.315.795c.176.469.315.729.428.82.101.521.252 1.094.491 1.732l1.045 2.175c-.403-.326-.718-.469-.919-.365a16.265 16.265 0 01-.856-1.693c-.176-.468-.277-.82-.315-1.08a1.841 1.841 0 00-.126-.417 3.966 3.966 0 00-.365-.664c0-.013-.012-.026-.012-.039l-.328-.795zm-4.003 1.797l.453-.377.303.768c.163.456.289.703.39.794.113.495.277 1.042.503 1.641l.957 2.097c-.327-.339-.579-.495-.73-.417a19.558 19.558 0 01-.781-1.641c-.163-.442-.276-.781-.327-1.028a2.282 2.282 0 00-.126-.391 4.994 4.994 0 00-.327-.651c0-.013-.013-.026-.013-.039l-.302-.756zm21.262-8.881l1.095-.469 1.926 4.858-1.12.469-1.901-4.858z" fill="#E4290B" stroke="#000" stroke-width=".25" stroke-miterlimit="10"/><path d="M156.225 144.321a.243.243 0 00.239-.247.244.244 0 00-.239-.248.244.244 0 00-.239.248c0 .136.107.247.239.247zm1.045 2.657a.244.244 0 00.239-.248.243.243 0 00-.239-.247.243.243 0 00-.239.247c0 .137.107.248.239.248z" fill="#E4290B" stroke="#000" stroke-width=".25" stroke-miterlimit="10"/><path d="M132.081 151.158l3.059 7.8" stroke="url(#paint9_linear_9_1058)" stroke-width=".25" stroke-miterlimit="10"/><path d="M133.088 150.728l3.084 7.774" stroke="url(#paint10_linear_9_1058)" stroke-width=".25" stroke-miterlimit="10"/><path d="M134.309 150.272l3.034 7.722" stroke="url(#paint11_linear_9_1058)" stroke-width=".25" stroke-miterlimit="10"/><path d="M135.706 149.764l2.933 7.475" stroke="url(#paint12_linear_9_1058)" stroke-width=".25" stroke-miterlimit="10"/><path d="M137.129 149.152l2.933 7.488" stroke="url(#paint13_linear_9_1058)" stroke-width=".25" stroke-miterlimit="10"/><path d="M138.652 148.553l2.92 7.527" stroke="url(#paint14_linear_9_1058)" stroke-width=".25" stroke-miterlimit="10"/><path d="M140.25 147.915l2.883 7.501" stroke="url(#paint15_linear_9_1058)" stroke-width=".25" stroke-miterlimit="10"/><path d="M141.9 147.264l2.92 7.449" stroke="url(#paint16_linear_9_1058)" stroke-width=".25" stroke-miterlimit="10"/><path d="M143.599 146.6l2.883 7.357" stroke="url(#paint17_linear_9_1058)" stroke-width=".25" stroke-miterlimit="10"/><path d="M145.5 145.805l2.882 7.345" stroke="url(#paint18_linear_9_1058)" stroke-width=".25" stroke-miterlimit="10"/><path d="M147.526 145.037l2.845 7.254" stroke="url(#paint19_linear_9_1058)" stroke-width=".25" stroke-miterlimit="10"/><path d="M149.603 144.217l2.808 7.175" stroke="url(#paint20_linear_9_1058)" stroke-width=".25" stroke-miterlimit="10"/><path d="M151.869 143.331l2.77 7.084" stroke="url(#paint21_linear_9_1058)" stroke-width=".25" stroke-miterlimit="10"/><path d="M154.186 142.42l2.756 7.032" stroke="url(#paint22_linear_9_1058)" stroke-width=".25" stroke-miterlimit="10"/><path d="M156.64 141.443l2.707 6.915" stroke="url(#paint23_linear_9_1058)" stroke-width=".25" stroke-miterlimit="10"/><path d="M159.385 140.349l2.58 6.863" stroke="url(#paint24_linear_9_1058)" stroke-width=".25" stroke-miterlimit="10"/><path d="M162.154 139.255l2.631 6.72" stroke="url(#paint25_linear_9_1058)" stroke-width=".25" stroke-miterlimit="10"/><path d="M165.062 138.109l2.543 6.498" stroke="url(#paint26_linear_9_1058)" stroke-width=".25" stroke-miterlimit="10"/><path d="M168.209 136.872l2.518 6.42" stroke="url(#paint27_linear_9_1058)" stroke-width=".25" stroke-miterlimit="10"/><path d="M171.507 135.557l2.568 6.342" stroke="url(#paint28_linear_9_1058)" stroke-width=".25" stroke-miterlimit="10"/><path d="M175.044 134.163l2.354 6.29" stroke="url(#paint29_linear_9_1058)" stroke-width=".25" stroke-miterlimit="10"/><path d="M178.796 132.679l2.391 6.12" stroke="url(#paint30_linear_9_1058)" stroke-width=".25" stroke-miterlimit="10"/><path d="M182.66 131.155l2.329 5.978" stroke="url(#paint31_linear_9_1058)" stroke-width=".25" stroke-miterlimit="10"/><path d="M186.877 129.489l2.279 5.821" stroke="url(#paint32_linear_9_1058)" stroke-width=".25" stroke-miterlimit="10"/><path d="M191.245 127.757l2.216 5.664" stroke="url(#paint33_linear_9_1058)" stroke-width=".25" stroke-miterlimit="10"/><path d="M195.802 125.959l.793-.312 2.14 5.456-.78.352-2.153-5.496z" fill="#666"/><path opacity=".4" d="M107.345 162.057l96.325-38.884m-95.821 40.161l89.275-36.333 10.562-5.235" stroke="#CCC" stroke-width=".25" stroke-miterlimit="10"/><path opacity=".4" d="M108.453 164.883l89.049-36.905 14.388-8.178m-102.871 46.542l88.873-37.387 14.968-4.714" stroke="#CCC" stroke-width=".25" stroke-miterlimit="10"/><path opacity=".4" d="M109.498 167.566l88.734-37.739 10.385-3.802" stroke="#CCC" stroke-width=".25" stroke-miterlimit="10"/><path opacity=".4" d="M110.14 169.181l88.407-38.559 6.357-3.048" stroke="#CCC" stroke-width=".25" stroke-miterlimit="10"/><circle cx="147" cy="147" r="140" stroke="red" stroke-width="14"/><defs><linearGradient id="paint0_linear_9_1058" x1="110.4" y1="184.038" x2="109.342" y2="181.515" gradientUnits="userSpaceOnUse"><stop stop-color="#E72000"/><stop offset=".035" stop-color="#E11F00"/><stop offset=".082" stop-color="#D01D00"/><stop offset=".135" stop-color="#B31900"/><stop offset=".194" stop-color="#8C1300"/><stop offset=".257" stop-color="#590C00"/><stop offset=".323" stop-color="#1D0400"/><stop offset=".351"/><stop offset=".374" stop-color="#270500"/><stop offset=".406" stop-color="#5A0C00"/><stop offset=".439" stop-color="#851200"/><stop offset=".471" stop-color="#A81700"/><stop offset=".505" stop-color="#C41B00"/><stop offset=".538" stop-color="#D71E00"/><stop offset=".572" stop-color="#E31F00"/><stop offset=".606" stop-color="#E72000"/><stop offset=".631" stop-color="#DA1E00"/><stop offset=".677" stop-color="#B61900"/><stop offset=".739" stop-color="#7D1100"/><stop offset=".815" stop-color="#2E0600"/><stop offset=".856"/><stop offset="1" stop-color="#B92900"/></linearGradient><linearGradient id="paint1_linear_9_1058" x1="116.198" y1="181.204" x2="115.141" y2="178.68" gradientUnits="userSpaceOnUse"><stop stop-color="#E72000"/><stop offset=".035" stop-color="#E11F00"/><stop offset=".082" stop-color="#D01D00"/><stop offset=".135" stop-color="#B31900"/><stop offset=".194" stop-color="#8C1300"/><stop offset=".257" stop-color="#590C00"/><stop offset=".323" stop-color="#1D0400"/><stop offset=".351"/><stop offset=".374" stop-color="#270500"/><stop offset=".406" stop-color="#5A0C00"/><stop offset=".439" stop-color="#851200"/><stop offset=".471" stop-color="#A81700"/><stop offset=".505" stop-color="#C41B00"/><stop offset=".538" stop-color="#D71E00"/><stop offset=".572" stop-color="#E31F00"/><stop offset=".606" stop-color="#E72000"/><stop offset=".631" stop-color="#DA1E00"/><stop offset=".677" stop-color="#B61900"/><stop offset=".739" stop-color="#7D1100"/><stop offset=".815" stop-color="#2E0600"/><stop offset=".856"/><stop offset="1" stop-color="#B92900"/></linearGradient><linearGradient id="paint2_linear_9_1058" x1="119.677" y1="176.105" x2="118.619" y2="173.581" gradientUnits="userSpaceOnUse"><stop stop-color="#E72000"/><stop offset=".035" stop-color="#E11F00"/><stop offset=".082" stop-color="#D01D00"/><stop offset=".135" stop-color="#B31900"/><stop offset=".194" stop-color="#8C1300"/><stop offset=".257" stop-color="#590C00"/><stop offset=".323" stop-color="#1D0400"/><stop offset=".351"/><stop offset=".374" stop-color="#270500"/><stop offset=".406" stop-color="#5A0C00"/><stop offset=".439" stop-color="#851200"/><stop offset=".471" stop-color="#A81700"/><stop offset=".505" stop-color="#C41B00"/><stop offset=".538" stop-color="#D71E00"/><stop offset=".572" stop-color="#E31F00"/><stop offset=".606" stop-color="#E72000"/><stop offset=".631" stop-color="#DA1E00"/><stop offset=".677" stop-color="#B61900"/><stop offset=".739" stop-color="#7D1100"/><stop offset=".815" stop-color="#2E0600"/><stop offset=".856"/><stop offset="1" stop-color="#B92900"/></linearGradient><linearGradient id="paint3_linear_9_1058" x1="106.734" y1="166.358" x2="108.656" y2="165.606" gradientUnits="userSpaceOnUse"><stop stop-color="#E72000"/><stop offset=".035" stop-color="#E11F00"/><stop offset=".082" stop-color="#D01D00"/><stop offset=".135" stop-color="#B31900"/><stop offset=".194" stop-color="#8C1300"/><stop offset=".257" stop-color="#590C00"/><stop offset=".323" stop-color="#1D0400"/><stop offset=".351"/><stop offset=".377" stop-color="#1B0400"/><stop offset=".461" stop-color="#721000"/><stop offset=".53" stop-color="#B11900"/><stop offset=".58" stop-color="#D81E00"/><stop offset=".606" stop-color="#E72000"/><stop offset=".631" stop-color="#DA1E00"/><stop offset=".677" stop-color="#B61900"/><stop offset=".739" stop-color="#7D1100"/><stop offset=".815" stop-color="#2E0600"/><stop offset=".856"/><stop offset="1" stop-color="#B92900"/></linearGradient><linearGradient id="paint4_linear_9_1058" x1="111.961" y1="164.061" x2="114.109" y2="163.22" gradientUnits="userSpaceOnUse"><stop stop-color="#E72000"/><stop offset=".035" stop-color="#E11F00"/><stop offset=".082" stop-color="#D01D00"/><stop offset=".135" stop-color="#B31900"/><stop offset=".194" stop-color="#8C1300"/><stop offset=".257" stop-color="#590C00"/><stop offset=".323" stop-color="#1D0400"/><stop offset=".351"/><stop offset=".377" stop-color="#1B0400"/><stop offset=".461" stop-color="#721000"/><stop offset=".53" stop-color="#B11900"/><stop offset=".58" stop-color="#D81E00"/><stop offset=".606" stop-color="#E72000"/><stop offset=".631" stop-color="#DA1E00"/><stop offset=".677" stop-color="#B61900"/><stop offset=".739" stop-color="#7D1100"/><stop offset=".815" stop-color="#2E0600"/><stop offset=".856"/><stop offset="1" stop-color="#B92900"/></linearGradient><linearGradient id="paint5_linear_9_1058" x1="116.565" y1="162.17" x2="121.53" y2="160.226" gradientUnits="userSpaceOnUse"><stop stop-color="#BBBABF"/><stop offset=".077" stop-color="#C1A5A6"/><stop offset=".245" stop-color="#CC7D74"/><stop offset=".412" stop-color="#D65C4A"/><stop offset=".573" stop-color="#DD422A"/><stop offset=".728" stop-color="#E32F13"/><stop offset=".874" stop-color="#E62405"/><stop offset="1" stop-color="#E72000"/></linearGradient><linearGradient id="paint6_linear_9_1058" x1="127.763" y1="157.477" x2="132.728" y2="155.533" gradientUnits="userSpaceOnUse"><stop stop-color="#BBBABF"/><stop offset=".077" stop-color="#C1A5A6"/><stop offset=".245" stop-color="#CC7D74"/><stop offset=".412" stop-color="#D65C4A"/><stop offset=".573" stop-color="#DD422A"/><stop offset=".728" stop-color="#E32F13"/><stop offset=".874" stop-color="#E62405"/><stop offset="1" stop-color="#E72000"/></linearGradient><linearGradient id="paint7_linear_9_1058" x1="140.329" y1="141.631" x2="142.087" y2="140.942" gradientUnits="userSpaceOnUse"><stop stop-color="#BBBABF"/><stop offset=".077" stop-color="#C1A5A6"/><stop offset=".245" stop-color="#CC7D74"/><stop offset=".412" stop-color="#D65C4A"/><stop offset=".573" stop-color="#DD422A"/><stop offset=".728" stop-color="#E32F13"/><stop offset=".874" stop-color="#E62405"/><stop offset="1" stop-color="#E72000"/></linearGradient><linearGradient id="paint8_linear_9_1058" x1="85.556" y1="174.86" x2="86.687" y2="174.417" gradientUnits="userSpaceOnUse"><stop stop-color="#BBBABF"/><stop offset=".077" stop-color="#C1A5A6"/><stop offset=".245" stop-color="#CC7D74"/><stop offset=".412" stop-color="#D65C4A"/><stop offset=".573" stop-color="#DD422A"/><stop offset=".728" stop-color="#E32F13"/><stop offset=".874" stop-color="#E62405"/><stop offset="1" stop-color="#E72000"/></linearGradient><linearGradient id="paint9_linear_9_1058" x1="133.393" y1="155.143" x2="133.687" y2="155.028" gradientUnits="userSpaceOnUse"><stop stop-color="#fff"/><stop offset="1"/></linearGradient><linearGradient id="paint10_linear_9_1058" x1="134.398" y1="154.713" x2="134.728" y2="154.584" gradientUnits="userSpaceOnUse"><stop stop-color="#fff"/><stop offset="1"/></linearGradient><linearGradient id="paint11_linear_9_1058" x1="135.61" y1="154.22" x2="135.904" y2="154.104" gradientUnits="userSpaceOnUse"><stop stop-color="#fff"/><stop offset="1"/></linearGradient><linearGradient id="paint12_linear_9_1058" x1="136.957" y1="153.592" x2="137.251" y2="153.476" gradientUnits="userSpaceOnUse"><stop stop-color="#fff"/><stop offset="1"/></linearGradient><linearGradient id="paint13_linear_9_1058" x1="138.377" y1="152.989" x2="138.671" y2="152.874" gradientUnits="userSpaceOnUse"><stop stop-color="#fff"/><stop offset="1"/></linearGradient><linearGradient id="paint14_linear_9_1058" x1="139.882" y1="152.408" x2="140.196" y2="152.285" gradientUnits="userSpaceOnUse"><stop stop-color="#fff"/><stop offset="1"/></linearGradient><linearGradient id="paint15_linear_9_1058" x1="141.457" y1="151.767" x2="141.796" y2="151.634" gradientUnits="userSpaceOnUse"><stop stop-color="#fff"/><stop offset="1"/></linearGradient><linearGradient id="paint16_linear_9_1058" x1="143.148" y1="151.08" x2="143.442" y2="150.964" gradientUnits="userSpaceOnUse"><stop stop-color="#fff"/><stop offset="1"/></linearGradient><linearGradient id="paint17_linear_9_1058" x1="144.827" y1="150.362" x2="145.121" y2="150.247" gradientUnits="userSpaceOnUse"><stop stop-color="#fff"/><stop offset="1"/></linearGradient><linearGradient id="paint18_linear_9_1058" x1="146.721" y1="149.566" x2="147.024" y2="149.448" gradientUnits="userSpaceOnUse"><stop stop-color="#fff"/><stop offset="1"/></linearGradient><linearGradient id="paint19_linear_9_1058" x1="148.735" y1="148.753" x2="149.029" y2="148.637" gradientUnits="userSpaceOnUse"><stop stop-color="#fff"/><stop offset="1"/></linearGradient><linearGradient id="paint20_linear_9_1058" x1="150.795" y1="147.894" x2="151.09" y2="147.779" gradientUnits="userSpaceOnUse"><stop stop-color="#fff"/><stop offset="1"/></linearGradient><linearGradient id="paint21_linear_9_1058" x1="153.035" y1="146.961" x2="153.329" y2="146.846" gradientUnits="userSpaceOnUse"><stop stop-color="#fff"/><stop offset="1"/></linearGradient><linearGradient id="paint22_linear_9_1058" x1="155.349" y1="146.024" x2="155.643" y2="145.909" gradientUnits="userSpaceOnUse"><stop stop-color="#fff"/><stop offset="1"/></linearGradient><linearGradient id="paint23_linear_9_1058" x1="157.779" y1="144.985" x2="158.073" y2="144.87" gradientUnits="userSpaceOnUse"><stop stop-color="#fff"/><stop offset="1"/></linearGradient><linearGradient id="paint24_linear_9_1058" x1="160.418" y1="143.887" x2="160.803" y2="143.736" gradientUnits="userSpaceOnUse"><stop stop-color="#fff"/><stop offset="1"/></linearGradient><linearGradient id="paint25_linear_9_1058" x1="163.254" y1="142.705" x2="163.548" y2="142.589" gradientUnits="userSpaceOnUse"><stop stop-color="#fff"/><stop offset="1"/></linearGradient><linearGradient id="paint26_linear_9_1058" x1="166.113" y1="141.446" x2="166.408" y2="141.331" gradientUnits="userSpaceOnUse"><stop stop-color="#fff"/><stop offset="1"/></linearGradient><linearGradient id="paint27_linear_9_1058" x1="169.25" y1="140.169" x2="169.545" y2="140.054" gradientUnits="userSpaceOnUse"><stop stop-color="#fff"/><stop offset="1"/></linearGradient><linearGradient id="paint28_linear_9_1058" x1="172.54" y1="138.83" x2="172.902" y2="138.688" gradientUnits="userSpaceOnUse"><stop stop-color="#fff"/><stop offset="1"/></linearGradient><linearGradient id="paint29_linear_9_1058" x1="175.957" y1="137.414" x2="176.34" y2="137.264" gradientUnits="userSpaceOnUse"><stop stop-color="#fff"/><stop offset="1"/></linearGradient><linearGradient id="paint30_linear_9_1058" x1="179.769" y1="135.825" x2="180.064" y2="135.71" gradientUnits="userSpaceOnUse"><stop stop-color="#fff"/><stop offset="1"/></linearGradient><linearGradient id="paint31_linear_9_1058" x1="183.605" y1="134.227" x2="183.9" y2="134.112" gradientUnits="userSpaceOnUse"><stop stop-color="#fff"/><stop offset="1"/></linearGradient><linearGradient id="paint32_linear_9_1058" x1="187.796" y1="132.482" x2="188.09" y2="132.367" gradientUnits="userSpaceOnUse"><stop stop-color="#fff"/><stop offset="1"/></linearGradient><linearGradient id="paint33_linear_9_1058" x1="192.139" y1="130.673" x2="192.434" y2="130.557" gradientUnits="userSpaceOnUse"><stop stop-color="#fff"/><stop offset="1"/></linearGradient></defs></svg>