<svg width="315" height="331" fill="none" xmlns="http://www.w3.org/2000/svg"><g filter="url(#filter0_d_56_3855)" fill="#610202"><path d="M264.828 6.853l-6.854 6.852 9.957 9.956 9.957 9.956H158.405l-.077 69.433-.052 69.432h139.138l-.052-29.169-.077-29.144-9.621-.077-9.647-.052v39.047H177.931V53.012h99.724l-9.853 9.826-9.828 9.827 6.931 6.904 6.905 6.93 21.595-21.592L315 43.314l-21.672-21.67L271.681 0l-6.853 6.853zM24.905 33.54L0 33.617v138.865h138.879v-49.909h-19.396v30.514H19.397V53.012h30.517v-9.827c0-5.404-.026-9.8-.052-9.775-.052.052-11.276.104-24.957.13z"/><path d="M79.966 78.69l-21.518 21.515V72.406H38.793l.052 30.566.077 30.592 30.595.077 30.569.052V114.04H72.285l21.413-21.412c11.768-11.766 21.388-21.515 21.388-21.644 0-.155-3.052-3.31-6.802-7.06l-6.775-6.775L79.966 78.69zM0 261.49V331h138.879V191.825l-69.44.103L0 192.006v69.484zm84.103-28.419l-21.517 21.515 6.854 6.852 6.879 6.879 21.569-21.619 21.595-21.592v86.499H19.397V211.53h86.25l-21.544 21.541zm74.276-40.962c-.051.052-.103 31.342-.103 69.51V331h139.138v-58.442h-19.397l-.051 19.472-.078 19.446-49.966.078-49.991.051V211.53h38.793v-19.524h-29.121c-16.008 0-29.172.052-29.224.103z"/><path d="M236.25 192.213c-.078.155-.103 4.551-.078 9.749l.078 9.438 13.836.078 13.836.052-8.612 8.74a6892.955 6892.955 0 01-21.465 21.567l-12.854 12.878 6.854 6.853 6.853 6.852 21.647-21.644 21.672-21.67v28.057h19.397l-.052-30.591-.077-30.566-30.466-.078c-24.285-.051-30.491 0-30.569.285z"/></g><defs><filter id="filter0_d_56_3855" x="-4" y="0" width="323" height="339" filterUnits="userSpaceOnUse" color-interpolation-filters="sRGB"><feFlood flood-opacity="0" result="BackgroundImageFix"/><feColorMatrix in="SourceAlpha" values="0 0 0 0 0 0 0 0 0 0 0 0 0 0 0 0 0 0 127 0" result="hardAlpha"/><feOffset dy="4"/><feGaussianBlur stdDeviation="2"/><feComposite in2="hardAlpha" operator="out"/><feColorMatrix values="0 0 0 0 0 0 0 0 0 0 0 0 0 0 0 0 0 0 0.25 0"/><feBlend in2="BackgroundImageFix" result="effect1_dropShadow_56_3855"/><feBlend in="SourceGraphic" in2="effect1_dropShadow_56_3855" result="shape"/></filter></defs></svg>