<svg width="136" height="208" fill="none" xmlns="http://www.w3.org/2000/svg"><path d="M64.088 41.708c10.866 0 19.675-9.113 19.675-20.354S74.954 1 64.088 1c-10.866 0-19.675 9.113-19.675 20.354s8.809 20.354 19.675 20.354z" fill="#FF0001" stroke="#000" stroke-width="2" stroke-miterlimit="10"/><path d="M44.526 46.305L18.38 76.204c-1.938 2.005-3.008 7.123-2.366 10.678l2.442 14.377 2.933 17.215c.553 2.513 2.014 4.389 4.355 5.639 1.032.56 2.19.846 3.361.859 1.448.026 2.845-.039 4.104-.273 2.077-.456 3.625-1.797 4.695-3.985.605-1.237.907-2.592.957-3.972l.176-4.896c.026-.625 0-1.25-.075-1.862L37.3 95.789l-.793-8.425a6.43 6.43 0 01.038-1.394v-.273c.012-.99.352-1.953.919-2.76l6.722-9.611v40.161c0 .52-.063 1.028-.202 1.523L23.97 190.8c-1.108 7.579.642 12.462 4.733 14.012 4.935 2.461 9.567 1.224 13.344-2.761 1.208-1.263 2.064-2.839 2.543-4.545l20.04-70.086c.063-.208.34-.195.39 0l8.195 31.098 12.475 40.499c1.31 4.076 4.759 6.29 9.039 6.941a10.9 10.9 0 003.675-.065c4.91-.951 7.188-3.868 7.641-10.744a15.475 15.475 0 00-.491-4.987L85.98 115.987a8.651 8.651 0 01-.29-2.201V73.534l6.357 8.842a5.65 5.65 0 01.793 1.589l.164.52c.138.418.201.847.201 1.29v3.712c0 .351-.025.69-.063 1.041l-2.215 19.703c-.05.456-.076.925-.063 1.393l.176 6.42c.491 3.829 2.505 5.939 5.64 6.759.377.104.755.156 1.133.182 3.965.3 6.634-.39 8.698-3.047 1.058-1.367 1.725-2.995 2.027-4.714l5.174-30.524c.088-.495.125-.99.113-1.485a28.617 28.617 0 00-.176-2.813 12.88 12.88 0 00-2.996-6.758L85.891 46.682c-.39-.469-.97-.73-1.561-.73H45.256c-.252 0-.529.131-.73.353z" fill="red" stroke="#000" stroke-width="2" stroke-miterlimit="10"/><path d="M44.199 81.543l48.98-26.41 2.354 2.761L44.2 81.543zm0-5.639l42.988-27.373 2.455 2.475-45.443 24.898z" fill="#000"/><path d="M99.146 166.383l-20.292 10.418 21.123-7.813-.831-2.605zm1.259 6.511l-20.292 10.418 21.123-7.813-.831-2.605z" fill="#000" stroke="#000" stroke-width=".25" stroke-miterlimit="10"/><path d="M113.73 88.04l1.687-.95c.906-.65 1.611-1.64 2.14-2.917l3.89-1.315c.138-.039.264-.091.39-.156l4.028-1.81c.139-.065.277-.144.415-.222 1.599-.781 3.047-1.614 4.23-2.539.189.495.39.964.617 1.393.101.196.239.365.403.508.226.404.742.82 1.372 1.25a.59.59 0 01.189.508l-.139 1.394c-.025.273.013.547.113.807l.038.104c.088.209.189.417.328.6l2.203 2.942c.025.04.012.091-.038.091l-4.167 1.094-2.958 1.107-3.475 1.459c-1.447.625-2.769 1.328-3.927 2.122-1.12-.65-2.367-.924-3.764-.794l-1.523.612-2.052-5.287z" fill="#615C54"/><path d="M60.797 131.483c-2.266-1.107-4.305-2.852-4.922-4.753-.907-2.188-.907-3.894-.227-5.573.176-.443.516-1.185.818-1.563.353-.417.78-.521 1.297-.677h.013l23.477-9.767 19.461-8.556 15.093-6.732c2.014-.899 3.89-1.393 5.224-.3l1.146-.742.743-.443c.251-.143.528-.221.78-.325l2.644-1.237.893-.378 2.959-1.107.78-.325 4.935-1.394c-1.889-2.526-2.933-4.024-2.732-3.985-.201-.625-.201-1.523 0-2.5-1.397-.742-2.19-1.94-2.631-3.555-.881.69-1.762 1.29-2.656 1.719-.491.273-.982.534-1.183.638-.957.534-1.788 1.068-2.82 1.446l-1.007.416c-.957.508-2.014.808-3.072 1.146l-1.057.313-1.498.495c-.655 1.979-1.976 3.45-3.626 3.88l-34.542 13.661-18.34 7.422-2.267-3.776-1.246-1.498c-2.026-1.979-4.305-3.294-6.86-3.893a5.214 5.214 0 00-3.487.416c-.277.144-.655.287-.932.443-.025.013-.063.039-.088.052a9.6 9.6 0 00-2.228 1.706l-5.048 5.378c-.906.717-2.001.886-3.172.717-6.483-2.071-11.934-3.79-15.433-3.777-1.914.143-3.563.534-5.413.99l-2.417 1.016c-.919.39-1.8.898-2.593 1.51l-1.75 1.354a11.877 11.877 0 00-2.216 2.24l-.44.586a17.224 17.224 0 00-1.75 2.8c-.818 1.615-1.498 2.982-1.813 4.779l-.138.326c-.189 1.107-.39 2.148-.415 3.268l-.038.56c-.025 1.459.126 3.139.352 4.571l.025.391c.19 1.198.315 2.331.705 3.477l1.612 3.776.402 1.042 1.385 3.868c.705 1.458 1.448 2.969 2.442 4.232.907 1.146 2.014 2.539 3.084 3.555 1.725 1.406 3.689 2.513 5.653 3.438 1.837.716 3.587 1.003 5.438 1.224 2.719.534 5.979-.052 9.1-1.393 3.878-1.758 7.05-4.845 9.505-8.699 3.009-5.3 5.199-9.533 6.332-9.806 1.271-1.068 3.21-.807 6.886-.729.276 0 .755-.013 1.032-.026l1.8-.079c.566-.039 1.397-.195 1.926-.403l2.115-.86z" fill="#0F0E0A"/><path d="M113.932 88.25l1.372-.69c.189-.092.352-.21.516-.353.868-.807 1.536-1.705 1.976-2.734 2.065-.703 3.676-1.263 4.444-1.589l3.65-1.537c.139-.065.29-.13.416-.208l4.053-2.344.542 1.055c.163.326.402.625.679.86l1.158 1.002-.125 1.12c-.063.234-.038.638.05.873.088.234.138.56.315.807.088.208.239.364.365.547l1.762 2.409-1.208.234-.894.17c-.214.039-.416.104-.63.169l-.793.286-2.152.717a6.13 6.13 0 00-.441.169l-4.23 1.771-.981.52-2.694 1.433c-.743-.3-1.612-.468-2.606-.52a5.049 5.049 0 00-2.19.364l-.642.26-.315-.794c2.643-.977 4.292-2.214 4.632-3.828-.705-.782-2.631-.56-5.904.586l-.276-.704.151-.052z" fill="red"/><path d="M56.076 119.906c-1.17 1.824-1.41 3.842-.894 6.043.706 2.617 2.266 4.44 4.62 5.482-.969.378-1.863.69-2.442.755l-8.018.157c-1.083-.039-2.216.403-3.412 1.263-.78.781-1.46 1.641-2.014 2.604l-3.084 6.017a29.258 29.258 0 01-2.858 4.024c-2.303 2.448-4.758 4.284-7.401 5.391-4.545 2.005-9.253 1.927-14.137-.144-3.6-1.862-6.596-4.518-8.862-8.125a58.346 58.346 0 01-5.023-11.681c-1.196-5.04-1.12-9.702.252-13.999 2.102-5.209 5.526-8.829 10.41-10.705 3.311-1.484 6.786-1.784 10.386-1.12 2.719.612 5.45 1.407 8.22 2.357 2.656.847 4.519 1.107 5.476.678 1.963-.482 3.6-3.295 5.576-5.235 1.7-1.654 3.172-2.527 4.242-2.983 1.058-.468 2.128-.664 3.198-.468 2.832.651 5.098 2.24 6.974 4.492 1.196 1.407 2.115 2.8 2.82 4.207l-4.029 10.99z" fill="#FF2727" stroke="#000" stroke-width="2" stroke-miterlimit="10"/><path d="M27.098 146.511c.737 0 1.334-.618 1.334-1.38 0-.763-.597-1.381-1.334-1.381-.737 0-1.334.618-1.334 1.381 0 .762.597 1.38 1.334 1.38z" fill="url(#paint0_linear_57_4382)" stroke="#000" stroke-width=".25" stroke-miterlimit="10"/><path d="M32.901 143.672c.737 0 1.335-.618 1.335-1.38 0-.763-.598-1.381-1.335-1.381s-1.334.618-1.334 1.381c0 .762.597 1.38 1.334 1.38z" fill="url(#paint1_linear_57_4382)" stroke="#000" stroke-width=".25" stroke-miterlimit="10"/><path d="M36.376 138.58c.736 0 1.334-.618 1.334-1.38 0-.762-.598-1.38-1.334-1.38-.737 0-1.335.618-1.335 1.38 0 .762.598 1.38 1.335 1.38z" fill="url(#paint2_linear_57_4382)" stroke="#000" stroke-width=".25" stroke-miterlimit="10"/><path d="M49.216 113.552l64.514-25.511 2.14 5.456-63.596 27.855-3.058-7.8z" fill="#241D1C"/><path d="M25.638 133.072l-3.386-8.673 1.888-.82 3.399 8.699-1.901.794z" fill="url(#paint3_linear_57_4382)" stroke="#000" stroke-width=".5" stroke-miterlimit="10"/><path d="M22.252 124.399l-.705-1.797c.34-1.016.969-1.289 1.9-.794l.693 1.784" fill="#000"/><path d="M22.252 124.399l-.705-1.797c.34-1.016.969-1.289 1.9-.794l.693 1.784" stroke="#000" stroke-width=".5" stroke-miterlimit="10"/><path d="M27.539 132.239l.705 1.797c-.34 1.015-.97 1.289-1.901.794l-.693-1.784" fill="#000"/><path d="M27.539 132.239l.705 1.797c-.34 1.015-.97 1.289-1.901.794l-.693-1.784" stroke="#000" stroke-width=".5" stroke-miterlimit="10"/><path d="M27.84 133.697a.815.815 0 01-.427 1.055.77.77 0 01-1.02-.443.804.804 0 01.264-.95.762.762 0 01.177-.105c.39-.169.843.026 1.007.443z" fill="#D02900" stroke="#4D4D4D" stroke-width=".25" stroke-miterlimit="10"/><path d="M26.67 133.332l.906 1.355" stroke="#4D4D4D" stroke-width=".25" stroke-miterlimit="10"/><path d="M23.535 122.693a.815.815 0 01-.427 1.055.77.77 0 01-1.02-.443.804.804 0 01.264-.95.842.842 0 01.176-.105c.378-.169.844.027 1.008.443z" fill="#D02900" stroke="#4D4D4D" stroke-width=".25" stroke-miterlimit="10"/><path d="M22.352 122.329l.92 1.354" stroke="#4D4D4D" stroke-width=".25" stroke-miterlimit="10"/><path d="M27.274 121.599l4.356 9.78c.881.365 1.473.026 1.636-.82l-4.456-9.728c-.881-.612-1.41-.417-1.536.768z" fill="url(#paint4_linear_57_4382)" stroke="#000" stroke-width=".25" stroke-miterlimit="10"/><path d="M28.017 121.651a.486.486 0 00.478-.494.487.487 0 00-.478-.495.486.486 0 00-.478.495c0 .273.214.494.478.494z" fill="#000" stroke="#666" stroke-width=".25" stroke-miterlimit="10"/><path d="M32.31 131.301a.487.487 0 00.478-.495.487.487 0 00-.478-.495.487.487 0 00-.479.495c0 .273.214.495.479.495z" fill="#000" stroke="#4D4D4D" stroke-width=".25" stroke-miterlimit="10"/><path d="M28.76 123.396l-.491-1.276.78.352-.29.924zm.717 1.159l-.402-1.015.742.221-.34.794zm.756 1.433l-.441-1.107.818.299-.377.808zm-.152.456l.554 1.068.227-.743-.78-.325zm.869 1.367l.378.964.315-.691-.693-.273zm.844 1.328l.364.938.315-.547-.68-.391z" fill="#000" stroke="#000" stroke-width=".25" stroke-miterlimit="10"/><path d="M31.063 118.253l5.3-2.214a.436.436 0 01.592.26l4.632 11.825a.382.382 0 01-.201.494l-5.388 2.266a.362.362 0 01-.478-.208l-4.658-11.889c-.088-.222.012-.456.201-.534z" fill="#0F0E0A"/><path d="M32.385 119.594l3.827-1.602a.503.503 0 01.654.274l3.5 8.477a.518.518 0 01-.264.677l-4.016 1.68a.482.482 0 01-.63-.273l-3.348-8.543a.523.523 0 01.277-.69z" fill="url(#paint5_linear_57_4382)" stroke="#000" stroke-width=".5" stroke-miterlimit="10"/><path d="M31.504 119.125a.372.372 0 00.365-.378.371.371 0 00-.365-.377.371.371 0 00-.365.377c0 .209.163.378.365.378zm4.997-2.227a.371.371 0 00.365-.377.372.372 0 00-.365-.378.372.372 0 00-.365.378c0 .208.164.377.365.377zm4.583 11.694a.371.371 0 00.365-.377.372.372 0 00-.365-.378.372.372 0 00-.366.378c0 .208.164.377.366.377zm-5.049 2.11a.372.372 0 00.366-.378.371.371 0 00-.366-.377.371.371 0 00-.365.377c0 .209.164.378.365.378zm-1.938-12.267a.372.372 0 00.365-.378.371.371 0 00-.365-.377.371.371 0 00-.365.377c0 .209.163.378.365.378zm4.268 10.887a.372.372 0 00.365-.378.372.372 0 00-.365-.378.372.372 0 00-.366.378c0 .209.164.378.366.378z" fill="#CB1300" stroke="#4D4D4D" stroke-width=".25" stroke-miterlimit="10"/><path d="M42.204 113.721l5.3-2.214a.436.436 0 01.591.261l4.633 11.824a.384.384 0 01-.202.495l-5.388 2.266a.363.363 0 01-.478-.209l-4.658-11.889c-.088-.222 0-.456.202-.534z" fill="#0F0E0A"/><path d="M42.632 114.593a.371.371 0 00.365-.377.372.372 0 00-.365-.378.372.372 0 00-.365.378c0 .208.163.377.365.377zm4.998-2.226c.201 0 .364-.17.364-.378a.372.372 0 00-.364-.378.372.372 0 00-.366.378c0 .208.164.378.365.378zm4.582 11.694c.201 0 .364-.17.364-.378a.372.372 0 00-.364-.378.372.372 0 00-.366.378c0 .208.164.378.366.378zm-5.048 2.122a.371.371 0 00.365-.377.372.372 0 00-.365-.378.372.372 0 00-.365.378c0 .208.163.377.365.377zm-1.926-12.28a.371.371 0 00.365-.377.372.372 0 00-.365-.378.372.372 0 00-.365.378c0 .208.163.377.365.377zm4.254 10.9a.372.372 0 00.365-.378.371.371 0 00-.365-.377.371.371 0 00-.365.377c0 .209.164.378.365.378z" fill="#CB1300" stroke="#4D4D4D" stroke-width=".25" stroke-miterlimit="10"/><path d="M43.589 114.893l3.827-1.602a.503.503 0 01.654.274l3.5 8.477a.518.518 0 01-.265.677l-4.015 1.68a.482.482 0 01-.63-.273l-3.348-8.543a.532.532 0 01.277-.69z" fill="url(#paint6_linear_57_4382)" stroke="#000" stroke-width=".5" stroke-miterlimit="10"/><path d="M50.399 107.093c.633 0 1.145-.531 1.145-1.185 0-.655-.512-1.185-1.145-1.185s-1.146.53-1.146 1.185c0 .654.513 1.185 1.146 1.185z" fill="#000" stroke="#4D4D4D" stroke-width=".25" stroke-miterlimit="10"/><path d="M50.399 106.35a.435.435 0 00.428-.443.435.435 0 00-.428-.442.435.435 0 00-.428.442c0 .245.192.443.428.443z" fill="#CB1300" stroke="#4D4D4D" stroke-width=".25" stroke-miterlimit="10"/><path d="M57.373 103.59l.428-.183c.126-.052.176-.195.126-.312l-.126-.313c-.025-.078 0-.156.063-.195l.113-.065a.206.206 0 01.227.026l1.095.937c.1.092.163.235.15.378l-.012.104c-.012.117-.113.196-.226.17l-.302-.079a.205.205 0 00-.151.013l-.227.092a.228.228 0 00-.139.221v.508l-1.02-1.302z" fill="url(#paint7_linear_57_4382)" stroke="#000" stroke-width=".25" stroke-miterlimit="10"/><path d="M3.96 137.304l-.402.17a.136.136 0 00-.075.169l.088.312a.1.1 0 01-.114.131l-.314-.092a.2.2 0 01-.139-.13l-.466-1.185a.332.332 0 010-.221l.126-.313a.108.108 0 01.202 0l.189.391c.025.052.1.078.15.052l.492-.26.365.924-.101.052z" fill="url(#paint8_linear_57_4382)" stroke="#000" stroke-width=".25" stroke-miterlimit="10"/><path d="M118.916 83.327l-.289-.73a.584.584 0 00-.063-.117l-1.183-1.55c-.063-.09-.063-.208.012-.286l.252-.3a.967.967 0 01.39-.286l.466-.195a.985.985 0 01.541-.078l.29.039a.208.208 0 01.176.208l.025 2.136c0 .065.013.13.038.182l.277.716-.932.26zm12.161 5.782l.34.703.075.117 1.297 1.446c.075.078.075.195.012.286l-.226.326a1.06 1.06 0 01-.365.312l-.454.235a.972.972 0 01-.541.117l-.289-.013c-.101 0-.189-.091-.202-.196l-.201-2.122a.424.424 0 00-.051-.182l-.339-.69.944-.34zm-8.145-7.202l-.289-.729a.56.56 0 00-.063-.117l-1.184-1.55c-.063-.09-.063-.208.013-.286l.252-.3a.96.96 0 01.39-.286l.466-.195a.978.978 0 01.541-.079l.29.04c.1.012.176.104.176.208l.025 2.135c0 .066.013.13.038.183l.239.599-.894.377zm4.293 8.713l.289.729c.013.039.038.078.063.117l1.196 1.536a.24.24 0 010 .287l-.252.3a.959.959 0 01-.39.286l-.466.208a.985.985 0 01-.541.078l-.289-.026a.209.209 0 01-.177-.208l-.05-2.136a.43.43 0 00-.038-.182l-.239-.599.894-.39zm-.466-10.588l-.201-.495c-.013-.039-.038-.078-.063-.117l-1.184-1.55c-.063-.09-.063-.208.013-.286l.252-.3c.1-.13.239-.22.39-.286l.466-.195c.176-.078.365-.105.541-.078l.29.039c.1.013.176.104.176.208l.025 2.136c0 .065.013.13.038.182l.1.26-.843.482zm-3.437 12.515l.189.508c.013.039.038.078.063.117l1.171 1.562c.063.092.063.209-.013.287l-.252.3c-.113.13-.239.22-.39.286l-.466.195a1.111 1.111 0 01-.541.065l-.277-.039a.209.209 0 01-.176-.208l-.013-2.136a.43.43 0 00-.037-.182l-.101-.26.843-.495z" fill="#FF1D25" stroke="#000" stroke-width=".25" stroke-miterlimit="10"/><path d="M120.163 85.827c.535 0 .969-.449.969-1.003 0-.553-.434-1.002-.969-1.002-.536 0-.97.449-.97 1.002 0 .554.434 1.003.97 1.003zm4.003-1.407c.535 0 .969-.448.969-1.002s-.434-1.003-.969-1.003c-.536 0-.969.45-.969 1.003 0 .554.433 1.003.969 1.003zm4.104-1.848c.535 0 .969-.45.969-1.003 0-.554-.434-1.003-.969-1.003-.536 0-.97.45-.97 1.003 0 .554.434 1.003.97 1.003zm2.089 5.99c.536 0 .969-.45.969-1.003 0-.554-.433-1.003-.969-1.003-.535 0-.969.45-.969 1.003 0 .554.434 1.003.969 1.003zm-7.956 3.333c.536 0 .97-.448.97-1.002s-.434-1.003-.97-1.003c-.535 0-.969.449-.969 1.003 0 .553.434 1.002.969 1.002zm3.991-1.797c.535 0 .969-.448.969-1.002s-.434-1.003-.969-1.003c-.535 0-.969.449-.969 1.003 0 .553.434 1.002.969 1.002z" fill="#E4290B" stroke="#000" stroke-width=".25" stroke-miterlimit="10"/><path d="M114.095 88.992c3.248-1.186 5.086-1.303 5.866-.613.026.013.038.053.025.079-.302 1.484-1.85 2.747-4.619 3.776l-1.272-3.242z" fill="#000" stroke="gray" stroke-width=".25" stroke-miterlimit="10"/><path d="M119.32 88.926c.132 0 .239-.11.239-.247a.243.243 0 00-.239-.247c-.133 0-.24.11-.24.247s.107.247.24.247z" fill="#E4290B" stroke="#4D4D4D" stroke-width=".25" stroke-miterlimit="10"/><path d="M109.538 90.828l2.417-1.146.214.56c.088.338.277.481.567.455-.189.47-.227.938-.101 1.394l1.171 1.328c-.919.04-1.763.195-2.505.521-.466-.287-.831-.612-1.07-.977-.101-.325-.088-.612.037-.86.051-.103.063-.22 0-.325a.91.91 0 00-.503-.364c-.013 0-.025-.013-.025-.026l-.202-.56zm-8.723 3.542l2.266-1.107.239.612c.1.377.302.547.579.534-.151.495-.176 1.002-.025 1.497l1.208 1.511c-.881-.013-1.687.117-2.379.417a3.773 3.773 0 01-1.083-1.12c-.126-.365-.126-.677 0-.938a.385.385 0 00-.025-.351 1.025 1.025 0 00-.503-.417.028.028 0 01-.026-.026l-.251-.612zm-7.729 3.23l2.266-1.108.239.612c.1.378.302.547.579.534-.151.495-.176 1.003-.025 1.498l1.208 1.511c-.881-.014-1.687.117-2.38.416a3.752 3.752 0 01-1.082-1.12c-.126-.364-.126-.677 0-.937a.39.39 0 00-.025-.352 1.026 1.026 0 00-.503-.417.028.028 0 01-.026-.026l-.251-.612zm-6.723 2.565l1.7-.873.264.677c.126.417.302.612.529.638a3.664 3.664 0 00.15 1.589l1.146 1.745c-.717-.117-1.347-.091-1.875.143a5.231 5.231 0 01-1.007-1.328c-.139-.404-.177-.729-.114-.99a.601.601 0 00-.063-.377 1.438 1.438 0 00-.453-.508c-.012 0-.012-.013-.025-.026l-.252-.69zm-6.269 2.63l1.7-.872.264.677c.126.416.302.612.529.638a3.663 3.663 0 00.151 1.589l1.145 1.745c-.717-.118-1.346-.092-1.875.143A5.266 5.266 0 0181 105.387c-.139-.404-.176-.73-.114-.99a.604.604 0 00-.062-.378 1.456 1.456 0 00-.454-.508c-.012 0-.012-.013-.025-.026l-.252-.69zm-14.614 6.003l1.22-.69.278.716c.138.43.302.652.478.704 0 .508.1 1.041.29 1.614l1.082 1.889c-.566-.209-1.057-.248-1.435-.078a7.318 7.318 0 01-.919-1.446c-.15-.417-.214-.755-.189-1.003a.747.747 0 00-.088-.377 2.01 2.01 0 00-.403-.56l-.025-.026-.29-.743zm-3.764 1.446l.742-.495.302.768c.164.456.303.704.428.782.076.508.214 1.055.441 1.667l1.02 2.07c-.428-.299-.768-.417-1.007-.299a16.228 16.228 0 01-.856-1.602c-.164-.443-.265-.794-.29-1.042a1.348 1.348 0 00-.113-.391c-.114-.234-.227-.455-.365-.625 0-.013-.013-.026-.013-.039l-.29-.794zm-3.513 1.341l.831-.534.302.782c.164.468.315.716.453.794.063.521.215 1.094.428 1.706l1.07 2.11c-.453-.3-.83-.404-1.095-.274-.34-.521-.63-1.068-.893-1.628-.164-.455-.265-.807-.277-1.068a1.537 1.537 0 00-.114-.403 3.322 3.322 0 00-.377-.638c-.013-.013-.013-.026-.026-.039l-.302-.808zm-3.071 1.159l.642-.469.315.795c.176.469.315.729.428.82.1.521.252 1.094.49 1.732l1.046 2.175c-.403-.326-.718-.469-.92-.365a16.285 16.285 0 01-.855-1.693c-.177-.468-.277-.82-.315-1.081a1.885 1.885 0 00-.126-.416 4.024 4.024 0 00-.365-.664c0-.013-.013-.026-.013-.039l-.327-.795zm-4.002 1.797l.452-.377.303.768c.163.456.289.703.39.794.113.495.277 1.042.503 1.641l.957 2.097c-.327-.339-.58-.495-.73-.417a19.46 19.46 0 01-.78-1.641c-.164-.442-.278-.781-.328-1.028a2.307 2.307 0 00-.126-.391 5.057 5.057 0 00-.327-.651c0-.013-.013-.026-.013-.039l-.302-.756zm21.26-8.881l1.096-.469 1.926 4.858-1.12.468-1.901-4.857z" fill="#E4290B" stroke="#000" stroke-width=".25" stroke-miterlimit="10"/><path d="M73.36 106.715a.244.244 0 00.239-.248.243.243 0 00-.24-.247.243.243 0 00-.238.247c0 .137.107.248.239.248zm1.045 2.656c.132 0 .239-.11.239-.247a.243.243 0 00-.24-.247c-.131 0-.239.11-.239.247s.108.247.24.247z" fill="#E4290B" stroke="#000" stroke-width=".25" stroke-miterlimit="10"/><path d="M49.216 113.552l3.059 7.8" stroke="url(#paint9_linear_57_4382)" stroke-width=".25" stroke-miterlimit="10"/><path d="M50.223 113.122l3.084 7.774" stroke="url(#paint10_linear_57_4382)" stroke-width=".25" stroke-miterlimit="10"/><path d="M51.444 112.666l3.033 7.722" stroke="url(#paint11_linear_57_4382)" stroke-width=".25" stroke-miterlimit="10"/><path d="M52.84 112.158l2.934 7.475" stroke="url(#paint12_linear_57_4382)" stroke-width=".25" stroke-miterlimit="10"/><path d="M54.263 111.546l2.934 7.488" stroke="url(#paint13_linear_57_4382)" stroke-width=".25" stroke-miterlimit="10"/><path d="M55.787 110.947l2.92 7.527" stroke="url(#paint14_linear_57_4382)" stroke-width=".25" stroke-miterlimit="10"/><path d="M57.385 110.309l2.883 7.501" stroke="url(#paint15_linear_57_4382)" stroke-width=".25" stroke-miterlimit="10"/><path d="M59.034 109.658l2.92 7.449" stroke="url(#paint16_linear_57_4382)" stroke-width=".25" stroke-miterlimit="10"/><path d="M60.734 108.994l2.882 7.357" stroke="url(#paint17_linear_57_4382)" stroke-width=".25" stroke-miterlimit="10"/><path d="M62.635 108.199l2.882 7.345" stroke="url(#paint18_linear_57_4382)" stroke-width=".25" stroke-miterlimit="10"/><path d="M64.661 107.431l2.845 7.253" stroke="url(#paint19_linear_57_4382)" stroke-width=".25" stroke-miterlimit="10"/><path d="M66.738 106.611l2.808 7.175" stroke="url(#paint20_linear_57_4382)" stroke-width=".25" stroke-miterlimit="10"/><path d="M69.004 105.725l2.77 7.084" stroke="url(#paint21_linear_57_4382)" stroke-width=".25" stroke-miterlimit="10"/><path d="M71.32 104.814l2.757 7.032" stroke="url(#paint22_linear_57_4382)" stroke-width=".25" stroke-miterlimit="10"/><path d="M73.775 103.837l2.707 6.915" stroke="url(#paint23_linear_57_4382)" stroke-width=".25" stroke-miterlimit="10"/><path d="M76.52 102.743l2.58 6.863" stroke="url(#paint24_linear_57_4382)" stroke-width=".25" stroke-miterlimit="10"/><path d="M79.289 101.649l2.63 6.72" stroke="url(#paint25_linear_57_4382)" stroke-width=".25" stroke-miterlimit="10"/><path d="M82.197 100.503l2.543 6.498" stroke="url(#paint26_linear_57_4382)" stroke-width=".25" stroke-miterlimit="10"/><path d="M85.344 99.266l2.517 6.42" stroke="url(#paint27_linear_57_4382)" stroke-width=".25" stroke-miterlimit="10"/><path d="M88.642 97.95l2.568 6.343" stroke="url(#paint28_linear_57_4382)" stroke-width=".25" stroke-miterlimit="10"/><path d="M92.179 96.557l2.354 6.29" stroke="url(#paint29_linear_57_4382)" stroke-width=".25" stroke-miterlimit="10"/><path d="M95.93 95.073l2.392 6.12" stroke="url(#paint30_linear_57_4382)" stroke-width=".25" stroke-miterlimit="10"/><path d="M99.795 93.55l2.329 5.977" stroke="url(#paint31_linear_57_4382)" stroke-width=".25" stroke-miterlimit="10"/><path d="M104.012 91.882l2.278 5.821" stroke="url(#paint32_linear_57_4382)" stroke-width=".25" stroke-miterlimit="10"/><path d="M108.38 90.15l2.216 5.665" stroke="url(#paint33_linear_57_4382)" stroke-width=".25" stroke-miterlimit="10"/><path d="M112.937 88.353l.793-.312 2.14 5.456-.78.352-2.153-5.496z" fill="#666"/><path opacity=".4" d="M24.48 124.451l96.325-38.884m-95.821 40.16l89.275-36.332 10.562-5.235" stroke="#CCC" stroke-width=".25" stroke-miterlimit="10"/><path opacity=".4" d="M25.588 127.277l89.049-36.905 14.388-8.178M26.154 128.736l88.873-37.387 14.967-4.715" stroke="#CCC" stroke-width=".25" stroke-miterlimit="10"/><path opacity=".4" d="M26.633 129.96l88.734-37.739 10.385-3.803" stroke="#CCC" stroke-width=".25" stroke-miterlimit="10"/><path opacity=".4" d="M27.275 131.574l88.407-38.559 6.357-3.047" stroke="#CCC" stroke-width=".25" stroke-miterlimit="10"/><defs><linearGradient id="paint0_linear_57_4382" x1="27.534" y1="146.432" x2="26.477" y2="143.909" gradientUnits="userSpaceOnUse"><stop stop-color="#E72000"/><stop offset=".035" stop-color="#E11F00"/><stop offset=".082" stop-color="#D01D00"/><stop offset=".135" stop-color="#B31900"/><stop offset=".194" stop-color="#8C1300"/><stop offset=".257" stop-color="#590C00"/><stop offset=".323" stop-color="#1D0400"/><stop offset=".351"/><stop offset=".374" stop-color="#270500"/><stop offset=".406" stop-color="#5A0C00"/><stop offset=".439" stop-color="#851200"/><stop offset=".471" stop-color="#A81700"/><stop offset=".505" stop-color="#C41B00"/><stop offset=".538" stop-color="#D71E00"/><stop offset=".572" stop-color="#E31F00"/><stop offset=".606" stop-color="#E72000"/><stop offset=".631" stop-color="#DA1E00"/><stop offset=".677" stop-color="#B61900"/><stop offset=".739" stop-color="#7D1100"/><stop offset=".815" stop-color="#2E0600"/><stop offset=".856"/><stop offset="1" stop-color="#B92900"/></linearGradient><linearGradient id="paint1_linear_57_4382" x1="33.333" y1="143.598" x2="32.276" y2="141.074" gradientUnits="userSpaceOnUse"><stop stop-color="#E72000"/><stop offset=".035" stop-color="#E11F00"/><stop offset=".082" stop-color="#D01D00"/><stop offset=".135" stop-color="#B31900"/><stop offset=".194" stop-color="#8C1300"/><stop offset=".257" stop-color="#590C00"/><stop offset=".323" stop-color="#1D0400"/><stop offset=".351"/><stop offset=".374" stop-color="#270500"/><stop offset=".406" stop-color="#5A0C00"/><stop offset=".439" stop-color="#851200"/><stop offset=".471" stop-color="#A81700"/><stop offset=".505" stop-color="#C41B00"/><stop offset=".538" stop-color="#D71E00"/><stop offset=".572" stop-color="#E31F00"/><stop offset=".606" stop-color="#E72000"/><stop offset=".631" stop-color="#DA1E00"/><stop offset=".677" stop-color="#B61900"/><stop offset=".739" stop-color="#7D1100"/><stop offset=".815" stop-color="#2E0600"/><stop offset=".856"/><stop offset="1" stop-color="#B92900"/></linearGradient><linearGradient id="paint2_linear_57_4382" x1="36.811" y1="138.499" x2="35.754" y2="135.975" gradientUnits="userSpaceOnUse"><stop stop-color="#E72000"/><stop offset=".035" stop-color="#E11F00"/><stop offset=".082" stop-color="#D01D00"/><stop offset=".135" stop-color="#B31900"/><stop offset=".194" stop-color="#8C1300"/><stop offset=".257" stop-color="#590C00"/><stop offset=".323" stop-color="#1D0400"/><stop offset=".351"/><stop offset=".374" stop-color="#270500"/><stop offset=".406" stop-color="#5A0C00"/><stop offset=".439" stop-color="#851200"/><stop offset=".471" stop-color="#A81700"/><stop offset=".505" stop-color="#C41B00"/><stop offset=".538" stop-color="#D71E00"/><stop offset=".572" stop-color="#E31F00"/><stop offset=".606" stop-color="#E72000"/><stop offset=".631" stop-color="#DA1E00"/><stop offset=".677" stop-color="#B61900"/><stop offset=".739" stop-color="#7D1100"/><stop offset=".815" stop-color="#2E0600"/><stop offset=".856"/><stop offset="1" stop-color="#B92900"/></linearGradient><linearGradient id="paint3_linear_57_4382" x1="23.869" y1="128.752" x2="25.791" y2="127.999" gradientUnits="userSpaceOnUse"><stop stop-color="#E72000"/><stop offset=".035" stop-color="#E11F00"/><stop offset=".082" stop-color="#D01D00"/><stop offset=".135" stop-color="#B31900"/><stop offset=".194" stop-color="#8C1300"/><stop offset=".257" stop-color="#590C00"/><stop offset=".323" stop-color="#1D0400"/><stop offset=".351"/><stop offset=".377" stop-color="#1B0400"/><stop offset=".461" stop-color="#721000"/><stop offset=".53" stop-color="#B11900"/><stop offset=".58" stop-color="#D81E00"/><stop offset=".606" stop-color="#E72000"/><stop offset=".631" stop-color="#DA1E00"/><stop offset=".677" stop-color="#B61900"/><stop offset=".739" stop-color="#7D1100"/><stop offset=".815" stop-color="#2E0600"/><stop offset=".856"/><stop offset="1" stop-color="#B92900"/></linearGradient><linearGradient id="paint4_linear_57_4382" x1="29.096" y1="126.455" x2="31.244" y2="125.613" gradientUnits="userSpaceOnUse"><stop stop-color="#E72000"/><stop offset=".035" stop-color="#E11F00"/><stop offset=".082" stop-color="#D01D00"/><stop offset=".135" stop-color="#B31900"/><stop offset=".194" stop-color="#8C1300"/><stop offset=".257" stop-color="#590C00"/><stop offset=".323" stop-color="#1D0400"/><stop offset=".351"/><stop offset=".377" stop-color="#1B0400"/><stop offset=".461" stop-color="#721000"/><stop offset=".53" stop-color="#B11900"/><stop offset=".58" stop-color="#D81E00"/><stop offset=".606" stop-color="#E72000"/><stop offset=".631" stop-color="#DA1E00"/><stop offset=".677" stop-color="#B61900"/><stop offset=".739" stop-color="#7D1100"/><stop offset=".815" stop-color="#2E0600"/><stop offset=".856"/><stop offset="1" stop-color="#B92900"/></linearGradient><linearGradient id="paint5_linear_57_4382" x1="33.7" y1="124.564" x2="38.665" y2="122.62" gradientUnits="userSpaceOnUse"><stop stop-color="#BBBABF"/><stop offset=".077" stop-color="#C1A5A6"/><stop offset=".245" stop-color="#CC7D74"/><stop offset=".412" stop-color="#D65C4A"/><stop offset=".573" stop-color="#DD422A"/><stop offset=".728" stop-color="#E32F13"/><stop offset=".874" stop-color="#E62405"/><stop offset="1" stop-color="#E72000"/></linearGradient><linearGradient id="paint6_linear_57_4382" x1="44.898" y1="119.871" x2="49.862" y2="117.926" gradientUnits="userSpaceOnUse"><stop stop-color="#BBBABF"/><stop offset=".077" stop-color="#C1A5A6"/><stop offset=".245" stop-color="#CC7D74"/><stop offset=".412" stop-color="#D65C4A"/><stop offset=".573" stop-color="#DD422A"/><stop offset=".728" stop-color="#E32F13"/><stop offset=".874" stop-color="#E62405"/><stop offset="1" stop-color="#E72000"/></linearGradient><linearGradient id="paint7_linear_57_4382" x1="57.464" y1="104.025" x2="59.222" y2="103.336" gradientUnits="userSpaceOnUse"><stop stop-color="#BBBABF"/><stop offset=".077" stop-color="#C1A5A6"/><stop offset=".245" stop-color="#CC7D74"/><stop offset=".412" stop-color="#D65C4A"/><stop offset=".573" stop-color="#DD422A"/><stop offset=".728" stop-color="#E32F13"/><stop offset=".874" stop-color="#E62405"/><stop offset="1" stop-color="#E72000"/></linearGradient><linearGradient id="paint8_linear_57_4382" x1="2.691" y1="137.254" x2="3.821" y2="136.811" gradientUnits="userSpaceOnUse"><stop stop-color="#BBBABF"/><stop offset=".077" stop-color="#C1A5A6"/><stop offset=".245" stop-color="#CC7D74"/><stop offset=".412" stop-color="#D65C4A"/><stop offset=".573" stop-color="#DD422A"/><stop offset=".728" stop-color="#E32F13"/><stop offset=".874" stop-color="#E62405"/><stop offset="1" stop-color="#E72000"/></linearGradient><linearGradient id="paint9_linear_57_4382" x1="50.528" y1="117.537" x2="50.822" y2="117.422" gradientUnits="userSpaceOnUse"><stop stop-color="#fff"/><stop offset="1"/></linearGradient><linearGradient id="paint10_linear_57_4382" x1="51.533" y1="117.107" x2="51.863" y2="116.978" gradientUnits="userSpaceOnUse"><stop stop-color="#fff"/><stop offset="1"/></linearGradient><linearGradient id="paint11_linear_57_4382" x1="52.745" y1="116.613" x2="53.039" y2="116.498" gradientUnits="userSpaceOnUse"><stop stop-color="#fff"/><stop offset="1"/></linearGradient><linearGradient id="paint12_linear_57_4382" x1="54.091" y1="115.986" x2="54.386" y2="115.87" gradientUnits="userSpaceOnUse"><stop stop-color="#fff"/><stop offset="1"/></linearGradient><linearGradient id="paint13_linear_57_4382" x1="55.512" y1="115.383" x2="55.806" y2="115.268" gradientUnits="userSpaceOnUse"><stop stop-color="#fff"/><stop offset="1"/></linearGradient><linearGradient id="paint14_linear_57_4382" x1="57.017" y1="114.802" x2="57.33" y2="114.679" gradientUnits="userSpaceOnUse"><stop stop-color="#fff"/><stop offset="1"/></linearGradient><linearGradient id="paint15_linear_57_4382" x1="58.591" y1="114.161" x2="58.931" y2="114.028" gradientUnits="userSpaceOnUse"><stop stop-color="#fff"/><stop offset="1"/></linearGradient><linearGradient id="paint16_linear_57_4382" x1="60.283" y1="113.473" x2="60.577" y2="113.358" gradientUnits="userSpaceOnUse"><stop stop-color="#fff"/><stop offset="1"/></linearGradient><linearGradient id="paint17_linear_57_4382" x1="61.962" y1="112.756" x2="62.256" y2="112.641" gradientUnits="userSpaceOnUse"><stop stop-color="#fff"/><stop offset="1"/></linearGradient><linearGradient id="paint18_linear_57_4382" x1="63.856" y1="111.96" x2="64.159" y2="111.842" gradientUnits="userSpaceOnUse"><stop stop-color="#fff"/><stop offset="1"/></linearGradient><linearGradient id="paint19_linear_57_4382" x1="65.869" y1="111.146" x2="66.164" y2="111.031" gradientUnits="userSpaceOnUse"><stop stop-color="#fff"/><stop offset="1"/></linearGradient><linearGradient id="paint20_linear_57_4382" x1="67.93" y1="110.288" x2="68.225" y2="110.173" gradientUnits="userSpaceOnUse"><stop stop-color="#fff"/><stop offset="1"/></linearGradient><linearGradient id="paint21_linear_57_4382" x1="70.17" y1="109.355" x2="70.464" y2="109.24" gradientUnits="userSpaceOnUse"><stop stop-color="#fff"/><stop offset="1"/></linearGradient><linearGradient id="paint22_linear_57_4382" x1="72.484" y1="108.418" x2="72.778" y2="108.303" gradientUnits="userSpaceOnUse"><stop stop-color="#fff"/><stop offset="1"/></linearGradient><linearGradient id="paint23_linear_57_4382" x1="74.914" y1="107.379" x2="75.208" y2="107.264" gradientUnits="userSpaceOnUse"><stop stop-color="#fff"/><stop offset="1"/></linearGradient><linearGradient id="paint24_linear_57_4382" x1="77.553" y1="106.281" x2="77.938" y2="106.13" gradientUnits="userSpaceOnUse"><stop stop-color="#fff"/><stop offset="1"/></linearGradient><linearGradient id="paint25_linear_57_4382" x1="80.388" y1="105.099" x2="80.683" y2="104.983" gradientUnits="userSpaceOnUse"><stop stop-color="#fff"/><stop offset="1"/></linearGradient><linearGradient id="paint26_linear_57_4382" x1="83.248" y1="103.84" x2="83.543" y2="103.725" gradientUnits="userSpaceOnUse"><stop stop-color="#fff"/><stop offset="1"/></linearGradient><linearGradient id="paint27_linear_57_4382" x1="86.385" y1="102.563" x2="86.68" y2="102.448" gradientUnits="userSpaceOnUse"><stop stop-color="#fff"/><stop offset="1"/></linearGradient><linearGradient id="paint28_linear_57_4382" x1="89.675" y1="101.223" x2="90.037" y2="101.082" gradientUnits="userSpaceOnUse"><stop stop-color="#fff"/><stop offset="1"/></linearGradient><linearGradient id="paint29_linear_57_4382" x1="93.092" y1="99.808" x2="93.475" y2="99.658" gradientUnits="userSpaceOnUse"><stop stop-color="#fff"/><stop offset="1"/></linearGradient><linearGradient id="paint30_linear_57_4382" x1="96.904" y1="98.219" x2="97.199" y2="98.104" gradientUnits="userSpaceOnUse"><stop stop-color="#fff"/><stop offset="1"/></linearGradient><linearGradient id="paint31_linear_57_4382" x1="100.74" y1="96.621" x2="101.035" y2="96.506" gradientUnits="userSpaceOnUse"><stop stop-color="#fff"/><stop offset="1"/></linearGradient><linearGradient id="paint32_linear_57_4382" x1="104.931" y1="94.876" x2="105.225" y2="94.76" gradientUnits="userSpaceOnUse"><stop stop-color="#fff"/><stop offset="1"/></linearGradient><linearGradient id="paint33_linear_57_4382" x1="109.274" y1="93.067" x2="109.569" y2="92.951" gradientUnits="userSpaceOnUse"><stop stop-color="#fff"/><stop offset="1"/></linearGradient></defs></svg>