<svg width="446" height="446" fill="none" xmlns="http://www.w3.org/2000/svg"><g clip-path="url(#clip0_55_1627)" fill="#1F1717" fill-opacity=".88"><path d="M228.257 74.939c-3.597 1.807-6.493 4.74-8.736 8.848-1.752 3.192-3.013 4.928-4.882 6.712-3.107 2.934-6.003 4.084-9.788 3.849-2.125-.117-2.219-.117-3.27.563-1.915 1.22-3.948 1.69-6.657 1.573-4.065-.212-6.775-1.361-11.657-5.023-3.877-2.91-7.288-4.248-11.352-4.482l-2.406-.141-1.238 1.29c-2.874 2.981-4.532 7.159-5.023 12.768-.327 3.45-.63 5.046-1.448 7.158-1.682 4.389-4.602 7.252-8.573 8.449-.747.211-1.191.54-1.682 1.267-1.284 1.878-3.34 3.544-5.349 4.319-3.644 1.408-7.055 1.525-11.937.375-5.326-1.267-10.231-1.009-13.898.681l-1.659.774-.537 1.62c-.304.892-.654 2.581-.794 3.755-.328 2.793.14 5.914 1.495 9.951 1.611 4.858 1.915 7.534 1.261 10.937-.514 2.722-1.472 4.576-3.34 6.43-1.472 1.432-1.636 1.69-1.869 2.957-.911 4.577-4.719 8.356-10.278 10.186-1.215.376-2.36.704-2.57.704-.233 0-1.518.258-2.896.563-4.322 1.01-8.503 3.38-10.793 6.196-.887 1.103-.887 1.103-.77 2.746.303 3.92 2.219 7.816 5.863 11.899 3.574 4.037 4.578 5.539 5.513 8.355 1.098 3.333 1.027 6.267-.21 9.224-.655 1.549-.655 1.572-.328 3.168 1.192 5.68-1.728 11.031-8.69 15.983-3.854 2.746-6.563 5.938-7.942 9.388-.957 2.394-.957 2.816.047 4.506 1.869 3.192 5.7 6.383 9.578 8.003 4.858 2.018 7.848 4.06 9.764 6.618 1.962 2.605 2.686 4.671 2.686 7.534 0 1.478.07 1.713.818 2.746 3.574 4.881 3.177 10.866-1.215 18.212-2.64 4.389-3.457 7.088-3.457 11.406v2.981l.701.727c.397.423 1.378 1.15 2.219 1.667 3.317 1.971 7.054 2.769 13.081 2.746 2.92 0 3.971.093 5.466.492 4.508 1.197 7.685 3.615 9.321 7.065.747 1.619.957 1.854 2.078 2.464 1.893 1.033 3.785 3.074 4.742 5.093 1.659 3.544 2.033 6.712 1.402 11.805-.467 3.732-.374 6.337.35 9.13.444 1.76 1.706 4.506 2.476 5.491 1.075 1.291 7.125 1.596 10.816.517.958-.258 2.943-1.056 4.438-1.737 3.971-1.854 5.513-2.277 8.666-2.417 4.275-.212 6.705.563 9.391 2.98 1.051.939 1.472 1.174 2.149 1.174 4.088 0 8.223 2.863 10.839 7.51.467.845 1.448 3.286 2.149 5.421.771 2.253 1.752 4.671 2.359 5.727 1.775 3.145 5.49 6.689 7.008 6.689 1.145 0 3.41-.728 5.466-1.737 2.453-1.221 4.578-2.91 6.681-5.328 4.041-4.623 6.797-6.571 10.768-7.627 1.869-.493 4.696-.352 6.541.328l1.355.47 1.331-.47c1.869-.68 4.696-.821 6.564-.328 3.972 1.056 6.728 3.004 10.769 7.627 2.102 2.418 4.228 4.107 6.681 5.328 2.056 1.009 4.321 1.737 5.466 1.737 1.518 0 5.232-3.544 7.008-6.689.607-1.056 1.588-3.474 2.359-5.727.701-2.135 1.682-4.576 2.149-5.421 2.616-4.647 6.751-7.51 10.839-7.51.677 0 1.098-.235 2.149-1.174 2.686-2.417 5.116-3.192 9.39-2.98 3.154.14 4.696.563 8.667 2.417 1.495.681 3.48 1.479 4.438 1.737 3.691 1.079 9.741.774 10.815-.517.771-.985 2.033-3.731 2.477-5.491.724-2.793.817-5.398.35-9.13-.631-5.093-.257-8.261 1.402-11.805.957-2.019 2.849-4.06 4.741-5.093 1.122-.61 1.332-.845 2.079-2.464 1.636-3.45 4.812-5.868 9.321-7.065 1.495-.399 2.546-.492 5.466-.492 6.027.023 9.764-.775 13.081-2.746.841-.517 1.846-1.244 2.219-1.667l.701-.727v-2.981c0-4.318-.817-7.017-3.457-11.406-4.392-7.346-4.789-13.331-1.215-18.212.748-1.033.818-1.268.818-2.746 0-2.863.724-4.929 2.686-7.534 1.916-2.558 4.906-4.6 9.764-6.618 3.878-1.62 7.709-4.811 9.578-8.003 1.004-1.69 1.004-2.112.046-4.506-1.378-3.45-4.087-6.642-7.942-9.388-6.961-4.952-9.881-10.303-8.689-15.983.327-1.596.327-1.619-.328-3.168-1.238-2.957-1.308-5.891-.21-9.224.935-2.816 1.939-4.318 5.513-8.355 3.644-4.083 5.56-7.979 5.863-11.899.117-1.643.117-1.643-.771-2.746-2.289-2.816-6.47-5.186-10.792-6.196-1.378-.305-2.663-.563-2.896-.563-.21 0-1.355-.328-2.57-.704-5.559-1.83-9.367-5.609-10.278-10.186-.233-1.267-.397-1.525-1.869-2.957-1.868-1.854-2.826-3.708-3.34-6.43-.654-3.403-.35-6.079 1.261-10.937 1.355-4.037 1.822-7.158 1.495-9.951-.14-1.174-.49-2.863-.794-3.755l-.537-1.62-1.659-.774c-3.667-1.69-8.572-1.948-13.898-.681-4.883 1.15-8.293 1.033-11.937-.375-2.009-.775-4.065-2.441-5.349-4.319-.491-.727-.935-1.056-1.682-1.267-3.971-1.197-6.891-4.06-8.573-8.449-.818-2.112-1.121-3.708-1.448-7.158-.491-5.61-2.149-9.787-5.023-12.767l-1.238-1.291-2.406.14c-4.064.235-7.475 1.573-11.352 4.483-4.882 3.662-7.592 4.811-11.657 5.023-2.709.117-4.742-.352-6.657-1.573-1.051-.68-1.145-.68-3.27-.563-3.785.235-6.681-.915-9.788-3.849-1.869-1.784-3.13-3.52-4.882-6.712-1.448-2.629-3.621-5.328-5.56-6.877-1.425-1.126-4.742-2.91-5.419-2.91-.234 0-1.238.422-2.243.939zm4.462.282a27.118 27.118 0 012.5 1.501c1.868 1.385 4.438 4.342 5.559 6.408 3.107 5.703 5.56 8.425 9.274 10.28l2.242 1.126 2.99.023c2.897.024 3.037.047 4.392.751 2.266 1.244 3.223 1.479 5.629 1.502 4.018 0 7.662-1.431 12.007-4.717 3.691-2.793 6.611-4.13 10.185-4.717 2.873-.446 3.621-.353 4.718.633 2.804 2.558 4.836 7.417 5.21 12.509.467 6.22 2.312 10.82 5.442 13.636 1.098.986 3.761 2.371 5.093 2.652.42.094.864.423 1.098.845.233.376.934 1.267 1.588 1.972 1.448 1.595 4.158 3.027 6.751 3.567 2.523.54 6.587.328 9.811-.516 2.102-.564 2.943-.658 5.723-.658 3.574-.023 5.559.352 7.895 1.479 1.168.587 1.238.681 1.776 2.253.467 1.314.607 2.253.677 4.67.117 3.544-.093 4.741-1.472 8.942-1.168 3.45-1.518 5.304-1.518 7.863 0 3.942 1.191 7.017 3.691 9.528 1.425 1.455 1.635 1.76 1.892 3.028.677 3.027 2.242 5.445 4.765 7.322 2.85 2.089 5.677 3.192 10.746 4.154 1.144.211 2.873.704 3.854 1.103 3.807 1.526 7.989 4.999 7.989 6.666 0 1.22-.631 3.989-1.332 5.703-1.121 2.863-2.242 4.506-5.232 7.721-2.196 2.323-2.99 3.474-4.205 6.032-1.869 3.919-2.032 7.58-.444 11.077.584 1.291.654 1.62.421 2.159-.14.352-.281 1.854-.281 3.333-.023 2.417.047 2.863.608 4.178 1.518 3.661 4.204 6.782 8.129 9.434 4.391 2.981 7.522 6.947 8.549 10.89.281 1.056.257 1.22-.187 2.112-.724 1.432-2.079 3.169-3.48 4.483-2.196 2.065-2.803 2.417-9.18 5.374-2.383 1.104-4.369 2.535-6.144 4.436-2.499 2.699-3.574 5.234-3.574 8.449 0 1.549-.047 1.69-1.168 3.38-1.588 2.394-1.985 3.802-1.985 6.994.023 3.989.864 6.43 4.298 12.251 2.009 3.426 3.083 7.979 2.709 11.453-.14 1.455-.256 1.69-1.004 2.394-1.215 1.126-4.742 2.792-7.055 3.356-1.565.375-2.779.469-5.863.469-6.096 0-9.273.751-12.637 2.981-1.986 1.314-3.037 2.534-4.111 4.787-.795 1.62-.981 1.855-2.103 2.441-2.733 1.455-5.022 4.577-6.003 8.215-.607 2.3-.701 5.726-.234 9.458.327 2.793.351 3.684.14 5.585-.467 3.896-2.149 8.05-3.573 8.731-.351.164-1.542.423-2.64.563-3.761.517-7.358-.258-12.614-2.699-3.27-1.525-5.513-2.088-8.526-2.088-3.948-.024-5.957.68-8.877 3.098-1.121.962-1.542 1.173-2.266 1.173-1.285 0-3.457.61-4.835 1.361-1.752.916-4.555 3.826-5.817 6.008-.677 1.174-1.471 3.122-2.172 5.281-1.635 5.14-2.92 7.463-5.513 10.092-2.056 2.065-3.177 2.699-4.438 2.488-1.799-.306-4.765-1.526-6.517-2.699-1.916-1.268-3.388-2.629-6.167-5.727-4.836-5.445-10.395-7.557-15.651-5.985l-1.752.517-1.752-.517c-5.256-1.572-10.815.54-15.651 5.985-2.78 3.098-4.251 4.459-6.167 5.727-1.752 1.173-4.718 2.393-6.517 2.699-1.261.211-2.383-.423-4.438-2.488-2.593-2.629-3.878-4.952-5.513-10.092-.701-2.159-1.495-4.107-2.172-5.281-1.262-2.182-4.065-5.092-5.817-6.008-1.378-.751-3.551-1.361-4.835-1.361-.724 0-1.145-.211-2.266-1.173-2.92-2.418-4.929-3.122-8.877-3.098-3.013 0-5.256.563-8.526 2.088-5.256 2.441-8.853 3.216-12.614 2.699-1.098-.14-2.289-.399-2.64-.563-1.424-.681-3.106-4.835-3.574-8.731-.21-1.901-.186-2.792.141-5.585.467-3.732.373-7.158-.234-9.458-.981-3.638-3.27-6.76-6.003-8.215-1.122-.586-1.308-.821-2.103-2.441-1.074-2.253-2.125-3.473-4.111-4.787-3.364-2.23-6.541-2.981-12.637-2.981-3.084 0-4.298-.094-5.864-.469-2.312-.564-5.839-2.23-7.054-3.356-.748-.704-.864-.939-1.005-2.394-.373-3.474.701-8.027 2.71-11.453 3.434-5.821 4.275-8.262 4.298-12.251 0-3.192-.397-4.6-1.985-6.994-1.122-1.69-1.168-1.831-1.168-3.38 0-3.215-1.075-5.75-3.574-8.449-1.776-1.901-3.761-3.332-6.144-4.436-6.377-2.957-6.984-3.309-9.18-5.374-1.401-1.314-2.756-3.051-3.48-4.483-.444-.892-.468-1.056-.187-2.112 1.027-3.943 4.158-7.909 8.55-10.89 3.923-2.652 6.61-5.773 8.128-9.434.56-1.315.63-1.761.608-4.178 0-1.479-.14-2.981-.28-3.333-.234-.539-.164-.868.42-2.159 1.588-3.497 1.425-7.158-.444-11.077-1.215-2.558-2.009-3.709-4.205-6.032-2.99-3.215-4.111-4.858-5.232-7.721-.701-1.714-1.332-4.483-1.332-5.703 0-1.667 4.181-5.14 7.99-6.666.98-.399 2.709-.892 3.853-1.103 5.069-.962 7.896-2.065 10.746-4.154 2.523-1.877 4.088-4.295 4.765-7.322.257-1.268.467-1.573 1.892-3.028 2.5-2.511 3.691-5.586 3.691-9.528 0-2.559-.35-4.413-1.518-7.863-1.379-4.201-1.589-5.398-1.472-8.942.07-2.417.21-3.356.677-4.67.538-1.572.608-1.666 1.776-2.253 2.336-1.127 4.321-1.502 7.895-1.479 2.78 0 3.621.094 5.723.658 3.224.844 7.288 1.056 9.811.516 2.593-.54 5.303-1.972 6.751-3.567.654-.705 1.355-1.596 1.588-1.972.234-.422.678-.751 1.098-.845.397-.07 1.472-.493 2.36-.915 4.812-2.23 7.591-7.463 8.175-15.373.374-5.092 2.406-9.95 5.21-12.509 1.097-.986 1.845-1.08 4.718-.633 3.574.586 6.494 1.924 10.185 4.717 4.345 3.286 7.989 4.717 12.006 4.717 2.407-.023 3.364-.258 5.63-1.502 1.355-.704 1.495-.727 4.392-.75l2.99-.024 2.242-1.127c3.738-1.854 6.214-4.623 9.274-10.303 1.845-3.403 5.746-6.994 9.227-8.449 1.074-.446 1.331-.399 3.27.564z"/><path d="M229.098 76.37c-2.242 1.22-2.195 1.268 1.425 1.268 3.224 0 3.271 0 2.733-.446-.467-.352-2.616-1.55-2.803-1.55-.046 0-.654.33-1.355.728zm-1.284 2.394c-1.379.47-2.266.986-2.92 1.69l-.584.634.934-.212c1.215-.234 9.297-.258 10.512 0l.934.212-.677-.704c-1.098-1.174-2.757-1.76-5.163-1.855-1.308-.046-2.452.047-3.036.235zm-2.22 2.84c-1.331.352-2.452 1.033-3.503 2.136l-.818.868.934-.211c.514-.094 1.939-.188 3.177-.188 2.079 0 2.383.07 3.691.751l1.425.751 1.425-.75c1.308-.681 1.612-.752 3.691-.752 1.238 0 2.663.094 3.177.188l.934.211-.934-.986c-1.846-1.9-4.626-2.698-7.055-2.041-1.051.281-1.425.281-2.453.023-1.471-.399-2.289-.399-3.691 0z"/><path d="M222.184 85.688c-1.215.422-3.13 1.783-3.13 2.182 0 .165.42.165 1.121.047.607-.094 1.986-.187 3.084-.187 1.938 0 2.032.023 3.737 1.056 1.659 1.009 1.845 1.056 3.504 1.056s1.845-.047 3.504-1.056c1.705-1.033 1.799-1.056 3.737-1.056 1.098 0 2.476.093 3.107.187.701.118 1.098.118 1.098-.047 0-.469-2.196-1.924-3.457-2.276-1.916-.563-4.906-.376-6.634.422l-1.355.634-1.331-.634c-1.799-.821-5.163-.985-6.985-.328z"/><path d="M220.222 88.528c-1.285.422-2.546 1.22-3.574 2.276-.607.61-1.098 1.174-1.098 1.267 0 .094.701-.093 1.588-.375 1.776-.61 3.458-.704 5.537-.235 1.635.352 2.779.141 3.176-.587.328-.61-.046-1.619-.77-2.065-.584-.375-4.018-.563-4.859-.281zm16.702-.071c-.935.235-1.495.634-1.752 1.268-.607 1.502.771 2.23 3.153 1.736 2.079-.47 3.761-.375 5.56.235.864.282 1.565.47 1.565.375 0-.399-2.313-2.44-3.364-2.98-.911-.47-1.612-.634-2.943-.68-.958-.048-1.962-.024-2.219.046zm-67.579.892c-.724.845-1.565 2.23-1.401 2.37.046.047.654-.258 1.354-.68 1.309-.751 2.804-1.385 4.088-1.667.608-.14.631-.187.281-.375-.211-.14-1.122-.305-1.986-.376l-1.588-.14-.748.868zm118.666-.563c-1.051.258-1.168.422-.374.586 1.261.282 2.78.916 4.065 1.667.7.422 1.308.727 1.354.68.141-.14-.677-1.525-1.378-2.347-.654-.727-.841-.821-1.822-.797-.584.023-1.425.117-1.845.21zm-115.933 1.948c-1.752.61-3.2 1.525-4.111 2.605-.607.704-1.518 2.511-1.355 2.675.023.047.631-.352 1.308-.868 1.121-.845 3.317-1.901 3.971-1.901.117 0 .654-.282 1.192-.634.537-.352 1.845-.868 2.92-1.15 1.868-.47 1.915-.493 1.308-.774-1.262-.587-3.551-.563-5.233.047zm112.733-.399c-.257.07-.771.234-1.122.375-.63.235-.56.282 1.308.751 1.075.282 2.383.798 2.92 1.15.538.352 1.075.634 1.192.634.654 0 2.849 1.056 3.971 1.9.677.517 1.284.893 1.331.846.047-.047-.187-.657-.56-1.361-.795-1.55-2.547-3.028-4.415-3.732-1.332-.516-3.691-.798-4.625-.563zm-108.925 1.948c-.678.234-1.776.798-2.453 1.243-.701.493-1.659.892-2.242.986-1.355.212-3.131 1.197-4.042 2.23-.771.868-1.962 3.239-1.752 3.473.07.071.491-.141.911-.47 1.916-1.454 4.929-2.393 6.775-2.135 1.027.141 1.074.118 1.728-.774.981-1.385 2.593-2.488 4.555-3.098 2.897-.939 2.827-.845 1.051-1.408-1.938-.61-2.919-.61-4.531-.047zm104.603.07c-1.682.54-1.752.446 1.145 1.385 1.962.61 3.574 1.713 4.555 3.098.654.892.701.915 1.728.774 1.846-.258 4.859.68 6.775 2.136.42.328.841.54.911.469.21-.234-.981-2.605-1.752-3.473-.911-1.033-2.687-2.019-4.042-2.23-.607-.094-1.588-.54-2.406-1.056-1.495-1.01-3.27-1.62-4.555-1.596-.467 0-1.518.211-2.359.493z"/><path d="M180.277 94.536c-1.682.493-3.527 1.62-4.788 2.957l-1.005 1.08-1.962.117c-3.737.188-7.078 2.441-7.895 5.351-.234.774-.164.774 1.051-.141.397-.305 1.425-.868 2.312-1.291 1.565-.727 1.612-.751 4.112-.587 2.335.141 2.592.094 3.784-.422.934-.422 1.495-.868 1.962-1.549 1.822-2.675 2.826-3.403 5.933-4.318l1.986-.564-.865-.375c-1.308-.563-3.153-.657-4.625-.258zm96.872-.094c-.491.117-1.122.328-1.379.47-.443.234-.28.328 1.472.844 3.084.892 4.088 1.62 5.91 4.295.467.681 1.028 1.127 1.962 1.549 1.192.516 1.449.563 3.784.422 2.5-.164 2.547-.14 4.112.587.887.423 1.915.986 2.312 1.291 1.215.915 1.285.915 1.051.141-.537-1.854-2.055-3.427-4.414-4.53-1.215-.563-1.916-.75-3.481-.821l-1.962-.117-1.005-1.08c-1.284-1.385-3.13-2.488-4.905-2.957-1.518-.4-2.126-.4-3.457-.094z"/><path d="M183.781 96.272c-.981.305-2.429 1.127-3.083 1.737-.467.446-.654.845-.654 1.408 0 1.761 1.471 1.831 3.831.188 1.892-1.29 3.62-1.9 5.489-1.9 1.191 0 1.262-.024.818-.33-1.425-1.009-4.789-1.595-6.401-1.103zm88.906.258c-.771.282-1.612.658-1.869.846-.444.305-.374.328.818.328 1.869 0 3.597.61 5.489 1.901 2.36 1.643 3.831 1.573 3.831-.188 0-.563-.187-.962-.631-1.408-1.938-1.784-5.045-2.394-7.638-1.478zm-104.089 6.549c-2.313.727-4.275 2.628-5.093 4.975-.28.822-.514 1.596-.514 1.713 0 .118.561-.328 1.238-.962 1.519-1.455 2.78-2.112 4.789-2.535 2.546-.539 3.597-1.736 2.5-2.839-.584-.587-1.682-.728-2.92-.352zm120.908.328c-1.121 1.127-.094 2.324 2.476 2.863 2.009.423 3.27 1.08 4.789 2.535.677.634 1.238 1.08 1.238.962 0-.117-.234-.891-.514-1.713-.981-2.769-3.458-4.835-6.167-5.116-1.098-.118-1.285-.071-1.822.469zm-167.16 20.724c-1.355.446-2.172.962-2.499 1.572-.327.681-.725 3.215-.468 3.215.07 0 .444-.539.865-1.173.42-.657 1.401-1.76 2.172-2.464 1.215-1.103 1.332-1.291.841-1.268-.304 0-.724.071-.911.118zm3.34.305c-1.728.586-3.036 1.572-4.204 3.168-1.145 1.549-1.776 3.403-1.659 4.882l.07 1.009.795-1.479c.443-.821 1.331-1.971 1.985-2.581.654-.611 1.495-1.549 1.869-2.089.35-.54 1.261-1.432 1.985-1.995.725-.54 1.402-1.08 1.542-1.173.397-.352-1.145-.188-2.383.258zm207.268-.258c.117.093.794.633 1.519 1.173.724.563 1.635 1.455 1.985 1.995.374.54 1.215 1.478 1.869 2.089.654.61 1.542 1.76 1.985 2.581l.795 1.479.07-1.009c.233-3.239-2.663-7.112-6.12-8.144-1.238-.376-2.477-.47-2.103-.164zm5.63 1.103c.771.704 1.775 1.83 2.196 2.511.864 1.338 1.074 1.173.817-.61-.233-1.596-.841-2.347-2.242-2.793-2.196-.704-2.336-.54-.771.892zm-209.674-.54c-1.401.54-3.013 1.995-3.714 3.379-.257.493-1.005 1.315-1.682 1.831-1.775 1.361-2.686 2.84-3.037 4.788-.187 1.032-.21 1.854-.093 2.253.21.61.233.61 1.238-.916 1.145-1.783 2.78-3.168 4.392-3.778 1.238-.446 1.705-.892 1.705-1.596 0-1.432 2.055-4.342 4.064-5.82l.911-.658-1.261.024c-.701 0-1.822.211-2.523.493zm200.307.141c2.009 1.478 4.064 4.388 4.064 5.82 0 .704.467 1.15 1.705 1.596 1.612.61 3.247 1.995 4.392 3.778 1.004 1.526 1.028 1.526 1.238.916.117-.399.093-1.221-.093-2.253-.351-1.948-1.262-3.427-3.037-4.788-.678-.516-1.425-1.338-1.682-1.831-1.145-2.253-3.808-3.896-6.307-3.896h-1.191l.911.658z"/><path d="M133.816 125.116c-2.056.775-4.556 3.615-5.303 6.009-.35 1.126-.467 1.243-1.799 1.877-1.798.845-3.947 2.957-4.718 4.647-.444.962-.584 1.619-.584 2.887v1.643l.747-1.174c1.775-2.863 3.06-3.943 5.56-4.694 1.705-.493 2.125-.751 3.107-1.924.607-.751.864-1.361 1.097-2.582.164-.868.421-1.924.608-2.347.35-.892 1.892-2.628 3.434-3.872l1.144-.892-1.144.023c-.608 0-1.589.188-2.149.399z"/><path d="M138.931 125.022c-2.312.493-4.111 1.901-5.232 4.061-.467.938-.467 1.455 0 2.135.42.634 1.401.681 2.125.094.281-.211.865-1.032 1.332-1.83.981-1.714 2.569-3.216 4.135-3.943l1.144-.54-.724-.164c-.934-.188-1.215-.165-2.78.187zm180.124-.164c-.467.094-.397.188.631.657 1.635.751 3.177 2.253 4.252 4.107.934 1.62 1.658 2.207 2.592 2.066.701-.094 1.262-1.08 1.075-1.878-.444-1.76-2.897-4.13-4.789-4.623-1.144-.305-3.06-.47-3.761-.329z"/><path d="M325.035 125.586c1.542 1.244 3.084 2.98 3.434 3.872.187.423.444 1.479.608 2.347.233 1.221.49 1.831 1.097 2.582.982 1.173 1.402 1.431 3.107 1.924 2.5.751 3.784 1.831 5.56 4.694l.747 1.174v-1.643c0-1.268-.14-1.925-.584-2.887-.771-1.69-2.92-3.802-4.718-4.647-1.332-.634-1.449-.751-1.799-1.877-1.098-3.474-4.578-6.431-7.568-6.431h-1.028l1.144.892zM125.5 138.283c-1.145.704-2.383 2.182-2.944 3.426-.584 1.314-.841 3.826-.514 5.046l.211.822.397-1.174c.677-1.948 1.682-3.333 3.41-4.576 1.612-1.197 2.126-1.901 2.126-2.934 0-1.056-1.448-1.385-2.686-.61z"/><path d="M333.235 138.095c-.491.282-.538 1.103-.141 1.948.141.328.981 1.126 1.846 1.784 1.728 1.243 2.733 2.628 3.41 4.576l.397 1.174.211-.822c.327-1.22.07-3.732-.514-5.046-.561-1.267-2.079-3.004-3.107-3.544-.724-.375-1.542-.422-2.102-.07zm-225.278 31.989c-1.472.68-2.967 2.018-3.714 3.285-.655 1.15-1.192 3.544-.958 4.436.21.915 1.168 1.479 1.892 1.15.794-.375 1.191-1.314 1.401-3.215.187-1.948.725-3.286 2.009-4.976.514-.68.841-1.244.748-1.22-.094 0-.724.258-1.378.54zm244.456.68c1.284 1.69 1.822 3.028 2.008 4.976.211 1.901.608 2.84 1.402 3.215.724.329 1.682-.235 1.892-1.15.234-.892-.304-3.286-.958-4.436-.77-1.314-2.265-2.605-3.784-3.285-.677-.305-1.308-.564-1.378-.564-.047 0 .304.564.818 1.244z"/><path d="M102.818 172.384c-2.266 1.525-3.41 4.083-3.458 7.721-.023 2.23-.023 2.23-.91 3.262-1.636 1.925-2.71 5.093-2.407 7.182.117.962 1.052 3.262 1.215 3.074.047-.046.234-.938.42-1.971.491-2.816 1.052-3.872 3.037-5.75 1.145-1.056 1.776-1.854 1.869-2.3.07-.399.21-1.033.28-1.408.094-.399-.046-1.62-.257-2.699-.397-1.878-.397-2.065-.023-3.45.21-.822.748-2.136 1.168-2.957.911-1.69.724-1.807-.934-.704zm254.43.704c.42.821.958 2.135 1.168 2.957.374 1.385.374 1.572-.023 3.45-.211 1.079-.351 2.3-.257 2.699.07.375.21 1.009.28 1.408.093.446.724 1.244 1.869 2.3 1.985 1.878 2.546 2.934 3.036 5.75.187 1.033.374 1.925.421 1.971.163.188 1.098-2.112 1.215-3.074.303-2.089-.771-5.257-2.406-7.182-.888-1.032-.888-1.032-.912-3.262-.046-3.638-1.191-6.196-3.457-7.721-1.658-1.103-1.845-.986-.934.704z"/><path d="M99.314 173.299c-2.453 1.197-3.995 3.45-4.252 6.172-.07.916-.303 1.667-.677 2.23-1.402 2.065-1.542 4.882-.374 7.276l.608 1.267.42-1.995c.467-2.417 1.588-4.647 2.803-5.633.794-.633.841-.751.654-1.431-.56-1.948-.07-4.858 1.215-7.158.374-.658.654-1.221.631-1.221-.047.024-.514.235-1.028.493zm261.975.751c1.285 2.277 1.775 5.187 1.215 7.135-.187.68-.14.798.654 1.431 1.215.963 2.336 3.216 2.826 5.633l.421 2.042.607-1.291c1.145-2.511.981-5.234-.444-7.369-.373-.564-.584-1.197-.584-1.808 0-1.196-.747-3.309-1.518-4.341-.607-.798-2.079-1.901-3.2-2.394l-.654-.282.677 1.244zm-266.927 1.572c-.888.705-1.402 1.362-2.08 2.746-.84 1.714-.887 1.925-.887 4.037 0 1.76.093 2.464.467 3.168l.444.939.28-1.901c.14-1.032.538-2.488.888-3.239.327-.727.607-1.549.607-1.783 0-.728.701-2.605 1.425-3.802.841-1.385.467-1.455-1.144-.165zm271.132.165c.724 1.197 1.425 3.074 1.425 3.802 0 .234.28 1.056.607 1.783.35.751.748 2.207.888 3.239l.28 1.901.444-.939c.374-.704.467-1.408.467-3.168 0-2.112-.047-2.323-.888-4.037-.677-1.384-1.191-2.041-2.079-2.746-1.611-1.29-1.985-1.22-1.144.165zm-274.613 1.244c-1.472 1.079-1.775 1.713-1.588 3.145.186 1.431.7 2.769.864 2.253.07-.188.233-.986.397-1.737.14-.775.56-2.065.934-2.887.397-.798.631-1.478.514-1.478-.093 0-.584.328-1.121.704zm278.631.774c.373.822.794 2.112.934 2.887.397 2.089.467 2.182.818 1.385.56-1.291.654-3.051.21-3.732-.397-.587-2.149-2.018-2.476-2.018-.117 0 .117.68.514 1.478zm-269.614 10.28c-.28.281-.771 1.079-1.098 1.83-1.075 2.324-.654 5.844.934 7.839l.537.657v-2.3c0-2.3 0-2.3 1.122-4.389.607-1.15 1.098-2.323 1.098-2.605 0-1.384-1.612-2.018-2.593-1.032zm258.985.023c-.561.822-.467 1.338.724 3.614 1.122 2.089 1.122 2.089 1.122 4.389v2.3l.537-.657c1.588-1.995 2.009-5.515.934-7.839-.327-.751-.817-1.549-1.098-1.83-.654-.657-1.752-.657-2.219.023zm-262.466 36.73c-1.472 1.69-1.939 2.746-2.055 4.788-.164 2.91.724 4.905 2.219 4.905.654 0 1.238-.822 1.238-1.761 0-.375-.21-1.384-.468-2.182-.56-1.76-.607-3.99-.116-5.562.187-.634.303-1.197.257-1.221-.047-.047-.538.423-1.075 1.033zm267.021-1.103c-.023.07.14.633.327 1.267.491 1.596.444 3.802-.117 5.586-.56 1.783-.584 2.722-.093 3.426.42.611 1.168.657 1.892.165 1.285-.916 1.635-5.234.584-7.299-.42-.845-2.593-3.45-2.593-3.145z"/><path d="M92.937 228.593c-.397.469-.865 1.338-1.075 1.924-.747 2.206-.21 6.055 1.121 8.003l.561.798-.42 1.244c-.631 1.784-.608 4.788.07 6.572.467 1.244 2.546 3.896 2.826 3.591.07-.071-.07-.869-.304-1.761-.7-2.675-.607-4.318.374-6.477.724-1.643.818-2.042.724-3.239-.14-1.549-.327-1.995-1.588-3.591-1.238-1.572-1.495-2.488-1.495-5.421 0-1.385-.023-2.511-.047-2.511-.023 0-.35.398-.747.868zm274.332 1.643c0 2.933-.257 3.849-1.495 5.421-1.261 1.596-1.448 2.042-1.588 3.591-.094 1.197 0 1.596.724 3.239.981 2.159 1.074 3.802.374 6.477-.234.892-.374 1.69-.304 1.761.28.305 2.359-2.347 2.826-3.591.678-1.784.701-4.788.07-6.572l-.42-1.244.561-.798c1.331-1.971 1.868-5.797 1.098-8.026-.187-.587-.701-1.479-1.098-1.948l-.748-.868v2.558z"/><path d="M89.736 231.292c-1.168 1.408-1.728 2.957-1.728 4.811 0 .915.117 1.972.28 2.347.14.352.28 1.76.304 3.121.023 2.066.117 2.652.584 3.638.537 1.103 2.593 3.403 3.036 3.403.117 0 .047-.446-.163-1.009-.257-.681-.397-1.784-.397-3.567-.023-2.23.046-2.723.49-3.544l.514-.939-.794-1.173c-1.075-1.549-1.612-3.685-1.472-6.009.07-1.009.094-1.83.047-1.83-.023 0-.35.352-.7.751zm280.874 1.079c.14 2.324-.398 4.46-1.472 6.009l-.794 1.173.514.939c.443.821.513 1.314.49 3.544 0 1.783-.14 2.886-.397 3.567-.21.563-.28 1.009-.164 1.009.444 0 2.5-2.3 3.037-3.403.467-.986.561-1.572.584-3.638.024-1.361.164-2.769.304-3.121.163-.375.28-1.432.28-2.37 0-1.432-.117-1.948-.701-3.098-.373-.775-.934-1.643-1.238-1.925l-.56-.516.117 1.83zm-283.724 1.995c-1.564 1.667-2.032 5.516-1.004 8.168.467 1.244 2.15 3.497 2.593 3.497.117 0 0-.611-.257-1.362-.257-.727-.514-2.135-.56-3.098-.047-.962-.188-2.44-.351-3.285a9.977 9.977 0 01-.047-3.004c.117-.798.187-1.455.164-1.455-.024 0-.257.234-.538.539zm286.854.916a10 10 0 01-.047 3.004c-.164.845-.304 2.323-.35 3.285-.047.963-.304 2.371-.561 3.098-.257.751-.374 1.362-.257 1.362.444 0 2.126-2.253 2.593-3.497 1.051-2.676.514-6.736-1.051-8.215l-.538-.492.211 1.455zm-290.03 2.581c-.304.564-.678 1.408-.795 1.878-.21.774-.163.986.42 1.877.562.892 1.87 2.324 1.87 2.042 0-.047-.164-.61-.35-1.267-.211-.657-.374-2.112-.374-3.333 0-1.197-.047-2.182-.094-2.182s-.35.445-.677.985zm292.809 1.197c0 1.221-.163 2.676-.373 3.333-.187.657-.351 1.22-.351 1.267 0 .282 1.308-1.15 1.869-2.042.584-.891.631-1.103.421-1.877-.211-.822-1.262-2.863-1.472-2.863-.047 0-.094.985-.094 2.182zM96.72 244.012c-.63.54-.653.657-.653 2.652 0 1.807.093 2.23.654 3.309.7 1.315 2.172 2.911 3.247 3.474.724.375.817.211.303-.469-.864-1.127-1.308-3.263-1.238-5.938.07-2.277.024-2.652-.373-3.098-.584-.634-1.122-.634-1.94.07zm265.62-.07c-.397.446-.444.821-.373 3.098.07 2.675-.374 4.811-1.239 5.938-.513.68-.42.844.304.469 1.075-.563 2.546-2.159 3.247-3.474.561-1.079.654-1.502.654-3.309 0-1.995-.023-2.112-.654-2.652-.817-.704-1.355-.704-1.939-.07zm-254.29 35.462c-.654 2.112-.724 3.098-.327 4.647.841 3.239 3.387 5.421 4.695 3.99.631-.704.281-1.737-1.191-3.497-1.565-1.831-2.196-3.168-2.359-5.023-.07-.727-.211-1.337-.304-1.337-.07 0-.327.563-.514 1.22zm244.082.117c-.163 1.855-.794 3.192-2.359 5.023-.724.868-1.378 1.877-1.448 2.3-.304 1.478 1.284 2.206 2.569 1.173 1.635-1.29 2.897-4.412 2.593-6.383-.21-1.315-.864-3.45-1.051-3.45-.094 0-.234.61-.304 1.337z"/><path d="M106.228 284.638c-.607 3.004 1.308 7.088 4.205 8.918.817.516.864.634.981 2.065.14 1.761 1.121 3.99 2.406 5.492.794.939 2.593 1.995 3.924 2.277.608.141.608.094-.49-1.268-1.869-2.323-2.383-3.614-2.383-6.008 0-3.192-.888-4.787-3.41-6.031-1.916-.963-3.528-3.098-4.299-5.75-.163-.54-.397-.986-.49-.986-.094 0-.304.587-.444 1.291zm247.609-.305c-.77 2.652-2.382 4.787-4.298 5.75-1.588.798-2.172 1.361-2.849 2.793-.468.985-.561 1.572-.561 3.238 0 2.394-.514 3.685-2.383 6.008-1.098 1.362-1.098 1.409-.49 1.268 1.331-.282 3.13-1.338 3.924-2.277 1.285-1.502 2.266-3.731 2.406-5.492.117-1.431.164-1.549.981-2.065 2.897-1.83 4.812-5.914 4.205-8.918-.14-.704-.351-1.291-.444-1.291-.093 0-.327.446-.491.986z"/><path d="M104.57 287.923c-.164.376-.304 1.549-.304 2.582-.023 2.112.374 3.145 1.939 5.046.49.587 1.074 1.596 1.285 2.277.911 2.769 2.826 4.435 5.839 5.116l.678.141-.748-.845c-1.752-2.019-2.826-4.483-2.826-6.548 0-1.174-.024-1.197-1.051-1.76-1.589-.845-3.107-2.84-3.971-5.258l-.538-1.455-.303.704zm251.136.423c-.677 2.3-2.429 4.717-4.088 5.586-1.027.563-1.051.586-1.051 1.76 0 2.065-1.074 4.529-2.826 6.548l-.748.845.678-.141c3.013-.681 4.928-2.347 5.839-5.116.211-.681.795-1.69 1.285-2.277 1.145-1.408 1.846-2.84 2.009-4.201.117-1.103-.28-3.685-.607-3.872-.117-.071-.327.328-.491.868zm-252.608 3.732c-.28 1.126-.14 3.473.327 4.693.631 1.667 1.986 3.427 3.364 4.366 1.028.68 2.452 1.267 2.686 1.079.047-.047-.397-.61-1.004-1.267-.608-.657-1.425-1.854-1.799-2.652-.397-.798-1.051-1.971-1.495-2.582-.444-.633-.981-1.736-1.215-2.464-.49-1.643-.654-1.878-.864-1.173zm254.407-.282c-.07.188-.304.915-.514 1.596-.21.68-.747 1.737-1.168 2.347-.444.61-1.098 1.76-1.495 2.558-.374.798-1.191 1.995-1.799 2.652-.607.657-1.051 1.22-1.004 1.267.234.188 1.658-.399 2.686-1.079 2.336-1.596 3.855-4.412 3.808-7.182 0-1.666-.28-2.816-.514-2.159zm-255.832 4.764c-.21 1.432-.023 2.676.514 3.262.444.493 2.429 1.596 2.873 1.596.14 0-.163-.563-.677-1.244-.514-.68-1.308-2.018-1.729-2.98l-.817-1.76-.164 1.126zm256.743.517c-.374.868-1.145 2.206-1.705 2.957-.538.751-.888 1.384-.771 1.384.444 0 2.453-1.126 2.896-1.619.514-.563.748-2.37.444-3.52l-.21-.798-.654 1.596zm-242.237-.54c-.49.704-.467 1.314.094 2.84.934 2.487 2.943 4.154 5.769 4.74.865.188 1.612.305 1.636.259.046-.047-.351-.376-.911-.752-1.495-1.056-2.64-2.675-3.341-4.787-.654-1.972-1.355-2.817-2.359-2.817-.28 0-.701.235-.888.517zm226.609-.047c-.397.305-.794 1.103-1.214 2.347-.701 2.112-1.846 3.731-3.341 4.787-.56.376-.957.705-.911.752.024.046.771-.071 1.636-.259 2.826-.586 4.835-2.253 5.769-4.74.561-1.526.584-2.136.094-2.84-.444-.634-1.238-.657-2.033-.047zm-202.105 28.14c.327 3.215 1.752 5.398 4.392 6.688 1.401.704 2.149.704 2.826 0 .935-.915.07-2.135-2.266-3.215-2.102-.986-2.92-1.69-4.134-3.52l-.981-1.455.163 1.502zm179.12-.517c-1.028 1.831-2.149 2.864-4.181 3.849-2.617 1.268-3.481 2.418-2.523 3.356.677.704 1.425.704 2.826 0 2.616-1.267 4.041-3.45 4.415-6.641.07-.775.117-1.432.047-1.432-.047 0-.327.399-.584.868z"/><path d="M141.08 329.746c.444 3.356 3.551 6.102 7.896 6.97.397.094.771.47 1.144 1.197.701 1.338 2.897 3.403 4.392 4.131.771.375 1.658.587 2.803.634 2.546.14 2.803-.071 1.121-.916-2.779-1.408-3.714-2.323-4.882-4.764-.654-1.385-1.261-2.323-1.588-2.511a4.334 4.334 0 01-1.028-.728c-.35-.328-1.075-.493-2.523-.657-2.569-.258-3.714-.821-5.816-2.793l-1.635-1.549.116.986zm177.228.634c-1.986 1.901-3.154 2.464-5.723 2.722-1.448.164-2.173.329-2.523.657a4.334 4.334 0 01-1.028.728c-.327.188-.934 1.126-1.588 2.511-1.168 2.441-2.103 3.356-4.882 4.764-1.682.845-1.425 1.056 1.121.916 1.144-.047 2.032-.259 2.803-.634 1.448-.704 3.527-2.629 4.298-3.99.748-1.267.935-1.432 1.705-1.432.865-.023 3.154-1.009 4.275-1.901 1.846-1.408 3.387-4.013 3.154-5.351-.047-.375-.327-.211-1.612 1.01z"/><path d="M141.127 334.393c.327 2.582 1.845 4.576 4.345 5.703.771.352 1.682 1.056 2.289 1.713 1.495 1.667 3.224 2.441 5.443 2.418 2.453-.024 2.663-.235.958-1.08-1.963-.986-3.785-2.676-4.532-4.248-.608-1.22-.678-1.291-1.752-1.432-1.705-.211-3.901-1.384-5.49-2.886l-1.424-1.362.163 1.174zm177.555.117c-1.379 1.408-3.878 2.746-5.513 2.957-1.121.141-1.168.188-1.799 1.432-.747 1.572-2.569 3.262-4.532 4.248-1.705.845-1.495 1.056.958 1.08 2.219.023 3.948-.751 5.443-2.418.584-.657 1.495-1.338 2.172-1.643 1.589-.704 2.617-1.549 3.411-2.792.631-1.01 1.285-3.239 1.121-3.779-.047-.141-.631.258-1.261.915zm-163.166 1.807c-.327.235-.467.611-.467 1.15 0 .704.21 1.033 1.285 2.089 2.079 2.042 4.742 2.699 7.709 1.901 1.144-.305 1.144-.305.467-.493-2.71-.657-3.761-1.244-5.653-3.238-1.542-1.62-2.476-2.019-3.341-1.409zm148.73-.211c-.421.047-1.145.587-2.103 1.62-1.892 1.994-2.943 2.581-5.653 3.238-.677.188-.677.188.467.493 2.967.798 5.63.141 7.732-1.924 1.168-1.127 1.285-1.338 1.215-2.113-.07-.985-.654-1.455-1.658-1.314zm-162.979 1.901c0 .258.234 1.08.514 1.831 1.191 3.192 5.536 5.867 8.713 5.327l.911-.14-1.635-.798c-.911-.423-2.102-1.197-2.686-1.69-.561-.493-1.519-1.197-2.126-1.549-.607-.352-1.682-1.268-2.406-2.042-.981-1.08-1.285-1.291-1.285-.939zm177.111.986c-.677.751-1.729 1.643-2.336 1.995-.607.352-1.565 1.056-2.126 1.549-.584.493-1.775 1.267-2.686 1.69l-1.635.798.911.14c3.2.54 7.522-2.135 8.736-5.351.794-2.159.561-2.394-.864-.821zm-176.714 3.591c.07.281.397 1.103.748 1.807.701 1.408 1.004 1.572 3.293 1.596l1.519.023-1.635-.915c-.888-.516-2.103-1.408-2.687-1.995-1.168-1.22-1.378-1.314-1.238-.516zm176.434.516c-.584.587-1.776 1.479-2.687 1.995l-1.635.915 1.519-.023c2.289-.024 2.592-.188 3.293-1.596.654-1.314.958-2.371.701-2.371-.093 0-.631.493-1.191 1.08zm-129.715 8.731c.21.821 1.845 2.98 2.826 3.731 1.215.916 2.967 1.479 4.649 1.479 1.028 0 1.355-.118 1.845-.587.771-.774.654-1.478-.35-2.159-.677-.446-1.098-.54-2.733-.54-2.196 0-3.574-.422-5.279-1.596-.818-.563-1.051-.657-.958-.328zm83.346.281c-1.565 1.15-3.153 1.643-5.349 1.643-1.635 0-2.056.094-2.733.54-1.005.681-1.121 1.385-.35 2.159.49.469.817.587 1.845.587 2.733 0 4.952-1.197 6.517-3.521.678-1.032 1.238-2.159 1.051-2.112-.023.024-.467.329-.981.704z"/><path d="M191.116 356.97c.537 1.08 2.359 2.582 3.854 3.145 1.028.399 1.799.517 3.528.517 1.214 0 2.476-.094 2.779-.235.491-.188.725-.117 1.542.493 1.892 1.455 3.247 1.901 5.84 1.901 2.149 0 2.429-.047 3.574-.681.654-.375 1.215-.774 1.215-.892 0-.093-.725-.187-1.589-.187-1.798 0-4.088-.517-4.835-1.127a44.426 44.426 0 01-1.939-1.619c-1.285-1.08-1.565-1.221-2.897-1.362-1.261-.14-1.752-.07-3.293.47-1.472.516-2.056.61-3.037.493-1.051-.141-3.317-.822-4.695-1.432-.397-.188-.397-.141-.047.516zm77.46-.023c-.701.282-2.009.657-2.873.821-1.542.282-1.706.259-3.551-.352-1.682-.563-2.173-.633-3.387-.493-1.285.141-1.589.306-2.85 1.385a62.514 62.514 0 01-1.939 1.596c-.747.61-3.037 1.127-4.835 1.127-.865 0-1.589.094-1.589.187 0 .118.561.517 1.238.892 1.122.634 1.402.681 3.551.681 2.593 0 3.948-.446 5.84-1.901.817-.61 1.051-.681 1.542-.493.303.141 1.565.235 2.779.235 2.687 0 4.298-.54 5.934-1.972 1.004-.892 2.032-2.347 1.611-2.3-.116.024-.77.282-1.471.587z"/><path d="M207.374 357.041c-.56.563-.584.751-.117 1.619.514 1.009 2.406 1.76 4.555 1.76 1.963.024 3.528-.563 5.256-1.971l.935-.751-.935.211c-.514.094-1.728.188-2.686.164-1.425-.023-2.056-.164-3.434-.751-1.939-.868-2.92-.938-3.574-.281zm42.631.281c-1.331.611-1.962.728-3.387.751-.958.024-2.172-.07-2.686-.164l-.935-.211.935.751c1.728 1.408 3.293 1.995 5.255 1.971 2.15 0 4.042-.751 4.556-1.76.467-.868.443-1.056-.117-1.619-.654-.657-1.705-.587-3.621.281zm-57.347 3.169c0 .352.817 1.502 1.682 2.347 1.378 1.361 2.92 1.995 4.975 2.065 1.121.047 1.986.235 2.803.61 1.752.822 4.696.798 6.331-.07 2.032-1.08 2.009-1.267-.187-1.432-2.359-.141-4.275-.845-5.63-2.042l-.958-.868-1.027.352c-1.519.516-4.672.282-6.518-.469-.817-.329-1.471-.564-1.471-.493zm74.166.516c-1.799.728-4.952.962-6.471.446l-1.028-.352-.957.868c-1.355 1.197-3.271 1.901-5.63 2.042-2.196.165-2.219.352-.187 1.432 1.635.868 4.579.892 6.331.07.817-.375 1.681-.563 2.803-.61 2.055-.07 3.597-.704 4.975-2.065.911-.869 1.846-2.23 1.635-2.371-.046-.023-.7.212-1.471.54zm-72.064 3.591c0 .164.561.821 1.238 1.502 1.705 1.643 3.364 2.277 6.004 2.3 1.751.023 2.149-.07 3.387-.657l1.401-.704-1.985-.141c-1.098-.094-2.57-.329-3.271-.54-.7-.211-1.938-.469-2.756-.61-.818-.117-2.032-.493-2.733-.821-.771-.352-1.285-.47-1.285-.329zm70.148.352c-.677.305-1.892.681-2.686.798-.818.141-2.056.399-2.756.61-.701.211-2.173.446-3.271.54l-1.985.141 1.401.704c1.238.587 1.635.68 3.387.657 2.43-.023 4.135-.61 5.7-1.995.981-.868 1.705-1.807 1.495-1.948-.047-.047-.631.188-1.285.493zm-67.929 3.685c.234.352.911 1.009 1.495 1.478 1.215.916 1.799.916 3.878-.023l1.168-.54-1.799-.164c-1.565-.141-2.966-.493-4.718-1.221-.421-.164-.421-.14-.024.47zm65.64.023c-.771.305-2.242.634-3.27.728l-1.869.164 1.168.54c2.079.939 2.663.939 3.878.023 1.004-.774 2.079-2.065 1.682-2.018-.117.023-.818.282-1.589.563zM223.095 76.605c-1.822.845-3.224.986-5.7.54-1.938-.329-2.336-.352-2.92-.07-.747.375-1.004 1.267-.56 2.065.374.704 2.569 1.29 4.158 1.103 1.775-.211 3.083-.845 4.485-2.16.981-.915 1.892-2.041 1.588-1.947-.047 0-.514.211-1.051.47zm13.922-.07c.421.774 2.617 2.652 3.621 3.098 1.518.68 3.34.821 4.882.375 1.425-.422 1.869-.915 1.752-1.971-.047-.423-.28-.728-.747-.963-.584-.281-.982-.258-2.92.07-2.476.447-3.855.306-5.77-.539-.935-.422-1.005-.422-.818-.07z"/><path d="M209.009 78.764c-.303.165-.677.587-.817.939-.327.962.233 1.784 1.752 2.558 3.387 1.737 7.778 1.291 9.974-.986.421-.446.748-.821.701-.844-.023-.047-.467.023-.981.14-.514.118-1.892.235-3.037.235-1.728 0-2.289-.094-3.037-.516-3.76-2.019-3.644-1.995-4.555-1.526zm40.646.352c-.701.376-1.706.916-2.219 1.174-.748.422-1.309.516-3.037.516-1.145 0-2.523-.117-3.037-.235-.514-.117-.958-.187-.981-.14-.21.21 1.659 1.713 2.733 2.23 1.121.516 1.589.61 3.504.586 1.705-.023 2.523-.14 3.551-.54 2.406-.939 3.34-2.323 2.359-3.497-.701-.821-1.448-.845-2.873-.094z"/><path d="M203.987 79.68c-1.308.704-1.425 2.088-.28 3.38 1.051 1.243 3.854 3.003 5.676 3.614 1.962.657 4.368.563 5.887-.212 1.027-.54 2.849-2.042 2.849-2.37 0-.117-.397-.07-.864.047-1.308.375-4.672.305-5.863-.141-1.238-.446-2.826-1.549-4.532-3.122-.747-.68-1.448-1.243-1.565-1.243-.117 0-.35-.047-.537-.118-.164-.047-.514 0-.771.165zm51.624.047c-.373.187-1.004.657-1.401 1.08-1.028 1.102-3.411 2.769-4.579 3.191-1.214.446-4.578.54-5.863.14-.49-.117-.888-.163-.888-.046 0 .328 1.822 1.83 2.85 2.37 1.519.775 3.925.869 5.887.212 1.822-.61 4.625-2.37 5.7-3.615 1.097-1.267 1.027-2.675-.211-3.309-.771-.422-.63-.422-1.495-.023zm-60.267 1.783c-.677.258-1.144.892-1.612 2.112-.724 1.878-1.962 3.896-2.966 4.788-1.075.986-3.411 2.183-4.649 2.394-1.518.235-1.565.352-.35.845 2.523 1.056 5.443.54 7.755-1.361 1.822-1.502 4.275-5.469 4.275-6.947 0-1.174-1.425-2.253-2.453-1.83zm69.121 0c-.678.258-1.262 1.15-1.262 1.878 0 1.431 2.476 5.421 4.275 6.9 2.312 1.9 5.232 2.417 7.755 1.361 1.215-.493 1.168-.61-.35-.845-1.308-.211-3.621-1.432-4.766-2.488-.7-.657-1.401-1.69-2.102-3.121-.584-1.197-1.074-2.277-1.074-2.417 0-.353-.958-1.197-1.519-1.338-.257-.07-.701-.047-.957.07z"/><path d="M199.689 82.05c-.257.305-.841 1.314-1.285 2.3-1.215 2.652-2.663 5.163-3.504 6.032-.934 1.032-2.569 1.854-4.648 2.37l-1.682.422 1.401.423c1.215.375 1.612.399 3.014.14 2.359-.398 4.391-1.501 6.354-3.426.911-.915 1.775-1.83 1.868-2.042.187-.352.374-.305 1.846.423 3.41 1.69 7.101 1.9 9.811.563 1.401-.68 3.13-2.16 2.125-1.784-.257.094-1.214.282-2.149.423-3.223.516-4.882-.211-9.671-4.225-1.214-1.009-2.382-1.9-2.592-1.995-.234-.07-.584.07-.888.376zm60.711-.352c-.187.07-1.355.962-2.57 1.971-4.788 4.014-6.447 4.741-9.67 4.225-.935-.141-1.892-.329-2.149-.423-1.005-.375.724 1.103 2.125 1.784 2.71 1.338 6.401 1.127 9.811-.563 1.472-.728 1.659-.775 1.846-.423.093.212.957 1.127 1.868 2.042 1.963 1.925 3.995 3.028 6.354 3.427 1.402.258 1.799.234 3.013-.141l1.402-.422-1.682-.423c-2.079-.516-3.714-1.338-4.648-2.37-.818-.869-2.406-3.638-3.598-6.22-.817-1.807-1.541-2.675-2.102-2.464zm-71.059 1.619c-.327.376-.911 1.15-1.332 1.76-1.144 1.714-2.943 2.793-5.816 3.474-.701.164-1.168.376-1.051.493.093.094.841.352 1.658.563 1.752.47 3.387.211 5.443-.845 3.247-1.62 5.092-4.459 3.761-5.68-.701-.633-1.962-.516-2.663.235zm79.632-.211c-1.635 1.83 2.149 5.727 6.424 6.595 1.121.235 1.588.235 2.803-.094.817-.211 1.565-.47 1.658-.563.117-.117-.35-.329-1.051-.493-2.873-.68-4.672-1.76-5.816-3.474-1.308-1.924-1.846-2.393-2.78-2.393-.537 0-1.005.164-1.238.422z"/><path d="M182.637 84.561c-1.893 1.291-2.874 1.643-5.163 1.854l-1.518.141 1.518.704c1.962.892 4.625.986 6.331.211 1.658-.774 2.779-1.877 2.779-2.769 0-1.76-1.495-1.807-3.947-.14zm92.059-.891c-.164.164-.28.61-.28 1.032 0 .892 1.121 1.995 2.779 2.77 1.706.774 4.369.68 6.331-.212l1.518-.704-1.518-.14c-2.289-.212-3.271-.564-5.163-1.855-1.775-1.22-3.036-1.525-3.667-.892zm-73.419 6.195c-.887 1.667-4.181 3.779-7.334 4.694-1.309.376-1.355.4-.818.634.327.14 1.425.235 2.453.235 2.125 0 3.784-.517 5.746-1.855l1.191-.797 1.542.258c1.799.328 4.018.164 5.443-.4 1.004-.398 3.107-1.713 2.967-1.853-.047-.047-.982.047-2.103.164-2.709.329-5.092 0-7.078-.962-.794-.4-1.518-.728-1.565-.728-.07 0-.257.282-.444.61zm56.273.141c-1.799.939-4.228 1.267-6.914.939-1.121-.117-2.056-.211-2.103-.164-.14.14 1.963 1.455 2.967 1.854 1.425.563 3.644.727 5.443.399l1.542-.259 1.191.798c1.962 1.338 3.621 1.855 5.746 1.855 1.028 0 2.126-.094 2.453-.235.537-.235.491-.258-.818-.634-3.153-.915-6.447-3.027-7.334-4.694-.398-.727-.491-.727-2.173.141zm-94.465 2.981c-1.448 1.338-2.383 1.807-4.695 2.37-2.5.587-3.598 1.878-2.453 2.863.701.634 1.401.704 2.756.305 2.827-.82 4.719-2.722 5.466-5.491.14-.54.234-1.033.187-1.08-.047-.047-.607.422-1.261 1.033zm133.639-.447c.607 2.958 2.639 5.117 5.583 5.985 1.355.4 2.055.33 2.779-.305 1.122-.985.024-2.276-2.476-2.863-2.336-.563-3.223-1.032-4.765-2.44l-1.308-1.174.187.798z"/><path d="M162.057 97.493c-.841.704-3.037 1.784-4.251 2.089-.748.187-1.542.21-2.804.023-2.592-.352-3.69.14-3.69 1.69 0 2.535 6.097 2.183 9.414-.54.864-.727 1.845-2.206 2.149-3.239.186-.633-.047-.657-.818-.023zm136.068.023c.795 2.652 3.481 4.718 6.891 5.351 2.64.493 4.672-.211 4.672-1.572 0-1.55-1.098-2.042-3.691-1.69-2.429.352-4.695-.305-6.984-2.042-.911-.704-1.075-.704-.888-.047z"/><path d="M161.356 101.741c-.327.281-1.378.868-2.336 1.338-1.612.774-1.915.844-3.737.821-1.589 0-2.453-.164-4.298-.775-2.617-.868-3.364-.774-3.901.493-.257.634-.234.845.163 1.573.374.727.701.939 2.079 1.408 1.355.469 2.126.563 4.438.587 2.57.023 2.92-.024 4.112-.587 1.658-.775 2.92-2.042 3.644-3.661.677-1.479.63-1.854-.164-1.197zm137.587-.235c0 .681 1.168 2.746 1.985 3.591.491.493 1.472 1.15 2.196 1.502 1.192.563 1.542.61 4.112.587 2.312-.024 3.083-.118 4.438-.587 1.378-.469 1.705-.681 2.079-1.408.397-.728.42-.939.163-1.573-.537-1.267-1.284-1.361-3.901-.493-1.845.611-2.709.775-4.298.775-1.775.023-2.149-.07-3.621-.751-.887-.423-1.962-1.033-2.382-1.361-.491-.376-.771-.47-.771-.282z"/><path d="M160.352 105.848c-.678.751-2.827 1.924-4.205 2.276-1.215.306-1.588.329-3.27.024-1.051-.188-3.014-.657-4.368-1.056-2.78-.798-3.855-.892-4.065-.329-.07.211-.14 1.08-.14 1.925 0 2.018-.421 6.477-.701 7.58-.35 1.315-1.542 2.887-2.99 3.99-1.939 1.455-1.939 1.455-.677 1.291 1.378-.164 2.896-.821 4.017-1.713 1.799-1.408 3.645-4.483 4.205-6.971l.257-1.15 2.453-.047c4.789-.117 8.596-2.206 9.787-5.374.304-.822.187-.986-.303-.446zm139.759-.305c0 .07.117.399.257.774.467 1.268 1.448 2.441 2.826 3.356 2.033 1.362 3.995 1.925 6.938 1.995l2.453.047.257 1.15c.56 2.488 2.406 5.563 4.204 6.971 1.122.892 2.64 1.549 4.018 1.713 1.262.164 1.262.164-.677-1.291-1.448-1.103-2.64-2.675-2.99-3.99-.28-1.103-.701-5.562-.701-7.58 0-.845-.07-1.714-.14-1.925-.21-.563-1.285-.469-4.065.329-1.354.399-3.317.868-4.368 1.056-2.709.469-4.508 0-6.938-1.878-.584-.446-1.074-.774-1.074-.727z"/><path d="M140.309 108.242c-.537.422-.56.657-.7 3.708-.094 2.816-.187 3.403-.724 4.577-.655 1.431-2.103 3.144-3.574 4.247l-.935.681 1.659-.094c3.527-.234 6.05-2.699 6.961-6.806.584-2.582.677-4.483.303-5.421-.584-1.362-1.938-1.761-2.99-.892zm178.092-.094c-1.074.751-1.191 2.793-.397 6.407.911 4.084 3.434 6.572 6.961 6.806l1.659.094-.935-.681c-1.471-1.103-2.919-2.816-3.574-4.247-.537-1.174-.63-1.761-.724-4.577-.14-3.051-.163-3.286-.7-3.708-.655-.54-1.612-.587-2.29-.094zm-160.082 2.347c-2.686 1.69-5.839 2.582-7.988 2.253l-1.075-.188-.257 1.314c-.374 1.925-1.472 3.638-3.691 5.868l-1.985 1.971.981-.164c2.219-.352 4.975-2.394 6.354-4.741.654-1.103.841-1.244 1.938-1.478 2.827-.634 5.373-2.394 6.494-4.46.374-.657.631-1.197.584-1.197-.046 0-.654.376-1.355.822zm143.544.328c1.168 2.113 3.691 3.849 6.541 4.507 1.097.234 1.284.375 1.938 1.478 1.379 2.347 4.135 4.389 6.354 4.741l.981.164-1.985-1.971c-2.219-2.23-3.317-3.943-3.691-5.868l-.257-1.314-1.075.188c-2.429.375-5.489-.61-8.9-2.816l-.584-.376.678 1.267z"/><path d="M136.665 111.082c-.794.328-1.191 1.126-1.588 3.145-.444 2.417-1.355 3.755-3.971 5.843l-1.168.939 1.448-.141c1.916-.164 3.341-.915 4.859-2.558 1.472-1.596 2.406-3.403 2.616-5.046.117-1.079.07-1.267-.467-1.807-.654-.657-.911-.704-1.729-.375zm185.941.375c-.537.54-.584.728-.467 1.807.21 1.643 1.144 3.45 2.616 5.046 1.518 1.643 2.943 2.394 4.859 2.558l1.448.141-1.168-.939c-2.616-2.088-3.527-3.426-3.971-5.843-.397-2.066-.794-2.817-1.658-3.145-.841-.329-.982-.305-1.659.375z"/><path d="M131.503 114.18c-.304.164-.958.985-1.472 1.854-1.121 1.901-2.616 3.332-4.204 4.083l-1.192.54.958.164c1.121.188 3.294-.234 4.532-.868 1.658-.845 3.667-3.356 3.667-4.576 0-1.197-1.098-1.761-2.289-1.197zm196.079.234c-.491.704-.468 1.197.093 2.324.607 1.173 2.056 2.628 3.2 3.215 1.238.634 3.411 1.056 4.532.868l.958-.164-1.192-.54c-1.588-.751-3.083-2.182-4.181-4.083-1.261-2.089-2.64-2.746-3.41-1.62zm-211.87 16.875c-.607 1.737-1.331 2.816-2.593 3.872-2.312 1.925-2.686 2.347-2.826 3.051-.187.939.373 1.502 1.425 1.502 1.495 0 3.947-2.511 4.555-4.647.257-.938.28-3.59.046-4.459-.14-.469-.233-.375-.607.681zm228.945-.493c-.233 1.126-.187 3.286.07 4.271.608 2.136 3.06 4.647 4.555 4.647 1.052 0 1.612-.563 1.425-1.502-.14-.704-.514-1.126-2.826-3.051-1.262-1.056-1.962-2.089-2.616-3.872l-.468-1.268-.14.775z"/><path d="M115.969 137.109c-1.378 2.206-2.873 3.403-5.209 4.154-2.149.681-2.897 1.315-2.897 2.441 0 .892.771 1.526 1.846 1.502 1.985-.07 5.559-2.793 6.68-5.116.631-1.361.981-3.403.654-3.99-.186-.329-.373-.164-1.074 1.009zm227.917-.774c-.21.845.281 3.051.935 4.177 1.285 2.206 4.648 4.647 6.47 4.694 1.075.024 1.846-.61 1.846-1.502 0-1.126-.748-1.76-2.897-2.441-2.336-.751-3.831-1.948-5.186-4.154-.467-.751-.887-1.385-.934-1.385-.047 0-.164.282-.234.611z"/><path d="M117.23 140.958c-.771 1.314-2.499 3.145-3.644 3.802-1.144.681-3.177 1.197-5.419 1.385-2.079.188-2.336.282-2.757 1.103-.49.939-.443 1.338.328 2.112.817.798 1.751.869 4.321.329 3.481-.728 6.377-2.746 7.382-5.117.56-1.267.911-4.224.56-4.459-.117-.07-.467.305-.771.845zm225.722-.68c-.257.704.07 3.051.607 4.318 1.005 2.347 3.901 4.365 7.382 5.093 2.569.54 3.504.469 4.321-.329.771-.774.818-1.173.327-2.112-.42-.821-.677-.915-2.756-1.103-1.939-.164-4.158-.681-5.139-1.197-1.098-.563-2.733-2.206-3.691-3.685-.701-1.056-.934-1.291-1.051-.985z"/><path d="M117.721 145.676c-1.051 1.854-2.593 3.285-4.111 3.872-.701.258-2.71.704-4.509.986-4.718.751-4.975.821-4.975 1.502 0 .328.397 1.619.911 2.863 1.658 4.201 2.172 6.149 2.055 7.628-.116 1.361-1.214 4.083-1.985 4.975-.374.423-.374.423.187.258.911-.258 2.149-1.338 2.99-2.581 1.448-2.16 2.055-5.492 1.611-8.989-.163-1.197-.116-1.455.141-1.455.187 0 1.191-.423 2.219-.939 3.971-1.995 6.494-5.351 6.307-8.355l-.07-1.15-.771 1.385zm224.717.187c.14 2.019.911 3.521 2.733 5.375 1.098 1.103 2.103 1.807 3.504 2.511 1.075.54 2.102.986 2.289.986.257 0 .304.258.14 1.455-.443 3.497.164 6.829 1.612 8.989.841 1.243 2.079 2.323 2.99 2.581.561.165.561.165.187-.258-.771-.892-1.869-3.614-1.985-4.975-.117-1.479.397-3.427 2.055-7.628.514-1.244.911-2.535.911-2.863 0-.681-.257-.751-4.975-1.502-1.799-.282-3.808-.728-4.509-.986-1.518-.563-3.06-2.018-4.064-3.826-.421-.727-.794-1.314-.865-1.314-.07 0-.07.657-.023 1.455z"/><path d="M118.025 150.064c-1.682 2.558-4.485 4.788-6.588 5.234-.701.164-.724.211-.514.798.351.915.281 3.966-.116 5.492-.211.751-.678 2.065-1.075 2.91-.397.868-.677 1.619-.631 1.643.164.164 2.009-1.338 2.593-2.136.981-1.291 1.729-3.121 2.032-4.975.257-1.549.351-1.761 1.122-2.347 2.336-1.761 3.971-4.366 4.181-6.689.047-.751.07-1.361.023-1.361-.046 0-.514.657-1.027 1.431zm223.969-.117c.187 2.37 1.776 4.952 4.158 6.736.771.586.865.798 1.122 2.347.303 1.854 1.051 3.684 2.032 4.975.584.798 2.429 2.3 2.593 2.136.046-.024-.234-.775-.631-1.643-.397-.845-.864-2.159-1.075-2.91-.397-1.526-.467-4.577-.116-5.492.21-.587.187-.634-.514-.798-2.103-.446-4.602-2.417-6.518-5.116l-1.167-1.667.116 1.432zm-240.438 4.389c-.771.399-1.121 1.384-.771 2.229 2.29 5.516 2.453 6.29 1.846 8.707-.21.845-.701 2.136-1.075 2.887-.374.751-.63 1.361-.56 1.361.327 0 2.055-1.032 2.779-1.689.911-.798 1.822-2.394 2.103-3.685.677-3.145-.771-8.895-2.453-9.763-.818-.423-1.121-.423-1.869-.047zm255.972.047c-1.635.915-3.06 6.688-2.406 9.763.281 1.291 1.192 2.887 2.103 3.685.724.657 2.452 1.689 2.779 1.689.07 0-.187-.61-.56-1.361-.795-1.596-1.402-3.755-1.402-5.046 0-1.032.888-3.849 1.752-5.562.327-.634.584-1.408.584-1.737 0-1.291-1.612-2.112-2.85-1.431z"/><path d="M98.753 159.194c-.677.68-.77 1.432-.374 3.051.678 2.605.327 4.788-1.144 7.463-.327.563-.584 1.08-.584 1.127 0 .258 1.495-.54 2.289-1.221 2.289-1.948 3.457-6.172 2.616-9.294-.42-1.502-1.868-2.065-2.803-1.126zm261.462-.117c-.654.469-1.005 1.713-1.005 3.661 0 2.746 1.075 5.374 2.85 6.876.794.681 2.289 1.479 2.289 1.221 0-.047-.257-.564-.584-1.127-1.471-2.675-1.822-4.858-1.144-7.463.397-1.619.303-2.371-.374-3.051-.561-.563-1.355-.61-2.032-.117z"/><path d="M95.366 164.005c-.397.446-.584 1.009-.7 2.065-.258 2.441-.748 3.802-1.963 5.422l-1.145 1.502.935-.329c1.425-.493 2.382-1.173 3.55-2.464 1.192-1.338 1.776-2.84 1.776-4.6 0-2.018-1.285-2.84-2.453-1.596zm268.282-.117c-.584.586-.63 2.488-.093 4.06.654 1.924 2.78 3.966 4.952 4.717l.935.329-1.145-1.502c-1.215-1.62-1.705-2.981-1.962-5.422-.257-2.276-1.542-3.332-2.687-2.182zM87.657 187.24c0 2.136-.023 2.229-1.12 4.389-1.192 2.347-1.286 2.863-.725 3.661.794 1.15 2.453.234 3.364-1.878 1.004-2.323.56-5.844-1.005-7.745l-.514-.633v2.206zm285.032-1.361c-1.495 2.182-1.846 5.233-.865 7.533.911 2.112 2.57 3.028 3.364 1.878.561-.798.467-1.314-.724-3.661-1.098-2.16-1.121-2.23-1.121-4.413 0-1.22-.024-2.206-.024-2.206-.023 0-.303.399-.63.869z"/><path d="M90.577 189.704c-.607 4.013-1.378 5.938-2.85 7.229-1.985 1.736-2.289 2.159-2.289 3.098 0 .68.14 1.009.514 1.267.864.61 1.659.446 2.803-.563 2.15-1.878 3.598-5.962 2.99-8.379-.233-.986-1.121-2.98-1.168-2.652zm279.192 1.103c-.701 1.643-.818 2.629-.514 4.319.537 2.98 3.083 6.547 4.648 6.547 1.051 0 1.659-.61 1.659-1.642 0-.939-.304-1.362-2.289-3.098-1.215-1.08-2.079-2.887-2.5-5.257-.163-.963-.35-1.808-.42-1.878-.047-.07-.304.399-.584 1.009z"/><path d="M92.937 194.844c-.28 1.76-1.098 3.872-1.87 4.858-.676.868-2.499 2.253-4.297 3.239-.864.493-1.682 1.079-1.799 1.314-.77 1.432.304 2.957 1.892 2.746.467-.07 1.448-.493 2.173-.962 2.896-1.854 4.765-4.178 5.442-6.736.374-1.455.374-1.643 0-3.145-.21-.868-.584-1.901-.817-2.276l-.444-.681-.28 1.643zm274.262-.634c-.304.587-.654 1.713-.794 2.465-.351 1.924.304 4.083 1.799 5.984 1.728 2.23 4.835 4.412 6.236 4.412.911 0 1.823-.844 1.823-1.666 0-1.103-.351-1.502-2.033-2.464-1.798-.986-3.62-2.371-4.298-3.239-.771-.986-1.448-2.746-1.845-4.717l-.374-1.878-.514 1.103z"/><path d="M95.32 198.834c-.351 2.323-1.215 4.224-2.407 5.257-.957.821-3.013 2.253-5.77 4.013-1.214.751-1.705 1.221-1.705 1.549 0 .305 1.121 1.596 2.99 3.497 1.752 1.784 3.247 3.52 3.668 4.271.654 1.197.7 1.409.7 3.92v2.675l.608-.751c1.308-1.572 1.728-4.623 1.028-7.393-.444-1.736-1.332-3.708-2.126-4.74l-.584-.798 1.472-1.596c1.611-1.76 2.85-3.99 3.246-5.938.35-1.572.164-3.849-.42-4.952l-.444-.892-.257 1.878zm269.637-.986c-1.449 3.004-.257 7.51 2.849 10.89l1.472 1.596-.584.798c-.794 1.032-1.682 3.004-2.126 4.74-.7 2.77-.28 5.821 1.028 7.393l.607.751v-2.675c0-2.511.047-2.723.701-3.92.421-.751 1.916-2.487 3.668-4.271 1.868-1.901 2.99-3.192 2.99-3.497 0-.328-.491-.798-1.682-1.549-2.78-1.76-4.836-3.192-5.793-4.013-1.192-1.033-2.033-2.887-2.406-5.234l-.281-1.924-.443.915z"/><path d="M97.585 201.392c0 1.033-.794 3.755-1.518 5.327-.397.798-1.192 1.925-1.892 2.629-1.075 1.033-1.192 1.244-.888 1.502.584.493 1.518 2.253 1.869 3.544.187.681.42 2.441.514 3.919l.163 2.699.608-1.173c1.214-2.23 1.424-5.375.56-7.862-.35-.986-.35-1.033.444-2.652 1.332-2.746 1.588-4.835.934-7.229-.42-1.455-.794-1.784-.794-.704zm265.036.704c-.654 2.394-.397 4.483.934 7.229.794 1.619.794 1.666.444 2.652-.864 2.487-.654 5.632.56 7.862l.608 1.173.163-2.699c.094-1.478.327-3.238.514-3.919.351-1.291 1.285-3.051 1.869-3.544.304-.258.187-.469-.888-1.502-.7-.704-1.495-1.831-1.892-2.629-.724-1.572-1.518-4.294-1.518-5.327 0-1.08-.374-.751-.794.704zm-277.767 10.42c-.724.399-1.05.916-1.05 1.737 0 .657.233.986 1.54 2.136 3.388 3.004 4.346 4.881 4.322 8.637v2.346l.701-.821c1.285-1.525 1.729-2.746 1.729-4.835 0-1.713-.07-2.042-.888-3.708-1.308-2.628-4.368-5.797-5.583-5.773-.163 0-.514.141-.77.281zm289.423.141c-1.332.822-3.551 3.497-4.485 5.375-.818 1.642-.888 1.971-.888 3.684 0 2.089.444 3.31 1.729 4.835l.701.821v-2.346c-.024-3.756.934-5.633 4.321-8.637 1.215-1.08 1.542-1.502 1.542-2.042 0-.986-.21-1.385-.958-1.76-.841-.446-1.121-.446-1.962.07z"/><path d="M83.92 218.219c-.911.892-.771 1.69.677 3.662 1.519 2.112 1.776 2.933 1.776 5.937 0 2.324 0 2.324.467 1.901.77-.68 1.612-2.722 1.775-4.248.257-2.417-.934-5.914-2.476-7.228-.911-.751-1.495-.775-2.22-.024zm290.941.024c-1.542 1.314-2.733 4.811-2.476 7.228.163 1.526 1.004 3.568 1.775 4.248.467.423.467.423.467-1.901 0-3.004.257-3.825 1.776-5.937 1.448-1.972 1.588-2.77.677-3.662-.724-.751-1.308-.727-2.219.024z"/><path d="M82.939 223.617c-.794.564-.888 1.549-.257 3.356.63 1.878.7 4.577.14 6.079-.21.563-.28 1.009-.187 1.009.374 0 1.962-1.995 2.5-3.192.794-1.76.934-3.309.42-5.163-.327-1.267-.56-1.643-1.145-1.995-.864-.54-.84-.54-1.471-.094zm293.744.024c-.958.516-1.425 1.783-1.448 3.966-.024 1.573.07 2.089.584 3.192.584 1.244 2.149 3.262 2.546 3.262.093 0 .023-.446-.187-1.009-.561-1.502-.491-4.201.14-6.079.631-1.807.537-2.792-.257-3.356-.607-.422-.584-.422-1.378.024zM84.69 248.565l.865 1.807-.07 2.887c-.047 2.793-.047 2.887.514 3.45.747.751.91.728 1.822-.094.747-.657.77-.751.77-2.534-.023-1.479-.14-2.089-.63-3.145-.654-1.455-1.915-2.864-3.27-3.661l-.841-.493.84 1.783zm291.175-.985c-2.312 1.596-3.433 3.684-3.433 6.501-.024 1.807 0 1.877.747 2.534.911.822 1.075.845 1.822.094.561-.563.561-.657.514-3.45l-.07-2.887.864-1.83c.467-.986.841-1.807.818-1.807a52.92 52.92 0 01-1.262.845z"/><path d="M88.732 251.217c.257.798.514 2.136.584 2.981.14 1.643.093 1.924-1.168 4.905-.584 1.361-.607 1.526-.28 2.277.233.563.537.868.957.985 1.005.258 1.729-.258 2.406-1.736.561-1.197.631-1.596.608-3.802 0-2.84-.444-4.178-1.916-5.704-1.495-1.572-1.705-1.548-1.191.094zm282.695-.446c-.607.564-1.331 1.573-1.682 2.3-.514 1.127-.584 1.62-.607 3.756 0 2.206.07 2.605.631 3.802.677 1.478 1.401 1.994 2.406 1.736.42-.117.724-.422.957-.985.327-.751.304-.916-.28-2.277-1.261-2.981-1.308-3.262-1.168-4.905.07-.845.327-2.206.584-2.981.234-.798.397-1.431.35-1.431-.07 0-.584.446-1.191.985z"/><path d="M92.33 252.532c.07.234.303 1.103.513 1.948.701 3.051-.023 5.773-2.383 8.824-1.635 2.089-1.705 3.309-.233 4.013 1.448.681 2.476-.094 4.181-3.238 1.659-3.098 2.032-6.314.958-8.59-.77-1.69-3.62-4.436-3.037-2.957zm274.939.657c-2.756 2.699-2.99 6.595-.677 10.89 1.705 3.144 2.733 3.919 4.181 3.238 1.472-.704 1.402-1.924-.234-4.013-2.359-3.051-3.083-5.773-2.382-8.824.21-.845.444-1.714.514-1.948.28-.704-.257-.446-1.402.657z"/><path d="M96.043 254.832c.047.258.28 1.056.468 1.76.21.704.373 1.971.373 2.816 0 1.878-.56 3.145-3.247 7.252-1.027 1.596-1.892 3.098-1.892 3.356 0 .493.631.822 5.093 2.559 1.705.657 3.55 1.525 4.088 1.947 1.168.892 2.359 2.77 2.943 4.718.444 1.385.444 1.385.654.704.093-.399.187-1.408.163-2.277 0-1.314-.14-1.854-.864-3.285-1.074-2.16-2.569-3.896-4.508-5.164-1.075-.704-1.472-1.103-1.355-1.361.91-2.182 1.121-3.121 1.215-5.445.14-3.309-.398-5.046-2.103-6.829-.724-.775-1.121-1.056-1.028-.751zm267.769.821c-1.589 1.784-2.102 3.544-1.986 6.759.094 2.324.304 3.263 1.215 5.445.117.258-.28.657-1.355 1.361-1.939 1.268-3.434 3.004-4.508 5.164-.724 1.431-.864 1.971-.864 3.285-.024.869.07 1.878.163 2.277.21.681.21.681.654-.704.584-1.948 1.775-3.826 2.943-4.718.538-.422 2.383-1.29 4.088-1.947 4.462-1.737 5.093-2.066 5.093-2.559 0-.258-.865-1.76-1.892-3.356-1.052-1.596-2.22-3.567-2.593-4.389-.654-1.361-.701-1.642-.608-3.403.07-1.056.304-2.44.514-3.051.234-.633.351-1.197.304-1.244-.047-.07-.584.423-1.168 1.08z"/><path d="M99.547 257.39c.07.235.327 1.408.514 2.581.444 2.582.304 4.6-.467 6.548l-.56 1.362.747.375c2.032 1.056 3.854 3.262 5.162 6.313.841 1.948 1.051 1.878 1.051-.328 0-2.324-.981-4.694-2.733-6.619-.77-.868-.794-.938-.63-2.393.163-1.831-.351-4.53-1.168-5.915-.654-1.126-2.173-2.652-1.916-1.924zm260.948.633c-.467.54-1.051 1.409-1.285 1.948-.631 1.432-1.004 3.826-.817 5.375.14 1.314.116 1.408-.655 2.253-1.752 1.948-2.733 4.318-2.733 6.642 0 2.206.211 2.276 1.052.328 1.308-3.051 3.13-5.257 5.162-6.313l.747-.375-.607-1.479c-.514-1.267-.607-1.831-.607-3.825.023-1.315.187-3.005.397-3.873.187-.845.327-1.549.304-1.596-.047-.023-.468.376-.958.915zM93.03 272.598c-.724.399-1.051.915-1.051 1.713 0 .986.724 1.62 2.453 2.113 2.429.704 4.228 1.666 5.396 2.863.981 1.009 2.312 3.332 2.756 4.811.164.516.187.493.491-.282.49-1.267.42-3.544-.141-5.046-.864-2.346-3.48-4.506-7.078-5.867-1.705-.657-2.125-.704-2.826-.305zm271.67.493c-4.812 1.995-7.148 4.764-7.102 8.449 0 .798.164 1.83.327 2.276.304.775.327.798.491.282.444-1.479 1.775-3.802 2.756-4.811 1.168-1.197 2.967-2.159 5.396-2.863 1.659-.47 2.453-1.127 2.453-2.019 0-.962-.21-1.361-.958-1.737-.911-.492-1.238-.446-3.363.423z"/><path d="M94.595 277.832c-1.471.633-1.238 2.276.514 3.356.584.352 1.495.892 2.009 1.22 1.121.681 2.36 2.441 3.083 4.389.678 1.831.818 1.924 1.098.868.701-2.581-.14-5.304-2.382-7.768-1.659-1.807-3.177-2.535-4.322-2.065zm270.058.117c-2.733 1.22-5.209 4.952-5.209 7.862 0 1.174.444 2.817.677 2.558.094-.117.397-.821.678-1.572.724-1.948 1.962-3.708 3.083-4.389.514-.328 1.425-.868 2.009-1.22.561-.352 1.168-.916 1.308-1.244.374-.845 0-1.784-.888-2.136-.607-.258-.841-.235-1.658.141z"/><path d="M95.436 283.605c-.28.164-.42.516-.42 1.15 0 .751.21 1.15 1.378 2.558 1.448 1.737 2.196 3.333 2.5 5.304l.163 1.174.49-1.056c.374-.798.491-1.526.491-3.051 0-1.714-.093-2.183-.654-3.333-.35-.727-1.051-1.69-1.565-2.159-.958-.845-1.659-1.033-2.383-.587zm267.745.587c-.514.469-1.214 1.432-1.565 2.159-.56 1.15-.654 1.619-.654 3.333 0 1.525.117 2.253.491 3.051l.49 1.056.164-1.174c.303-1.971 1.051-3.567 2.499-5.304 1.168-1.408 1.378-1.807 1.378-2.581 0-.657-.116-.963-.443-1.15-.795-.423-1.402-.258-2.36.61zm-257.887 20.629c0 .024.42.329.934.681 1.448.962 2.686 2.723 3.387 4.835.818 2.488 1.869 3.356 3.06 2.488.327-.259.444-.611.421-1.479-.024-2.277-2.149-4.976-4.625-5.891-1.028-.399-3.177-.821-3.177-.634zm248.941.118c-3.388.587-6.284 3.52-6.331 6.407-.023.868.094 1.22.421 1.479 1.191.868 2.242 0 3.06-2.488.701-2.112 1.939-3.873 3.387-4.835.911-.61 1.121-.821.771-.774-.117.023-.701.117-1.308.211z"/><path d="M111.788 307.028c.63.774 1.448 1.994 1.798 2.746.538 1.15.631 1.642.608 3.262 0 1.032.093 2.229.233 2.652.467 1.455 2.336 1.783 3.014.516.35-.657.35-2.722 0-4.013-.888-3.309-3.224-5.774-6.144-6.407-.631-.165-.631-.118.491 1.244zm237.214-1.057c-2.616.845-4.602 3.098-5.443 6.22-.35 1.291-.35 3.356 0 4.013.678 1.267 2.547.939 3.014-.516.14-.423.233-1.62.233-2.652-.023-1.62.07-2.112.608-3.262.35-.752 1.144-1.972 1.775-2.746.654-.751 1.075-1.385.981-1.362-.093 0-.631.141-1.168.305z"/><path d="M116.179 307.427c2.266 2.792 2.873 5.468 2.079 9.012-.654 2.91-.677 3.121-.117 3.825.725.939 2.079.892 2.897-.07.724-.892.958-2.23.934-5.398-.023-2.934-.537-4.53-1.985-6.172-.935-1.08-2.71-2.113-4.135-2.394l-.794-.165 1.121 1.362zm227.918-.869c-3.387 1.174-5.069 3.92-5.093 8.355 0 3.075.234 4.413.958 5.281.818.962 2.172 1.009 2.897.07.56-.704.537-.915-.117-3.825-.794-3.521-.187-6.22 2.055-8.989.608-.728.982-1.338.818-1.338-.163.024-.841.211-1.518.446z"/><path d="M119.543 306.957c0 .071.42.54.911 1.08 1.285 1.338 2.359 3.473 2.523 4.952.07.704-.094 2.605-.397 4.506-.795 5.234-.795 5.304-.444 5.539.187.094 2.499.117 5.139.047l4.812-.141 1.331.61c.888.422 1.892 1.173 2.874 2.183l1.495 1.525-.164-.892c-.584-3.191-3.854-6.102-8.152-7.228-.748-.188-1.682-.352-2.033-.352-.63 0-.654-.047-.654-1.244 0-.704-.21-2.089-.467-3.075-.981-3.896-3.2-6.595-6.12-7.439-.35-.094-.654-.118-.654-.071zm220.956.188c-2.826.986-4.858 3.544-5.816 7.322-.257.986-.467 2.371-.467 3.075 0 1.197-.024 1.244-.654 1.244-.351 0-1.285.164-2.033.352-4.298 1.126-7.568 4.037-8.152 7.228l-.164.892 1.495-1.525c.981-1.01 1.986-1.761 2.874-2.183l1.331-.61 4.812.141c2.64.07 4.952.047 5.139-.047.351-.235.351-.305-.444-5.539-.303-1.901-.467-3.802-.397-4.506.164-1.502 1.238-3.614 2.546-4.976.514-.54.888-1.032.865-1.079-.047-.047-.468.047-.935.211z"/><path d="M124.799 309.14c1.752 2.3 2.756 4.694 2.873 6.829l.093 1.831 1.332.141c2.219.258 4.765 1.666 7.218 3.99.841.798.981.868.981.469 0-.282-.327-1.127-.724-1.924-.864-1.761-2.616-3.404-4.765-4.46-.911-.469-1.519-.915-1.519-1.15 0-.821-1.658-3.755-2.733-4.858-1.004-1.009-2.966-2.253-3.574-2.253-.117 0 .234.634.818 1.385zm210.841-.822c-1.565.822-3.223 2.629-4.134 4.507-.444.915-.794 1.83-.794 2.041 0 .235-.608.681-1.519 1.15-2.149 1.056-3.901 2.699-4.765 4.46-.397.797-.724 1.642-.724 1.924 0 .399.14.329 1.004-.469 2.43-2.324 4.976-3.732 7.195-3.99l1.331-.141.094-1.831c.117-2.135 1.121-4.529 2.873-6.829 1.121-1.502 1.028-1.667-.561-.822zm-210.724 15.819c-1.379.68-1.566 2.441-.351 3.239.537.352.864.352 3.107.093 4.111-.469 6.284.212 9.017 2.864l1.355 1.314-.141-1.173c-.443-3.286-2.92-5.704-6.634-6.502-1.962-.422-5.396-.328-6.353.165zm204.511-.094c-3.574.868-5.91 3.239-6.33 6.431l-.141 1.173 1.355-1.314c2.733-2.652 4.906-3.333 9.017-2.864 2.242.259 2.57.259 3.107-.093 1.214-.798 1.028-2.559-.351-3.239-.981-.493-4.788-.563-6.657-.094z"/><path d="M127.765 328.76c-.584.751-.607.798-.28 1.643.304.798 1.308 1.197 3.481 1.385 2.125.188 3.504.892 5.489 2.769.771.751 1.448 1.361 1.472 1.361.21 0 0-1.103-.421-2.206-1.074-2.886-4.461-5.304-7.685-5.492-1.472-.093-1.588-.07-2.056.54zm201.055-.047c-2.804 1.174-4.509 2.77-5.35 4.999-.397 1.103-.607 2.206-.397 2.206.024 0 .701-.61 1.472-1.361 2.032-1.924 3.293-2.535 5.746-2.816 1.145-.118 2.313-.399 2.616-.587.795-.54.982-1.502.421-2.253-.631-.868-2.663-.939-4.508-.188z"/><path d="M131.62 333.149c-.374.141-.678.446-.771.821-.28 1.057.257 1.643 2.406 2.746 2.126 1.056 3.831 2.582 4.625 4.107.21.423.421.728.444.681.257-.282-.374-3.614-.864-4.576-.561-1.103-2.173-2.793-3.107-3.31-.911-.469-2.079-.68-2.733-.469zm196.032.094c-1.402.422-3.317 2.136-4.088 3.685-.514.962-1.145 4.294-.888 4.576.023.047.234-.258.444-.681.794-1.525 2.499-3.051 4.625-4.107 2.149-1.103 2.686-1.689 2.406-2.746-.21-.844-1.168-1.103-2.499-.727zm-160.549 10.843c-.654.07-.608.141.77.868 3.037 1.643 5.186 3.732 5.98 5.844l.398 1.009 1.191-.446c1.705-.657 4.929-.493 7.498.376 1.005.352 1.869.587 1.916.54.187-.188-.911-1.362-1.916-2.066-1.401-.962-3.363-1.596-5.466-1.783-1.728-.141-1.752-.141-3.2-1.479-2.219-2.089-4.835-3.121-7.171-2.863zm124.879.07c-1.705.211-3.574 1.197-5.256 2.793-1.448 1.338-1.472 1.338-3.2 1.479-2.103.187-4.065.821-5.466 1.783-1.005.704-2.103 1.878-1.916 2.066.047.047.911-.188 1.916-.54 2.569-.869 5.793-1.033 7.498-.376l1.191.446.397-1.009c.795-2.112 2.944-4.201 5.98-5.844 1.332-.704 1.379-.774.771-.845-.373-.07-1.238-.023-1.915.047z"/><path d="M162.781 345.001c-.444.094-.233.258 1.308 1.009 3.411 1.667 4.158 2.887 5.91 9.599.374 1.479.841 2.863 1.051 3.051.327.329.654.211 3.341-1.173 4.134-2.159 5.816-2.793 7.405-2.793 1.331 0 3.69.657 4.695 1.338.911.586.654-.071-.491-1.315-.654-.704-1.611-1.408-2.522-1.807-1.379-.633-1.612-.68-4.602-.68-2.336 0-3.411.093-4.135.375l-.981.376-.724-1.502c-1.098-2.207-3.387-4.577-5.466-5.586-1.635-.798-3.527-1.174-4.789-.892zm132.565.094c-2.64.634-5.957 3.473-7.382 6.384l-.724 1.502-.981-.376c-.724-.282-1.799-.375-4.135-.375-2.99 0-3.223.047-4.602.68-.911.399-1.868 1.103-2.522 1.807-1.145 1.244-1.402 1.901-.491 1.315 1.005-.681 3.364-1.338 4.695-1.338 1.589 0 3.271.634 7.405 2.793 2.687 1.384 3.014 1.502 3.341 1.173.21-.188.677-1.572 1.051-3.051 1.752-6.712 2.499-7.932 5.886-9.575 1.799-.869 1.822-.916 1.098-1.056-.911-.188-1.471-.165-2.639.117z"/><path d="M158.857 345.94c-.421.047-.771.164-.748.258 0 .094.631.469 1.378.821 1.846.869 3.808 2.699 4.556 4.248.327.681.794 2.23 1.051 3.403.233 1.197.607 2.418.817 2.746.771 1.174 2.453.916 3.13-.492.281-.587.281-.892-.07-2.371-.864-3.614-2.966-6.783-5.349-7.979-1.145-.587-3.224-.869-4.765-.634zm139.969.047c-3.06.751-5.77 4.154-6.797 8.566-.351 1.479-.351 1.784-.071 2.371.678 1.408 2.36 1.666 3.131.492.21-.328.584-1.549.817-2.746.257-1.173.724-2.722 1.051-3.403.748-1.549 2.71-3.379 4.555-4.248.748-.352 1.379-.727 1.379-.798.046-.375-2.85-.516-4.065-.234z"/><path d="M155.283 347.371c-1.495.118-1.472.282.257 1.15 2.336 1.174 3.924 2.793 4.625 4.741.677 1.878 1.355 2.605 2.453 2.605 1.611 0 2.009-1.642.864-3.661-1.799-3.121-5.186-5.116-8.199-4.835zm148.379.071c-2.173.399-4.812 2.441-6.144 4.764-1.145 2.019-.747 3.661.864 3.661 1.098 0 1.776-.727 2.453-2.605.701-1.948 2.289-3.567 4.625-4.741.935-.469 1.565-.915 1.402-.962-.724-.234-2.266-.281-3.2-.117z"/><path d="M149.443 348.686l-.818.305 1.402.399c2.079.61 2.616.962 4.578 2.863 1.542 1.502 1.916 1.737 2.617 1.737.934 0 1.331-.47 1.331-1.526 0-.821-1.658-2.581-3.153-3.356-.935-.469-1.565-.61-3.154-.68-1.261-.047-2.289.047-2.803.258zm157.442-.118c-2.032.634-4.438 2.746-4.438 3.896 0 1.056.397 1.526 1.331 1.526.701 0 1.075-.235 2.617-1.737 1.962-1.901 2.499-2.253 4.578-2.863l1.402-.399-.818-.305c-.888-.329-3.738-.399-4.672-.118zm-127.449 7.534c-1.938.493-4.344 1.666-5.139 2.464-.724.728-.747 2.042-.093 2.699.724.728 1.869.611 3.551-.422 2.733-1.666 3.83-2.018 6.026-2.018 1.542.023 2.36.164 3.621.633.888.329 1.658.587 1.682.54.047-.047-.281-.587-.701-1.197-1.915-2.816-5.022-3.732-8.947-2.699zm97.012-.141c-1.472.399-2.897 1.455-3.854 2.84-.421.634-.725 1.15-.678 1.197.024.047.794-.211 1.682-.54 1.261-.469 2.079-.61 3.621-.633 2.196 0 3.293.352 6.026 2.018 1.682 1.033 2.827 1.15 3.551.422.654-.657.631-1.971-.093-2.699-1.332-1.337-5.77-2.957-8.059-2.91-.584 0-1.589.141-2.196.305zm-54.311 3.145c-1.752.634-2.032.986-.817.986 2.78 0 6.587 1.291 8.316 2.816l.864.751.818-.727c1.705-1.502 4.204-2.418 7.615-2.793l1.728-.211-1.168-.564c-1.004-.493-1.495-.563-3.62-.563-2.103.024-2.663.094-3.901.634l-1.472.61-1.448-.61c-2.009-.798-5.139-.963-6.915-.329z"/><path d="M181.095 360.068c-1.916.54-2.453 1.033-2.453 2.23 0 .774.841 1.549 1.682 1.549.374 0 1.425-.258 2.336-.587 2.429-.845 3.924-.727 7.148.563l1.215.493-.327-.657c-.584-1.103-1.846-2.206-3.364-2.933-1.215-.564-1.846-.705-3.504-.775-1.121-.047-2.336.024-2.733.117zm94.185.024c-2.056.54-4.181 2.042-4.976 3.567l-.327.657 1.215-.493c3.224-1.29 4.719-1.408 7.148-.563 2.032.704 2.826.728 3.504.118.981-.916.561-2.347-.841-2.958-1.028-.445-4.462-.633-5.723-.328zm-56.203 1.314c-.584.211-1.308.54-1.635.775-.584.375-.537.375 1.612.516 3.807.211 4.812.915 9.39 6.665 1.122 1.432 1.612 1.878 2.056 1.878.444 0 .934-.446 2.056-1.878 4.578-5.75 5.582-6.454 9.39-6.665 2.172-.141 2.196-.141 1.588-.54-3.176-2.089-8.759-1.032-12.38 2.347l-.654.61-.631-.61c-2.966-2.722-7.919-4.154-10.792-3.098z"/><path d="M216.484 363.589c-.934.305-2.452 1.126-2.756 1.502-.234.281.023.352 1.799.446 1.658.094 2.382.258 3.574.821 1.518.728 3.176 2.253 4.298 3.943 1.144 1.737 1.752 2.23 2.663 2.23 1.518 0 2.219-1.409 1.495-2.958-.234-.492-1.215-1.689-2.196-2.675-2.313-2.347-4.275-3.38-6.658-3.45-.887-.023-1.892.023-2.219.141zm23.29.352c-1.799.751-3.621 2.182-5.093 3.943-1.355 1.643-1.705 2.394-1.495 3.238.234.939.818 1.409 1.752 1.409.911 0 1.519-.493 2.663-2.23 1.121-1.69 2.78-3.215 4.298-3.943 1.192-.563 1.916-.727 3.574-.821 2.383-.141 2.43-.329.351-1.385-1.752-.915-4.228-.986-6.05-.211zm-55.619.164c-.771.61-.794 1.455-.047 2.042.444.352 1.098.469 2.873.587 2.453.117 3.761.516 5.396 1.619 1.098.751 1.122.751.654-.399-.537-1.291-2.242-2.934-3.76-3.661-1.799-.868-4.135-.962-5.116-.188zm87.574.188c-1.518.727-3.223 2.37-3.761 3.661-.467 1.15-.443 1.15.678.399 1.612-1.103 2.92-1.502 5.372-1.619 2.523-.165 3.434-.564 3.434-1.596 0-1.62-3.153-2.089-5.723-.845z"/><path d="M211.906 367.227c-1.215.563-1.799 1.079-1.215 1.079 1.238 0 4.462.587 5.303.962.584.259 1.635 1.033 2.382 1.737 1.425 1.385 2.266 1.737 3.154 1.314 1.869-.844.911-3.098-1.986-4.576-2.382-1.244-5.653-1.455-7.638-.516zm31.301-.212c-3.13.986-5.232 3.028-4.578 4.483.35.728 1.238 1.127 2.056.939.327-.094 1.214-.728 1.938-1.432.748-.704 1.799-1.478 2.383-1.737.841-.375 4.065-.962 5.303-.962.584 0 0-.516-1.215-1.079-.958-.446-1.542-.564-3.06-.54-1.028.023-2.289.164-2.827.328z"/><path d="M209.663 369.339c-1.191.422-2.779 1.408-3.34 2.042-.467.516-.467.516 0 .328.257-.094 1.261-.234 2.243-.281 1.635-.118 1.938-.047 3.877.727 1.168.47 2.359.845 2.687.845.817 0 1.588-.634 1.588-1.314 0-1.901-4.322-3.333-7.055-2.347zm36.955.117c-2.079.751-2.99 2.347-1.822 3.169.771.539 1.425.469 3.761-.47 1.939-.774 2.242-.845 3.877-.727.982.047 1.986.187 2.243.281 1.004.399-.607-1.009-2.056-1.783a7.557 7.557 0 00-6.003-.47z"/></g><defs><clipPath id="clip0_55_1627"><path fill="#fff" transform="translate(81 74)" d="M0 0h299v299H0z"/></clipPath></defs></svg>