<svg width="230" height="230" fill="none" xmlns="http://www.w3.org/2000/svg"><path d="M19.621 210.379l18.896 18.914 37.888-37.888 38.241-38.242.354-.354.354.354 38.241 38.242 37.889 37.888 18.895-18.914h0l18.914-18.895-37.888-37.889-38.242-38.241-.354-.354.354-.354 38.242-38.241 37.888-37.889-18.914-18.895h0L191.484.707l-37.889 37.888-38.241 38.242-.354.354-.354-.354-38.205-38.205a35170.848 35170.848 0 00-26.995-26.97c-3.469-3.46-6.282-6.264-8.232-8.203a1059.393 1059.393 0 00-2.7-2.676l-.06.059c-.263.256-.647.634-1.14 1.122-.988.976-2.409 2.387-4.158 4.129a8926.919 8926.919 0 00-13.59 13.564L.707 38.517l37.888 37.888 38.242 38.241.354.354-.354.354-38.242 38.241L.707 191.484l18.914 18.895h0z" fill="#820000" fill-opacity=".68" stroke="#0A0808"/></svg>