<svg width="30" height="31" viewBox="0 0 30 31" fill="none" xmlns="http://www.w3.org/2000/svg">
<path d="M14.4018 0.0125866C13.895 0.0430794 13.4845 0.0782623 13.1584 0.118135C10.824 0.404289 8.63754 1.2135 6.68328 2.51526C4.55543 3.93196 2.81701 5.8764 1.64868 8.14922C0.721994 9.95293 0.205865 11.7824 0.029912 13.8958C-0.00997068 14.3484 -0.00997068 15.6713 0.029912 16.124C0.205865 18.2373 0.721994 20.0668 1.64868 21.8705C3.07977 24.6547 5.35308 26.9275 8.13783 28.3583C9.94194 29.2848 11.7718 29.8008 13.8856 29.9767C14.3384 30.0166 15.6616 30.0166 16.1144 29.9767C18.2282 29.8008 20.0581 29.2848 21.8622 28.3583C24.6469 26.9275 26.9202 24.6547 28.3513 21.8705C29.278 20.0668 29.7941 18.2373 29.9701 16.124C30.01 15.6713 30.01 14.3484 29.9701 13.8958C29.7941 11.7824 29.278 9.95293 28.3513 8.14922C26.9202 5.36508 24.6469 3.09226 21.8622 1.66149C20.0956 0.753773 18.2704 0.230721 16.2551 0.0571518C15.8704 0.0219688 14.6927 -0.0061779 14.4018 0.0125866ZM16.1355 1.83975C19.2088 2.10245 22.0452 3.4136 24.2622 5.59025C26.5613 7.84899 27.9243 10.7739 28.1871 14.013C28.2223 14.4657 28.2223 15.554 28.1871 16.0067C27.929 19.1732 26.6293 22.0277 24.4217 24.27C22.1578 26.571 19.2463 27.9267 15.9971 28.1941C15.5443 28.2316 14.4557 28.2316 14.0029 28.1941C10.7513 27.9267 7.83754 26.571 5.5783 24.2724C3.36598 22.0183 2.07566 19.1896 1.8129 16.0067C1.77537 15.554 1.77537 14.4657 1.8129 14.013C2.0827 10.7574 3.43871 7.84899 5.73548 5.59025C7.79531 3.56841 10.3994 2.28775 13.217 1.91246C14.193 1.78346 15.1689 1.75766 16.1355 1.83975Z" fill="white"/>
<path d="M11.8563 4.83501C11.7296 4.87019 10.2633 5.72396 10.1765 5.81309C9.98181 6.01011 9.93724 6.29861 10.0592 6.53786C10.1859 6.78414 12.7548 11.2242 12.8158 11.304C12.9519 11.4752 13.2522 11.576 13.4633 11.5174C13.5713 11.4893 15.0164 10.6613 15.1408 10.5581C15.3003 10.4244 15.3871 10.1382 15.3308 9.93183C15.3167 9.88023 14.688 8.76611 13.9325 7.4573C12.8205 5.52928 12.539 5.05783 12.4522 4.97808C12.2927 4.82797 12.0674 4.77402 11.8563 4.83501Z" fill="white"/>
<path d="M9.23341 6.87792C8.73136 7.18284 8.48033 7.36579 8.21288 7.62145C7.4293 8.36968 7.22051 9.11321 7.35423 10.6589C7.54661 12.8684 8.64221 15.8214 10.2844 18.5516C11.8258 21.1129 13.6768 23.2333 15.3871 24.3967C16.2668 24.9948 16.8135 25.2012 17.522 25.2012C17.9959 25.2012 18.39 25.1074 18.9437 24.8611C19.2017 24.7438 19.8 24.4271 19.8211 24.3943C19.8281 24.3802 17.1536 19.722 17.0105 19.4969C16.9965 19.4734 16.9707 19.4781 16.9003 19.5133C16.7384 19.5954 16.4709 19.6751 16.2621 19.7009C15.495 19.7947 14.5871 19.3538 13.7448 18.4765C12.7032 17.3929 11.8774 15.7956 11.6217 14.3648C11.4316 13.314 11.5748 12.4673 12.0322 11.9302C12.1097 11.8387 12.3701 11.6206 12.4217 11.6042C12.4404 11.5971 11.9126 10.6636 11.0375 9.1437C10.2586 7.79737 9.61581 6.68793 9.60643 6.67855C9.59705 6.66682 9.43048 6.7583 9.23341 6.87792Z" fill="white"/>
<path d="M19.2698 17.5197C19.1407 17.5361 19.1618 17.5267 18.3008 18.0216C17.9161 18.2421 17.5642 18.4579 17.5196 18.5001C17.3507 18.662 17.2803 18.934 17.3507 19.1405C17.3906 19.2577 20.0604 23.8925 20.1589 24.0145C20.3255 24.2256 20.6563 24.2889 20.9237 24.1599C21.1255 24.0637 22.3642 23.346 22.4604 23.2686C22.5918 23.163 22.6715 22.9871 22.6715 22.7948C22.6715 22.708 22.6598 22.6048 22.6434 22.5696C22.5636 22.382 19.8868 17.7777 19.814 17.7026C19.6709 17.5525 19.4833 17.4892 19.2698 17.5197Z" fill="white"/>
</svg>
