<svg width="35" height="25" viewBox="0 0 35 25" fill="none" xmlns="http://www.w3.org/2000/svg">
<path d="M3.25948 0.0196857C1.86459 0.197596 0.652958 1.19116 0.193466 2.54054C-0.000724626 3.11259 0.0156858 2.26683 0.00201046 12.3338C-0.00345969 18.547 0.00201045 21.4893 0.021156 21.6673C0.0922678 22.3159 0.338424 22.9482 0.72407 23.4737C0.904584 23.7228 1.28202 24.1005 1.51724 24.2675C1.91109 24.5494 2.43075 24.7875 2.91486 24.9025C3.14734 24.9572 3.23487 24.96 9.09886 24.9819C12.37 24.9955 18.8138 25.0038 23.417 24.9983L31.7863 24.9901L32.0188 24.9326C32.3935 24.8395 32.5849 24.7684 32.935 24.5959C34.0537 24.043 34.8058 22.9701 34.9699 21.6974C34.9918 21.5359 35 18.7441 35 12.2681C34.9973 4.67546 34.9918 3.04142 34.9617 2.91825C34.8468 2.44474 34.6636 2.02323 34.4092 1.64004C34.215 1.34717 33.854 0.966717 33.5531 0.739538C33.3125 0.556154 32.7326 0.255075 32.4619 0.170225C32.3798 0.142855 32.202 0.0963249 32.0653 0.0634804L31.8136 0.00326347L17.6323 0.000526428C9.53374 -0.00221062 3.36888 0.00600052 3.25948 0.0196857ZM24.7161 8.68255C20.1267 13.2754 17.9578 15.4295 17.8648 15.4842C17.676 15.5937 17.4545 15.5964 17.2713 15.4869C17.1919 15.4404 14.6784 12.9469 10.4144 8.68528L3.68342 1.96028H17.5557H31.4307L24.7161 8.68255ZM33.1128 12.3119L33.0991 21.6809L33.039 21.8917C32.8803 22.4501 32.6205 22.7621 32.1473 22.9619L31.9504 23.044L27.2269 18.2979L22.5035 13.5518L27.8013 8.24735C30.7141 5.33236 33.1046 2.94563 33.1128 2.94563C33.121 2.94563 33.121 7.16073 33.1128 12.3119ZM7.32106 8.24188L12.5314 13.456L7.75321 18.2377L2.97503 23.0194L2.80546 22.94C2.46905 22.7785 2.23656 22.4665 2.13263 22.0368C2.08887 21.8589 2.0834 21.2129 2.07793 12.4351C2.07246 7.262 2.07793 3.02774 2.08887 3.02774C2.10255 3.02774 4.45471 5.37341 7.32106 8.24188ZM15.54 16.4531C16.7735 17.6985 17.2357 18.1474 17.315 18.1802C17.4518 18.235 17.6788 18.235 17.8128 18.1775C17.8894 18.1474 18.379 17.6739 19.5468 16.5079L21.1742 14.8793L25.285 18.9931C27.5442 21.254 29.3931 23.1097 29.3931 23.1179C29.3931 23.1261 24.0214 23.1316 17.4545 23.1316C10.8876 23.1316 5.51592 23.1261 5.51592 23.1179C5.51592 23.1015 13.8387 14.7698 13.8579 14.7698C13.8661 14.7698 14.6237 15.5252 15.54 16.4531Z" fill="white"/>
</svg>
