<svg width="25" height="17" viewBox="0 0 25 17" fill="none" xmlns="http://www.w3.org/2000/svg">
<path d="M12.636 12.604C12.636 12.64 12.624 12.694 12.6 12.766C12.588 12.802 12.564 12.838 12.528 12.874C12.504 12.898 12.48 12.922 12.456 12.946C12.432 12.994 12.408 13.042 12.384 13.09C12.36 13.15 12.336 13.21 12.312 13.27L12.024 13.774C11.976 13.858 11.928 13.942 11.88 14.026C11.844 14.11 11.796 14.188 11.736 14.26C11.724 14.284 11.7 14.314 11.664 14.35C11.628 14.386 11.61 14.404 11.61 14.404C11.586 14.212 11.574 14.02 11.574 13.828C11.574 13.648 11.562 13.468 11.538 13.288C11.526 13.276 11.514 13.27 11.502 13.27C11.49 13.282 11.478 13.288 11.466 13.288C11.478 13.288 11.454 13.306 11.394 13.342C11.334 13.39 11.292 13.42 11.268 13.432C11.256 13.444 11.244 13.462 11.232 13.486C11.22 13.522 11.202 13.54 11.178 13.54C11.166 13.552 11.154 13.546 11.142 13.522C11.13 13.498 11.118 13.48 11.106 13.468C11.07 13.408 11.028 13.354 10.98 13.306C10.944 13.258 10.914 13.21 10.89 13.162C10.866 13.246 10.854 13.336 10.854 13.432C10.866 13.528 10.854 13.624 10.818 13.72C10.806 13.744 10.794 13.732 10.782 13.684C10.77 13.636 10.758 13.6 10.746 13.576L10.71 13.216C10.698 13.228 10.686 13.24 10.674 13.252C10.674 13.264 10.668 13.282 10.656 13.306C10.632 13.342 10.596 13.384 10.548 13.432C10.56 13.432 10.548 13.438 10.512 13.45C10.476 13.462 10.458 13.468 10.458 13.468C10.446 13.588 10.434 13.708 10.422 13.828C10.422 13.96 10.41 14.092 10.386 14.224C10.386 14.26 10.38 14.302 10.368 14.35C10.356 14.41 10.338 14.434 10.314 14.422C10.278 14.386 10.26 14.338 10.26 14.278C10.26 14.218 10.254 14.164 10.242 14.116C10.23 14.044 10.218 13.972 10.206 13.9C10.206 13.828 10.194 13.756 10.17 13.684C10.17 13.612 10.152 13.558 10.116 13.522C10.092 13.534 10.062 13.558 10.026 13.594C10.002 13.63 9.978 13.666 9.954 13.702C9.93 13.75 9.9 13.792 9.864 13.828C9.84 13.876 9.804 13.918 9.756 13.954C9.744 13.966 9.726 13.972 9.702 13.972C9.702 13.984 9.696 13.99 9.684 13.99C9.672 14.182 9.66 14.374 9.648 14.566C9.648 14.758 9.636 14.956 9.612 15.16C9.6 15.256 9.6 15.364 9.612 15.484C9.636 15.604 9.606 15.694 9.522 15.754C9.474 15.802 9.45 15.754 9.45 15.61C9.462 15.478 9.462 15.376 9.45 15.304C9.438 15.064 9.432 14.83 9.432 14.602C9.432 14.374 9.42 14.146 9.396 13.918C9.384 13.906 9.366 13.888 9.342 13.864C9.33 13.84 9.312 13.822 9.288 13.81C9.264 13.774 9.228 13.732 9.18 13.684C9.144 13.648 9.108 13.606 9.072 13.558C9.036 13.522 8.994 13.486 8.946 13.45C8.91 13.402 8.862 13.372 8.802 13.36C8.838 13.372 8.838 13.372 8.802 13.36C8.766 13.348 8.724 13.33 8.676 13.306H8.622C8.598 13.462 8.586 13.624 8.586 13.792C8.586 13.96 8.574 14.128 8.55 14.296C8.538 14.332 8.526 14.32 8.514 14.26C8.502 14.2 8.484 14.158 8.46 14.134C8.448 14.038 8.43 13.978 8.406 13.954C8.394 13.942 8.376 13.924 8.352 13.9C8.34 13.912 8.322 13.906 8.298 13.882C8.202 13.798 8.166 13.684 8.19 13.54C8.226 13.396 8.238 13.264 8.226 13.144C8.226 13.192 8.22 13.234 8.208 13.27C8.208 13.318 8.196 13.354 8.172 13.378C8.16 13.39 8.148 13.366 8.136 13.306C8.136 13.258 8.13 13.216 8.118 13.18C8.094 13.132 8.082 13.09 8.082 13.054C8.07 13.102 8.058 13.12 8.046 13.108C7.998 13.024 7.986 12.988 8.01 13C8.034 13.012 8.052 13.012 8.064 13C8.076 12.988 8.034 12.904 7.938 12.748L7.884 12.694C7.872 12.67 7.854 12.646 7.83 12.622C7.806 12.586 7.782 12.55 7.758 12.514C7.758 12.49 7.746 12.466 7.722 12.442C7.698 12.394 7.674 12.346 7.65 12.298C7.638 12.25 7.62 12.202 7.596 12.154C7.56 12.058 7.518 11.968 7.47 11.884C7.434 11.788 7.398 11.698 7.362 11.614C7.302 11.494 7.242 11.368 7.182 11.236C7.122 11.092 7.062 10.948 7.002 10.804C6.978 10.732 6.954 10.684 6.93 10.66C6.882 10.516 6.822 10.378 6.75 10.246C6.738 10.222 6.726 10.198 6.714 10.174C6.702 10.138 6.69 10.108 6.678 10.084L6.552 9.814C6.552 9.79 6.546 9.772 6.534 9.76C6.534 9.76 6.528 9.76 6.516 9.76C6.516 9.748 6.516 9.736 6.516 9.724C6.504 9.7 6.492 9.67 6.48 9.634C6.468 9.598 6.45 9.568 6.426 9.544C6.414 9.508 6.402 9.472 6.39 9.436C6.378 9.4 6.36 9.364 6.336 9.328L6.282 9.202L6.156 9.076C6.156 9.1 6.144 9.124 6.12 9.148C6.096 9.196 6.084 9.232 6.084 9.256L6.03 9.4C6.006 9.448 5.982 9.484 5.958 9.508C5.922 9.556 5.874 9.58 5.814 9.58C5.754 9.556 5.706 9.502 5.67 9.418C5.634 9.334 5.604 9.268 5.58 9.22C5.568 9.22 5.562 9.22 5.562 9.22C5.562 9.208 5.562 9.202 5.562 9.202C5.514 9.07 5.49 9.034 5.49 9.094C5.502 9.154 5.502 9.196 5.49 9.22V11.866C5.49 11.986 5.496 12.118 5.508 12.262C5.52 12.406 5.508 12.544 5.472 12.676C5.424 12.772 5.4 12.814 5.4 12.802L5.364 12.838C5.352 12.85 5.34 12.862 5.328 12.874C5.328 12.886 5.316 12.898 5.292 12.91C5.268 12.922 5.238 12.946 5.202 12.982C5.178 13.018 5.16 13.042 5.148 13.054C5.124 13.102 5.1 13.132 5.076 13.144C5.04 13.216 5.016 13.246 5.004 13.234C5.004 13.234 4.998 13.234 4.986 13.234C4.986 13.234 4.986 13.228 4.986 13.216C4.962 13.336 4.944 13.456 4.932 13.576C4.92 13.708 4.896 13.84 4.86 13.972C4.848 13.996 4.836 14.026 4.824 14.062C4.824 14.098 4.812 14.128 4.788 14.152C4.776 14.164 4.758 14.164 4.734 14.152C4.722 14.14 4.716 14.128 4.716 14.116C4.704 14.092 4.692 14.062 4.68 14.026C4.668 13.99 4.656 13.96 4.644 13.936C4.632 13.888 4.62 13.84 4.608 13.792C4.596 13.756 4.584 13.714 4.572 13.666C4.56 13.63 4.548 13.588 4.536 13.54C4.536 13.504 4.524 13.468 4.5 13.432L4.392 13.54C4.38 13.552 4.368 13.558 4.356 13.558C4.32 13.594 4.29 13.618 4.266 13.63C4.254 13.894 4.248 14.182 4.248 14.494C4.248 14.818 4.236 15.118 4.212 15.394C4.212 15.466 4.218 15.562 4.23 15.682C4.242 15.814 4.242 15.916 4.23 15.988C4.23 16.072 4.2 16.096 4.14 16.06C4.032 15.988 3.996 15.874 4.032 15.718C4.068 15.562 4.08 15.424 4.068 15.304C4.056 15.028 4.044 14.746 4.032 14.458C4.032 14.182 4.02 13.912 3.996 13.648C3.984 13.636 3.966 13.618 3.942 13.594C3.93 13.582 3.912 13.564 3.888 13.54C3.876 13.504 3.858 13.468 3.834 13.432C3.822 13.408 3.804 13.378 3.78 13.342C3.756 13.294 3.744 13.27 3.744 13.27C3.744 13.27 3.732 13.246 3.708 13.198C3.708 13.198 3.696 13.174 3.672 13.126C3.648 13.174 3.636 13.198 3.636 13.198C3.624 13.21 3.588 13.222 3.528 13.234C3.48 13.246 3.444 13.252 3.42 13.252C3.312 13.264 3.222 13.234 3.15 13.162C3.09 13.102 3.012 13.054 2.916 13.018C2.844 13.03 2.778 13.054 2.718 13.09C2.67 13.138 2.616 13.174 2.556 13.198C2.472 13.222 2.37 13.216 2.25 13.18L2.124 13.126H2.106C2.082 13.138 2.046 13.156 1.998 13.18C1.962 13.204 1.926 13.222 1.89 13.234C1.806 13.258 1.716 13.24 1.62 13.18C1.524 13.12 1.422 13.054 1.314 12.982C1.266 12.958 1.224 12.934 1.188 12.91C1.056 12.814 0.99 12.682 0.99 12.514V1.174C0.99 1.078 0.99 0.982 0.99 0.885999C0.99 0.777999 1.02 0.681999 1.08 0.598C1.128 0.525999 1.194 0.471999 1.278 0.436C1.35 0.411999 1.41 0.399999 1.458 0.399999C1.518 0.387999 1.578 0.387999 1.638 0.399999C1.71 0.399999 1.776 0.399999 1.836 0.399999H6.264C6.504 0.399999 6.744 0.399999 6.984 0.399999C7.224 0.387999 7.458 0.399999 7.686 0.436C8.298 0.484 8.856 0.598 9.36 0.778C9.876 0.946 10.32 1.168 10.692 1.444C10.764 1.48 10.83 1.528 10.89 1.588C10.89 1.588 10.89 1.594 10.89 1.606C10.902 1.606 10.908 1.612 10.908 1.624C10.92 1.624 10.932 1.63 10.944 1.642C11.388 2.014 11.724 2.464 11.952 2.992C12.192 3.52 12.312 4.114 12.312 4.774C12.312 5.17 12.264 5.548 12.168 5.908C12.144 6.136 12.096 6.286 12.024 6.358C12 6.406 11.988 6.436 11.988 6.448C11.928 6.592 11.856 6.73 11.772 6.862C11.7 6.994 11.616 7.126 11.52 7.258C11.508 7.27 11.496 7.288 11.484 7.312C11.472 7.324 11.46 7.336 11.448 7.348C11.436 7.36 11.424 7.372 11.412 7.384C11.4 7.396 11.388 7.414 11.376 7.438L11.232 7.6C11.22 7.612 11.202 7.624 11.178 7.636C11.166 7.648 11.154 7.666 11.142 7.69C11.106 7.714 11.07 7.744 11.034 7.78C11.01 7.816 10.98 7.846 10.944 7.87C10.932 8.038 10.956 8.29 11.016 8.626C11.076 8.962 11.112 9.292 11.124 9.616C11.148 9.652 11.172 9.688 11.196 9.724C11.22 9.76 11.238 9.802 11.25 9.85C11.37 10.054 11.49 10.306 11.61 10.606L12.042 11.398C12.102 11.518 12.162 11.632 12.222 11.74C12.294 11.848 12.36 11.956 12.42 12.064C12.444 12.112 12.468 12.154 12.492 12.19C12.516 12.226 12.534 12.268 12.546 12.316C12.558 12.328 12.57 12.352 12.582 12.388C12.594 12.412 12.6 12.436 12.6 12.46C12.624 12.508 12.636 12.556 12.636 12.604ZM5.634 5.656H6.804C6.864 5.656 6.942 5.644 7.038 5.62C7.158 5.584 7.254 5.512 7.326 5.404C7.41 5.296 7.476 5.17 7.524 5.026C7.548 4.966 7.566 4.906 7.578 4.846C7.59 4.774 7.596 4.702 7.596 4.63C7.596 4.498 7.572 4.366 7.524 4.234C7.476 4.102 7.398 3.994 7.29 3.91C7.242 3.862 7.176 3.838 7.092 3.838C7.008 3.826 6.93 3.826 6.858 3.838C6.726 3.85 6.588 3.868 6.444 3.892C6.312 3.904 6.174 3.898 6.03 3.874C5.958 3.862 5.886 3.85 5.814 3.838C5.754 3.814 5.694 3.796 5.634 3.784C5.61 3.772 5.592 3.766 5.58 3.766C5.58 3.754 5.55 3.748 5.49 3.748V5.278C5.49 5.494 5.502 5.596 5.526 5.584C5.55 5.572 5.586 5.596 5.634 5.656ZM10.728 8.968C10.788 8.512 10.818 8.182 10.818 7.978C10.818 7.978 10.806 7.99 10.782 8.014C10.782 8.026 10.776 8.038 10.764 8.05C10.764 8.05 10.764 8.056 10.764 8.068C10.764 8.08 10.764 8.104 10.764 8.14C10.764 8.176 10.752 8.23 10.728 8.302C10.704 8.35 10.68 8.38 10.656 8.392C10.62 8.404 10.596 8.38 10.584 8.32C10.572 8.26 10.542 8.242 10.494 8.266C10.494 8.302 10.47 8.326 10.422 8.338C10.41 8.35 10.398 8.35 10.386 8.338C10.386 8.314 10.38 8.302 10.368 8.302L10.422 8.41C10.446 8.422 10.464 8.446 10.476 8.482C10.488 8.506 10.5 8.53 10.512 8.554L10.728 8.968ZM8.352 13.468C8.376 13.444 8.394 13.414 8.406 13.378C8.43 13.342 8.418 13.288 8.37 13.216C8.37 13.216 8.364 13.216 8.352 13.216C8.352 13.216 8.352 13.222 8.352 13.234C8.34 13.258 8.334 13.288 8.334 13.324C8.346 13.372 8.352 13.42 8.352 13.468ZM24.0242 12.19C24.0242 12.226 24.0242 12.262 24.0242 12.298C24.0362 12.334 24.0422 12.37 24.0422 12.406C24.0422 12.454 24.0362 12.502 24.0242 12.55C24.0242 12.586 24.0182 12.628 24.0062 12.676L23.9522 12.766C23.9522 12.778 23.9402 12.796 23.9162 12.82C23.9042 12.832 23.8982 12.838 23.8982 12.838C23.8502 12.886 23.8082 12.922 23.7722 12.946C23.7602 12.958 23.7482 12.964 23.7362 12.964C23.7362 12.964 23.7302 12.97 23.7182 12.982C23.6822 13.018 23.6462 13.054 23.6102 13.09C23.5862 13.126 23.5502 13.156 23.5022 13.18C23.4782 13.204 23.4542 13.222 23.4302 13.234C23.4182 13.258 23.3822 13.282 23.3222 13.306C23.2742 13.318 23.2202 13.336 23.1602 13.36C23.1122 13.384 23.0642 13.39 23.0162 13.378C22.9682 13.354 22.9382 13.33 22.9262 13.306C22.9142 13.282 22.8962 13.252 22.8722 13.216L22.8002 13.144C22.7522 13.168 22.7462 13.216 22.7822 13.288C22.8182 13.36 22.8062 13.51 22.7462 13.738L22.6022 13.936C22.5902 13.948 22.5722 13.972 22.5482 14.008C22.5362 14.044 22.5302 14.05 22.5302 14.026C22.5062 13.906 22.4942 13.78 22.4942 13.648C22.5062 13.516 22.5002 13.39 22.4762 13.27C22.4642 13.27 22.4582 13.27 22.4582 13.27C22.4582 13.282 22.4582 13.288 22.4582 13.288C22.4342 13.324 22.4042 13.36 22.3682 13.396C22.3322 13.432 22.3022 13.462 22.2782 13.486L22.1882 13.576C22.1762 13.576 22.1702 13.576 22.1702 13.576C22.1702 13.588 22.1642 13.594 22.1522 13.594C22.1042 13.654 22.0442 13.714 21.9722 13.774C21.9122 13.834 21.8522 13.894 21.7922 13.954C21.7682 13.978 21.7322 14.002 21.6842 14.026C21.6602 14.29 21.6422 14.584 21.6302 14.908C21.6302 15.232 21.6182 15.532 21.5942 15.808C21.5942 15.82 21.5822 15.808 21.5582 15.772C21.5342 15.748 21.5222 15.73 21.5222 15.718C21.4982 15.442 21.4862 15.148 21.4862 14.836C21.4862 14.536 21.4742 14.254 21.4502 13.99C21.3902 13.93 21.3422 13.864 21.3062 13.792C21.2822 13.744 21.2582 13.696 21.2342 13.648C21.2222 13.612 21.2042 13.57 21.1802 13.522L21.1262 13.414H21.0902C21.0782 13.426 21.0602 13.426 21.0362 13.414C21.0242 13.402 21.0182 13.408 21.0182 13.432C20.9942 13.696 20.9822 13.984 20.9822 14.296C20.9822 14.608 20.9702 14.902 20.9462 15.178L20.8022 15.214C20.7902 15.214 20.7782 15.214 20.7662 15.214C20.7542 15.226 20.7422 15.232 20.7302 15.232C20.6822 15.232 20.6582 15.238 20.6582 15.25C20.6342 14.974 20.6222 14.668 20.6222 14.332C20.6222 14.008 20.6102 13.714 20.5862 13.45C20.5862 13.45 20.5382 13.45 20.4422 13.45L20.3882 13.504C20.3882 13.504 20.3822 13.504 20.3702 13.504C20.3702 13.516 20.3642 13.522 20.3522 13.522L20.2262 13.648C20.2022 13.672 20.1782 13.72 20.1542 13.792C20.1422 13.816 20.1242 13.84 20.1002 13.864C20.0882 13.9 20.0822 13.93 20.0822 13.954C20.0702 14.194 20.0582 14.434 20.0462 14.674C20.0462 14.926 20.0342 15.172 20.0102 15.412C20.0102 15.532 19.9862 15.634 19.9382 15.718C19.9262 15.73 19.9082 15.724 19.8842 15.7C19.8602 15.688 19.8482 15.676 19.8482 15.664C19.8242 15.388 19.8122 15.112 19.8122 14.836C19.8242 14.572 19.8122 14.308 19.7762 14.044C19.7762 13.984 19.7702 14.008 19.7582 14.116C19.7582 14.236 19.7522 14.35 19.7402 14.458C19.7402 14.566 19.7282 14.596 19.7042 14.548C19.6562 14.404 19.6382 14.254 19.6502 14.098C19.6742 13.954 19.6742 13.81 19.6502 13.666C19.6382 13.654 19.6262 13.642 19.6142 13.63C19.6022 13.618 19.5902 13.606 19.5782 13.594C19.5542 13.57 19.5302 13.54 19.5062 13.504C19.4822 13.48 19.4582 13.456 19.4342 13.432C19.4102 13.396 19.3862 13.36 19.3622 13.324C19.3382 13.3 19.3142 13.276 19.2902 13.252L19.2002 13.144C19.1882 13.204 19.1822 13.264 19.1822 13.324C19.1822 13.396 19.1702 13.462 19.1462 13.522C19.1462 13.534 19.1342 13.54 19.1102 13.54C19.0982 13.552 19.0862 13.564 19.0742 13.576C19.0622 13.588 19.0502 13.594 19.0382 13.594C19.0262 13.606 19.0142 13.624 19.0022 13.648C18.9542 13.696 18.9302 13.714 18.9302 13.702C18.9062 13.618 18.8942 13.534 18.8942 13.45C18.9062 13.378 18.9002 13.306 18.8762 13.234C18.8402 13.282 18.8042 13.324 18.7682 13.36C18.7322 13.408 18.6902 13.45 18.6422 13.486C18.5702 13.558 18.5162 13.6 18.4802 13.612C18.4682 13.672 18.4562 13.732 18.4442 13.792C18.4442 13.864 18.4382 13.93 18.4262 13.99C18.4142 14.026 18.4022 14.062 18.3902 14.098C18.3902 14.146 18.3782 14.188 18.3542 14.224C18.3062 14.272 18.2762 14.278 18.2642 14.242C18.2282 14.182 18.1982 14.062 18.1742 13.882C18.1622 13.714 18.1502 13.618 18.1382 13.594C18.1262 13.594 18.1082 13.588 18.0842 13.576C18.0722 13.564 18.0722 13.558 18.0842 13.558L18.0482 13.522C18.0002 13.474 17.9582 13.414 17.9222 13.342C17.8982 13.282 17.8742 13.228 17.8502 13.18C17.8502 13.168 17.8442 13.162 17.8322 13.162C17.8322 13.162 17.8322 13.156 17.8322 13.144C17.8202 13.204 17.8142 13.264 17.8142 13.324C17.8142 13.384 17.8022 13.444 17.7782 13.504C17.7662 13.516 17.7542 13.522 17.7422 13.522C17.7302 13.534 17.7182 13.552 17.7062 13.576C17.6942 13.588 17.6822 13.612 17.6702 13.648C17.6582 13.684 17.6462 13.696 17.6342 13.684C17.6222 13.612 17.6102 13.54 17.5982 13.468C17.5982 13.396 17.5922 13.33 17.5802 13.27C17.5562 13.318 17.5322 13.36 17.5082 13.396C17.4842 13.444 17.4542 13.492 17.4182 13.54C17.2862 13.732 17.1602 13.924 17.0402 14.116C16.9202 14.308 16.8062 14.506 16.6982 14.71C16.7102 14.686 16.6982 14.71 16.6622 14.782C16.6262 14.854 16.5842 14.92 16.5362 14.98L16.5182 14.998C16.4942 15.022 16.4582 15.046 16.4102 15.07C16.3982 15.106 16.3862 15.142 16.3742 15.178C16.3742 15.226 16.3622 15.274 16.3382 15.322C16.3262 15.346 16.3142 15.376 16.3022 15.412C16.3022 15.448 16.2902 15.478 16.2662 15.502C16.2422 15.538 16.2182 15.544 16.1942 15.52C16.1582 15.472 16.1282 15.376 16.1042 15.232C16.0922 15.088 16.0802 15.01 16.0682 14.998L15.9602 14.89C15.9602 14.866 15.9482 14.854 15.9242 14.854C15.9122 14.806 15.8942 14.77 15.8702 14.746C15.8462 14.722 15.8342 14.71 15.8342 14.71C15.7862 14.638 15.7382 14.56 15.6902 14.476C15.6422 14.404 15.5942 14.332 15.5462 14.26C15.4742 14.152 15.3962 14.044 15.3122 13.936C15.2402 13.828 15.1622 13.72 15.0782 13.612C15.0302 13.552 14.9822 13.492 14.9342 13.432C14.8982 13.384 14.8502 13.336 14.7902 13.288C14.7542 13.252 14.7122 13.216 14.6642 13.18C14.6282 13.144 14.6102 13.126 14.6102 13.126C14.6102 13.126 14.5982 13.114 14.5742 13.09C14.5622 13.078 14.5442 13.066 14.5202 13.054C14.5082 13.234 14.5022 13.504 14.5022 13.864C14.5022 14.224 14.4962 14.584 14.4842 14.944C14.4842 15.304 14.4782 15.574 14.4662 15.754C14.4662 15.766 14.4602 15.754 14.4482 15.718C14.4362 15.682 14.4302 15.658 14.4302 15.646C14.3942 15.142 14.3822 14.698 14.3942 14.314C14.4182 13.93 14.3882 13.486 14.3042 12.982C14.2322 12.946 14.1782 12.91 14.1422 12.874C14.0582 12.802 14.0042 12.7 13.9802 12.568C13.9562 12.436 13.9502 12.304 13.9622 12.172C13.9742 12.028 13.9802 11.896 13.9802 11.776V1.246C13.9802 1.186 13.9742 1.126 13.9622 1.066C13.9622 0.993999 13.9682 0.927999 13.9802 0.868C13.9802 0.819999 13.9922 0.76 14.0162 0.688C14.0402 0.64 14.0582 0.61 14.0702 0.598C14.0942 0.562 14.1182 0.532 14.1422 0.508C14.1782 0.483999 14.2082 0.465999 14.2322 0.454C14.2562 0.442 14.2802 0.436 14.3042 0.436C14.3282 0.423999 14.3522 0.417999 14.3762 0.417999C14.4242 0.393999 14.4722 0.381999 14.5202 0.381999C14.5682 0.381999 14.6162 0.381999 14.6642 0.381999C14.7362 0.381999 14.8142 0.387999 14.8982 0.399999C14.9822 0.399999 15.0542 0.399999 15.1142 0.399999H17.8502C17.9102 0.399999 17.9702 0.399999 18.0302 0.399999C18.1022 0.387999 18.1682 0.393999 18.2282 0.417999C18.2882 0.429999 18.3302 0.454 18.3542 0.489999C18.3782 0.513999 18.3962 0.532 18.4082 0.543999C18.4802 0.592 18.5222 0.657999 18.5342 0.741999C18.5462 0.814 18.5522 0.886 18.5522 0.957999C18.5642 1.21 18.5642 1.462 18.5522 1.714C18.5522 1.966 18.5522 2.218 18.5522 2.47V9.166L18.6242 9.31H23.5382C23.6342 9.31 23.7302 9.34 23.8262 9.4L23.9342 9.508L23.9882 9.616C24.0122 9.664 24.0242 9.712 24.0242 9.76C24.0362 9.844 24.0362 9.934 24.0242 10.03C24.0242 10.126 24.0242 10.216 24.0242 10.3V12.19Z" fill="#000000"/>
</svg>
