<svg width="24" height="21" viewBox="0 0 24 21" fill="none" xmlns="http://www.w3.org/2000/svg">
<path d="M21.8115 0.496593C21.5176 0.510265 21.2407 0.595714 20.9946 0.691417H20.9912C20.7417 0.790538 19.5557 1.28956 17.7544 2.04493C15.9531 2.80372 13.6152 3.7881 11.2944 4.76564C6.65967 6.7173 2.10351 8.63819 2.10351 8.63819L2.1582 8.61769C2.1582 8.61769 1.84375 8.72023 1.51562 8.94581C1.34814 9.05519 1.16357 9.20558 1.00293 9.44142C0.842284 9.67726 0.712401 10.0396 0.760253 10.4121C0.838867 11.0444 1.24902 11.4238 1.54297 11.6323C1.84033 11.8442 2.12402 11.9434 2.12402 11.9434H2.13086L6.40332 13.3823C6.59473 13.9976 7.70557 17.648 7.97217 18.4888C8.12939 18.9912 8.2832 19.3057 8.47461 19.5449C8.56689 19.668 8.67627 19.7705 8.80615 19.8526C8.85742 19.8833 8.91211 19.9072 8.96679 19.9277C8.98388 19.938 9.00098 19.9414 9.02148 19.9448L8.97705 19.9346C8.99072 19.938 9.00098 19.9483 9.01123 19.9517C9.04541 19.9619 9.06933 19.9653 9.11377 19.9722C9.79053 20.1773 10.334 19.7568 10.334 19.7568L10.3647 19.7329L12.8872 17.436L17.1152 20.6797L17.2109 20.7207C18.0928 21.1069 18.9849 20.8916 19.4565 20.5122C19.9316 20.1294 20.1162 19.6406 20.1162 19.6406L20.147 19.562L23.4145 2.82423C23.5068 2.41066 23.5308 2.02443 23.4282 1.64845C23.3257 1.27247 23.0625 0.920421 22.7446 0.732433C22.4233 0.541026 22.1055 0.482921 21.8115 0.496593ZM21.7227 2.29103C21.7192 2.34571 21.7295 2.33888 21.7056 2.44483V2.45509L18.4687 19.0186C18.4551 19.0425 18.4312 19.0938 18.3662 19.145C18.2978 19.1997 18.2432 19.2339 17.9595 19.1211L12.7881 15.1563L9.66406 18.0034L10.3203 13.813C10.3203 13.813 18.4209 6.26271 18.7695 5.938C19.1182 5.61329 19.002 5.54493 19.002 5.54493C19.0259 5.14845 18.4756 5.42872 18.4756 5.42872L7.82178 12.0288L7.81836 12.0117L2.71191 10.2925V10.2891C2.70849 10.2891 2.70166 10.2857 2.69824 10.2857C2.70166 10.2857 2.72559 10.2754 2.72559 10.2754L2.75293 10.2617L2.78027 10.2515C2.78027 10.2515 7.33984 8.33058 11.9746 6.37892C14.2954 5.40138 16.6333 4.417 18.4312 3.65821C20.229 2.90284 21.5586 2.34913 21.6338 2.31837C21.7056 2.29103 21.6714 2.29103 21.7227 2.29103Z" fill="white"/>
</svg>
